<?xml version="1.0" encoding="utf-8"?>
<!-- Generator: Adobe Illustrator 22.0.0, SVG Export Plug-In . SVG Version: 6.00 Build 0)  -->
<svg version="1.1" id="图层_1" xmlns="http://www.w3.org/2000/svg" xmlns:xlink="http://www.w3.org/1999/xlink" x="0px" y="0px"
	 viewBox="0 0 572 83" style="enable-background:new 0 0 572 83;" xml:space="preserve">
<style type="text/css">
	.st0{fill:none;stroke:#A7A7A7;stroke-width:3;}
	.st1{fill:#A7A7A7;}
</style>
<title>Group</title>
<desc>Created with Sketch.</desc>
<g id="Page-1">
	<g id="首页--copy-13" transform="translate(-89.000000, -1438.000000)">
		<g id="Group-3" transform="translate(0.000000, 874.913043)">
			<g id="Group-7-Copy" transform="translate(0.000000, 75.000000)">
				<g id="Group-2" transform="translate(91.000000, 490.000000)">
					<g id="Group">
						<polyline id="Path-25" class="st0" points="17.3,13.9 10.8,13.9 10.8,21.5 22.9,21.5 22.9,7 0,7 0,72.1 23,72.1 23,58.1 
							10.8,58.1 10.8,64.6 17,64.6 						"/>
						<polyline id="Path-25-Copy" class="st0" points="550.7,65.2 557.1,65.2 557.1,57.6 545,57.6 545,72.1 568,72.1 568,7 545,7 
							545,21 557.2,21 557.2,14.5 550.9,14.5 						"/>
						<polyline id="Path-26" class="st0" points="11,7.1 11,0 556.7,0 556.7,7 						"/>
						<polyline id="Path-26-Copy" class="st0" points="556.7,72 556.7,79.1 11,79.1 11,72.1 						"/>
						<path id="Combined-Shape" class="st1" d="M540,26V6H28v20H9v28h19v20h512V54h18V26H540z"/>
					</g>
				</g>
			</g>
		</g>
	</g>
</g>
</svg>
