<?xml version="1.0" encoding="utf-8"?>
<!-- Generator: Adobe Illustrator 21.1.0, SVG Export Plug-In . SVG Version: 6.00 Build 0)  -->
<svg version="1.1" id="图层_1" xmlns="http://www.w3.org/2000/svg" xmlns:xlink="http://www.w3.org/1999/xlink" x="0px" y="0px"
	 viewBox="0 0 820 820" style="enable-background:new 0 0 820 820;" xml:space="preserve">
<style type="text/css">
	.st0{fill:#FFFFFF;}
	.st1{fill:#08BB07;}
	.st2{fill:#D6052D;}
	.st3{font-family:'MicrosoftYaHei';}
	.st4{font-size:175.3429px;}
</style>
<g>
	<polygon id="path-1" class="st0" points="92,122 92,760 730,760 730,122 	"/>
</g>
<g>
	<title>微信-2</title>
	<desc>Created with Sketch.</desc>
	<g id="Page-1">
		<g id="微信-2">
			<g id="Clip-2">
			</g>
			<path id="Fill-1" class="st1" d="M567.7,670.9c-5,2.5-48.8-25.9-48.8-25.9c-20.4,7.7-42.1,11.7-63.9,11.6
				c-86.2,0-156-59.4-156-132.6s69.9-132.5,156-132.5c86.2,0,156,59.3,156,132.5c0,40.9-21.8,77.4-56,101.8
				C555,625.8,572.7,668.4,567.7,670.9L567.7,670.9z M219.5,548.5c0,0-57.5,38-63,35.9s14-60.5,14-60.5
				c-40.7-28.7-66.7-72.5-66.7-121.6c0-86.5,80.9-156.6,180.7-156.6c90.9,0,166.1,58.2,178.8,133.9c-5.3-0.5-10.6-0.7-15.9-0.7
				c-88.3,0-159.8,65.3-159.8,145.9c0,11.8,1.5,23.2,4.4,34.1C267.5,559.7,242.9,556.2,219.5,548.5L219.5,548.5z M136.7,137.2
				c-26.1,0-51.1,10.3-69.5,28.8c-18.5,18.4-28.8,43.4-28.8,69.5v441.4c0,26.1,10.3,51.1,28.8,69.5c18.4,18.4,43.5,28.8,69.5,28.8
				h441.4c26.1,0,51.1-10.3,69.5-28.8c18.4-18.4,28.8-43.5,28.8-69.5V235.5c0-26.1-10.3-51.1-28.8-69.5
				c-18.4-18.4-43.5-28.8-69.5-28.8H136.7z M510.2,494.2c7.6,0.3,14.8-3.7,18.7-10.2c3.9-6.6,3.9-14.8,0-21.3
				c-3.9-6.6-11.1-10.5-18.7-10.2c-11.6,0-20.9,9.4-20.9,20.9C489.3,484.9,498.7,494.3,510.2,494.2L510.2,494.2z M397.3,494.2
				c7.6,0.3,14.8-3.7,18.7-10.2c3.9-6.6,3.9-14.8,0-21.3c-3.9-6.6-11.1-10.5-18.7-10.2c-11.6,0-20.9,9.4-20.9,20.9
				C376.4,484.9,385.8,494.3,397.3,494.2L397.3,494.2z M355.5,375c13,0,23.5-10.5,23.5-23.5S368.5,328,355.5,328
				S332,338.5,332,351.5S342.5,375,355.5,375z M214.7,375c13,0,23.5-10.5,23.5-23.5S227.7,328,214.7,328s-23.5,10.5-23.5,23.5
				C191.3,364.5,201.8,375,214.7,375z"/>
		</g>
	</g>
	<g>
		<circle class="st2" cx="626.4" cy="187.3" r="181.5"/>
		<text transform="matrix(1.361 0 0 1 556.4957 239.9659)" class="st0 st3 st4">1</text>
	</g>
</g>
</svg>
