<?xml version="1.0" encoding="utf-8"?>
<!-- Generator: Adobe Illustrator 22.0.0, SVG Export Plug-In . SVG Version: 6.00 Build 0)  -->
<svg version="1.1" id="图层_1" xmlns="http://www.w3.org/2000/svg" xmlns:xlink="http://www.w3.org/1999/xlink" x="0px" y="0px"
	 viewBox="0 0 80 91" style="enable-background:new 0 0 80 91;" xml:space="preserve">
<style type="text/css">
	.st0{fill:#DE3648;}
	.st1{fill:#2B2B2B;}
	.st2{font-family:'ArialMT';}
	.st3{font-size:36px;}
</style>
<title>Group 9</title>
<desc>Created with Sketch.</desc>
<g id="Page-1">
	<path id="Fill-1" class="st0" d="M17,78.7c0,0.2-0.1,0.1-0.1,0.2c0.2,0,0.3,0,0.3-0.2H17z M17.8,79.5
		C17.8,79.5,17.8,79.5,17.8,79.5c0-0.1,0-0.1-0.1-0.2C17.7,79.4,17.7,79.5,17.8,79.5L17.8,79.5z M18.7,81.7c0.2,0.1,0.2-0.2,0.2-0.3
		c-0.1,0-0.1-0.1-0.2-0.1C18.8,81.6,18.7,81.6,18.7,81.7L18.7,81.7z M16.9,78.4h-0.2c0,0.1,0,0.1-0.1,0.2h0.2V78.4z M10.6,66.9
		C10.6,66.9,10.7,66.9,10.6,66.9C10.7,66.9,10.7,66.8,10.6,66.9C10.7,66.8,10.6,66.8,10.6,66.9L10.6,66.9z M19,80.9
		c0.2,0.1-0.1,0.3,0.1,0.3C19.2,81.1,19.1,80.8,19,80.9L19,80.9z M43.1,90c0.1,0,0.2,0,0.2-0.1C43.2,89.9,43.2,89.9,43.1,90
		C43.1,89.9,43.1,90,43.1,90L43.1,90z M16.1,77.5c0.1,0.1,0.1,0.1,0.2,0.1c-0.1-0.1-0.2-0.2-0.3-0.3c0,0.2-0.1,0.3-0.3,0.3
		c0,0.2,0.2,0.2,0.3,0.3C16.1,77.7,15.9,77.6,16.1,77.5L16.1,77.5z M15.1,76.2c0,0,0.1-0.1,0.1-0.1c0,0-0.1-0.1-0.1-0.1
		C15,76,15,76.1,15.1,76.2L15.1,76.2z M16.7,79.5c0.2,0.1,0.2-0.1,0.2-0.2c-0.1,0-0.1-0.1-0.2-0.1C16.7,79.4,16.7,79.4,16.7,79.5
		L16.7,79.5z M16.7,78.1C16.7,78.1,16.6,78,16.7,78.1C16.6,78,16.6,78.1,16.7,78.1C16.7,78.1,16.7,78.1,16.7,78.1L16.7,78.1z
		 M16.2,78.4c0,0.1,0,0.2,0.1,0.2c0-0.1,0.2-0.1,0.1-0.3C16.3,78.4,16.3,78.4,16.2,78.4L16.2,78.4z M16.6,80.5
		c0-0.1,0.2-0.1,0.1-0.3C16.5,80.2,16.5,80.5,16.6,80.5L16.6,80.5z M52.2,87.9C52.1,88,52,88,51.9,88v0c0.2,0,0.2,0.1,0.4,0.1
		C52.2,88,52.3,88,52.2,87.9L52.2,87.9z M52.6,89.5c-0.2,0.1-0.2,0-0.4,0c0,0.3-0.4,0.3-0.4,0.4c0.2,0.3,0.3-0.3,0.7-0.1
		C52.5,89.7,52.7,89.7,52.6,89.5L52.6,89.5z M51.3,88.3c0.1,0.1,0.4,0.1,0.4-0.2C51.6,88.1,51.5,88.2,51.3,88.3
		C51.4,88.2,51.4,88.3,51.3,88.3L51.3,88.3z M52.7,87.7c0,0.2-0.2,0.2-0.2,0.4c0.3,0,0.2-0.3,0.4-0.3C52.8,87.9,52.8,87.7,52.7,87.7
		L52.7,87.7z M52.4,88.4c0,0.2,0,0.4,0.1,0.4c0-0.2,0.4-0.4,0.3-0.6C52.7,88.4,52.4,88.3,52.4,88.4L52.4,88.4z M53.5,88.3
		c0-0.2-0.2-0.1-0.2-0.3c0.1,0,0.1-0.2,0.2-0.2c-0.1,0.1-0.2,0.3,0.1,0.3c0.1-0.1,0.1-0.4,0.3-0.4c0.3,0,0.4,0.3,0.6,0.4
		c0-0.3,0.2-0.4,0.2-0.7c0.1,0.2,0,0.5-0.1,0.6c0.3-0.1,0.5-0.5,0.5-0.7c0,0.1-0.1,0.1-0.2,0c0.3-0.1-0.1-0.4,0.2-0.5
		c-0.1,0-0.1,0-0.2-0.1c-0.2,0.1-0.4,0.2-0.6,0.3c0,0.1,0,0.1,0,0.2c0-0.1-0.1-0.1-0.1-0.1c-0.1,0-0.2,0.1-0.3,0.1
		c0.1,0.1,0.1,0.1,0.3,0.1c0,0-0.1,0.1-0.1,0.2c-0.2-0.1-0.3-0.1-0.4-0.2c-0.1,0-0.1,0.1-0.2,0.1c0,0,0.1,0,0.1,0
		c-0.1,0.3-0.4,0.3-0.4,0.6C53.4,88,53.2,88.2,53.5,88.3L53.5,88.3z M51.2,88.9c0.2,0,0.2-0.2,0.2-0.3c-0.1,0-0.1-0.1-0.2-0.1
		C51.3,88.7,51.2,88.7,51.2,88.9L51.2,88.9z M51.1,89.3c0,0.1-0.1,0.3,0.1,0.3C51.3,89.6,51.2,89.3,51.1,89.3L51.1,89.3z M50.4,89.8
		c0-0.1,0.2,0,0.2-0.2C50.4,89.5,50.2,89.8,50.4,89.8L50.4,89.8z M50.5,89.2c0-0.1,0-0.3-0.1-0.4c0,0.1-0.2,0.1-0.2,0.2
		C50.4,89,50.3,89.2,50.5,89.2L50.5,89.2z M49.9,88.7c0,0,0.1,0.1,0.2,0c0-0.1,0.1-0.1,0.1-0.1c0,0,0,0,0,0
		C50.1,88.6,50,88.7,49.9,88.7L49.9,88.7z M50.6,88.9c0.2,0,0.2-0.3,0.2-0.5c-0.1,0-0.1,0-0.2,0.1C50.6,88.6,50.6,88.7,50.6,88.9
		L50.6,88.9z M53.7,88.3c0.3,0,0.2-0.3,0.4-0.4c-0.1,0-0.2-0.1-0.3-0.2C53.8,87.9,53.6,88.1,53.7,88.3L53.7,88.3z M14.9,78.4
		c0.1,0.1,0.3,0,0.3-0.2C15,78.2,14.9,78.3,14.9,78.4L14.9,78.4z M48.7,89.7c0.1-0.1,0.3-0.1,0.3-0.3C48.8,89.3,48.7,89.6,48.7,89.7
		L48.7,89.7z M51.9,88.9c0.2,0,0.3-0.1,0.3-0.3C52,88.7,52,88.8,51.9,88.9L51.9,88.9z M13,74.6v-0.2c-0.1,0-0.2,0-0.2,0.1
		C12.7,74.6,12.8,74.6,13,74.6L13,74.6z M15.1,76.7c-0.1,0.1-0.2,0.1-0.2,0.3C15.1,77.1,15.2,76.7,15.1,76.7L15.1,76.7z M13,75.3
		c-0.1-0.1-0.2-0.1-0.2-0.3h-0.2c0.1,0.2-0.1,0.3,0.1,0.4C12.7,75.3,13,75.5,13,75.3L13,75.3z M12.7,76.8c0,0.1-0.2,0.1-0.2,0.3
		c0.1,0,0.1,0.1,0.3,0.1C12.9,77,12.9,76.8,12.7,76.8L12.7,76.8z M13.1,75.1c0-0.2-0.3-0.4-0.3-0.2C12.9,74.9,12.9,75.1,13.1,75.1
		L13.1,75.1z M12.5,71.7c0-0.1,0-0.1,0-0.2c0-0.1-0.1-0.1-0.1-0.2c0,0,0,0-0.1,0c0,0,0,0-0.1,0c0,0,0,0,0,0c-0.1,0-0.2,0-0.3-0.2
		c0,0.2-0.1,0.3-0.2,0.4c0,0.1,0.1,0.2,0.2,0.2C12.2,71.7,12.4,71.7,12.5,71.7L12.5,71.7z M12.3,73.6c0.1,0,0.1,0.1,0.2,0.1
		c0-0.1,0.1-0.1,0.1-0.2C12.4,73.4,12.3,73.5,12.3,73.6L12.3,73.6z M11.7,73.1h-0.1c0,0,0,0.1-0.1,0.1v0.1c0,0,0.1,0,0.1,0.1h0.1
		c0,0,0-0.1,0.1-0.1L11.7,73.1C11.8,73.1,11.7,73.1,11.7,73.1L11.7,73.1z M11.4,73.3v0.3c0.1-0.1,0.4,0,0.4-0.2
		C11.7,73.3,11.4,73.4,11.4,73.3L11.4,73.3z M11.9,74c0,0.2,0.3,0.5,0.4,0.4c0,0-0.1,0-0.1-0.1c0.1,0,0.2,0,0.2-0.1
		C12.1,74.3,12.2,73.9,11.9,74L11.9,74z M13,72.4c-0.2,0.1-0.2,0.4-0.2,0.7c-0.2,0-0.1,0.1-0.2,0.2c0-0.1-0.1-0.1-0.2-0.1
		c0,0.4,0.6,0.2,0.4,0.7c0.1,0,0.1,0,0.2,0.1c0.2-0.2-0.4-0.6,0.1-0.7c0,0.1,0,0.2,0.1,0.2c0.1-0.1-0.1-0.2,0.1-0.3
		c-0.1,0-0.2,0-0.3-0.1C13,72.8,12.8,72.7,13,72.4C13,72.4,13,72.4,13,72.4L13,72.4z M12.4,74.9v-0.2c-0.1,0-0.1,0.1-0.2,0.1
		C12.2,74.9,12.3,74.9,12.4,74.9L12.4,74.9z M11.9,74.5c0.1,0.1,0.3,0.2,0.3-0.1C12.1,74.5,11.9,74.4,11.9,74.5L11.9,74.5z
		 M12.2,72.3C12.2,72.3,12.2,72.3,12.2,72.3c-0.1,0-0.2,0.2-0.1,0.3c0,0,0,0.1,0,0.1c0.3-0.2,0.2,0.2,0.3,0.3
		c0.4-0.3-0.2-0.5,0.1-0.9c-0.2-0.1-0.2-0.2-0.5-0.2c-0.1,0.1,0,0.3-0.1,0.4C12,72.3,12.2,72.1,12.2,72.3L12.2,72.3z M14.5,75
		c-0.1,0-0.3,0-0.3,0.1c0.1,0,0.2,0.1,0.4,0.1C14.5,75.1,14.5,75,14.5,75L14.5,75z M14.6,75.7c-0.1,0-0.3,0.2-0.2,0.3
		C14.4,75.9,14.6,76,14.6,75.7L14.6,75.7z M14.7,76.5c-0.2,0-0.5,0.3-0.3,0.4C14.6,76.8,14.7,76.7,14.7,76.5L14.7,76.5z M14.6,78.3
		c0.3-0.1,0.4-0.3,0.5-0.4C14.9,78,14.6,78.1,14.6,78.3L14.6,78.3z M14.6,76.2c-0.1,0-0.1-0.1-0.3-0.1v0.1c0,0,0,0.1,0.1,0.1
		C14.4,76.2,14.6,76.5,14.6,76.2L14.6,76.2z M14.1,77.8c-0.1,0.1,0,0.2,0.1,0.3c0-0.1,0.1-0.1,0.1-0.2
		C14.2,77.9,14.2,77.8,14.1,77.8L14.1,77.8z M13.5,75.7c-0.1,0.2,0.1,0.2,0.1,0.3c0.2,0,0.4-0.1,0.5-0.2
		C13.8,75.9,13.8,75.7,13.5,75.7L13.5,75.7z M13.7,78.3c0,0.1-0.1,0.1-0.1,0.2C13.8,78.6,13.9,78.3,13.7,78.3L13.7,78.3z M13.2,73.4
		c0,0.1,0,0.2,0.1,0.3c0-0.1,0.1-0.1,0.1-0.2C13.3,73.4,13.3,73.4,13.2,73.4L13.2,73.4z M13.5,73.3c-0.1-0.1-0.1-0.2-0.2-0.3
		c-0.1,0-0.1,0.1-0.2,0.1C13.3,73.1,13.3,73.3,13.5,73.3C13.5,73.3,13.5,73.3,13.5,73.3L13.5,73.3z M13.3,76.1
		c-0.2-0.2-0.2,0.3-0.4,0.4c0.1,0.1,0.3-0.2,0.2,0.1c0.2,0,0.3-0.1,0.3-0.3C13.3,76.4,13.2,76.2,13.3,76.1L13.3,76.1z M14,74.2
		C14,74.2,14,74.2,14,74.2c-0.2,0.2,0,0.3,0.1,0.4c0-0.1,0-0.1,0-0.2C14.1,74.4,14.1,74.3,14,74.2L14,74.2z M13.7,77.1
		c-0.1,0.1,0,0.3,0.2,0.2C13.8,77.2,13.8,77.1,13.7,77.1L13.7,77.1z M13.7,74.5c0.2,0.3,0.1,0.7,0.1,1c0.1,0,0.1,0.1,0.2,0.1
		C13.9,75.2,14,74.6,13.7,74.5L13.7,74.5z M71.4,67.4c0,0.1-0.1,0.2-0.1,0.3c0,0,0.1,0,0.1,0c-0.1-0.4,0.3-0.2,0.3-0.5
		C71.5,67.1,71.5,67.3,71.4,67.4L71.4,67.4z M68.2,75.9c-0.2,0.1-0.2,0.3-0.3,0.6c0.3,0,0.4-0.2,0.5-0.4
		C68.4,75.9,68.4,75.9,68.2,75.9L68.2,75.9z M69.2,72.9c0,0.2-0.2,0.2-0.3,0.3c0.2,0,0.1,0.2,0.3,0.1C69.2,73.1,69.5,73,69.2,72.9
		L69.2,72.9z M68.8,77.9c-0.1,0.3,0.3,0.2,0.2,0H68.8z M68.9,74.6c-0.1,0-0.1,0-0.2-0.1c-0.1,0.1-0.4,0.5-0.1,0.5
		C68.6,74.8,68.9,74.8,68.9,74.6L68.9,74.6z M67.7,75.8C67.7,75.8,67.6,75.8,67.7,75.8c-0.1-0.1-0.1-0.1-0.1-0.1
		c0,0.1-0.4,0.1-0.2,0.2c0-0.2,0.2,0.3,0.1,0.3c-0.1-0.1-0.5-0.1-0.5,0.2c0.1,0,0.1,0.1,0.2,0.1c0.1,0,0.1-0.2,0.3-0.2
		c0.1,0.1-0.1,0.2,0,0.2c0.1-0.2,0.1,0.1,0.2,0.1c0-0.2,0.1-0.1,0.1-0.3C67.5,76.4,67.6,75.8,67.7,75.8L67.7,75.8z M68.9,76.2
		c0-0.2-0.1-0.3-0.3-0.3c0,0.2,0.1,0.2,0.1,0.3C68.8,76.2,68.8,76.1,68.9,76.2L68.9,76.2z M68,75.3c-0.2-0.3,0-0.4,0-0.7
		c-0.1,0.1-0.2,0.3-0.3,0.4c0.1,0.2,0.1,0.4-0.1,0.6C67.9,75.6,67.8,75.3,68,75.3L68,75.3z M66,77.8c0.1,0.1,0.1-0.1,0.2,0.1
		c-0.2,0.4-0.1,0.5-0.2,0.8c0.1,0.1,0.2,0.2,0.3,0.2c0.1-0.4,0.1-0.8-0.1-1.2C66.1,77.6,66,77.6,66,77.8L66,77.8z M67.6,78.8h-0.2
		v0.3C67.6,79.1,67.6,78.9,67.6,78.8L67.6,78.8z M66.6,77.7c0,0.1-0.2,0.1-0.2,0.3C66.6,78,66.7,77.7,66.6,77.7L66.6,77.7z
		 M67.6,79.4c-0.2,0.1-0.2,0.2,0,0.3C67.5,79.5,67.7,79.4,67.6,79.4L67.6,79.4z M66.9,79.1c0.1,0,0.3,0,0.3-0.2
		C67.1,78.9,66.9,78.9,66.9,79.1L66.9,79.1z M67.1,77.9c-0.1,0-0.5,0.2-0.5,0.4C66.8,78.2,67,78.1,67.1,77.9L67.1,77.9z M73.3,70.7
		c0,0.1,0,0.3,0.2,0.3C73.5,70.9,73.5,70.7,73.3,70.7L73.3,70.7z M72.1,67.9c0.2,0,0.2-0.1,0.2-0.3C72.1,67.6,72,67.8,72.1,67.9
		L72.1,67.9z M11.4,75.9c0.1,0,0.1,0.1,0.3,0.1C11.6,75.8,11.4,75.7,11.4,75.9L11.4,75.9z M72.2,67.3c0-0.1,0-0.2,0.1-0.3
		c-0.3,0-0.1-0.4-0.3-0.4c-0.1,0.2,0.1,0.3-0.1,0.6C71.9,67.3,72,67.3,72.2,67.3L72.2,67.3z M65.7,79.7c0.1,0,0.2,0.1,0.3,0.2
		c0.1,0,0-0.3,0.1-0.3c0.1,0,0.1,0.2,0.3,0.2v-0.2C66.1,79.4,65.9,79.4,65.7,79.7L65.7,79.7z M73,69.9c-0.1,0.1,0,0.2,0.1,0.3
		C73.1,70.1,73.2,69.8,73,69.9L73,69.9z M72.8,68.7c0,0.1-0.2,0.1-0.2,0.3C72.8,69.1,72.9,68.8,72.8,68.7L72.8,68.7z M70.2,71.1
		c0,0.1-0.1,0.2-0.1,0.3C70.2,71.5,70.4,71.1,70.2,71.1L70.2,71.1z M69.6,73c0.1,0.1,0.1,0.1,0.3,0.1C69.9,72.8,69.6,72.8,69.6,73
		L69.6,73z M69.6,72.5c-0.1,0-0.3-0.1-0.3,0.1C69.5,72.6,69.6,72.8,69.6,72.5L69.6,72.5z M69.4,73.6c0.2,0,0.2-0.1,0.3-0.2
		c-0.1,0-0.2-0.1-0.3-0.1V73.6z M70.7,74.6c0.1,0.1,0.2,0,0.3,0.1C71,74.4,70.7,74.5,70.7,74.6L70.7,74.6z M70.7,70.6
		c0-0.2-0.1-0.2-0.2-0.3h-0.2c0,0.2,0.1,0.3,0.2,0.4C70.6,70.5,70.7,70.8,70.7,70.6L70.7,70.6z M70.5,71.4c0,0.2-0.1,0.2,0.1,0.3
		C70.6,71.6,70.7,71.4,70.5,71.4L70.5,71.4z M70.3,73c0.1,0,0.4-0.2,0.2-0.3C70.5,72.8,70.3,72.8,70.3,73L70.3,73z M62.5,82.2
		c-0.1,0-0.2-0.1-0.2-0.2c0.1,0,0.1-0.2,0.3-0.2c0-0.2-0.2-0.1-0.2-0.3c-0.2,0.1-0.3,0.3-0.5,0.4c0.1,0.1,0.1,0.3,0.1,0.5
		c-0.2,0.1-0.3-0.1-0.4-0.1c0,0.1-0.2,0.5-0.1,0.4c0.1-0.1,0-0.2,0.2-0.2c0.1,0,0.1,0.1,0.1,0.2C62.2,82.8,62.2,82.3,62.5,82.2
		L62.5,82.2z M65.4,80.1c0.4-0.2-0.2-0.6,0.2-0.8c-0.1-0.1,0-0.2-0.2-0.2c-0.2,0.3-0.3-0.1-0.5-0.1c0,0.2,0.3,0,0.3,0.3
		c-0.1,0-0.2-0.1-0.3,0c0,0.4,0.3,0.2,0.5,0.3C65.2,79.8,65.4,79.8,65.4,80.1c-0.1-0.1-0.1,0-0.2,0C65,80,65.3,79.7,65,79.7
		c-0.1,0.2,0.1,0.4-0.2,0.5c0.1-0.2,0-0.1,0-0.3c-0.2-0.1-0.1,0.2-0.2,0.2c-0.1,0-0.1-0.1-0.1-0.2c0-0.2,0.3-0.1,0.3-0.3
		c-0.1,0-0.1-0.1-0.2-0.2c0.2,0,0.1-0.2,0.1-0.3c-0.2,0.2-0.3,0.4-0.5,0.6c0,0.1-0.1,0.3-0.2,0.3c0.1,0,0.1,0.1,0.1,0.2
		c0,0.2-0.3,0.2-0.4,0.4c0.1,0.1,0.4-0.2,0.5,0.1c-0.6-0.1-0.4,0.7-0.7,0.9c0.1,0,0.2,0,0.2,0.2c0.2-0.1,0.4-0.2,0.5,0.1
		c0,0.1-0.2,0.1-0.2,0.3c0.1,0.1,0.4,0,0.4,0.1c-0.3-0.2,0-0.6-0.3-0.7c0.2,0,0.3-0.6,0.5-0.3c-0.2,0-0.3,0.4-0.1,0.3
		c-0.1-0.3,0.1-0.2,0.2-0.3c-0.1-0.1,0-0.4,0.2-0.3c0-0.1,0.1-0.3-0.1-0.3c0,0.1-0.1,0.2-0.2,0.2c0-0.3-0.4-0.3-0.2-0.5
		c0.1,0.2,0.3,0,0.5,0c0,0.1,0.1,0.1,0.1,0.2c0.1,0,0.2,0,0.3,0.1c-0.1-0.4,0.3-0.1,0.3-0.2C65.6,80.2,65.5,80.2,65.4,80.1
		L65.4,80.1z M57.5,87.4c0,0.2,0,0.3,0.2,0.2C57.7,87.5,57.7,87.4,57.5,87.4L57.5,87.4z M55.8,87.5c0,0.2-0.1,0.1-0.1,0.3
		C55.9,87.9,56,87.5,55.8,87.5L55.8,87.5z M55.4,89c0,0.1,0,0.2,0.1,0.2c0-0.1,0.1-0.1,0.1-0.2H55.4z M56.7,88.2
		c0.1,0.2-0.3,0.1-0.2,0.3c0.1,0.1,0.2-0.1,0.3-0.1c0.1,0.1,0.1,0.3,0.3,0.3c0-0.1,0.1-0.1,0.1-0.2C56.8,88.5,56.9,88.2,56.7,88.2
		L56.7,88.2z M56.7,87.7c-0.1-0.1-0.2-0.3-0.2-0.6h0.2c0-0.2-0.1-0.1-0.1-0.3c0.1,0,0.1-0.2,0.2-0.2c0-0.2-0.2-0.1-0.1-0.3
		c0.2,0,0.2-0.2,0.2-0.4c-0.1-0.1-0.2,0-0.2-0.1c-0.3,0.2-0.6,0.3-0.8,0.5c0,0.1,0.1,0.1,0.1,0.3c0.3,0.1,0.2-0.2,0.4-0.2
		c-0.1,0.1,0,0.1,0,0.3c0,0.1-0.3,0.2-0.2,0.3c0.1-0.1,0.2-0.1,0.3-0.1c-0.1,0.3-0.1,0.6,0.1,1C56.6,87.9,56.6,87.8,56.7,87.7
		L56.7,87.7z M55.6,88.7c0,0.2,0.2,0.3,0.3,0.2c0-0.1-0.1-0.1-0.1-0.2C55.7,88.6,55.7,88.7,55.6,88.7L55.6,88.7z M54.5,89.7
		c-0.1,0.1-0.3-0.1-0.4,0.1C54.2,89.8,54.5,89.9,54.5,89.7L54.5,89.7z M54.3,88.4c-0.2,0-0.3,0.1-0.4,0.2
		C54,88.7,54.2,88.6,54.3,88.4L54.3,88.4z M54,89v-0.2h-0.2C53.8,88.9,53.8,89,54,89L54,89z M54.5,90.9c0.2,0.1,0.1-0.2,0.2-0.3
		h-0.2C54.6,90.7,54.4,90.7,54.5,90.9L54.5,90.9z M54.6,90.1c-0.1,0-0.2,0-0.3,0.1c0,0.1,0,0.2,0.1,0.2
		C54.6,90.4,54.7,90.3,54.6,90.1L54.6,90.1z M54.2,88.9c0,0.2,0.3,0.3,0.5,0.2C54.5,89,54.5,88.8,54.2,88.9L54.2,88.9z M55.2,89.4
		c0,0.1-0.1,0.1-0.1,0.2h0.2C55.3,89.5,55.4,89.4,55.2,89.4L55.2,89.4z M55.8,88h-0.2c0.1-0.1,0-0.2-0.1-0.3c0.3-0.2,0-0.4,0.1-0.7
		c0.1,0,0.1-0.1,0.3-0.1c-0.1-0.2-0.1-0.4-0.3-0.4c0,0.2-0.1,0.5-0.4,0.6c-0.2,0.4,0.3,0.7,0.3,0.9c0,0.1-0.4,0.1-0.7,0.1
		c-0.1,0.1-0.2,0.1-0.2,0.3c0,0.1,0.1,0.1,0.1,0.2c0.3,0,0.3,0,0.4,0.2c0-0.1,0.2-0.1,0.2-0.2c-0.2,0.1-0.2-0.1-0.2-0.2h0.4
		c0,0.1-0.1,0.3,0.1,0.2c-0.1-0.2,0.1-0.2,0.3-0.3C55.8,88.2,55.8,88.1,55.8,88L55.8,88z M64.1,82.5C64,82.6,64,82.7,64,82.9
		c0.2-0.1,0.1,0,0.3-0.1C64.2,82.7,64.2,82.5,64.1,82.5L64.1,82.5z M63.7,81.7c0,0.2-0.1,0.1-0.1,0.3c0.2,0.1,0.3,0.1,0.4-0.1
		C63.7,81.9,63.8,81.8,63.7,81.7L63.7,81.7z M64.6,82.1c0,0.2,0.1,0.1,0.1,0.3c-0.2,0-0.3,0.3-0.2,0.4c0.2,0,0.1-0.2,0.3-0.2
		C64.7,82.4,64.8,82.1,64.6,82.1L64.6,82.1z M65.5,80.7c0,0.2,0,0.4,0.2,0.4c0-0.2,0-0.2,0-0.4H65.5z M59,88.8
		c0.1,0,0.1,0.1,0.3,0.1C59.3,88.7,59,88.7,59,88.8L59,88.8z M65.4,81.2c-0.3,0-0.4,0.5-0.7,0.3c-0.1,0.1-0.3,0.2-0.2,0.3
		c0-0.2,0.2,0,0.1,0.1c0.4,0,0.5-0.6,0.9-0.3C65.4,81.4,65.3,81.4,65.4,81.2L65.4,81.2z M64.8,83c0,0.1-0.1,0.1-0.1,0.2
		c0.1,0,0.1,0.1,0.2,0.1C64.9,83.1,65.1,83,64.8,83L64.8,83z M60.5,84.2c-0.1,0-0.1-0.2-0.2-0.1c0-0.1,0-0.2,0.1-0.3h0.2
		C60.5,84,60.5,84.1,60.5,84.2L60.5,84.2z M58.9,85.1c0.1-0.2,0.1-0.5,0.3-0.3c0-0.2-0.3-0.5,0.1-0.4c-0.1,0.2,0.1,0.4,0.3,0.3
		C59.3,84.8,59.2,85,58.9,85.1L58.9,85.1z M58.7,85.3c-0.1,0.1-0.2,0.2-0.3,0.3c-0.1-0.1,0.2-0.3,0.2-0.4c0.2,0,0.4,0.1,0.4,0.3
		C58.9,85.6,58.8,85.4,58.7,85.3L58.7,85.3z M58.2,85.7h-0.3c0.1-0.2-0.1-0.2-0.1-0.4c0.2,0,0.2,0.1,0.4,0.1V85.7z M61.1,82.9
		c0-0.2,0.1-0.2,0.3-0.2v-0.3c-0.1,0.1-0.3,0.3-0.5,0.4c0,0.1-0.1,0.1-0.2,0.1c-0.1,0-0.1,0.1-0.2,0.1c0.1,0.1,0,0.3-0.2,0.2
		c0,0,0-0.1,0-0.1c0,0-0.1,0.1-0.1,0.1c0.2,0.2-0.2,0.6-0.2,0.9c-0.3-0.3,0.2-0.5,0.1-0.8c-0.2,0.1-0.3,0.3-0.5,0.4c0,0,0,0,0,0
		c0,0,0,0,0,0c-0.1,0.1-0.2,0.1-0.2,0.2h0.2c0,0.2-0.3,0.2-0.3,0c-0.9,0.6-1.7,1.2-2.7,1.7c0.3,0.1,0.4,0.3,0.5,0.7
		c0.3,0,0.3-0.1,0.5-0.2c-0.1,0-0.1-0.1-0.2-0.1c0.1,0,0-0.3,0.1-0.3c0.1,0.1,0.2,0.3,0.3,0.4c-0.2,0.1,0,0.3,0.1,0.4
		c-0.1,0-0.1,0.2-0.2,0.3c-0.2-0.1-0.4-0.2-0.5-0.4c-0.1,0.3-0.4,0.4-0.3,0.7c0,0.1-0.3,0-0.4,0.1c0.1,0.2,0.2-0.1,0.3,0.1
		c0,0.1-0.2,0.2-0.2,0.3c0.1,0.2,0.4,0.3,0.3,0.6c0.2-0.1,0.4-0.2,0.5-0.3c-0.1-0.1-0.3-0.1-0.4-0.2v-0.4c0.2,0,0.3-0.2,0.4-0.3
		c-0.1,0.2,0.2,0,0.2,0.2c0.2,0,0.2-0.3,0.3-0.2c0.1,0.1,0-0.1,0.4-0.1c-0.2,0.3,0.2,0.2,0.2,0.4c0,0.1-0.1,0.2-0.2,0.2
		c0-0.3-0.2,0.1-0.5,0c0,0,0.1-0.2,0-0.2c0,0.2-0.1,0.1-0.1,0.3c0.2,0,0.2,0.2,0.4,0.2c0.1-0.3,0.7-0.1,0.6-0.6
		c-0.1,0-0.3,0.1-0.3-0.1c0-0.1,0.1-0.1,0.1-0.2c-0.1-0.1-0.2-0.2-0.3-0.3c-0.2,0-0.3,0.1-0.4,0.1c-0.1-0.4,0.2-0.4,0.5-0.4
		c0-0.2,0-0.2-0.1-0.4c0.3,0.1,0.1-0.1,0.2-0.2c0.2,0,0.2,0.2,0.3,0.2c0.4-0.1,0.5-0.5,0.7-0.7c0,0.2,0.3,0.1,0.2,0.3
		c-0.1,0.1-0.4,0-0.5,0.2c0,0,0,0,0,0.1c-0.3,0.2-0.2,0.5-0.4,0.7c0.2,0,0.1-0.2,0.4-0.2c0,0.2,0.1,0.2,0.1,0.3
		c-0.1,0-0.1,0.2-0.2,0.1c-0.1-0.1-0.2-0.1-0.3-0.1c-0.1-0.1,0-0.4-0.2-0.4c0.2,0,0.2-0.1,0.2-0.2c-0.1-0.1-0.4,0.1-0.5,0.2
		c0.3,0.1,0.3,0.4,0.2,0.7c0.2,0.1,0.2-0.1,0.4-0.1c0,0.2,0.1,0.2,0.2,0.2c0.1-0.3,0.4-0.3,0.5-0.6c-0.3-0.1-0.2-0.4-0.3-0.7
		c0.1,0.1,0.4,0,0.5,0.2c0.2,0.1,0.1-0.2,0.2-0.3c0.1,0,0.1,0.1,0.2,0.1c-0.1,0-0.1,0.1-0.1,0.2h0.3c0-0.1,0.1-0.1,0.1-0.2
		c-0.3-0.1-0.2-0.3-0.1-0.6c-0.1-0.1-0.2,0-0.1-0.2c-0.3,0-0.2-0.3-0.3-0.4c-0.1,0.1,0,0.3-0.2,0.2c-0.1-0.2,0.1-0.1,0.1-0.2
		c-0.2,0-0.3,0-0.4-0.2c0.2,0.2,0.3-0.1,0.3-0.2c0.2,0.1,0.3,0.3,0.6,0.4v-0.4c0.2,0,0.1-0.1,0.2-0.2c0.3,0,0.4,0.2,0.5,0.3
		c0.1-0.1,0.3-0.2,0.3-0.6c-0.3,0-0.4,0-0.7,0.1c-0.1-0.1-0.1-0.2-0.1-0.3c0.3-0.1,0.6-0.3,0.9-0.1c0-0.1,0-0.3-0.1-0.3
		C61.2,83.3,61.4,82.9,61.1,82.9L61.1,82.9z M60.9,84.9c0.1-0.1,0.3-0.1,0.3-0.3C61,84.6,60.9,84.9,60.9,84.9L60.9,84.9z M63.3,82
		c0,0.1,0,0.1-0.1,0.2c-0.1,0-0.1-0.1-0.1-0.2H63.3z M63.4,81.3c0,0-0.1,0-0.1-0.1c-0.2,0-0.2,0.2-0.3,0.1c0.1-0.1,0.1-0.2,0.1-0.3
		c0.2,0,0.3-0.2,0.4-0.4c0,0,0,0,0,0c-0.3,0.3-0.6,0.6-0.8,0.8c0,0.1-0.1,0.2,0,0.2c0.2,0,0.1-0.2,0.3-0.1c0.1,0.2-0.2,0.4-0.1,0.8
		c0.4,0,0.4,0.5,0.7,0.6C63.4,82.3,63.1,81.8,63.4,81.3L63.4,81.3z M60.7,85.7c0.1,0,0.1,0.2,0.3,0.1c-0.1-0.3-0.2-0.4-0.3-0.6
		C60.7,85.4,60.6,85.5,60.7,85.7L60.7,85.7z M53.4,88.7c0.2,0,0.4,0,0.3-0.3C53.5,88.2,53.2,88.5,53.4,88.7L53.4,88.7z M62.4,82.5
		c0.1,0,0.1,0.1,0.1,0.2c-0.2,0-0.3,0-0.4,0.1c0,0.2,0,0.4,0.1,0.4c0.2-0.2,0.4-0.2,0.7-0.1c0-0.2,0.2-0.2,0.2-0.4
		C62.8,82.7,62.5,82.3,62.4,82.5L62.4,82.5z M62.1,83.5c0,0.2,0.1,0.1,0.1,0.2c0.2-0.2,0.3,0,0.5-0.1C62.7,83.1,62.4,83.5,62.1,83.5
		L62.1,83.5z M64.9,81.9c0,0.2,0.1,0.3,0.3,0.3c0-0.2,0.1-0.2,0.1-0.4C65.2,82,65.1,81.8,64.9,81.9L64.9,81.9z M5.2,63.5
		c0-0.1,0.1-0.1,0.1-0.2c-0.3,0-0.1,0.5,0.1,0.3C5.2,63.6,5.2,63.6,5.2,63.5L5.2,63.5z M4.3,62c0,0.1,0,0.2,0.1,0.2
		c0-0.1,0.1-0.1,0.1-0.2H4.3z M68.7,73.6C68.7,73.6,68.7,73.6,68.7,73.6c0.1,0,0.1,0,0.1-0.2c0,0,0,0,0,0L68.7,73.6z M69.1,72.9
		c0-0.1,0-0.1,0-0.1C69.1,72.8,69.1,72.8,69.1,72.9C69.1,72.9,69.1,72.9,69.1,72.9L69.1,72.9z M5.1,61.9C5.2,62,5.3,62,5.5,62
		C5.5,61.9,5.1,61.9,5.1,61.9L5.1,61.9z M5.9,65.6c-0.1,0.2,0.2,0.1,0.3,0.2C6.2,65.6,6.1,65.5,5.9,65.6L5.9,65.6z M6.9,68
		c0.1,0,0.1,0.1,0.3,0.1C7.2,67.9,6.9,67.8,6.9,68L6.9,68z M5.3,61.2c0,0.2-0.1,0.4,0.1,0.4C5.3,61.5,5.6,61.3,5.3,61.2L5.3,61.2z
		 M6.9,65.4v0.3c0.1-0.1,0.4,0,0.4-0.2C7.2,65.4,7,65.5,6.9,65.4L6.9,65.4z M68.3,75.3c-0.1,0-0.1-0.1-0.2-0.1
		c-0.1,0.1-0.1,0.3-0.1,0.4C68.3,75.7,68.3,75.5,68.3,75.3L68.3,75.3z M5.9,62.9c-0.1,0-0.2,0-0.2,0.1c0.1,0,0.1,0.3,0.2,0.2
		C5.7,63,5.9,63,5.9,62.9L5.9,62.9z M66.7,76.6c-0.1,0.1-0.2,0.2-0.3,0.4c0.1,0,0.1,0.1,0.2,0.1c0,0.1-0.1,0-0.1,0.2
		c0.2,0,0.1-0.3,0.4-0.3v0.2C67.3,77,66.9,76.8,66.7,76.6L66.7,76.6z M67.4,75.7C67.4,75.6,67.4,75.6,67.4,75.7
		C67.4,75.6,67.4,75.6,67.4,75.7L67.4,75.7z M63.6,80.8c-0.1,0-0.2,0-0.2,0.1c0,0.1,0.1,0.3,0.2,0.2C63.4,81,63.6,80.9,63.6,80.8
		L63.6,80.8z M64,79.9c-0.1,0.1-0.2,0.2-0.2,0.2c0,0,0,0,0,0c0,0,0,0,0,0c-0.1,0.1-0.1,0.1-0.2,0.2c0,0,0,0,0,0
		C63.8,80.4,64,80.2,64,79.9L64,79.9z M11,71.8c0,0.1,0,0.2-0.1,0.2h0.2C11.2,71.9,11.2,71.8,11,71.8L11,71.8z M55.1,86.7
		c0.1-0.1,0.2-0.2,0.3-0.3c-0.1,0.1-0.2,0.1-0.3,0.2C55.1,86.6,55.1,86.7,55.1,86.7L55.1,86.7z M61.7,82.2
		C61.7,82.2,61.6,82.2,61.7,82.2c-0.1,0-0.1,0-0.2,0.1C61.6,82.3,61.6,82.3,61.7,82.2L61.7,82.2z M67.1,77.3c-0.1,0-0.2,0-0.3,0.1
		C66.8,77.6,67.1,77.4,67.1,77.3L67.1,77.3z M7.3,65.2H7.2c0,0,0,0.1-0.1,0.1v0.1c0,0,0.1,0,0.1,0.1h0.1c0,0,0-0.1,0.1-0.1L7.3,65.2
		C7.3,65.2,7.3,65.2,7.3,65.2L7.3,65.2z M66.1,79.1c-0.5,0-0.1-0.4-0.3-0.7c-0.2,0.1-0.4,0.4-0.6,0.3c0.1-0.3,0.3-0.1,0.4-0.4
		c0,0-0.1,0-0.1-0.1c0,0-0.1,0-0.1,0c-0.2,0.3-0.4,0.5-0.6,0.8c0.1,0,0.1,0,0.2-0.1c0,0.1,0.1,0.2,0.2,0.2c0-0.1,0-0.3,0.1-0.3
		c0.1,0.1,0.2,0,0.2,0.1c0,0.1-0.1,0.1-0.1,0.3c0.1,0,0.1,0,0.1,0.1C65.9,79.2,66.1,79.2,66.1,79.1L66.1,79.1z M66.4,77.3
		c0-0.1-0.1-0.2,0-0.3c-0.1,0.1-0.2,0.2-0.3,0.3C66.2,77.3,66.3,77.3,66.4,77.3L66.4,77.3z M65.7,78h0.1c0.1-0.1,0.2-0.4,0.3-0.5
		C65.9,77.7,65.8,77.8,65.7,78L65.7,78z M9.6,71.4c0-0.1,0.1-0.1,0.1-0.2c-0.3,0-0.1,0.5,0.1,0.3C9.7,71.5,9.6,71.5,9.6,71.4
		L9.6,71.4z M9.2,70.4c0,0.1-0.1,0.1-0.1,0.2C9.4,70.6,9.4,70.4,9.2,70.4L9.2,70.4z M9.2,69.2c-0.1,0.1,0,0.3,0.2,0.2
		C9.4,69.3,9.4,69.2,9.2,69.2L9.2,69.2z M9.3,68.9c-0.1,0-0.1-0.1-0.2-0.1c0,0.2-0.1,0.1-0.1,0.3C9.2,69.1,9.3,69,9.3,68.9L9.3,68.9
		z M8.9,68.2c-0.2-0.2-0.2,0.3-0.4,0.4c0.1,0.1,0.3-0.2,0.2,0.1c0.2,0,0.3-0.1,0.3-0.3C8.8,68.5,8.7,68.3,8.9,68.2L8.9,68.2z
		 M10.4,70.5c0.1,0.1,0.3,0,0.3-0.2C10.5,70.3,10.5,70.4,10.4,70.5L10.4,70.5z M9.5,69.8c0.1,0.1,0.3,0.1,0.4,0.1
		C9.9,69.8,9.5,69.8,9.5,69.8L9.5,69.8z M9.7,69.2c0,0.2-0.1,0.4,0.1,0.4C9.7,69.4,10,69.2,9.7,69.2L9.7,69.2z M9.9,69.3
		c0,0.1,0.1,0.2,0.2,0.2C10.2,69.2,10,69.2,9.9,69.3L9.9,69.3z M10.3,73.5c-0.1,0.2,0.2,0.1,0.3,0.2C10.6,73.5,10.5,73.4,10.3,73.5
		L10.3,73.5z M9.7,69.9c-0.1,0.1,0,0.2,0.1,0.3c0-0.1,0.1-0.1,0.1-0.2C9.8,70,9.7,69.9,9.7,69.9L9.7,69.9z M8.7,69.9
		c0,0.1,0,0.2,0.1,0.2c0-0.1,0.1-0.1,0.1-0.2H8.7z M7.5,66.1c0,0.2,0.3,0.5,0.4,0.4c0,0-0.1,0-0.1-0.1c0.1,0,0.2,0,0.2-0.1
		C7.7,66.4,7.8,66,7.5,66.1L7.5,66.1z M7.6,64c-0.1,0.1,0,0.3-0.1,0.4c0.1,0,0.3-0.2,0.3,0c0.1,0.3-0.2,0.2-0.1,0.4
		C8,64.6,7.9,64.9,8,65.1c0.4-0.3-0.2-0.5,0.1-0.9C7.9,64.1,7.8,64,7.6,64L7.6,64z M8.3,65.2c-0.2,0-0.1,0.1-0.2,0.2
		c0-0.1-0.1-0.1-0.2-0.1c0,0.4,0.6,0.2,0.4,0.7c0.1,0,0.1,0,0.2,0.1c0.2-0.2-0.4-0.6,0.1-0.7c0,0.1,0,0.2,0.1,0.2
		c0.1-0.1-0.1-0.2,0.1-0.3c-0.1,0-0.2,0-0.3-0.1c0.2-0.2,0-0.3,0.2-0.6C8.3,64.6,8.3,64.9,8.3,65.2L8.3,65.2z M10.3,70.8
		c-0.1,0-0.2,0-0.2,0.1c0.1,0,0.1,0.3,0.2,0.2C10.2,70.9,10.4,71,10.3,70.8L10.3,70.8z M8,67v-0.2c-0.1,0-0.1,0.1-0.2,0.1
		C7.8,67,7.9,67,8,67L8,67z M8.6,67.2c0-0.2-0.3-0.4-0.3-0.2C8.5,67,8.5,67.2,8.6,67.2L8.6,67.2z M11.1,73c0,0.1-0.1,0.1-0.2,0.1
		c0,0.2,0,0.4,0.2,0.4c0-0.2,0-0.2,0.2-0.2C11.3,73.1,11.1,73.1,11.1,73L11.1,73z M8.5,67.4c-0.1,0-0.2-0.1-0.2-0.3H8.2
		c0.1,0.2-0.1,0.3,0.1,0.4C8.3,67.4,8.6,67.5,8.5,67.4L8.5,67.4z M7.5,66.6c0.1,0.1,0.3,0.2,0.3-0.1C7.7,66.6,7.5,66.5,7.5,66.6
		L7.5,66.6z M7.8,65.7c0.1,0,0.1,0.1,0.2,0.1c0-0.1,0.1-0.1,0.1-0.2C7.9,65.5,7.8,65.6,7.8,65.7L7.8,65.7z M8.5,66.7v-0.2
		c-0.1,0-0.2,0-0.2,0.1C8.3,66.7,8.4,66.7,8.5,66.7L8.5,66.7z M8.3,68.9c0,0.1-0.2,0.1-0.2,0.3c0.1,0,0.1,0.1,0.3,0.1
		C8.4,69.1,8.5,68.9,8.3,68.9L8.3,68.9z M72.4,42.2c0-0.8-0.5-1.1-0.5-1.9C71.3,40.7,72.2,41.7,72.4,42.2L72.4,42.2z M67.4,30.2
		c0.3,0,0.2,0.3,0.5,0.3C68,30.1,67.3,29.8,67.4,30.2L67.4,30.2z M68.1,26.7c0.1-0.3-0.2-0.3-0.3-0.5c0.1,0.3,0.1,0.2,0,0.5H68.1z
		 M69,28.6c0.2-0.1,0.4,0,0.5-0.1c-0.5-0.4-0.8-1.8-1.4-1.3C68.4,27.6,68.7,28.1,69,28.6L69,28.6z M66.5,29.1
		c0.6,0.8-0.3-0.6-0.6-0.4C66.1,28.8,66.1,29.2,66.5,29.1L66.5,29.1z M59.1,25.6c0.7,0.2,1.4,0.8,2.1,0.7c-0.6-0.2-1.1-0.6-1.6-0.9
		C59.6,25.9,59.2,25.2,59.1,25.6L59.1,25.6z M64.1,27.1c0.5,0.4,1.1,1.3,1.7,1.3C65.5,27.8,64.6,27.2,64.1,27.1L64.1,27.1z
		 M61.8,26.6h-0.3v0.3c0.1,0,0.2,0,0.3,0.1V26.6z M59.6,19.2c-0.1-0.5-0.7-0.5-1-0.8C58.6,18.9,59.2,18.9,59.6,19.2L59.6,19.2z
		 M56.2,25.1c0.1,0,0.2,0.1,0.2,0.1c0.1-0.1,0.2,0,0.3,0c0-0.1,0.1-0.2,0.1-0.2C56.6,25.2,56,25,56.2,25.1L56.2,25.1z M64.7,20.6
		c-0.3-0.4-0.7-0.7-1.1-0.9C63.8,20.2,64.2,20.5,64.7,20.6L64.7,20.6z M61,17.3c-0.1-0.4,0.3-0.1,0.3-0.3c-0.2-0.1-0.3-0.3-0.6-0.3
		c0,0.2-0.3,0.1-0.2,0.4C60.9,16.9,60.7,17.4,61,17.3L61,17.3z M65.6,24.1c0.3,0,0.3,0.3,0.5,0.4C65.9,24.7,65.6,24.4,65.6,24.1
		L65.6,24.1z M65.5,23.8c0.1,0.3-0.1,0.4-0.1,0.7c0.9,0.3,1.2,1.3,2.1,1.6C67.3,25.2,66.2,24.4,65.5,23.8L65.5,23.8z M63.8,19.2
		c0.3,0,0.4,0.2,0.7,0.2C64.5,19.1,63.9,18.7,63.8,19.2L63.8,19.2z M64.7,25.4c-0.4-0.2-0.9-1.2-1.2-0.9C64,24.6,64,25.8,64.7,25.4
		L64.7,25.4z M66.5,22.4c0.2,0.1,0.4,0.9,0.7,0.6C66.8,23,66.8,22.1,66.5,22.4L66.5,22.4z M66.7,20.9C66.7,20.9,66.7,20.9,66.7,20.9
		C66.8,21,66.8,21,66.7,20.9L66.7,20.9z M66.3,22c-0.4-0.3-1.1-1.4-1.4-1.1C65.5,21.2,65.6,21.9,66.3,22L66.3,22z M66.7,20.9
		c-0.2-0.3-0.4-0.5-0.7-0.7C66.1,20.5,66.6,20.9,66.7,20.9L66.7,20.9z M64.6,18.5c-0.1-0.1-0.3-0.5-0.5-0.2
		C64.2,18.4,64.4,18.8,64.6,18.5L64.6,18.5z M56.6,27.9C56.6,27.9,56.6,27.9,56.6,27.9L56.6,27.9C56.6,27.9,56.6,27.9,56.6,27.9
		L56.6,27.9z M70.5,38.9c0.2-0.4-0.1,0.5,0.3,0.3c0.1-0.2-0.2-0.6-0.4-0.8C70.5,38.5,70.3,38.9,70.5,38.9L70.5,38.9z M63.2,29.2
		c0.5-0.5,1.2-0.1,1.3,0.6C64.1,29.8,63.8,29.1,63.2,29.2L63.2,29.2z M62.8,29.8c-0.3-0.2-0.4-0.3-0.3-0.7c0.3,0,0.3-0.2,0.7-0.1
		C63.2,29.4,63,29.6,62.8,29.8L62.8,29.8z M68,31.7c-1.2-1.2-3-3.7-5.1-4.3c0.2,0.1-0.1,0.4-0.3,0.4c-0.3-0.2-0.6-0.3-0.8-0.7
		c-0.6,0.5-1.3-0.7-1.9-0.4c0.1,0.5,0.7,0.5,1.2,0.7c0,0.2,0.2,1,0.5,0.8c-0.1,0-0.4-0.3-0.2-0.4c0.2,0,0.4,0.1,0.4,0.4
		c0.4,0,0.8-0.2,0.9,0.3c-0.2,0.3-0.9,0.2-0.9,0.6c0.5,0.4,0.9,1,1.7,1.1c0.1-0.4-0.6-0.5-0.1-0.7c0.7,0.6,1.3,1.8,2.4,1.4
		c0-0.4-0.3-0.3-0.5-0.5c0.2,0,0.1-0.3,0.2-0.3c0.9,0.8,2.2,1.3,2.7,2.5c-0.3-0.1-0.5-0.8-0.9-0.5c0.5,0.6,1.2,1,1.6,1.7
		c-0.4,0.5,0.5,0.8,0.5,1.5c0.4,0.1,0.4,0.2,0.8,0.2c0,0.4,0.3,0.8,0.6,0.6c-0.5-1.2-0.8-2.5-2-2.9C69.1,32.6,68.1,32.5,68,31.7
		L68,31.7z M60.2,27.7c-0.2-0.1-0.3-0.5-0.6-0.5C59.6,27.5,60,27.9,60.2,27.7L60.2,27.7z M63.2,30.6c-0.1-0.1-0.5-0.4-0.5,0
		C62.9,30.5,63.2,30.8,63.2,30.6L63.2,30.6z M65.2,33.7c-0.3,0.4,0.2,0.7,0.4,0.8C65.4,34.3,65.5,33.8,65.2,33.7L65.2,33.7z
		 M70.3,36.1c-0.2,0.1-0.7-0.1-0.8,0.1c0.4,0.1,0.5,0.4,0.8,0.6C70.3,36.4,70.1,36.4,70.3,36.1L70.3,36.1z M69.5,37
		c0.3,0.3,0.4,0.9,0.9,1.1C70.2,37.6,69.9,36.8,69.5,37L69.5,37z M60,28.6c0-0.3,0-0.5-0.2-0.6C59.7,28.2,59.8,28.5,60,28.6L60,28.6
		z M64.8,31.6c0.5,0.6,0.9,1.3,1.6,1.7C66.1,32.6,64.9,31.8,64.8,31.6L64.8,31.6z M68.8,36.8c0,0.1-0.2,0.2-0.2,0.3
		c0.2,0.3,0.5,0.5,0.7,0.8C69.3,37.3,68.9,37.2,68.8,36.8L68.8,36.8z M62.6,31.5c0.2,0.5,1.3,1.4,1.3,1.1c0.1-0.5-1.5-1.1-0.9-1.8
		c-0.4-0.1-0.5,0.1-0.8,0.1c0-0.4-0.5-0.1-0.7-0.4c0-0.3-0.1-0.5,0-0.8H61c0.3,0.5,0.4,0.2,0.2,0.9C61.9,30.7,62,31.4,62.6,31.5
		L62.6,31.5z M58.4,28.2c-0.1-0.1-0.3-0.1-0.5-0.1v0.3C58.1,28.3,58.3,28.3,58.4,28.2L58.4,28.2z M59.8,26.5
		c-0.8-0.4-1.8-2.4-3.2-1.8c0.3,0.3,0.8,0.4,1,0.8c-0.3,0.2-0.7-0.2-0.9,0.2c-0.7-0.3-2-0.7-2.7-0.3c-0.4-0.3-1.1-0.4-1.6-0.7
		c0.5,0.8,1.5,0.7,2.1,1.3H55c0,0.2,0.2,0.7,0.3,0.4c-0.1,0-0.3-0.3-0.1-0.3c0.2,0.1,1.1-0.1,0.9,0.3c0.3-0.4,0.8,0.4,0.9,0.2
		c-0.5-0.3,0.4-0.3,0.5-0.5c-0.1,0-0.4-0.3-0.2-0.3c0.7-0.2,1.5-0.3,1.8,0.5c-0.4,0.3-0.6-0.2-0.9,0c0.2,0.4,0.6,0.4,1.1,0.4
		C59.1,26.1,59.8,26.6,59.8,26.5L59.8,26.5z M56,24.9c0-0.2,0.1-0.3,0.4-0.4c-1,0-1.7-0.8-2.4-0.8C54.3,24.5,55.3,24.6,56,24.9
		L56,24.9z M59.2,15.1c-0.6-0.4-1.1-1.2-2-0.9v0.4C58.1,14.4,58.5,15.3,59.2,15.1L59.2,15.1z M53.9,24.4c-0.2,0.1-0.5-0.3-0.7,0
		C53.3,24.5,53.8,24.6,53.9,24.4L53.9,24.4z M58,27.4c-0.2,0-0.4-0.6-0.6-0.3c0.3,0,0.3,0.5,0,0.5c-0.3-0.2-0.6-0.5-0.9-0.7
		c0-0.2,0.3-0.1,0.2-0.4c-0.7,0.2-0.8,0-1.1-0.3C55.2,27.4,57.4,28,58,27.4L58,27.4z M58.6,29.2c0.1,0.1,0.2,0.2,0.3,0.3
		c0.1,0,0.2-0.1,0-0.3C59,29.3,58.7,29.1,58.6,29.2L58.6,29.2z M71.6,30.5c0.5,0,0.1-0.6-0.1-0.7C71.5,30.1,71.8,30.2,71.6,30.5
		L71.6,30.5z M69.8,31.3c0.3,0.5,0.8,1.3,1.1,1.4c-0.3-0.3-0.6-0.8-0.5-1.3C70,31.7,69.9,31.1,69.8,31.3L69.8,31.3z M70.5,30.2
		c-0.2-0.5-0.5-1-0.9-1.4C69.6,29.2,70.2,29.8,70.5,30.2L70.5,30.2z M55.4,23.7c-0.3-0.1-0.5-0.2-0.8-0.3
		C54.6,23.8,55.4,23.8,55.4,23.7L55.4,23.7z M74.4,41.4c0.4-0.1,0.3,0.4,0.6,0.4c0-0.3-0.1-0.5-0.2-0.7C74.5,41,74.5,41.2,74.4,41.4
		L74.4,41.4z M74.3,48c0.5,0.6-0.1-0.2-0.3-0.8c-0.2-0.5,0-1.1-0.3-1.4c-0.3-0.1-0.5,0.2-0.7,0c0.2,1.1,0.5,1.5,1,2.2
		c-0.1,0.7,0.2,1.5,0.4,2.3C74.9,49.4,74,48.6,74.3,48L74.3,48z M73.8,63.2c0.2,0,0.1,0.3,0.3,0.3c-0.1-0.3,0.3-0.2,0.2-0.5
		C74.1,62.9,73.8,62.9,73.8,63.2L73.8,63.2z M76.7,42.7c-0.3-0.1-0.3,0.3-0.2,0.5C76.8,43.3,76.6,42.9,76.7,42.7L76.7,42.7z
		 M76.4,42.1c-0.1-0.4-0.3-0.6-0.5-0.9C76,41.5,76.1,41.9,76.4,42.1L76.4,42.1z M75.8,42.1c0.2,0.1,0.2,0.4,0.4,0.5
		C76.2,42.3,76,41.8,75.8,42.1L75.8,42.1z M74,52.1c0-0.4,0.2-0.9-0.2-1C73.9,51.4,73.8,52.1,74,52.1L74,52.1z M72.8,67.5
		c0.3-0.2,0.6-0.8,0.3-1.2C73,66.7,72.6,67.2,72.8,67.5L72.8,67.5z M73.4,57.3c-0.1,0.1-0.2,0.7,0,0.8C73.5,58,73.6,57.4,73.4,57.3
		L73.4,57.3z M73.8,57c0.2-1.5,0.1-3.3,0-4.4C73.8,54.3,73.6,55.6,73.8,57L73.8,57z M73.8,35.1v-0.2c0.5,0.2,0.4,1.5,0.9,1.3
		c-0.3-0.5-0.4-1.2-0.8-1.7C73.9,34.6,73.6,34.9,73.8,35.1L73.8,35.1z M73.3,33c-0.1-0.4-0.2-0.8-0.5-1.1C72.7,32.5,73,32.8,73.3,33
		L73.3,33z M73.7,65.2c0.3,0,0.2-0.4,0.3-0.7C73.6,64.5,73.8,64.9,73.7,65.2L73.7,65.2z M78,45.2c0.1,0.5,0.2,1.1,0.6,1.4
		C78.4,46.1,78.5,45.4,78,45.2L78,45.2z M4.5,18c0.3-0.1,0.5-0.3,0.6-0.6C4.8,17.4,4.7,17.7,4.5,18L4.5,18z M4.8,18.3
		c-0.3,0.4-1,1-0.9,1.5C4,19.1,5.2,18.8,4.8,18.3L4.8,18.3z M4.4,60.5c-0.1-0.1-0.2-0.2-0.5-0.2c0,0.2-0.1,0.2-0.1,0.4
		C4,60.8,4.5,60.8,4.4,60.5L4.4,60.5z M5.5,18.9c0,0.2,0,0.3,0.2,0.3c0.2-0.3,0.5-0.4,0.6-0.8c-0.6,0.3-0.3,0.1-0.5-0.3
		c-0.7,0.8-1.3,1.6-1.9,2.5c0.3,0,0.5-0.1,0.8-0.2c0.1-0.3-0.1-0.3-0.1-0.5c0.2-0.2,0.5-0.1,0.8,0c-0.2-0.3,0.2-0.6,0-0.7
		c0,0.1-0.3,0.4-0.3,0.2C5.1,19.1,5.3,19,5.5,18.9L5.5,18.9z M1.4,48.8c-0.2,0.2-0.1,0.7,0.1,0.8C1.6,49.3,1.7,48.9,1.4,48.8
		L1.4,48.8z M2.6,10.9c-0.1,0.5-0.3,0.7-0.8,0.8c0.5,0.3,1-0.3,1.2-0.7C2.9,11.1,2.9,10.9,2.6,10.9L2.6,10.9z M41.6,22.7
		c-0.9-0.2-1.2,0.1-1.7,0.1c-0.1,0.4,0.4,0.1,0.5,0.4c0,0.1,0,0.1,0,0.2c0.1,0,0.3,0,0.4,0c0.4,0,0.7,0,1.1,0
		c-0.2-0.1-0.4-0.1-0.5-0.1C41.4,23.1,41.7,23.1,41.6,22.7L41.6,22.7z M2,9.9c0.9,0.4,1.5-0.7,2.1-0.7c-0.4,0.5-0.5,0.7-1,1.1
		c1,1.1,1.8-0.5,2.5-1.3C7.2,7,9.3,5,11.1,3.9c0.4-1.1,1.6-1.3,2.2-2.3c-0.9,0.2-1.3,0.9-2.1,1.2c0.1-0.1,0.1-0.5,0.2-0.6
		c-0.5,0.1-0.6,0.5-1.1,0.5c0.2-0.7,1.3-0.9,0.9-1.8C10,0.8,9.4,2,8.4,2.4C8.2,2.3,8.1,2,7.8,2C7.2,2.7,6.4,3.2,5.6,3.6
		c0.1,0.8-0.7,1.5-1.2,1.9C2.9,6.5,1,7.2,0,8.6c0.5,0.1,0.5-0.3,0.9-0.3C1.3,8.8,0.5,9,0.6,9.6c0.5,0.5,1.2-0.2,1.7-0.4
		C2.2,9.5,1.9,9.6,2,9.9L2,9.9z M79.7,52.6c-0.1,0.8,0.1,1.4,0.2,1.6c0.1,0.4,0.1,0.5,0.1,0.1C80,53.7,80,52.7,79.7,52.6L79.7,52.6z
		 M79.4,51.1c0.1,0.5,0,1.2,0.4,1.4C79.6,52,79.8,51.2,79.4,51.1L79.4,51.1z M79.1,49.2c0,0.4,0.1,0.7,0.3,0.9
		C79.3,49.8,79.4,49.3,79.1,49.2L79.1,49.2z M0.2,14.8c0.2-0.1,0.6,0,0.6-0.4C0.5,14.2,0.3,14.6,0.2,14.8L0.2,14.8z M42.4,23.4
		C42.3,23.4,42.3,23.4,42.4,23.4C42.3,23.5,42.4,23.5,42.4,23.4C42.4,23.4,42.4,23.4,42.4,23.4L42.4,23.4z M52.3,24
		c-0.5,0-0.7-0.3-1.3-0.2v0.4C51.5,23.9,52,24.3,52.3,24L52.3,24z M46.7,23.3c-0.3,0.1-0.5-0.1-0.7-0.2c-0.1,0.1-0.2,0.5-0.4,0.7
		c0.1,0,0.2,0,0.3,0.1C46.2,23.5,46.5,23.8,46.7,23.3L46.7,23.3z M48,12.1c-0.2,0,0-0.3,0.1-0.3c0.7-0.2,1.3,0.5,1.6,0.1
		c-0.6-0.4-1.5-0.4-2-0.9c0,0.2-0.3,0.2-0.3,0.5c0.2,0,0.2,0.2,0.3,0.4c-0.3,0.3-0.8-0.2-0.9,0.2C47.2,12,47.7,12.4,48,12.1L48,12.1
		z M34.8,14.2c0.1-0.3,0.7,0,0.7-0.4C35.2,13.9,34.5,13.9,34.8,14.2L34.8,14.2z M49.1,24.5c-0.1,0-0.2,0-0.3,0
		C48.9,24.5,49,24.5,49.1,24.5C49.1,24.6,49.1,24.5,49.1,24.5C49.1,24.5,49.1,24.5,49.1,24.5L49.1,24.5z M61.1,23
		c0,0.2,0.1,0.2,0.1,0.4c0.2,0,0.3-0.1,0.4-0.2C61.3,23.3,61.4,23,61.1,23L61.1,23z M48.2,22.7c0.9,0.4,1.8,0.8,2-0.1
		C49.4,22.5,48.9,22.7,48.2,22.7L48.2,22.7z M49.2,24.6c0.1,0,0.2,0.1,0.4,0.1c0,0,0,0,0,0C49.6,24.6,49.4,24.6,49.2,24.6L49.2,24.6
		z M48.9,23.7c-0.5,0-1.4-0.7-1.8,0c0-0.2-0.1-0.3-0.2-0.3c0.3,0.6-0.6,0.3-0.4,0.5c0.2,0,0.3,0,0.4,0.1c0.4,0.1,0.8,0.2,1.2,0.3
		c0.3,0,0.7-0.1,1.1-0.1c0,0,0,0,0,0C48.8,24.2,48.8,24.1,48.9,23.7L48.9,23.7z M53.1,16.1c0.3,0,0.2,0.2,0.4,0
		c0-0.3-0.2-0.3-0.4-0.3V16.1z M52.6,15.4c1.8,0.5,4.2,0.9,5.6,1.4C56.7,16.1,54.5,14,52.6,15.4L52.6,15.4z M49.4,12.3
		c-0.4,0-1-0.3-1.2-0.1c0.3,0.1-0.2,0.3-0.1,0.6c0.4,0,0.6,0.2,0.7,0.5c0.4-0.2,0.7,0,0.9,0.2c-0.1,0.2-0.3,0.2-0.1,0.4
		c1.5,0,2.7,0.3,4,0.8c0.2-0.1-0.1-0.2,0.1-0.3c0.3,0.1,0.8,0.1,1.1,0.3c0.1-0.3-0.3-0.2-0.4-0.4c0.2,0,0.6,0.1,0.5-0.2
		c-0.4-0.2-1-0.1-0.9-0.5c0.5,0.1,1.2,0,1.7,0c-0.4-0.6-1.6-0.9-2.6-0.6c0,0.2,0,0.5-0.2,0.5c-1-0.3-2-0.6-3.3-0.5
		C49.6,12.6,49.6,12.7,49.4,12.3L49.4,12.3z M36.1,12c-0.3,0-0.8-0.3-0.8,0.2C35.7,12.2,36,12.2,36.1,12L36.1,12z M72.4,31.3
		c0-0.4-0.2-0.5-0.4-0.7C72.1,30.9,72.2,31.2,72.4,31.3L72.4,31.3z M49.3,13.8c0-0.3-0.2-0.3-0.5-0.3C48.8,13.8,49.1,13.8,49.3,13.8
		L49.3,13.8z M49.4,14.8c0.3-0.4,0.9,0.2,1.5,0.2C50.7,14.7,49.4,14.2,49.4,14.8L49.4,14.8z M73.1,44.1c0-0.8-0.3-1.3-0.6-1.9
		C72.4,42.9,72.5,43.8,73.1,44.1L73.1,44.1z M73.5,44.9c-0.2,0-0.3,0.2-0.5,0c0,0.2,0,0.3,0.1,0.4C73.3,45.3,73.5,45.3,73.5,44.9
		L73.5,44.9z M71.1,29.3c0.1,0.5-0.1,0.4-0.4,0.3c0,0.3,0.2,0.4,0.4,0.5C71.1,29.7,71.7,29.4,71.1,29.3L71.1,29.3z M72.5,62.3
		c-0.1,0.1-0.2,0.6,0,0.6C72.6,62.8,72.7,62.3,72.5,62.3L72.5,62.3z M39,11.5c0.3,0,0.5,0,0.6-0.2C39.4,11.4,39,11.2,39,11.5
		L39,11.5z M71.6,43.5c0.6-0.2,0.3,0.6,0.8,0.7c-0.1-0.3-0.2-0.6-0.3-0.9C71.9,43.4,71.5,43.2,71.6,43.5L71.6,43.5z M74.3,38.3
		c-0.2-1.6-1.2-2.8-1.8-4.5c-0.2,0.1-0.3-0.4-0.5-0.1c1,1.4,1.4,3.6,2.5,5.1C74.7,38.6,74.4,38.4,74.3,38.3L74.3,38.3z M43.1,22.7
		c-0.3-0.1-0.2-0.6-0.4-0.8c0.3,0.1,0.8,0.2,0.8,0.7C43.3,22.6,43.1,22.6,43.1,22.7L43.1,22.7z M44.3,18.8c-0.2,0.2-0.5,0.3-0.8,0.3
		C43.6,18.8,44,18.9,44.3,18.8L44.3,18.8z M44.2,22.1c-0.3,0.1-0.3-0.2-0.5-0.2C43.8,21.6,44.4,21.7,44.2,22.1L44.2,22.1z
		 M39.8,20.6c0.1-0.5,0.8-0.5,1.3-0.7C40.8,20.3,40.3,20.4,39.8,20.6L39.8,20.6z M38,22.3c-0.1,0.2-0.5,0.2-0.5-0.2
		C37.7,22.1,38.1,21.9,38,22.3L38,22.3z M36.9,23c-0.3-0.2,0.2-0.5,0.5-0.4C37.2,22.8,37,22.8,36.9,23L36.9,23z M36,23
		c0.2-0.2,0.5-0.4,0.8-0.5C36.7,22.8,36.4,22.8,36,23L36,23z M25.7,18.7c0-0.2-0.1-0.2-0.2-0.2c0.3-0.1,0.5-0.4,0.9-0.4
		C26.4,18.5,26,18.5,25.7,18.7L25.7,18.7z M24.5,19.1c0-0.3,0.2-0.3,0.5-0.3C25,19,24.7,19,24.5,19.1L24.5,19.1z M17.3,33.7
		C17.3,33.7,17.3,33.7,17.3,33.7c-0.1,0.1-0.3,0.7-0.6,0.7C16.8,34.2,17,33.9,17.3,33.7C17.3,33.7,17.3,33.7,17.3,33.7L17.3,33.7z
		 M14.9,36.6c-0.3-0.2,0.1-0.4,0.2-0.5C15.4,36.3,15,36.5,14.9,36.6L14.9,36.6z M10.7,70C10.7,70,10.7,70,10.7,70L10.7,70L10.7,70z
		 M11.2,70.1c-0.1-0.1-0.1-0.1-0.1-0.2C11.2,69.9,11.2,70,11.2,70.1L11.2,70.1z M8.2,62.6c-0.1-0.3-0.1-0.6-0.3-0.8c0,0,0,0-0.1,0
		c0-0.1,0-0.1,0-0.2c0,0,0,0,0-0.1c0,0,0-0.1,0-0.1c0,0,0-0.1,0-0.1c0,0.1,0.1,0.2,0.1,0.3c0,0,0,0,0,0c0,0,0,0,0,0
		C8.1,62,8.2,62.3,8.2,62.6C8.3,62.6,8.2,62.6,8.2,62.6L8.2,62.6z M7.3,61.3c0-0.1,0-0.2,0.1-0.3c0.1,0,0.1,0.1,0.1,0.3
		C7.4,61.3,7.3,61.3,7.3,61.3L7.3,61.3z M2.5,53.4c-0.2-0.2,0.1-0.8,0.3-1.1C3.2,52.5,2.5,53.2,2.5,53.4L2.5,53.4z M2.5,54.4
		c-0.1-0.1-0.2-0.1-0.4-0.1c0-0.2,0.3-0.1,0.2-0.4C2.3,54,2.4,54,2.6,54C2.6,54.2,2.5,54.3,2.5,54.4L2.5,54.4z M2.6,45.7
		c0-0.2,0-0.4,0.1-0.5C2.9,45.2,2.8,45.7,2.6,45.7L2.6,45.7z M28.8,14.5c-0.1,0.3-0.5,0.2-0.8,0.3C28,14.4,28.5,14.5,28.8,14.5
		L28.8,14.5z M46.6,18.3c-0.1,0.4-0.8,0.3-1.3,0.5C45.4,18.3,46.1,18.4,46.6,18.3L46.6,18.3z M48.3,18c0.4,0,0.3,0-0.1,0.1
		c-0.2,0.1-0.7,0.3-1.5,0.3C46.8,18,47.7,17.9,48.3,18L48.3,18z M49.8,21.1c0-0.5,0.9-0.6,1.3-0.4c-0.1,0.3-0.3,0.3-0.7,0.3
		c0,0.2,0.3,0,0.5,0.1c-0.8,0.7,0.6,0.3,0.7,1c-0.9-0.3-1.6-0.6-2.4-1C49.2,20.7,49.8,21,49.8,21.1L49.8,21.1z M50.1,16.6
		c0.1,0,0-0.1,0-0.3c0.3-0.1,0.2,0.3,0.4,0.3c-0.1,0.1-0.4,0.1-0.8,0.1c-0.1-0.1-0.1-0.3-0.2-0.3C49.7,16.1,49.8,16.7,50.1,16.6
		L50.1,16.6z M58.3,23.3c-0.1,0.7-0.5-0.1-0.9-0.1C57.7,23,58,23.6,58.3,23.3L58.3,23.3z M59.1,23.9c-0.3,0-0.7,0.1-0.7-0.3
		C58.6,23.7,59.1,23.5,59.1,23.9L59.1,23.9z M59.5,23.8c-0.2-0.1-0.4-0.1-0.5-0.3C59.1,23.3,59.5,23.6,59.5,23.8L59.5,23.8z
		 M61.3,24.7c-0.3,0.2-0.8-0.2-1.1-0.2C60.5,24.2,61.1,24.5,61.3,24.7L61.3,24.7z M52.6,23c0.4-0.1,0.3,0.4,0.8,0.3
		C53.1,23.6,52.5,23.4,52.6,23L52.6,23z M45.7,23.4c-0.3-0.4-1.1-0.3-1.6-0.5c-0.3,0.1-0.2,0.5-0.7,0.4c0.3-0.3,0.5-0.6,0.5-1
		c1.4,0.1,2.4,0.6,3.6,0.5c-0.1-0.2-0.1-0.6-0.4-0.7c-0.1,0.1-0.1,0.4-0.4,0.4c-0.2-0.2,0-0.1,0-0.4c-0.4,0.3-0.6,0-0.9,0.3
		c-0.2-0.2-0.5-0.3-0.7-0.5c-0.3,0-0.1,0.4-0.6,0.3c0.3-0.3-0.2-0.6-0.2-0.9c0.2,0.1,0.4,0.2,0.7,0.2c0.1-0.5-0.2,0.1-0.3-0.2
		c0.1-0.5,0.9,0,1-0.2c-0.1,0-0.1-0.1-0.2-0.2c0.8-0.2,2.5-0.2,3,0.4c0,0.3-0.5,0.1-0.5,0.4c1.3,0.8,3.3,0.4,4.3,1.4
		c-0.8,0-1.6-0.5-2.2-0.1c1.2,0.4,2.3,0.5,3.3,0.9c0-0.4,0.2-0.4,0.4-0.4c-0.6-0.6-1.7-0.8-2.2-1.6c0.5,0,0.7,0.2,0.8-0.2
		c0.3,0,0.7,0.3,0.4,0.5c0.6,0.4,1.9,1.1,2.5,0.9c-0.2,0-0.4,0-0.4-0.2c0.8,0.1,1.4,0.3,2,0.6c0,0,0-0.1,0-0.1
		c0.3-0.1,0.2,0.3,0.5,0.2c0,0.1,0,0.1-0.1,0.2c0.7,0.4,1.4,0.8,2.2,1.1c0.1-0.4-0.4,0-0.3-0.4c0.9,0.6,2,1,2.9,1.7
		c0.2-0.2-0.3-0.3,0-0.6c0.4,0.2,0.6,0.5,1,0.6c-0.7-1.1-2.5-1.8-2.2-3.3c-1.1-0.4-2.1-1.1-2.9-1.8c0.4,0.2,1.1,0.6,1.5,0.5
		c-0.2,0-0.6-0.3-0.4-0.4c1.2,0.5,2.3,1.2,3.5,1.7c-0.3-0.5-0.6-1-1-1.4c0-0.1,0.2-0.1,0.2-0.2c-0.5-0.4-0.9-0.9-1.5-1.1
		c-0.1,0.4,0.3,0.4,0.3,0.7c-2.5-1.6-5.6-2.6-8.4-3.8c0-0.1,0-0.3-0.1-0.3c-0.2,0.2-0.4-0.1-0.7,0.2c-0.2-0.2-0.5-0.3-0.7-0.3
		c0.2-0.3,0.8-0.3,1.1-0.5c0,0.3,0.6,0.4,0.8,0.2c-0.3-0.2-0.9-0.2-1.2-0.4c0.2,0,0.4,0,0.4-0.2c-1-1-2.8,0.2-3.6-0.9
		c-1.1-0.3-2.3,0.3-2.6-0.5c-0.3,0-0.6,0.1-0.8,0c0.1-0.3,0.9-0.3,1.1-0.2c-0.2-0.8,1.3,0,1.6-0.3c-0.1,0-0.2-0.2-0.1-0.2
		c0.1,0.1,0.7,0.2,0.8,0c-0.4-0.1-0.8-0.2-1.3-0.2c0-0.3,0.2-0.2,0-0.4c-0.5,0.4-1.4-0.3-1.4,0.4c-0.6-0.3-1.3-0.1-1.8-0.6
		c0.2,0,0.1-0.3,0.3-0.3c0,0.6,1-0.1,1.4,0c-0.7-0.4-1.3,0.1-1.8-0.7c0.3,0,0.7,0.2,0.8-0.2c-0.7-0.2-1.5-0.1-1.8,0.4
		c0.2,0,0.4,0,0.4,0.2h-0.6c-0.1-0.2,0.2-0.5-0.4-0.4c0,0.2,0.1,0.2,0.2,0.3c-0.3,0.2-0.7,0.2-0.9,0.5c0.5-0.1,0.4,0.4,0.9,0.3
		c0-0.1,0-0.4,0.1-0.4c0.4-0.1,0.4,0.2,0.5,0.5c-0.2,0-0.4,0-0.4,0.3c0.8,0.4,2.3-0.1,3.1,0.5c-0.5,0-1.1,0.1-1.4-0.1
		c0,0.4-0.6,0.3-0.9,0.3c0-0.1,0.1-0.2,0-0.3c-0.7,0-1.2,0-2.2,0.2c-0.2-0.1-0.3-0.2-0.3-0.5c-0.3,0.3-1.4,0.6-1.8,0.2
		c0.4,0,0.4-0.2,0.1-0.4c0.6,0,1.2,0.1,2.2-0.1c-0.4-0.5-1.1,0.2-1.6-0.1c0.1-0.2,0.6,0,0.6-0.3c-0.1-0.1-0.4-0.1-0.7-0.1
		c0,0.5-0.2,0.3-0.7,0.3c0,0.2,0.1,0.2,0.1,0.4c-0.4,0-0.8,0.5-1,0c0.5,0,0.8-0.1,0.9-0.6c-0.3,0-0.4-0.1-0.7,0
		c0-0.1,0.2-0.2,0.2-0.3c-0.4-0.1-1.3-0.2-1.5,0.2c0.3,0.2,1-0.3,1.1,0.3h-0.8v0.5c0.3,0,0.1-0.4,0.6-0.3c0.2,0.6-0.5,0.4-0.8,0.6
		c0-0.1-0.1-0.2,0-0.3c-0.3,0-0.5,0.2-0.8,0c-0.6,0.5-1.2,1.1-1.8,1.7c-2.3,0.3-4.3,0.9-5.8,2c-0.7-0.2-0.9,0.7-1.4,0.3
		c0.3-0.3,0.7-0.5,1.2-0.6c-0.3-0.4,0.7-0.4,0.8-0.8c-1,0.2-1.8,0.4-2.6,0.8c0.4-0.3-0.1-0.5,0.1-0.7c0.8-0.2,1.5-0.6,2.3-0.9
		c-0.1,0.4,0.7,0.4,0.4,0.8c0.4,0,0-1,0.6-0.8c0.1-0.4-0.3-0.1-0.3-0.3c1.1-0.2,2.2-0.7,3.2-1.1c-1.2,0.2-2.7,0.7-3.8,0.4
		c0.4-0.1,1.3-0.3,1.8-0.5c-0.3-0.1-0.9,0.1-1-0.1c0.1-0.1,0.4,0,0.4-0.2c-0.1-0.2-0.6-0.1-0.6-0.4c0.8,0,1.6-0.5,2.4-0.6
		c0.7-0.1,0.8,0.1,1.1-0.4c-0.1-0.2-0.5,0.2-0.4-0.4c0.9,0,1.3-0.4,2.2-0.6c-0.2,0-0.2-0.1-0.3-0.2c1.9-0.9,4.9-0.7,6.4-1.4
		c-0.3,0-0.5,0-0.7-0.2V9.1c0.3-0.1,0.9,0.1,1-0.1c-1.4-0.5-2.4-0.6-4.2-0.9c0.1-0.4,0.8,0,0.9-0.3c-0.6-0.2,0.4-0.2,0.5-0.3
		c-0.9,0.1-1.4-1-2-0.3c-0.2-0.1-0.1-0.6-0.5-0.5c-0.3,0.1-0.5,0.3-0.9,0.2c0.3-0.5-0.4-0.2-0.6-0.5c0.1-0.1,0.4-0.1,0.5-0.3
		c-0.9-0.4-2.5-0.1-3.5-0.4c0-0.2,0.2-0.2,0.2-0.5c-0.1,0-0.3,0-0.3-0.1c-3.6,0.1-6.9,0.8-10,1.2c-2.3,0.3-4.1,1.5-6.1,1.6
		c-0.2,0.1,0.1,0.4-0.1,0.4c-0.2,0-0.2-0.1-0.4-0.1c-1.6,0.5-3.3,1.8-4.7,3C9.7,11.5,9.2,12,8.7,12c0,0.2,0,0.4-0.2,0.4
		c-1.5,1-3.4,2.1-3.6,4.2c0.3,0,0.5-0.6,0.8-0.1c0-0.4,0.2-0.6,0.7-0.6c-0.5,0.8-0.2,1.8,0.5,2.2c0.3,0,0.6-0.4,0.8-0.1
		c-0.2,0.3-0.4,0.6-0.8,0.8c0.3,0.1-0.3,0.5,0,0.5c0.3-0.4,0.7-0.8,1.1-1.2c0.5,0.1-0.1,0.8,0.5,0.9c-0.4,0.5-0.6,1.2-1.2,1.6
		c0,1.9-2,2.5-2.8,4c0,0.2,0.1,0.2,0.2,0.3c-0.2,0.3-0.4,0.7-0.4,1.3c0.1,0.2,0.3-0.2,0.4,0.1v1.3c0.6,0.7,2.1,0.5,2.9,1
		C7.2,29,8.2,30,7.3,30.3c0.2,0.2,0.6,0.1,0.7-0.2c0.1,0.1,0.2,0.2,0.3,0.3c-0.4,1-0.9,2-1.8,2.5c0-0.4,0.5-0.8,0.4-1
		c-0.8,0.7-1.7,2.5-2.4,3c-0.3,1.3-1,2.9-1.3,4.6c-0.1,0.7,0,1.4-0.6,1.9c0.2,0.8-0.8,1.8-0.5,2.6c0.1-0.2,0.3-0.4,0.6-0.5
		c0.1-0.2-0.3-0.4,0-0.5c0.1,0.2,0,0.2,0.3,0C3.1,43.7,3,44.5,2.7,45c-0.1,0-0.1-0.2-0.2-0.2c-0.2,0.4-0.3,1-0.2,1.2
		c0-0.2,0.2-0.2,0.4-0.2c0,0.8,0,1.2,0.3,1.7c-0.1,0.1-0.4,0-0.3,0.3c0,0.4,0.7,0.4,0.5,0.1c-0.1,0.2,0.1-0.9,0.5-0.8
		c-0.4,0.9,0,2.3-0.5,2.9c0.1-0.5-0.1-0.7-0.1-1.1c-0.2,0-0.4,0.2-0.7,0.1c-0.8,0.7,0.1,2.2-0.9,2.8c0.1,0,0.2,0.1,0.3,0.2
		c-0.1,0.1-0.3,0.1-0.5,0.2c0.2,0.6,0.2,0.9,0.1,1.7c0.3,0.1,0.1-0.3,0.4-0.2c0.1,0.5-0.1,0.6-0.1,1.1c0.3,0.1,0.4-0.1,0.7-0.1
		c0.1,0.7-0.3,0.9,0,1.5c0.2-0.4,0.7-1.1,1.2-0.7c-0.4,0.1-0.6,0.8-0.6,1.3c0.4,0.1,0-0.6,0.5-0.5c0.2,0,0.2,0.1,0.3,0.2
		c0,0.4-0.6,0.4-0.3,0.8c0.4-0.1,0.6,0.7,0.3,1.2c-0.4,0.1,0-0.4-0.4-0.3c0.1,0.5-0.3,0.4-0.3,0.9c0.3,0,0.5-0.1,0.9,0.1
		c0.1-0.2,0.2-0.5,0.6-0.4c-0.1,0.6,0.4,0.7,0.4,1.3c-0.2,0.3-0.5,0.4-0.4,1c0,0,0,0,0,0c0,0.1-0.1,0.1-0.1,0.2
		c0.1,0,0.2-0.1,0.2-0.1c0.2,0.1,0.3,0.2,0.6,0.1c0,0,0,0.1,0.1,0.2c0,0,0,0-0.1,0c0,0.1,0,0.2,0.1,0.2c0.1,0.3,0.2,0.5,0.3,0.8
		c0,0.1-0.1,0.1-0.1,0.2c0.1,0,0.1,0,0.1-0.1c0.2,0.6,0.3,1.3,0.4,1.9c0,0,0,0,0,0c0.1,0.1,0.1,0.4,0.1,0.6c0,0,0,0.1,0,0.1
		c0,0,0,0,0,0c0,0.2,0,0.4,0.2,0.4c0-0.1,0-0.1,0-0.2c0,0,0,0,0,0c0,0,0,0,0,0c0,0,0.1,0,0.2,0c0-0.1-0.1-0.1-0.1-0.2
		c0.1-0.7,0.1-1.3,0.2-1.9c0,0,0,0,0.1,0c0-0.3,0.2-0.4,0-0.6c0.1-0.5,0.2-0.9,0.3-1.4c0.1,0,0.1,0.1,0.2,0.1c0,0.1,0,0.3,0,0.4
		C7.4,61.9,7.3,62,7.2,62c0.1,0.3-0.1,0.3-0.2,0.5h0.3c-0.1,0.4,0.4,0.4,0.2,0.7c0.2-0.1,0.3,0,0.5,0.1v-0.1c0,0,0-0.1-0.1-0.1
		c-0.6,0.2-0.3-0.5-0.5-0.8c0.2,0,0.2-0.2,0.4-0.2c0.1,0.3-0.2,0.2-0.2,0.4c0,0.1,0.3,0,0.3,0.2c-0.1,0-0.3-0.1-0.2,0.1
		C8,63,8.2,62.9,8.3,62.8c0,0.1,0,0.2,0,0.2c0,0.1,0,0.2-0.1,0.4c-0.2-0.1-0.6,0.3-0.7-0.2c0,0.2-0.1,0.3-0.2,0.4
		c0,0.1,0.1,0.2,0.2,0.2c0.1-0.1,0.2-0.1,0.4-0.1c0-0.3,0.2-0.3,0.4-0.4c0,0.1,0,0.1,0,0.2c-0.2,0.2-0.1,0.5,0,0.8c0,0,0.1,0,0.1,0
		c0,0.3,0.1,0.5,0.1,0.8c0,0-0.1,0.1-0.1,0.1c0,0,0.1,0,0.1,0c0,0.1,0,0.2,0,0.3c0,0-0.1,0-0.1,0c0,0.1,0,0.2,0.1,0.3
		c0,0,0-0.1,0-0.1c0.1,0.6,0.3,1.2,0.4,1.7c0,0,0,0.1,0,0.1c0,0,0,0,0.1,0c0.1,0.2,0.1,0.3,0.2,0.5c-0.2,0-0.2-0.2-0.5-0.1
		C9.1,68,9.2,68,9.2,68.2c0.2,0,0.3-0.1,0.4-0.2c0.1-0.1,0.1-0.1,0.1-0.3c0,0.2,0.1,0.3,0.2,0.5c-0.1,0-0.3,0-0.3,0.2
		c0.1,0,0.2,0,0.3,0c0,0,0,0,0,0c0,0,0,0,0,0h0c0,0.1,0.1,0.1,0.1,0.2C10,68.7,9.9,68.9,10,69c0.1-0.1,0.1-0.1,0.2-0.2
		c0.1,0.3,0.2,0.6,0.3,1c0,0,0,0-0.1,0c0,0.1,0.1,0.1,0.1,0.2c0,0-0.1,0-0.1,0.1c0,0,0,0,0-0.1c0,0,0,0.1,0,0.1
		c-0.1,0.1-0.2,0.1-0.2,0.3c0.1,0,0.1,0,0.1-0.1c0,0,0,0.1,0,0.1c0.1,0,0.2-0.1,0.2-0.2c0.1,0,0.1-0.1,0.1-0.2c0,0,0.1,0.1,0.1,0.1
		c0-0.1,0.1-0.1,0.1-0.2c0,0,0,0-0.1,0l0,0c0.2,0,0.1-0.1,0.1-0.3c0,0,0.1-0.1,0.1-0.1c0.1,0.1,0.2,0.2,0.2,0.2
		c-0.2,0,0,0.3,0.1,0.4c0,0.1,0,0.3,0.1,0.5c-0.1,0.1-0.2,0.1-0.3,0.2c0.3-0.1,0.2,0.3,0.4,0.3c0,0,0,0,0,0c0,0.1,0,0.1,0.1,0.2
		c0.2-0.1,0.3-0.3,0.4-0.6c0.1,0.1,0.2,0.2,0.1,0.3c0.1-0.1,0.2,0,0.3,0c0,0,0-0.1-0.1-0.1c-0.2,0-0.2-0.3-0.2-0.5
		c0-0.1,0-0.1-0.1-0.2c0,0,0-0.1,0-0.1c-0.5-1.1-0.9-2.1-1.2-3.3c0,0,0,0.1,0,0.1c-0.1,0-0.2,0-0.2-0.1c0-0.1,0-0.2-0.1-0.2
		c0-0.1,0-0.2,0-0.3c0,0,0,0,0,0c0,0,0-0.1,0-0.1c0,0,0-0.1,0-0.1c0,0,0,0,0,0c-0.3-1-0.5-2-0.7-3.1c-0.2,0-0.1-0.4-0.1-0.6
		c0,0,0,0,0,0c-0.4-2-0.5-4.1-0.5-6.2c0-0.7,0-1.4,0.1-2.1c-0.1-0.1-0.1-0.2-0.3-0.2c0.2-0.3,0.3-0.7,0.4-1.1c0.2-1.9,0.5-3.8,1-5.6
		c0-0.7,0.2-1.3,0.5-1.7c0.2-0.6,0.4-1.1,0.6-1.7l-0.1,0c-0.3-0.9,0.4-1.5,0.7-2.1c0.1,0.1,0.1,0.3,0,0.4c0.9-2.1,2.1-4.1,3.4-5.9
		c0-0.1,0.1-0.2,0.2-0.3c3.6-4.9,8.5-8.6,14.1-10.8c0,0-0.1-0.1-0.1-0.1c0.5-0.4,1.1-0.5,1.6-0.9c0.2,0.4-0.6,0.5-1,0.8
		c2.7-1,5.5-1.6,8.5-1.8c0,0,0,0,0,0c-0.2,0-0.6,0.1-0.6-0.2c0.3,0.1,0.8,0,1.2,0.1c-0.2-1,1-0.8,1.5-1.2c0.1,0.6,1.2,0,1.6,0.5
		c-0.4,0.1-0.8,0-1,0.1c0.4,0.2,0.8,0.5,1.2,0.8c0.4,0,0.9,0.1,1.3,0.1c0-0.2,0.3,0,0.4,0c0.2,0,0.5,0.1,0.7,0.1
		c0-0.1-0.3-0.1-0.3-0.3C45.2,23.2,45.3,23.5,45.7,23.4L45.7,23.4z M46.4,12c0-0.5-1.5-0.3-1.5-0.2C45.5,11.9,45.9,12.2,46.4,12
		L46.4,12z M72.3,35.3c0-0.4-0.3-0.7-0.6-0.9C71.7,35,72.1,35,72.3,35.3L72.3,35.3z M70.9,36.1c-0.5,0-0.1,0.8,0.2,0.8
		C71.1,36.6,70.8,36.5,70.9,36.1L70.9,36.1z M71.8,39.5c0.4,0.1,0.2-0.6-0.1-0.5C71.7,39.2,71.8,39.4,71.8,39.5L71.8,39.5z"/>
	<text transform="matrix(1 0 0 1 52 57.9131)" class="st1 st2 st3"> </text>
</g>
</svg>
