<?xml version="1.0" encoding="UTF-8"?>
<svg width="150px" height="53px" viewBox="0 0 150 53" version="1.1" xmlns="http://www.w3.org/2000/svg" xmlns:xlink="http://www.w3.org/1999/xlink">
    <!-- Generator: Sketch 42 (36781) - http://www.bohemiancoding.com/sketch -->
    <title>Fill 1</title>
    <desc>Created with Sketch.</desc>
    <defs></defs>
    <g id="Page-1" stroke="none" stroke-width="1" fill="none" fill-rule="evenodd" opacity="0.896059783">
        <g id="首页--copy-13" transform="translate(-288.000000, -1016.000000)" fill="#DB2037">
            <g id="Group-3" transform="translate(0.000000, 874.913043)">
                <g id="Group-7-Copy" transform="translate(0.000000, 75.000000)">
                    <g id="Group-19" transform="translate(24.000000, 52.000000)">
                        <g id="Group-17-Copy" transform="translate(96.000000, 0.000000)">
                            <path d="M278.163337,62.7255037 C278.947452,62.9565513 280.617828,62.9216762 282.033842,62.9565513 C281.980767,62.0421694 284.029681,62.815961 284.611509,62.138076 C282.895067,62.0116537 279.283931,61.6661721 278.163337,62.7255037 L278.163337,62.7255037 Z M299.65791,61.3206905 C298.41314,61.5757148 296.626599,61.3686438 296.076817,61.673801 C297.215436,61.5016052 298.674512,61.8220203 299.65791,61.3206905 L299.65791,61.3206905 Z M300.830578,61.5234021 C300.373929,61.4405737 299.890241,61.8830517 300.232728,61.673801 C301.602677,61.7479107 302.91254,61.5680859 304.100229,61.2040768 C303.641577,61.017713 299.87522,61.2138855 300.830578,61.5234021 L300.830578,61.5234021 Z M205.659208,53.9522328 C205.018296,53.915178 203.651352,53.9347953 203.50915,54.0699363 C204.118016,54.0623074 205.337751,54.4633712 205.659208,53.9522328 L205.659208,53.9522328 Z M295.359797,21.7842995 C295.090414,21.8137254 294.361377,21.7657721 293.352942,21.7842995 C293.304874,21.4344585 296.242052,21.6894828 295.359797,21.7842995 L295.359797,21.7842995 Z M285.32953,20.3805762 C284.779748,20.3685879 284.207935,20.2356265 283.753288,20.2639625 C284.323098,19.9642545 285.796194,20.2160092 286.188752,20.2639625 C287.904192,20.4786624 285.760142,20.3903848 285.32953,20.3805762 L285.32953,20.3805762 Z M283.038271,20.2639625 C282.563596,20.2585133 282.324255,20.0656103 281.746433,20.1473489 C281.324834,20.039454 283.221532,19.8116759 283.038271,20.2639625 L283.038271,20.2639625 Z M278.163337,25.9965594 C277.219995,25.8875747 278.892374,25.8864848 279.310969,25.8788559 C280.385498,25.8581488 281.517107,25.8298128 282.32025,25.8788559 C280.385498,26.0216259 279.174775,26.1099035 278.163337,25.9965594 L278.163337,25.9965594 Z M276.159487,60.9697597 C277.099824,60.6428055 279.727562,60.5131137 280.4576,61.0874632 C278.990513,61.0645764 277.327147,61.4405737 276.159487,60.9697597 L276.159487,60.9697597 Z M275.727873,27.398103 C275.928157,27.1321803 276.726293,27.3545091 277.160911,27.2825792 C276.699254,27.5964552 276.42887,27.369767 275.727873,27.398103 L275.727873,27.398103 Z M274.296837,30.9074114 C274.866648,31.009857 275.354341,30.7341257 275.58567,30.9074114 C275.475514,31.1014042 274.402988,31.1014042 274.296837,30.9074114 L274.296837,30.9074114 Z M270.140926,25.8788559 C271.353651,25.535554 273.387544,25.9475163 274.440041,25.7622422 C273.608859,26.2265172 271.209446,25.9954695 270.140926,25.8788559 L270.140926,25.8788559 Z M269.56711,27.2825792 C270.188994,27.27713 270.659664,27.2869386 271.141349,27.2825792 C269.751372,27.5670294 266.725067,27.3076457 269.56711,27.2825792 L269.56711,27.2825792 Z M267.130644,31.0262047 C267.689439,30.424609 269.480987,31.0501814 270.140926,30.7907977 C269.687281,31.3193737 268.056962,30.8834347 267.130644,31.0262047 L267.130644,31.0262047 Z M267.130644,63.543979 C267.39502,63.2922243 267.975846,63.2998532 268.564684,63.3118416 C268.233212,63.4938461 267.476135,63.7401515 267.130644,63.543979 L267.130644,63.543979 Z M265.554402,43.6575351 C266.040093,43.4144992 266.680003,43.4101398 267.274849,43.5420113 C266.981432,43.8112036 266.085157,43.5834255 265.554402,43.6575351 L265.554402,43.6575351 Z M263.834956,52.080965 C264.316641,51.8106829 265.409195,52.0395508 266.126215,51.9632615 C265.647534,52.2357233 264.553979,52.0068554 263.834956,52.080965 L263.834956,52.080965 Z M263.262141,50.9126487 C263.32423,50.6489056 263.969147,50.8636055 264.265569,50.7927655 C264.135384,51.238513 263.68975,50.8788634 263.262141,50.9126487 L263.262141,50.9126487 Z M262.115511,52.080965 C262.1786,51.8204915 262.819512,52.0351914 263.117936,51.9632615 C263.00077,52.209567 262.363864,52.2836766 262.115511,52.080965 L262.115511,52.080965 Z M260.826677,52.1975787 L261.829103,52.1975787 L261.829103,51.9632615 L260.826677,51.9632615 L260.826677,52.1975787 Z M258.819823,52.1975787 C258.953012,51.7583702 259.971461,52.0460899 260.538267,51.9632615 C260.320958,52.3294502 259.439705,52.1583441 258.819823,52.1975787 L258.819823,52.1975787 Z M257.245584,53.0171438 C257.535997,52.4536928 258.162888,52.8929012 258.962025,52.7839165 C258.622542,53.201328 257.8895,52.7392328 257.245584,53.0171438 L257.245584,53.0171438 Z M256.670766,51.0292623 C256.337292,50.8232812 257.643149,50.9725903 257.817397,50.7927655 C257.905522,51.2559506 257.030277,50.9311761 256.670766,51.0292623 L256.670766,51.0292623 Z M255.524135,45.178962 C255.38694,44.757191 256.088938,45.0154849 256.383357,44.9457346 C256.368336,45.2443528 255.903675,45.1767823 255.524135,45.178962 L255.524135,45.178962 Z M255.237728,52.1975787 C254.982364,52.1975787 254.936299,52.3294502 254.664913,52.3141923 C255.491088,51.7997844 257.254596,52.2073873 255.237728,52.1975787 L255.237728,52.1975787 Z M253.804689,44.9457346 C254.375501,45.0460006 254.524713,45.0460006 255.093523,44.9457346 C255.220703,45.3195523 253.676507,45.3195523 253.804689,44.9457346 L253.804689,44.9457346 Z M252.801262,51.9632615 C253.2499,52.2684187 253.757622,51.8008742 254.233299,52.080965 C254.087091,52.2302741 252.728158,52.3817628 252.801262,51.9632615 L252.801262,51.9632615 Z M250.652205,45.0634381 C250.771375,44.8062342 252.688101,45.0122153 253.516279,44.9457346 C252.858343,45.3685954 251.89297,44.964262 250.652205,45.0634381 L250.652205,45.0634381 Z M251.082818,52.1975787 C250.995694,51.7354834 251.869937,52.0602579 252.229449,51.9632615 C252.196402,52.3272705 251.515433,52.1605238 251.082818,52.1975787 L251.082818,52.1975787 Z M249.649779,51.0292623 C249.991265,50.6183899 250.597127,51.0510593 251.22502,50.7927655 C251.207996,51.2875561 250.125456,50.910469 249.649779,51.0292623 L249.649779,51.0292623 Z M248.646352,63.073165 C248.933761,62.7113357 249.447492,62.9630904 250.222594,62.8421174 C250.204569,63.3347283 249.12303,62.9565513 248.646352,63.073165 L248.646352,63.073165 Z M249.793985,51.9632615 C249.908147,52.4079192 249.114017,52.1136604 248.788554,52.1975787 C248.809584,51.8651752 249.387406,51.9839686 249.793985,51.9632615 L249.793985,51.9632615 Z M248.93276,45.0634381 C249.084976,44.885793 250.314725,44.5686475 250.364796,45.0634381 L248.93276,45.0634381 Z M248.646352,30.7907977 C249.250211,30.4791014 249.925171,30.8943332 250.509002,30.6752739 C250.541047,31.1330098 248.37797,30.903052 248.646352,30.7907977 L248.646352,30.7907977 Z M245.492867,48.3384293 C245.529919,48.0626979 246.122763,48.2708588 246.210888,48.3384293 C246.880841,48.4125389 247.925327,48.1847608 248.359945,48.455043 C247.406589,48.4125389 246.226911,48.5574886 245.492867,48.3384293 L245.492867,48.3384293 Z M243.200606,61.2040768 C244.008756,61.7163051 245.686142,61.516863 246.6415,61.9070284 C245.578989,61.8111218 243.356828,62.3440571 243.200606,61.2040768 L243.200606,61.2040768 Z M243.917626,52.9005302 C244.243089,52.565947 244.470412,52.8296901 245.064257,52.6673028 C245.152382,53.1261286 244.276136,52.8024439 243.917626,52.9005302 L243.917626,52.9005302 Z M245.781277,51.9632615 C245.020194,52.3185517 243.721347,52.0548087 243.057403,52.080965 C243.68129,51.8106829 244.918049,52.0428203 245.781277,51.9632615 L245.781277,51.9632615 Z M244.91905,50.7927655 C244.365263,51.11754 243.965694,50.9235471 243.057403,51.0292623 C243.155542,50.5224833 244.357251,50.9213674 244.91905,50.7927655 L244.91905,50.7927655 Z M245.923479,30.6752739 C245.680133,30.9422865 244.829924,30.7188678 244.347237,30.7907977 C244.592586,30.5237851 245.442795,30.7493835 245.923479,30.6752739 L245.923479,30.6752739 Z M246.210888,24.7083599 C245.933493,24.9797318 245.337646,24.5252655 244.91905,24.8260634 C244.970123,24.2844093 245.845368,24.7639421 246.210888,24.7083599 L246.210888,24.7083599 Z M245.064257,25.7622422 C245.096303,25.5944057 245.491865,25.7219179 245.492867,25.527925 C246.69758,25.6794138 247.178264,25.7916681 245.064257,25.7622422 L245.064257,25.7622422 Z M247.931335,47.6376575 C247.367533,47.8894122 246.782701,47.8817833 246.210888,47.7531813 C246.502302,47.4850789 247.40058,47.7117671 247.931335,47.6376575 L247.931335,47.6376575 Z M248.21574,30.6752739 C247.677975,31.1188418 246.192862,30.4932694 248.21574,30.6752739 L248.21574,30.6752739 Z M249.649779,25.8788559 C249.039912,25.8690473 248.646352,25.6826834 247.931335,25.7622422 C247.620894,25.6499879 249.721882,25.4200302 249.649779,25.8788559 L249.649779,25.8788559 Z M250.938613,24.7083599 C250.359789,25.1377597 249.5236,24.8445908 248.503148,24.8260634 C249.032902,24.5568711 250.171522,24.785739 250.938613,24.7083599 L250.938613,24.7083599 Z M252.229449,19.5621009 C250.639187,19.9206606 250.311721,19.418241 252.229449,19.5621009 L252.229449,19.5621009 Z M255.954748,43.6575351 C255.394951,43.558359 254.618847,43.4537337 254.092098,43.6575351 C254.112127,43.2771784 255.932716,43.2771784 255.954748,43.6575351 L255.954748,43.6575351 Z M254.664913,32.7808589 C255.043451,32.7743198 255.444021,32.7852183 255.811544,32.7808589 C254.864196,33.0576801 252.51185,32.815734 254.664913,32.7808589 L254.664913,32.7808589 Z M255.667339,30.9074114 C255.318843,31.2703305 253.5313,30.7210475 252.944466,30.9074114 C252.973507,30.4736522 255.551174,31.0272946 255.667339,30.9074114 L255.667339,30.9074114 Z M253.946892,25.6445387 C253.58738,26.1687553 252.057204,25.7382656 251.22502,25.8788559 C252.063212,25.5845971 252.757199,25.7513437 253.946892,25.6445387 L253.946892,25.6445387 Z M254.950319,24.9437669 C254.287376,24.9677435 252.572937,24.9241496 251.22502,24.9437669 C252.366644,24.6015548 253.969924,24.6898325 255.524135,24.8260634 C256.43443,24.9067121 255.249745,24.9306887 254.950319,24.9437669 L254.950319,24.9437669 Z M255.093523,27.1670554 C253.494248,27.5158065 253.20083,27.019926 255.093523,27.1670554 L255.093523,27.1670554 Z M255.093523,25.6445387 L255.811544,25.6445387 C256.029854,26.0041883 254.876213,26.0041883 255.093523,25.6445387 L255.093523,25.6445387 Z M249.936187,25.7622422 C249.953211,25.5028586 250.54305,25.7131991 250.795409,25.6445387 C250.792405,25.9649538 250.118446,25.9224498 249.936187,25.7622422 L249.936187,25.7622422 Z M253.231875,27.1670554 C252.656056,27.4373375 251.466363,27.2062899 250.652205,27.2825792 C251.229026,27.0112072 252.418718,27.241165 253.231875,27.1670554 L253.231875,27.1670554 Z M258.247008,24.1252916 C255.874634,24.6734848 253.922857,24.0500921 251.082818,24.2408154 C252.615999,23.9716231 255.99881,24.1994012 258.247008,24.1252916 L258.247008,24.1252916 Z M258.962025,22.487251 C257.983633,22.979862 256.39938,22.5700794 255.524135,22.6027749 C256.501525,22.287809 258.120829,22.6354703 258.962025,22.487251 L258.962025,22.487251 Z M260.110659,19.6787145 C259.791204,20.0710595 259.310521,19.7898789 258.676619,19.7953282 C258.874901,19.5283156 259.674038,19.7528241 260.110659,19.6787145 L260.110659,19.6787145 Z M260.252861,19.9130317 L261.255287,19.9130317 L261.255287,19.6787145 L260.252861,19.6787145 L260.252861,19.9130317 Z M261.256288,24.357429 C260.736549,24.236456 259.593924,24.6244416 259.536843,24.1252916 C259.779187,24.3585189 261.949274,24.1231119 261.256288,24.357429 L261.256288,24.357429 Z M263.262141,24.9437669 C262.971728,25.2118693 262.072449,24.9862709 261.542696,25.0592907 C261.716944,24.4936599 262.763432,25.0189664 263.262141,24.9437669 L263.262141,24.9437669 Z M262.974733,22.6027749 C264.032237,22.5493723 263.494472,22.4600049 265.267995,22.6027749 C267.860682,22.8131154 263.262141,22.7684316 262.401918,22.7193885 C260.89177,22.6354703 262.668297,22.6202124 262.974733,22.6027749 L262.974733,22.6027749 Z M265.124791,19.7953282 C265.062703,20.0579814 264.418787,19.8421916 264.122365,19.9130317 C264.23853,19.6667262 264.877439,19.5926166 265.124791,19.7953282 L265.124791,19.7953282 Z M261.972307,24.357429 C262.416939,24.0958657 264.686167,24.3105656 265.842812,24.2408154 C264.747254,24.6102736 263.595616,24.2560732 261.972307,24.357429 L261.972307,24.357429 Z M265.267995,24.9437669 C264.97658,25.2118693 264.079304,24.9862709 263.548549,25.0592907 C263.839963,24.7911883 264.740244,25.0178765 265.267995,24.9437669 L265.267995,24.9437669 Z M262.115511,25.8788559 C263.03582,25.7622422 266.546814,25.5290149 267.70446,25.9965594 C265.535375,26.056501 263.855986,25.899563 262.115511,25.8788559 L262.115511,25.8788559 Z M263.979161,31.0262047 C264.009204,30.6621957 264.692176,30.8267627 265.124791,30.7907977 C264.896466,30.9945992 264.479874,31.0447321 263.979161,31.0262047 L263.979161,31.0262047 Z M263.979161,45.0634381 C263.552555,45.3010249 261.725956,45.4100096 261.398491,45.178962 C262.001348,44.9326565 263.144975,45.1233797 263.979161,45.0634381 L263.979161,45.0634381 Z M261.972307,37.4584836 C261.870162,37.141338 262.648268,37.5434917 262.54412,37.2263461 C263.041828,37.4105303 265.631512,37.3211628 264.408772,37.4584836 C264.172436,37.4857298 263.179023,37.441046 261.972307,37.4584836 L261.972307,37.4584836 Z M263.406347,30.7907977 C263.355274,31.1787834 262.57917,30.9749819 262.115511,31.0262047 C262.165582,30.6371293 262.940684,30.8420205 263.406347,30.7907977 L263.406347,30.7907977 Z M262.401918,27.2825792 C260.801642,27.6324202 260.507223,27.1365397 262.401918,27.2825792 L262.401918,27.2825792 Z M261.113085,25.7622422 C260.225823,26.1447786 257.286642,25.8483402 256.241155,25.7622422 C257.280633,25.6652458 259.318532,25.8189143 261.113085,25.7622422 L261.113085,25.7622422 Z M258.676619,24.8260634 C258.692642,25.1421191 257.199518,25.2445647 257.245584,24.8260634 L258.676619,24.8260634 Z M260.96888,24.8260634 C260.802643,25.2761703 259.715096,24.9710131 259.107232,25.0592907 C259.311522,24.4773122 260.664447,25.071279 260.96888,24.8260634 L260.96888,24.8260634 Z M258.391213,24.1252916 C258.854873,24.0566312 259.05716,24.2026707 259.392638,24.2408154 C259.357588,24.4097417 258.21296,24.5132772 258.391213,24.1252916 L258.391213,24.1252916 Z M256.670766,30.9074114 C258.062746,30.7875282 260.817665,30.5641095 261.972307,31.0262047 C259.976468,30.9858804 258.862884,30.860548 256.670766,30.9074114 L256.670766,30.9074114 Z M259.536843,43.6575351 C259.688058,43.3948819 260.437123,43.6139412 260.826677,43.5420113 C260.45615,43.8809538 260.142704,43.6553554 259.536843,43.6575351 L259.536843,43.6575351 Z M258.533415,48.455043 C258.825831,48.1869405 259.72511,48.4103592 260.252861,48.3384293 C259.961447,48.6065318 259.063169,48.3809334 258.533415,48.455043 L258.533415,48.455043 Z M259.251437,50.7927655 C259.656012,50.9180979 259.846283,50.9180979 260.252861,50.7927655 C260.437123,51.1644034 259.066173,51.1644034 259.251437,50.7927655 L259.251437,50.7927655 Z M268.276274,25.0592907 C267.278855,25.0996151 267.128641,25.1650059 266.414626,25.0592907 C266.708043,24.8674776 267.983858,24.8674776 268.276274,25.0592907 L268.276274,25.0592907 Z M267.99287,25.9965594 L268.994295,25.9965594 L268.994295,25.7622422 L267.99287,25.7622422 L267.99287,25.9965594 Z M270.426332,24.9437669 C270.08785,25.2118693 269.140503,24.9862709 268.564684,25.0592907 C268.903165,24.7900984 269.850513,25.0178765 270.426332,24.9437669 L270.426332,24.9437669 Z M269.710313,24.2408154 C269.414893,24.5132772 268.977271,24.4533356 268.564684,24.357429 C268.669833,24.093686 269.367826,24.3116554 269.710313,24.2408154 L269.710313,24.2408154 Z M268.85009,19.7953282 C269.076412,19.7844297 270.939061,19.804047 271.85937,19.7953282 C271.31059,20.4154513 268.022913,19.8356525 268.85009,19.7953282 L268.85009,19.7953282 Z M272.718592,19.9130317 C272.368094,19.9141215 272.417163,20.1418996 272.003575,19.9130317 C273.276386,19.6383902 274.528166,19.9054028 272.718592,19.9130317 L272.718592,19.9130317 Z M274.009428,22.6027749 C273.471663,23.0474326 271.98555,22.4218602 274.009428,22.6027749 L274.009428,22.6027749 Z M269.995719,24.357429 C270.574543,24.0860571 271.760229,24.3181945 272.57639,24.2408154 C272.13376,24.7497741 270.314172,24.365058 269.995719,24.357429 L269.995719,24.357429 Z M273.292408,24.9437669 C272.9349,25.5377337 271.412735,24.8369619 271.286555,25.1759044 C271.083266,24.6309807 272.890837,25.1878927 273.292408,24.9437669 L273.292408,24.9437669 Z M276.159487,25.8788559 C276.050331,26.0728487 274.976804,26.0728487 274.870653,25.8788559 C275.534598,25.9475163 275.734883,25.7197382 276.159487,25.8788559 L276.159487,25.8788559 Z M275.873079,19.7953282 C276.328727,20.1800443 274.381958,20.0754189 274.152632,19.9130317 C274.477094,19.5413938 275.717858,20.025286 275.873079,19.7953282 L275.873079,19.7953282 Z M279.167765,19.9130317 C279.440153,20.1429895 278.01813,19.9827819 277.591523,20.0307352 C277.403256,20.1713255 277.366203,20.0765088 277.160911,20.0307352 C277.547461,19.7604531 278.543878,19.989321 279.167765,19.9130317 L279.167765,19.9130317 Z M277.306117,25.1759044 C277.155904,24.9339583 278.753176,25.1159628 279.310969,25.0592907 C280.843149,25.1944318 278.07421,25.2565531 277.306117,25.1759044 L277.306117,25.1759044 Z M241.482162,51.9632615 C241.960843,51.9589021 242.33137,51.9654412 242.771997,51.9632615 C241.518213,52.2466218 238.95657,51.9872381 241.482162,51.9632615 L241.482162,51.9632615 Z M236.036416,50.9126487 C237.278182,50.639097 239.13983,50.8734142 240.621938,50.7927655 C239.379171,51.0663171 237.518524,50.8352695 236.036416,50.9126487 L236.036416,50.9126487 Z M233.888361,23.7732709 C233.827274,23.6839034 234.114682,23.665376 234.174768,23.6577471 C235.188209,23.5138872 234.684493,23.6980714 235.176192,23.7732709 C236.886625,24.0326545 233.996514,23.9356581 233.888361,23.7732709 L233.888361,23.7732709 Z M232.884933,43.0755566 C233.130282,42.8063644 233.977487,43.0308729 234.460174,42.9556734 C234.257886,43.2401236 233.448735,43.1834515 232.884933,43.0755566 L232.884933,43.0755566 Z M233.027136,64.9498821 C232.985076,64.6414553 234.388071,64.5302908 234.315969,64.9498821 L233.027136,64.9498821 Z M238.04327,25.4113114 C236.673322,25.756793 236.13055,25.2761703 238.04327,25.4113114 L238.04327,25.4113114 Z M238.185473,23.7732709 C237.834974,24.3312727 236.937698,23.7329465 236.17962,23.8898845 C236.033412,23.6479384 237.629682,23.8299429 238.185473,23.7732709 L238.185473,23.7732709 Z M239.333105,43.0755566 C239.224951,43.4853392 238.616085,43.0177947 238.185473,43.308784 C238.097347,42.8466887 238.972592,43.1703734 239.333105,43.0755566 L239.333105,43.0755566 Z M241.050548,44.7125073 C240.863282,44.8585468 239.441259,45.0187544 239.475307,44.5926241 C239.910927,44.7244956 240.392612,44.5631982 241.050548,44.7125073 L241.050548,44.7125073 Z M240.477733,23.8898845 C239.159859,24.2844093 239.086755,23.6381298 240.477733,23.8898845 L240.477733,23.8898845 Z M242.627791,50.7927655 C242.551683,51.1938293 241.936809,50.9725903 241.625366,50.9126487 C241.685451,50.6489056 242.33137,50.8636055 242.627791,50.7927655 L242.627791,50.7927655 Z M228.728021,51.8477377 C228.496692,51.6123306 229.9788,51.7801671 230.447466,51.7322138 C230.193104,52.1223792 229.4871,51.7136864 228.728021,51.8477377 L228.728021,51.8477377 Z M224.001297,30.0911157 C224.379836,29.5516413 225.911014,29.9788615 226.579965,29.9723224 C225.765807,30.289468 225.118887,30.0224554 224.001297,30.0911157 L224.001297,30.0911157 Z M223.856091,50.4429245 L226.291555,50.4429245 C225.936049,50.8167421 224.518032,50.5442803 223.856091,50.4429245 L223.856091,50.4429245 Z M224.286703,42.7224461 C222.916755,43.0679277 222.374984,42.587305 224.286703,42.7224461 L224.286703,42.7224461 Z M219.98859,42.7224461 C220.421205,42.4543437 221.465691,42.6832116 222.138648,42.6047426 C221.895302,43.0504902 220.467271,42.8205324 219.98859,42.7224461 L219.98859,42.7224461 Z M219.701181,29.6213916 C220.224926,29.6410088 220.468272,29.7554428 220.704608,29.6213916 C221.350527,29.8840448 219.485875,30.0736782 219.701181,29.6213916 L219.701181,29.6213916 Z M218.697754,22.9537057 C218.999182,23.044163 221.294447,23.1313508 220.273996,23.1880229 C220.103754,23.1989213 219.073288,23.3950939 218.697754,22.9537057 L218.697754,22.9537057 Z M219.126363,42.7224461 C218.651688,42.6047426 217.571151,42.9818298 217.551123,42.4892188 C218.129946,42.6036528 219.53194,42.508836 219.126363,42.7224461 L219.126363,42.7224461 Z M215.114657,29.5058677 C215.551278,29.2301364 216.341402,29.475352 216.548697,29.5058677 C216.23425,29.8295524 215.528245,29.4884302 215.114657,29.5058677 L215.114657,29.5058677 Z M225.145925,26.3464004 C224.901578,26.613413 224.053371,26.3899943 223.571686,26.4641039 C223.814031,26.1960014 224.66424,26.4194201 225.145925,26.3464004 L225.145925,26.3464004 Z M213.253009,29.3881642 C213.316099,29.1266009 213.959013,29.3402109 214.256436,29.2726404 C214.138268,29.5178561 213.500361,29.5930555 213.253009,29.3881642 L213.253009,29.3881642 Z M207.950467,29.0372334 C208.040595,28.7865685 208.834725,28.9271588 208.954895,29.0372334 C208.783652,29.3511094 208.207833,29.0372334 207.950467,29.0372334 L207.950467,29.0372334 Z M206.231021,30.7907977 C206.838886,31.0360134 208.058621,30.7809891 208.666485,31.0262047 C208.33201,31.024025 206.51843,31.224557 206.231021,30.7907977 L206.231021,30.7907977 Z M205.659208,27.2825792 C205.604129,26.9959494 206.903978,27.0515316 206.949042,27.398103 C206.592535,27.3021965 206.178947,27.2455244 205.659208,27.2825792 L205.659208,27.2825792 Z M203.795557,27.1670554 C203.563226,26.9305585 205.046336,27.0994849 205.515003,27.0493519 C205.124447,27.4209898 204.606711,27.0591605 203.795557,27.1670554 L203.795557,27.1670554 Z M198.636218,28.4519854 C199.436356,28.3844149 200.342646,28.5925757 201.644497,28.5685991 C201.207876,28.8726665 199.258103,28.7407949 198.636218,28.4519854 L198.636218,28.4519854 Z M199.927054,31.0262047 C200.125336,30.7591922 200.924473,30.981521 201.360093,30.9074114 C201.160809,31.174424 200.362674,30.9520951 199.927054,31.0262047 L199.927054,31.0262047 Z M198.064405,30.4398669 C198.025349,30.3788354 199.398302,30.2916477 199.927054,30.4398669 C199.379275,30.6153323 198.181572,30.6338597 198.064405,30.4398669 L198.064405,30.4398669 Z M191.615232,30.4398669 C191.738407,30.1990106 192.61265,30.3167141 192.762864,30.4398669 C192.533538,30.7690008 192.117947,30.2752999 191.615232,30.4398669 L191.615232,30.4398669 Z M192.617658,25.292518 C192.391336,25.5835073 191.615232,25.342651 191.329826,25.292518 C191.557149,25.0047983 192.33125,25.2456546 192.617658,25.292518 L192.617658,25.292518 Z M183.736024,29.9723224 C183.516713,29.7859585 185.338304,29.7859585 185.596671,29.9723224 C184.886661,30.2687609 184.682371,29.8709666 183.736024,29.9723224 L183.736024,29.9723224 Z M184.595247,27.398103 C184.937734,27.3534193 184.514131,27.9332181 185.023856,27.7501237 C184.777506,27.9495658 184.650325,27.7315963 184.164634,27.8667374 C184.207695,27.6280608 184.451041,27.555041 184.595247,27.398103 L184.595247,27.398103 Z M318,46.699299 C317.5784,45.8045343 315.873976,45.4361659 316.138352,44.3604866 C315.170976,44.0193644 313.977278,43.8613366 312.840661,43.6575351 C312.677429,43.2913464 313.066983,43.3752646 313.12807,43.1910805 C312.76956,43.2052485 312.679432,43.4123195 312.554254,43.0755566 C312.754539,42.1829717 313.538654,41.7710094 313.988294,41.0865853 C313.867121,40.6669941 313.248241,41.3852035 313.12807,40.9677919 C316.004161,39.9269878 318.294419,33.4314978 312.554254,34.6521268 C312.545241,34.5028177 312.371995,34.4897395 312.413053,34.3011959 C314.102456,33.9633433 315.007744,32.2817088 314.416903,30.7907977 C314.790435,30.667645 315.289144,30.645848 315.421332,30.3232532 C315.379272,29.9287285 314.785428,29.9843107 314.704312,29.6213916 C315.52548,29.2083394 314.707317,28.3724265 314.131497,28.4519854 C314.193586,28.1915119 314.838503,28.405122 315.133923,28.3342819 C314.076419,27.241165 311.316493,27.7403151 310.119791,27.1670554 C310.06271,27.3664975 310.332093,27.4656736 310.119791,27.5168964 C307.930678,27.7751902 308.801917,25.2674515 308.686753,24.4751325 C307.67231,24.1329205 307.733397,22.9144712 306.6809,22.6027749 C307.209652,22.5308449 307.118522,21.9466868 307.110511,21.4344585 C305.735555,20.7849095 303.240006,20.481932 301.950171,20.1473489 C303.001667,19.6373003 303.607528,20.3980137 304.817249,20.3805762 C304.87433,20.1004854 304.554876,20.1277316 304.674045,19.7953282 C302.088367,19.2743812 298.804697,18.5485429 296.076817,18.8602392 C296.696698,19.0945564 297.79426,18.939798 298.368076,19.21117 C297.561929,19.6264018 295.443916,19.2177091 295.359797,18.2749912 C295.415877,17.9720136 295.787405,17.9218806 295.788406,17.5731295 C293.893711,16.4941807 290.930497,18.0057989 288.33881,17.8074467 C287.948255,17.7780208 287.502621,17.5022894 287.048976,17.455426 C286.402055,17.391125 285.566867,17.6668564 285.043123,17.5731295 C284.92195,17.5513326 284.635543,17.1589875 284.470308,17.105585 C283.926534,16.9279399 283.481902,17.1938626 283.179472,16.8712678 C283.524963,16.6009857 283.398784,16.4952705 283.323677,16.0527925 C282.825969,15.8729677 282.016818,15.9503469 281.317824,15.935089 C281.095507,16.4287898 282.111953,15.9100225 281.890638,16.4048132 C275.884095,15.7672525 271.145354,16.8353029 265.124791,16.5214268 C265.06771,16.0211869 265.262987,15.3160557 264.980586,15 C264.214496,15.1155238 263.666717,15.4076029 262.974733,15.5841582 C263.150983,15.599416 263.316218,15.6190333 263.262141,15.8195652 C257.701232,16.6881735 251.475376,16.3470513 243.917626,16.4048132 C244.026781,16.9508267 242.61277,16.769912 242.19818,17.2232885 C239.257998,16.7241384 234.962889,16.5639309 230.878079,16.9900612 C230.429441,16.9540962 231.241596,17.3257342 230.734875,17.3399022 C229.383954,17.6439696 227.424166,17.3802265 226.149353,17.455426 C224.187562,17.5742194 221.487722,16.9431978 220.991016,17.8074467 C223.957235,17.7257081 224.953652,18.7218286 227.582391,18.7447154 C221.821196,18.7741412 213.548429,18.9583254 209.669913,19.3288735 C209.919267,19.4367684 210.440008,19.3245141 210.387934,19.6787145 C210.16762,20.1527981 209.029001,19.8171251 208.666485,19.6787145 C208.751606,19.3942644 209.593804,19.7353866 209.526709,19.3288735 C208.209836,18.9855716 206.629588,18.9605051 205.228595,19.0934665 C206.302122,19.239506 207.491814,19.6492886 208.094672,19.21117 C208.014558,19.4193309 208.020567,19.6983318 207.809266,19.7953282 C203.844627,19.3604791 199.416328,20.2334468 194.911921,19.9130317 C195.686022,20.717339 198.401885,19.8389221 199.353238,20.7325969 C199.054814,21.3102159 197.30833,20.6334208 197.204181,21.0824379 C197.458543,21.109684 197.921201,20.9658242 197.777998,21.316755 C196.034518,21.8278934 196.100612,20.7751009 194.625514,21.5510722 C196.316919,21.6513382 197.807039,21.9161711 199.210035,22.2529339 C197.102036,22.4676338 196.18373,22.0763786 194.911921,22.6027749 C195.36156,22.8599788 196.492169,22.5602708 196.488163,23.1880229 C192.285185,23.2991873 187.105818,22.8207443 184.022432,24.0086779 C184.544174,24.043553 184.952755,23.9890606 185.311265,23.8898845 C185.123999,24.393394 185.993235,24.0337444 185.88408,24.4751325 C187.952021,24.1492682 189.092644,24.9971694 191.041416,24.5928361 C191.207652,24.7301568 191.204648,25.0058882 191.185621,25.292518 C188.794219,25.3666276 186.335722,25.157377 184.164634,25.7622422 C184.150614,25.5791479 184.18266,25.356819 183.878227,25.4113114 C182.356062,24.9633841 181.041191,25.7317265 179.579112,25.527925 C178.548646,25.9355279 176.748085,25.7142889 175.852811,26.2286969 C180.236046,26.2330563 183.634881,26.5284049 187.317118,26.8139449 C184.715418,27.3021965 182.329023,26.977422 179.579112,27.1670554 C179.9927,27.605174 179.9927,27.4275289 179.579112,27.8667374 C180.621595,27.6771039 181.633033,27.2368056 183.305412,27.2825792 C182.907846,27.5321543 183.569788,27.9190501 183.018003,27.9844409 C181.01215,27.619342 179.353791,28.4825011 177.144649,28.3342819 C176.932347,28.7800294 177.783558,28.3571687 177.572257,28.8018264 L176.570833,28.8018264 C176.514753,29.1985308 177.203733,28.9860106 176.999442,29.5058677 C175.404173,29.290078 174.674135,30.0660493 173.13094,30.0911157 C173.718776,30.3504994 174.639085,30.3406908 175.567406,30.3232532 C175.765688,30.4736522 175.654529,30.8758058 175.852811,31.0262047 C176.87126,31.1689747 178.18613,31.0708885 178.863093,31.4937492 C178.564669,31.7585821 177.796576,31.6365192 177.430055,31.8435902 C177.590283,31.6757537 177.583273,31.5591401 177.28585,31.4937492 C176.814179,32.3362012 175.421198,31.3520691 174.420775,31.8435902 C176.847226,32.2915175 179.149501,32.9704923 181.585966,33.0140862 C181.41973,33.3824546 181.810285,33.2985364 181.872374,33.4816307 L180.297133,33.4816307 C180.394271,34.0254645 181.574951,33.6854322 181.585966,34.3011959 C179.631186,34.4679426 176.736068,33.5241348 176.713035,35.3550783 C177.682414,35.6231807 179.538053,35.1349291 180.152928,35.9381466 C176.959385,36.0416821 175.123774,36.0514907 171.411494,36.0547602 C172.820498,36.8263721 175.199883,36.5593596 176.284425,37.3418699 C179.770384,37.4977181 182.565359,37.8224926 186.170487,38.0448214 C186.27063,38.4676822 187.010682,38.3717756 187.174916,38.7466831 C184.709409,38.8295115 182.79068,38.4578736 180.868946,38.6300694 C183.904264,39.1150515 187.416259,39.2120479 190.469602,39.6817721 C190.744994,39.8485187 190.728971,40.2495826 190.900215,40.5013373 C192.036831,40.62449 193.259571,40.6789824 193.908494,41.203199 C192.574596,41.352508 191.175606,40.9394559 190.328401,41.0865853 C191.717377,41.6674739 194.075732,41.4549537 195.483734,42.0194946 C194.11679,42.5982035 191.809508,42.0042367 190.182193,42.0194946 C189.928833,43.1169708 188.025125,42.3976716 187.460322,42.8390598 C188.132278,42.9153491 189.176763,42.687571 189.61038,42.9556734 C187.62055,43.443925 185.029865,42.8630364 183.162208,43.5420113 C184.087524,43.6041326 184.41499,44.157775 185.596671,44.0106456 C185.995238,43.8351802 185.349319,43.5322027 185.740876,43.4253976 C186.950597,43.3774443 188.02112,43.4177687 189.465174,43.4253976 C190.758012,43.4319367 192.645697,43.0537597 193.334677,43.894032 C192.650705,43.9408954 191.753428,43.5507301 191.185621,43.894032 C191.411943,43.9027507 191.683329,43.8776843 191.615232,44.1272593 C190.606797,44.1991892 189.186778,43.9387157 188.605951,44.3604866 C189.184775,44.4356861 190.129118,44.2089978 190.469602,44.4781901 C187.204959,44.9511839 183.379517,44.529413 180.582539,45.0634381 C180.835899,45.0885046 181.299559,44.9457346 181.154352,45.2966655 C178.835053,44.7386636 176.23836,45.3969314 174.134367,45.9985271 C174.416769,46.0911642 174.648098,46.4072199 174.420775,46.5837751 C172.850541,46.6219198 170.556278,46.7864867 168.545418,47.2834571 C166.820965,47.4011606 169.713078,47.4937976 169.978456,47.1668435 C174.696166,47.4545631 180.487404,46.7984751 184.737449,47.7531813 C184.730439,47.5515596 184.847606,47.4523834 185.023856,47.4011606 C186.257611,47.9635218 189.257879,47.8632559 190.900215,48.455043 C190.796067,48.7514814 190.08105,48.1716827 190.039991,48.6882703 C190.878183,48.8997007 192.202066,48.718786 192.475455,49.3912218 C190.848141,49.318202 188.331561,49.1601742 186.314692,49.739973 C186.609111,49.810813 187.308105,49.5525192 187.174916,49.9775597 C186.934574,49.9906378 185.876068,49.911079 186.314692,50.0930835 C189.175762,50.2511113 192.516514,49.9067196 194.767716,50.7927655 C194.836814,50.6554447 194.921935,50.5301123 195.054123,50.4429245 C195.884304,51.0379811 198.150527,51.1709425 200.213462,51.3780135 C200.203448,51.5818149 200.244506,51.7420225 200.356665,51.8477377 C201.95594,51.5938032 202.748067,52.3610557 203.939762,52.080965 C204.596696,52.9070693 206.56049,52.0994924 207.376651,52.9005302 C206.376228,53.1817108 205.239611,52.8482175 204.081964,53.1337575 C204.355353,53.3528168 204.341333,53.0629174 204.798984,53.1337575 C205.413859,54.0481394 208.292954,53.3419183 209.241303,53.8356192 C208.744596,53.8192715 209.010975,54.4284961 208.523282,54.4208672 C206.38524,54.5679966 204.141048,54.1789211 202.361517,54.4208672 C203.653355,54.4982463 204.577669,54.8742437 206.087817,54.771798 C206.149906,55.093303 205.55506,54.8807827 205.515003,55.1238187 C206.050765,55.3265303 206.428302,54.8393685 207.091245,54.771798 C208.775641,54.6017818 211.605666,55.1031116 212.823398,55.5913632 C211.945149,55.5739256 211.111964,55.5957226 210.529135,55.8235007 C211.598656,55.8605555 212.879478,56.1766112 213.826825,55.9401143 C214.04113,56.0785249 213.993062,56.4283659 214.398639,56.4098385 C216.413505,56.7160856 219.144389,56.434905 220.560403,57.2283138 C221.593873,57.2424819 222.629346,57.2566499 223.283276,57.5781548 C223.231202,57.8179212 221.859251,57.5727056 222.279849,57.8102923 C223.894145,57.7928548 225.253078,58.0293516 226.436762,58.0467892 C226.43576,58.2015475 226.184403,58.1546841 226.149353,58.2811064 C227.481247,58.0914729 228.869221,58.761729 230.447466,58.7508305 C229.443038,59.0701558 227.702562,58.6887092 227.15278,59.0995817 C229.827585,59.1813202 231.441881,59.7927246 234.030563,59.8014434 C232.73472,60.2471909 230.996247,59.68265 230.447466,60.6210085 C231.956613,60.7517902 232.897952,60.5076644 233.888361,60.8542359 C233.531853,60.9915566 233.04416,61.024252 232.598526,61.0874632 C232.267054,61.4046088 232.869912,61.6356564 232.598526,61.7904147 C230.737879,61.9342745 228.837176,61.673801 227.438186,62.0225522 C228.017009,62.0214623 228.543758,62.0585171 228.728021,62.3767526 C228.799122,62.7418514 228.071086,62.4617606 228.012002,62.7255037 C229.255771,62.9772584 231.082369,62.4257957 232.309114,63.073165 L231.164486,63.073165 C231.242597,63.5058344 231.337733,63.7030967 230.878079,63.8949099 C229.323868,63.5777643 227.555353,64.0605667 225.71874,63.8949099 C227.480246,64.428935 230.582659,64.5084939 232.884933,64.9498821 C231.368777,65.0741247 229.569217,64.9694993 228.156207,65.1820195 C228.466649,65.3967195 229.327874,65.1580429 229.588244,65.4163367 C229.162639,66.021202 227.903848,65.2234337 227.293981,65.6506539 C232.37621,65.9699791 237.772886,67.3203 242.913197,66.2359019 C242.512628,65.7116853 243.312766,65.7879746 243.773421,65.6506539 C243.904608,64.7798659 243.756397,63.686749 244.491442,63.3118416 C243.664266,63.2617086 243.849529,62.5009952 243.773421,62.2601389 C244.663687,62.1064704 246.717609,62.0705055 245.923479,62.4911865 C246.773689,62.694988 247.991421,62.5979916 248.21574,63.3118416 C251.157925,64.0714651 256.283215,63.1309269 258.391213,63.7782962 C256.165047,64.5041345 254.76105,63.615909 252.944466,64.479068 C253.811699,64.3417473 254.246317,64.5488183 254.950319,64.2469305 C259.751148,64.9324445 265.506334,63.9766484 270.140926,64.3646341 C269.290716,64.3711731 268.803023,64.6752405 267.848665,64.5967715 C267.833644,65.078484 268.342368,65.128617 268.707887,65.2997231 C269.896578,64.8757724 272.373101,65.5907123 273.865223,65.1820195 C273.575812,63.8927302 275.635742,64.5215721 276.159487,63.8949099 C275.389391,63.8981794 274.870653,63.6998272 274.296837,63.543979 C274.866648,62.9565513 276.662202,63.372873 277.017707,62.60889 C277.42729,62.473749 276.395823,62.6633824 276.873502,62.2601389 C278.090233,61.9255558 279.905815,62.0781344 280.599802,61.3206905 C282.050866,61.1877291 284.144845,61.2727372 285.32953,60.6210085 C293.690422,59.6128998 301.887081,60.1327569 309.832382,58.633127 C309.444831,57.7950345 312.556257,57.8233705 313.558683,57.3449275 C312.077576,57.6947685 310.992032,57.4103184 309.688177,57.1117002 C310.792748,56.2954045 313.795019,57.0321413 314.56211,55.9401143 C313.26827,55.5368708 310.852834,56.1079508 309.688177,55.3559562 C310.982018,54.6976884 312.162697,53.9446039 313.844089,53.6023918 C314.349808,53.5675167 313.338369,53.2852463 313.844089,53.2503712 C314.341797,52.9920773 314.775413,53.61547 315.564536,53.4857782 C315.688712,53.1076012 315.191005,53.2405625 315.133923,53.0171438 C316.654086,51.9272965 316.414745,50.6129407 316.279553,48.8059738 C316.504873,48.7536611 316.402728,48.4376054 316.851366,48.5727465 C316.857375,48.2970151 316.607019,48.226175 316.712168,47.869795 C316.901437,47.5853448 317.242923,47.9973071 317.283982,47.7531813 C316.743212,47.2278749 317.724608,46.9477841 318,46.699299 L318,46.699299 Z M252.65906,66.9377636 C253.563346,66.9007088 254.727001,67.2156746 255.237728,66.7034464 C254.640879,66.9955255 253.23588,66.6282469 252.65906,66.9377636 L252.65906,66.9377636 Z M255.524135,66.5857429 C256.158037,67.2756162 257.898512,66.7797357 258.819823,66.7034464 C257.84744,66.4571409 256.788934,66.8157007 255.524135,66.5857429 L255.524135,66.5857429 Z M253.375078,65.0654059 C253.992957,65.0741247 254.889232,65.2953637 255.237728,64.8321786 C254.78909,64.5139431 253.429155,65.0621363 253.375078,65.0654059 L253.375078,65.0654059 Z M291.347089,64.7133852 C291.990004,64.7319126 292.573834,64.700307 292.923331,64.479068 C292.391575,64.5520878 291.448233,64.2916143 291.347089,64.7133852 L291.347089,64.7133852 Z M293.926758,64.479068 C295.61516,64.4158569 297.364649,64.4027787 298.798688,64.1314067 C297.036181,64.0987113 295.525032,64.1270473 293.926758,64.479068 L293.926758,64.479068 Z M300.804541,62.2601389 C301.843018,62.2110958 302.798377,62.3200805 301.665766,62.138076 C301.36634,62.0944821 300.830578,61.8558055 300.804541,62.2601389 L300.804541,62.2601389 Z M304.961454,62.0225522 C304.465749,61.838368 303.807813,61.7032269 303.528416,62.138076 C305.6965,61.9626106 308.479458,62.2841155 309.832382,61.4405737 C308.400346,61.2269636 306.408512,61.5855234 304.961454,62.0225522 L304.961454,62.0225522 Z M308.255139,61.0874632 C307.589192,60.6428055 305.575327,61.0689358 304.674045,61.2040768 C305.726542,61.516863 306.62482,60.9141775 308.255139,61.0874632 L308.255139,61.0874632 Z M299.515708,60.6210085 C298.923866,59.9245961 296.579532,60.5686959 295.788406,60.8542359 C296.552493,61.1059906 298.484241,60.8618648 299.515708,60.6210085 L299.515708,60.6210085 Z M230.591671,60.1512843 C230.341315,60.2199447 229.751476,60.0117839 229.732449,60.2689879 C229.898686,60.289695 229.88767,60.4553517 229.87365,60.6210085 C230.22515,60.5545278 230.399398,60.3452772 230.591671,60.1512843 L230.591671,60.1512843 Z M305.676471,60.5022152 C308.251133,60.4193868 311.330513,60.7517902 313.12807,60.0346707 C310.6886,59.3437075 308.101921,59.9605611 305.676471,60.5022152 L305.676471,60.5022152 Z M308.829957,59.5660363 C309.439824,59.568216 309.687176,59.7393221 310.119791,59.4494227 C309.729236,59.5235323 308.982173,59.3012034 308.829957,59.5660363 L308.829957,59.5660363 Z M312.697458,59.3338989 C312.879717,59.4919267 313.399456,59.5159034 313.414478,59.2161953 C313.080002,59.1813202 312.796599,58.9666203 312.697458,59.3338989 L312.697458,59.3338989 Z M312.413053,58.7508305 C311.445677,58.7519204 310.774723,58.4696499 310.119791,58.633127 C310.314068,58.5840839 311.956404,59.1344568 312.413053,58.7508305 L312.413053,58.7508305 Z M313.988294,53.9522328 C314.286718,53.8835724 314.929633,54.0971825 314.989718,53.8356192 C314.797445,53.6765015 313.989295,53.6122005 313.988294,53.9522328 L313.988294,53.9522328 Z M178.00287,51.9632615 C179.397854,51.9174879 180.927029,52.3817628 182.158781,52.080965 C181.139331,51.8847925 178.651793,51.6864403 178.00287,51.9632615 L178.00287,51.9632615 Z M187.603526,51.495717 C185.087947,51.3649353 188.349587,51.5611078 187.747731,51.495717 C187.701665,51.4902677 187.649591,51.4978967 187.603526,51.495717 L187.603526,51.495717 Z M189.61038,42.0194946 C188.642003,42.1829717 187.671622,41.7361343 187.030711,42.0194946 C187.994081,42.0619986 189.276906,42.6080121 189.61038,42.0194946 L189.61038,42.0194946 Z M185.88408,38.2780488 C185.550606,38.2867675 184.349898,38.183232 184.880653,38.5112761 C184.977791,38.2279158 185.840017,38.8109841 185.88408,38.2780488 L185.88408,38.2780488 Z M311.407623,26.8139449 C311.111201,26.884785 310.466284,26.670085 310.406199,26.9316484 C310.77272,27.0373636 311.217352,27.1223717 311.407623,26.8139449 L311.407623,26.8139449 Z M178.863093,24.7083599 C178.225186,24.7770202 177.457093,24.1383697 176.999442,24.8260634 C177.742499,24.6527777 178.673824,25.157377 178.863093,24.7083599 L178.863093,24.7083599 Z M184.595247,24.5928361 C183.126157,24.379226 180.753783,24.6200822 179.149501,24.8260634 C180.703711,24.8326025 183.162208,25.1660957 184.595247,24.5928361 L184.595247,24.5928361 Z M188.894362,18.625922 C188.596939,18.6978519 187.896943,18.4373784 188.033137,18.8602392 C188.413678,18.8580595 188.876336,18.92563 188.894362,18.625922 L188.894362,18.625922 Z M302.810394,18.8602392 C302.042302,18.4341089 300.986801,18.2455653 300.661338,17.455426 C299.051047,17.9000837 296.726741,17.3813164 295.933613,17.9251502 C298.636458,17.8586695 300.059482,19.3419517 302.810394,18.8602392 L302.810394,18.8602392 Z" id="Fill-1"></path>
                        </g>
                    </g>
                </g>
            </g>
        </g>
    </g>
</svg>