<?xml version="1.0" encoding="UTF-8"?>
<svg width="254px" height="54px" viewBox="0 0 254 54" version="1.1" xmlns="http://www.w3.org/2000/svg" xmlns:xlink="http://www.w3.org/1999/xlink">
    <!-- Generator: Sketch 42 (36781) - http://www.bohemiancoding.com/sketch -->
    <title>Fill 1</title>
    <desc>Created with Sketch.</desc>
    <defs></defs>
    <g id="Page-1" stroke="none" stroke-width="1" fill="none" fill-rule="evenodd" opacity="0.896059783">
        <g id="首页--copy-13" transform="translate(-74.000000, -520.000000)" fill="#DB2037">
            <path d="M260.54325,569.5611 C261.871019,569.801034 264.699522,569.764818 267.097306,569.801034 C267.007432,568.851484 270.476927,569.655036 271.462155,568.951079 C268.555647,568.819794 262.440789,568.461025 260.54325,569.5611 L260.54325,569.5611 Z M296.940728,568.102256 C294.832917,568.367088 291.807707,568.152053 290.876743,568.468947 C292.804805,568.290128 295.275506,568.622867 296.940728,568.102256 L296.940728,568.102256 Z M298.926446,568.312764 C298.153186,568.22675 297.334141,568.686246 297.914086,568.468947 C300.233866,568.545907 302.451901,568.359166 304.463055,567.981157 C303.686403,567.787625 297.308705,567.991343 298.926446,568.312764 L298.926446,568.312764 Z M137.769592,560.450396 C136.684315,560.411916 134.369622,560.432287 134.128827,560.572626 C135.15984,560.564704 137.225258,560.981193 137.769592,560.450396 L137.769592,560.450396 Z M289.662589,527.045234 C289.206434,527.075792 287.971931,527.025994 286.264316,527.045234 C286.18292,526.681938 291.156541,526.946771 289.662589,527.045234 L289.662589,527.045234 Z M272.678004,525.587521 C271.74704,525.575072 270.778769,525.436997 270.008901,525.466423 C270.97378,525.155187 273.468221,525.416625 274.132953,525.466423 C277.037765,525.68938 273.407174,525.597707 272.678004,525.587521 L272.678004,525.587521 Z M268.798139,525.466423 C267.994355,525.460764 267.589072,525.260441 266.610627,525.345324 C265.896718,525.233279 269.10846,524.99674 268.798139,525.466423 L268.798139,525.466423 Z M260.54325,531.419504 C258.945858,531.306328 261.777753,531.305196 262.486574,531.297273 C264.306109,531.27577 266.222301,531.246344 267.582289,531.297273 C264.306109,531.445535 262.255953,531.537207 260.54325,531.419504 L260.54325,531.419504 Z M257.150064,567.737827 C258.742369,567.398298 263.192005,567.263618 264.428203,567.860058 C261.943936,567.836291 259.127303,568.22675 257.150064,567.737827 L257.150064,567.737827 Z M256.419198,532.874953 C256.758347,532.598803 258.109856,532.829683 258.845809,532.754986 C258.064071,533.080934 257.606219,532.845527 256.419198,532.874953 L256.419198,532.874953 Z M253.995978,536.519235 C254.960857,536.625621 255.786685,536.339284 256.178402,536.519235 C255.99187,536.720689 254.175727,536.720689 253.995978,536.519235 L253.995978,536.519235 Z M246.958634,531.297273 C249.012182,530.940768 252.456241,531.368575 254.238469,531.176175 C252.831,531.658306 248.767995,531.418372 246.958634,531.297273 L246.958634,531.297273 Z M245.986972,532.754986 C247.04003,532.749327 247.83703,532.759513 248.652684,532.754986 C246.298989,533.050377 241.174447,532.781017 245.986972,532.754986 L245.986972,532.754986 Z M241.861224,536.642597 C242.80745,536.017863 245.841138,536.667496 246.958634,536.398136 C246.190462,536.947042 243.429788,536.494336 241.861224,536.642597 L241.861224,536.642597 Z M241.861224,570.411055 C242.308901,570.149618 243.292433,570.15754 244.289531,570.169989 C243.728239,570.358994 242.446256,570.614773 241.861224,570.411055 L241.861224,570.411055 Z M239.192121,549.759748 C240.014557,549.507365 241.098138,549.502837 242.105411,549.639781 C241.608558,549.919327 240.090866,549.682788 239.192121,549.759748 L239.192121,549.759748 Z M236.280526,558.507156 C237.096179,558.226478 238.946238,558.464149 240.160391,558.384925 C239.349825,558.667867 237.498071,558.430196 236.280526,558.507156 L236.280526,558.507156 Z M235.31056,557.293904 C235.415696,557.020017 236.507756,557.242975 237.009696,557.16941 C236.78925,557.632302 236.034643,557.25882 235.31056,557.293904 L235.31056,557.293904 Z M233.368931,558.507156 C233.475763,558.236664 234.56104,558.459622 235.066372,558.384925 C234.86797,558.640704 233.789476,558.717664 233.368931,558.507156 L233.368931,558.507156 Z M231.186507,558.628255 L232.883948,558.628255 L232.883948,558.384925 L231.186507,558.384925 L231.186507,558.628255 Z M227.788233,558.628255 C228.013767,558.172154 229.73834,558.470939 230.698132,558.384925 C230.330156,558.765198 228.8379,558.587511 227.788233,558.628255 L227.788233,558.628255 Z M225.122522,559.479342 C225.614288,558.894219 226.675824,559.350321 228.029029,559.237144 C227.454171,559.67061 226.212886,559.190742 225.122522,559.479342 L225.122522,559.479342 Z M224.149164,557.415003 C223.584481,557.2011 225.795732,557.356151 226.090792,557.16941 C226.240018,557.65041 224.757936,557.313144 224.149164,557.415003 L224.149164,557.415003 Z M222.207535,551.339691 C221.975218,550.901698 223.163936,551.169927 223.662485,551.097494 C223.637049,551.407597 222.850223,551.337428 222.207535,551.339691 L222.207535,551.339691 Z M221.722552,558.628255 C221.290137,558.628255 221.212133,558.765198 220.752586,558.749354 C222.151576,558.215161 225.137783,558.638441 221.722552,558.628255 L221.722552,558.628255 Z M219.295941,551.097494 C220.262515,551.201616 220.515181,551.201616 221.478365,551.097494 C221.693725,551.485689 219.078885,551.485689 219.295941,551.097494 L219.295941,551.097494 Z M217.596804,558.384925 C218.356498,558.701819 219.216241,558.216292 220.02172,558.507156 C219.774141,558.662208 217.473014,558.819523 217.596804,558.384925 L217.596804,558.384925 Z M213.957734,551.219724 C214.159528,550.952628 217.405185,551.166531 218.807566,551.097494 C217.693461,551.536618 216.058763,551.116734 213.957734,551.219724 L213.957734,551.219724 Z M214.686905,558.628255 C214.539375,558.148387 216.019761,558.485652 216.628533,558.384925 C216.572574,558.762935 215.419467,558.589775 214.686905,558.628255 L214.686905,558.628255 Z M212.260293,557.415003 C212.838542,556.988328 213.864468,557.437638 214.927701,557.16941 C214.898873,557.683231 213.065772,557.291641 212.260293,557.415003 L212.260293,557.415003 Z M210.561156,569.922133 C211.047835,569.546387 211.917753,569.807825 213.23026,569.682199 C213.199736,570.193756 211.368331,569.801034 210.561156,569.922133 L210.561156,569.922133 Z M212.50448,558.384925 C212.697795,558.846685 211.353069,558.541109 210.801952,558.628255 C210.837563,558.283067 211.816008,558.406429 212.50448,558.384925 L212.50448,558.384925 Z M211.04614,551.219724 C211.303893,551.035247 213.386268,550.705903 213.471055,551.219724 L211.04614,551.219724 Z M210.561156,536.398136 C211.583691,536.074451 212.726623,536.505654 213.715243,536.278169 C213.769507,536.75351 210.106697,536.514708 210.561156,536.398136 L210.561156,536.398136 Z M205.221254,554.620677 C205.283997,554.33434 206.287878,554.550507 206.437104,554.620677 C207.571557,554.697637 209.34022,554.461098 210.076173,554.741775 C208.461824,554.697637 206.464236,554.848161 205.221254,554.620677 L205.221254,554.620677 Z M201.339693,567.981157 C202.70816,568.513086 205.548533,568.305973 207.166274,568.711145 C205.367088,568.61155 201.604229,569.164982 201.339693,567.981157 L201.339693,567.981157 Z M202.553847,559.358243 C203.104964,559.010791 203.489898,559.284678 204.495475,559.116045 C204.644701,559.592518 203.160924,559.256384 202.553847,559.358243 L202.553847,559.358243 Z M205.709629,558.384925 C204.420862,558.753881 202.221481,558.479994 201.097202,558.507156 C202.153651,558.226478 204.247896,558.467544 205.709629,558.384925 L205.709629,558.384925 Z M204.249592,557.16941 C203.311845,557.506676 202.635243,557.305222 201.097202,557.415003 C201.263385,556.888733 203.298279,557.302959 204.249592,557.16941 L204.249592,557.16941 Z M205.950425,536.278169 C205.538359,536.555451 204.098671,536.32344 203.281322,536.398136 C203.696779,536.120854 205.136467,536.355129 205.950425,536.278169 L205.950425,536.278169 Z M206.437104,530.081758 C205.967382,530.363568 204.958414,529.891622 204.249592,530.203989 C204.336075,529.641502 205.818157,530.139478 206.437104,530.081758 L206.437104,530.081758 Z M204.495475,531.176175 C204.549739,531.001883 205.219559,531.134299 205.221254,530.932845 C207.261236,531.090161 208.075194,531.206732 204.495475,531.176175 L204.495475,531.176175 Z M209.350394,553.892952 C208.39569,554.15439 207.405374,554.146467 206.437104,554.012919 C206.930566,553.734505 208.451649,553.969912 209.350394,553.892952 L209.350394,553.892952 Z M209.831986,536.278169 C208.921371,536.738797 206.40658,536.089164 209.831986,536.278169 L209.831986,536.278169 Z M212.260293,531.297273 C211.227584,531.287088 210.561156,531.093556 209.350394,531.176175 C208.824713,531.059603 212.382387,530.820801 212.260293,531.297273 L212.260293,531.297273 Z M214.442717,530.081758 C213.462577,530.527674 212.046629,530.223229 210.318665,530.203989 C211.215714,529.924443 213.143776,530.162114 214.442717,530.081758 L214.442717,530.081758 Z M216.628533,524.737566 C213.93569,525.109917 213.381181,524.588173 216.628533,524.737566 L216.628533,524.737566 Z M222.936706,549.759748 C221.988784,549.656757 220.674582,549.548108 219.78262,549.759748 C219.816534,549.364762 222.899399,549.364762 222.936706,549.759748 L222.936706,549.759748 Z M220.752586,538.464738 C221.393578,538.457948 222.071876,538.469265 222.694214,538.464738 C221.090039,538.752206 217.106733,538.500955 220.752586,538.464738 L220.752586,538.464738 Z M222.450027,536.519235 C221.859908,536.896112 218.833002,536.325703 217.839295,536.519235 C217.888472,536.068793 222.25332,536.643729 222.450027,536.519235 L222.450027,536.519235 Z M219.536736,531.053944 C218.927964,531.598323 216.336865,531.151276 214.927701,531.297273 C216.347039,530.991697 217.522191,531.164857 219.536736,531.053944 L219.536736,531.053944 Z M221.235873,530.326219 C220.11329,530.351118 217.210174,530.305848 214.927701,530.326219 C216.86085,529.970845 219.575739,530.062518 222.207535,530.203989 C223.748968,530.287739 221.742901,530.312638 221.235873,530.326219 L221.235873,530.326219 Z M221.478365,532.635019 C218.77026,532.997184 218.273406,532.482231 221.478365,532.635019 L221.478365,532.635019 Z M221.478365,531.053944 L222.694214,531.053944 C223.063887,531.427426 221.110388,531.427426 221.478365,531.053944 L221.478365,531.053944 Z M212.745276,531.176175 C212.774104,530.906815 213.772898,531.125245 214.200226,531.053944 C214.195139,531.386683 213.053902,531.342544 212.745276,531.176175 L212.745276,531.176175 Z M218.325974,532.635019 C217.350921,532.915697 215.336375,532.675763 213.957734,532.754986 C214.934484,532.473177 216.949029,532.711979 218.325974,532.635019 L218.325974,532.635019 Z M226.818267,529.476264 C222.801046,530.045542 219.496039,529.398173 214.686905,529.596231 C217.283091,529.316686 223.011319,529.553224 226.818267,529.476264 L226.818267,529.476264 Z M228.029029,527.775222 C226.372286,528.28678 223.689617,527.861236 222.207535,527.895189 C223.862583,527.568109 226.604603,527.929142 228.029029,527.775222 L228.029029,527.775222 Z M229.974049,524.858665 C229.433106,525.2661 228.619148,524.974105 227.545742,524.979764 C227.881499,524.702482 229.234704,524.935625 229.974049,524.858665 L229.974049,524.858665 Z M230.214845,525.101994 L231.912286,525.101994 L231.912286,524.858665 L230.214845,524.858665 L230.214845,525.101994 Z M231.913982,529.71733 C231.03389,529.591704 229.099044,529.994612 229.002387,529.476264 C229.412757,529.718462 233.087437,529.474001 231.913982,529.71733 L231.913982,529.71733 Z M235.31056,530.326219 C234.818793,530.604634 233.296014,530.370358 232.398965,530.446186 C232.694025,529.858801 234.466078,530.404311 235.31056,530.326219 L235.31056,530.326219 Z M234.823881,527.895189 C236.614588,527.839733 235.703973,527.746928 238.707138,527.895189 C243.097422,528.11362 235.31056,528.067217 233.853914,528.016288 C231.29673,527.929142 234.304983,527.913298 234.823881,527.895189 L234.823881,527.895189 Z M238.464646,524.979764 C238.35951,525.252519 237.269145,525.02843 236.767205,525.101994 C236.963911,524.846216 238.045797,524.769256 238.464646,524.979764 L238.464646,524.979764 Z M233.12644,529.71733 C233.879351,529.445707 237.721909,529.668664 239.680495,529.596231 C237.82535,529.9799 235.875243,529.612076 233.12644,529.71733 L233.12644,529.71733 Z M238.707138,530.326219 C238.213676,530.604634 236.694288,530.370358 235.795543,530.446186 C236.289005,530.167772 237.81348,530.403179 238.707138,530.326219 L238.707138,530.326219 Z M233.368931,531.297273 C234.927321,531.176175 240.872604,530.933977 242.832886,531.419504 C239.159902,531.481751 236.316137,531.318777 233.368931,531.297273 L233.368931,531.297273 Z M236.524713,536.642597 C236.575586,536.264588 237.732084,536.435484 238.464646,536.398136 C238.078016,536.609776 237.372586,536.661837 236.524713,536.642597 L236.524713,536.642597 Z M236.524713,551.219724 C235.802326,551.466449 232.709286,551.579625 232.154778,551.339691 C233.175616,551.083912 235.112157,551.281971 236.524713,551.219724 L236.524713,551.219724 Z M233.12644,543.322271 C232.953474,542.992928 234.271068,543.410549 234.09471,543.081206 C234.937496,543.272474 239.322693,543.179669 237.252188,543.322271 C236.851992,543.350566 235.169813,543.304163 233.12644,543.322271 L233.12644,543.322271 Z M235.554747,536.398136 C235.468264,536.801044 234.154061,536.589404 233.368931,536.642597 C233.453718,536.238557 234.766225,536.451329 235.554747,536.398136 L235.554747,536.398136 Z M233.853914,532.754986 C231.144113,533.118283 230.645564,532.60333 233.853914,532.754986 L233.853914,532.754986 Z M231.67149,531.176175 C230.16906,531.573424 225.192047,531.265584 223.421689,531.176175 C225.181873,531.075448 228.632714,531.235026 231.67149,531.176175 L231.67149,531.176175 Z M227.545742,530.203989 C227.572874,530.532201 225.044517,530.638586 225.122522,530.203989 L227.545742,530.203989 Z M231.427303,530.203989 C231.145809,530.671408 229.30423,530.354514 228.274912,530.446186 C228.620844,529.841824 230.911796,530.458636 231.427303,530.203989 L231.427303,530.203989 Z M227.062454,529.476264 C227.847584,529.404963 228.190125,529.55662 228.7582,529.596231 C228.698849,529.771655 226.760612,529.879172 227.062454,529.476264 L227.062454,529.476264 Z M224.149164,536.519235 C226.50625,536.394741 231.171245,536.162729 233.12644,536.642597 C229.746819,536.600722 227.86115,536.470569 224.149164,536.519235 L224.149164,536.519235 Z M229.002387,549.759748 C229.258444,549.486993 230.526862,549.714477 231.186507,549.639781 C230.559081,549.99176 230.028313,549.757484 229.002387,549.759748 L229.002387,549.759748 Z M227.30325,554.741775 C227.798408,554.463361 229.321187,554.695373 230.214845,554.620677 C229.721383,554.899091 228.200299,554.664815 227.30325,554.741775 L227.30325,554.741775 Z M228.5191,557.16941 C229.204181,557.299563 229.526372,557.299563 230.214845,557.16941 C230.526862,557.555342 228.205387,557.555342 228.5191,557.16941 L228.5191,557.16941 Z M243.801157,530.446186 C242.112194,530.488062 241.857832,530.555968 240.648766,530.446186 C241.145619,530.246996 243.305999,530.246996 243.801157,530.446186 L243.801157,530.446186 Z M243.321261,531.419504 L245.017006,531.419504 L245.017006,531.176175 L243.321261,531.176175 L243.321261,531.419504 Z M247.441922,530.326219 C246.86876,530.604634 245.264585,530.370358 244.289531,530.446186 C244.862693,530.166641 246.466868,530.403179 247.441922,530.326219 L247.441922,530.326219 Z M246.229464,529.596231 C245.729219,529.879172 244.988178,529.816925 244.289531,529.71733 C244.467584,529.443443 245.649519,529.669796 246.229464,529.596231 L246.229464,529.596231 Z M244.772819,524.979764 C245.156057,524.968446 248.310143,524.988818 249.868533,524.979764 C248.939265,525.623738 243.372133,525.021639 244.772819,524.979764 L244.772819,524.979764 Z M251.323483,525.101994 C250.729972,525.103126 250.813064,525.339665 250.112721,525.101994 C252.268013,524.81679 254.387695,525.094072 251.323483,525.101994 L251.323483,525.101994 Z M253.509299,527.895189 C252.598683,528.356949 250.082197,527.707316 253.509299,527.895189 L253.509299,527.895189 Z M246.712751,529.71733 C247.692892,529.435521 249.700655,529.676587 251.082687,529.596231 C250.333168,530.124765 247.251998,529.725253 246.712751,529.71733 L246.712751,529.71733 Z M252.295145,530.326219 C251.689764,530.943031 249.112231,530.215307 248.898567,530.567285 C248.554331,530.001403 251.615151,530.579735 252.295145,530.326219 L252.295145,530.326219 Z M257.150064,531.297273 C256.965228,531.498727 255.147389,531.498727 254.96764,531.297273 C256.091919,531.368575 256.431068,531.132036 257.150064,531.297273 L257.150064,531.297273 Z M256.665081,524.979764 C257.436645,525.379277 254.140116,525.270627 253.75179,525.101994 C254.301212,524.716063 256.40224,525.218566 256.665081,524.979764 L256.665081,524.979764 Z M262.244083,525.101994 C262.705326,525.340797 260.297367,525.174427 259.57498,525.224225 C259.25618,525.370223 259.193437,525.271759 258.845809,525.224225 C259.500367,524.943547 261.187634,525.181218 262.244083,525.101994 L262.244083,525.101994 Z M259.091692,530.567285 C258.83733,530.316034 261.542044,530.505038 262.486574,530.446186 C265.081065,530.586525 260.392329,530.651036 259.091692,530.567285 L259.091692,530.567285 Z M198.429794,558.384925 C199.24036,558.380398 199.867786,558.387189 200.613914,558.384925 C198.490841,558.679184 194.153124,558.409824 198.429794,558.384925 L198.429794,558.384925 Z M189.208331,557.293904 C191.311055,557.009831 194.463446,557.253161 196.973149,557.16941 C194.868729,557.453483 191.718034,557.213549 189.208331,557.293904 L189.208331,557.293904 Z M185.570957,529.110704 C185.467517,529.0179 185.954196,528.99866 186.05594,528.990737 C187.772035,528.841344 186.919075,529.032613 187.751686,529.110704 C190.648019,529.380064 185.754098,529.279337 185.570957,529.110704 L185.570957,529.110704 Z M183.87182,549.155386 C184.287278,548.87584 185.721879,549.108983 186.539228,549.030892 C186.196687,549.326282 184.826525,549.26743 183.87182,549.155386 L183.87182,549.155386 Z M184.112616,571.871031 C184.041395,571.550742 186.417134,571.435302 186.29504,571.871031 L184.112616,571.871031 Z M192.606605,530.811746 C190.286825,531.170516 189.367731,530.671408 192.606605,530.811746 L192.606605,530.811746 Z M192.8474,529.110704 C192.25389,529.690168 190.734502,529.068829 189.450823,529.231803 C189.203244,528.980551 191.906262,529.169556 192.8474,529.110704 L192.8474,529.110704 Z M194.790725,549.155386 C194.607584,549.580929 193.576571,549.095402 192.8474,549.397583 C192.698175,548.917715 194.180256,549.253849 194.790725,549.155386 L194.790725,549.155386 Z M197.698928,550.855296 C197.381824,551.006952 194.973865,551.173322 195.03152,550.730802 C195.76917,550.867745 196.584823,550.700244 197.698928,550.855296 L197.698928,550.855296 Z M196.728962,529.231803 C194.497361,529.641502 194.373571,528.970366 196.728962,529.231803 L196.728962,529.231803 Z M200.369727,557.16941 C200.24085,557.5859 199.199663,557.356151 198.672286,557.293904 C198.77403,557.020017 199.867786,557.242975 200.369727,557.16941 L200.369727,557.16941 Z M176.832781,558.264958 C176.441064,558.020497 178.950767,558.194789 179.744376,558.144991 C179.313657,558.550163 178.118156,558.125751 176.832781,558.264958 L176.832781,558.264958 Z M168.828863,535.671543 C169.469855,535.11132 172.06265,535.554972 173.195408,535.548181 C171.816767,535.877524 170.721315,535.600242 168.828863,535.671543 L168.828863,535.671543 Z M168.58298,556.806114 L172.707033,556.806114 C172.105043,557.194309 169.703868,556.911368 168.58298,556.806114 L168.58298,556.806114 Z M169.312151,548.788694 C166.992371,549.147463 166.074973,548.648355 169.312151,548.788694 L169.312151,548.788694 Z M162.034012,548.788694 C162.766574,548.51028 164.535236,548.747951 165.674777,548.666463 C165.262711,549.129355 162.844578,548.890553 162.034012,548.788694 L162.034012,548.788694 Z M161.547333,535.183753 C162.434208,535.204125 162.846274,535.32296 163.24647,535.183753 C164.340226,535.456508 161.182748,535.653435 161.547333,535.183753 L161.547333,535.183753 Z M159.848196,528.259617 C160.358615,528.353554 164.245264,528.444095 162.517299,528.502947 C162.229023,528.514264 160.484101,528.717982 159.848196,528.259617 L159.848196,528.259617 Z M160.573975,548.788694 C159.770192,548.666463 157.940483,549.058054 157.906568,548.546496 C158.886709,548.665332 161.260752,548.566868 160.573975,548.788694 L160.573975,548.788694 Z M153.780819,535.063786 C154.520164,534.777449 155.858107,535.032096 156.209127,535.063786 C155.676663,535.39992 154.481162,535.045677 153.780819,535.063786 L153.780819,535.063786 Z M170.7671,531.7828 C170.353339,532.060083 168.917042,531.828071 168.101389,531.905031 C168.511759,531.626617 169.951447,531.858629 170.7671,531.7828 L170.7671,531.7828 Z M150.628429,534.941555 C150.735261,534.669932 151.823929,534.891758 152.327566,534.821588 C152.127468,535.076235 151.047278,535.154327 150.628429,534.941555 L150.628429,534.941555 Z M141.649457,534.577127 C141.802074,534.316821 143.1468,534.462819 143.35029,534.577127 C143.060317,534.903075 142.085264,534.577127 141.649457,534.577127 L141.649457,534.577127 Z M138.737862,536.398136 C139.76718,536.652783 141.832598,536.38795 142.861915,536.642597 C142.295536,536.640334 139.224541,536.848578 138.737862,536.398136 L138.737862,536.398136 Z M137.769592,532.754986 C137.676326,532.457332 139.877403,532.515052 139.953712,532.874953 C139.350026,532.775358 138.649684,532.716506 137.769592,532.754986 L137.769592,532.754986 Z M134.61381,532.635019 C134.220397,532.389426 136.731796,532.56485 137.525404,532.512789 C136.864064,532.89872 135.987363,532.522974 134.61381,532.635019 L134.61381,532.635019 Z M125.87733,533.969369 C127.23223,533.8992 128.76688,534.115367 130.971349,534.090468 C130.232004,534.406231 126.930388,534.269287 125.87733,533.969369 L125.87733,533.969369 Z M128.063145,536.642597 C128.398903,536.365315 129.752108,536.596195 130.489757,536.519235 C130.152304,536.796517 128.800795,536.565637 128.063145,536.642597 L128.063145,536.642597 Z M124.909059,536.033708 C124.842925,535.970329 127.167792,535.879788 128.063145,536.033708 C127.135573,536.215922 125.107461,536.235162 124.909059,536.033708 L124.909059,536.033708 Z M113.988459,536.033708 C114.197036,535.783588 115.677421,535.905819 115.931783,536.033708 C115.543458,536.375501 114.839723,535.862811 113.988459,536.033708 L113.988459,536.033708 Z M115.6859,530.688384 C115.302662,530.990565 113.988459,530.740445 113.505172,530.688384 C113.890106,530.389598 115.200917,530.639718 115.6859,530.688384 L115.6859,530.688384 Z M100.646335,535.548181 C100.274967,535.354649 103.359527,535.354649 103.79703,535.548181 C102.594746,535.856021 102.248814,535.442927 100.646335,535.548181 L100.646335,535.548181 Z M102.101284,532.874953 C102.681229,532.828551 101.963929,533.43065 102.827063,533.240513 C102.40991,533.447626 102.19455,533.221273 101.372114,533.361612 C101.445031,533.113755 101.857097,533.037927 102.101284,532.874953 L102.101284,532.874953 Z M328,552.918503 C327.286091,551.989324 324.399933,551.606788 324.847609,550.489736 C323.209519,550.135494 321.188191,549.971388 319.26352,549.759748 C318.987114,549.379475 319.646758,549.466621 319.750199,549.275353 C319.143122,549.290066 318.990505,549.505101 318.778537,549.155386 C319.117686,548.228471 320.445455,547.800664 321.206844,547.089915 C321.001659,546.654186 319.953688,547.400019 319.750199,546.966553 C324.62038,545.885718 328.498549,539.140402 318.778537,540.407978 C318.763275,540.252926 318.469911,540.239345 318.539437,540.04355 C321.400159,539.692703 322.933113,537.94639 321.932623,536.398136 C322.565136,536.270247 323.409617,536.247611 323.633456,535.912609 C323.562234,535.50291 322.556657,535.56063 322.419302,535.183753 C323.809813,534.754814 322.424389,533.886751 321.449336,533.969369 C321.554472,533.698878 322.646532,533.920704 323.146777,533.847139 C321.35607,532.711979 316.682596,533.230327 314.65618,532.635019 C314.559522,532.842132 315.015678,532.945123 314.65618,532.998315 C310.949281,533.266544 312.424579,530.662354 312.229568,529.839561 C310.511778,529.484187 310.615219,528.218874 308.83299,527.895189 C309.728344,527.820493 309.574031,527.213867 309.560465,526.681938 C307.232207,526.007406 303.006409,525.692776 300.822289,525.345324 C302.602822,524.815658 303.628748,525.60563 305.677208,525.587521 C305.773866,525.296658 305.232923,525.324952 305.434717,524.979764 C301.056302,524.43878 295.495953,523.685025 290.876743,524.00871 C291.926409,524.252039 293.784946,524.091329 294.756608,524.373138 C293.391533,524.80434 289.805032,524.379929 289.662589,523.400952 C289.757551,523.086322 290.386673,523.034261 290.388368,522.672096 C287.180018,521.551649 282.162308,523.121407 277.773719,522.915425 C277.112378,522.884868 276.357771,522.598531 275.589599,522.549865 C274.494147,522.483091 273.079896,522.769428 272.193021,522.672096 C271.987836,522.649461 271.502852,522.242026 271.223054,522.186569 C270.302265,522.002091 269.549354,522.278242 269.037239,521.94324 C269.622271,521.662562 269.408607,521.552781 269.281426,521.093285 C268.438641,520.906543 267.068478,520.986899 265.884848,520.971054 C265.508393,521.483743 267.229574,520.945023 266.854814,521.458844 C256.683734,520.796762 248.659467,521.905891 238.464646,521.579943 C238.367988,521.060463 238.698659,520.328212 238.220459,520 C236.923213,520.119967 235.995641,520.42328 234.823881,520.606626 C235.122332,520.62247 235.40213,520.642842 235.31056,520.851087 C225.894086,521.753103 215.351637,521.398861 202.553847,521.458844 C202.738683,522.025858 200.344291,521.837986 199.642252,522.3088 C194.663544,521.790451 187.390492,521.624082 180.473547,522.066602 C179.713853,522.029254 181.089102,522.415185 180.231055,522.429898 C177.943495,522.745661 174.624921,522.471774 172.466237,522.549865 C169.144272,522.673228 164.572543,522.017936 163.731453,522.915425 C168.754251,522.830543 170.441517,523.864976 174.892849,523.888743 C165.137226,523.919301 151.128674,524.110569 144.561052,524.495369 C144.983292,524.607413 145.86508,524.490842 145.776901,524.858665 C145.403837,525.350983 143.475775,525.002399 142.861915,524.858665 C143.006053,524.563275 144.432175,524.917517 144.31856,524.495369 C142.088655,524.138863 139.412769,524.112832 137.040421,524.250908 C138.85826,524.402564 140.872806,524.828107 141.893644,524.373138 C141.757985,524.589305 141.768159,524.879037 141.410357,524.979764 C134.696901,524.52819 127.198315,525.434733 119.570853,525.101994 C120.881664,525.937237 125.480525,525.025034 127.091483,525.953081 C126.586151,526.552917 123.628771,525.850091 123.452414,526.316378 C123.883133,526.344672 124.666568,526.195279 124.424076,526.559707 C121.471783,527.090505 121.583702,525.99722 119.08587,526.803037 C121.949983,526.907159 124.473253,527.182178 126.848992,527.531893 C123.279448,527.75485 121.724449,527.348547 119.570853,527.895189 C120.332242,528.162286 122.246739,527.85105 122.239956,528.502947 C115.122913,528.618387 106.352518,528.121542 101.131318,529.355166 C102.014801,529.391382 102.706665,529.334794 103.313742,529.231803 C102.996638,529.754678 104.468545,529.381196 104.283709,529.839561 C107.785423,529.501163 109.716877,530.381676 113.016797,529.961791 C113.298291,530.104394 113.293204,530.39073 113.260984,530.688384 C109.211544,530.765344 105.04849,530.548045 101.372114,531.176175 C101.348373,530.986038 101.402637,530.755158 100.887131,530.811746 C98.3095977,530.346591 96.083084,531.144485 93.6072958,530.932845 C91.8623739,531.356125 88.8134238,531.126377 87.2974274,531.66057 C94.7197048,531.665097 100.475064,531.971805 106.71032,532.268327 C102.304774,532.775358 98.2638126,532.438092 93.6072958,532.635019 C94.3076387,533.089988 94.3076387,532.905511 93.6072958,533.361612 C95.3725667,533.164685 97.0852695,532.707452 99.9171643,532.754986 C99.2439534,533.01416 100.364841,533.415937 99.4304853,533.483842 C96.0339074,533.104701 93.2257531,534.001059 89.4849389,533.847139 C89.1254409,534.310031 90.5668244,533.870906 90.2090222,534.332666 L88.5132768,534.332666 C88.4183151,534.744628 89.5849879,534.523934 89.2390558,535.063786 C86.5377335,534.839696 85.3015352,535.645513 82.6883916,535.671543 C83.6837941,535.940903 85.2421841,535.930717 86.81414,535.912609 C87.1498976,536.068793 86.9616698,536.486414 87.2974274,536.642597 C89.0220004,536.790858 91.2485141,536.689 92.3948379,537.128124 C91.8895058,537.403143 90.5888691,537.276385 89.9682263,537.491421 C90.2395456,537.317129 90.2276754,537.19603 89.724039,537.128124 C88.925343,538.002978 86.5665612,536.980995 84.8725116,537.491421 C88.9813025,537.956576 92.8798211,538.661665 97.0055695,538.706936 C96.7240758,539.089472 97.3854165,539.002326 97.4905527,539.192463 L94.8231453,539.192463 C94.9876326,539.757213 96.9869163,539.404103 97.0055695,540.04355 C93.6954746,540.21671 88.7930748,539.236602 88.7540727,541.137966 C90.3955542,541.41638 93.5377703,540.909349 94.5789579,541.74346 C89.171226,541.850978 86.0629248,541.861163 79.7767968,541.864559 C82.1627105,542.665848 86.1918015,542.388566 88.0282937,543.201173 C93.9311832,543.363015 98.6640085,543.700281 104.768692,543.931161 C104.938266,544.370285 106.191422,544.27069 106.469524,544.660017 C102.294599,544.746031 99.0455512,544.360099 95.7914158,544.538918 C100.93122,545.042553 106.878199,545.143281 112.048526,545.631071 C112.514856,545.804231 112.487724,546.22072 112.777697,546.482158 C114.702368,546.610047 116.772873,546.666636 117.871716,547.211014 C115.612983,547.366066 113.244027,546.937127 111.809426,547.089915 C114.161425,547.693146 118.154905,547.472452 120.539123,548.058706 C118.224431,548.659673 114.317434,548.042861 111.561848,548.058706 C111.132824,549.198393 107.909212,548.451428 106.952812,548.909793 C108.090657,548.989016 109.859319,548.752478 110.593577,549.030892 C107.224131,549.537922 102.837238,548.934692 99.6746727,549.639781 C101.241541,549.704292 101.79605,550.279228 103.79703,550.12644 C104.471936,549.944226 103.378181,549.629595 104.041217,549.518682 C106.089677,549.468885 107.902429,549.51076 110.347694,549.518682 C112.536901,549.525473 115.733381,549.13275 116.900054,550.005341 C115.74186,550.054007 114.222472,549.648835 113.260984,550.005341 C113.644223,550.014395 114.10377,549.988364 113.988459,550.247538 C112.280844,550.322235 109.876277,550.051743 108.892744,550.489736 C109.872885,550.567828 111.471973,550.332421 112.048526,550.611967 C106.520397,551.103152 100.042649,550.66516 95.3064327,551.219724 C95.7354562,551.245755 96.5205863,551.097494 96.2747033,551.461922 C92.3473571,550.882458 87.9502894,551.566044 84.3875284,552.190778 C84.8657286,552.286978 85.2574458,552.61519 84.8725116,552.798536 C82.2135829,552.838147 78.3286303,553.009044 74.9235737,553.525129 C72.0035002,553.647359 76.9008127,553.743559 77.3501852,553.40403 C85.3388416,553.702816 95.1453369,553.021493 102.34208,554.012919 C102.33021,553.803543 102.528612,553.700552 102.827063,553.647359 C104.916222,554.23135 109.996675,554.127227 112.777697,554.741775 C112.601339,555.049615 111.390577,554.447517 111.321052,554.983973 C112.740391,555.203535 114.982166,555.015662 115.445104,555.713961 C112.689518,555.638133 108.42811,555.474027 105.012879,556.076126 C105.511428,556.14969 106.695058,555.881462 106.469524,556.32285 C106.062545,556.336432 104.270143,556.253813 105.012879,556.442817 C109.857623,556.606923 115.51463,556.249286 119.326665,557.16941 C119.443672,557.026808 119.58781,556.896655 119.811649,556.806114 C121.217422,557.424057 125.054893,557.562133 128.548129,557.777168 C128.531171,557.988808 128.600697,558.155177 128.79062,558.264958 C131.498726,558.001257 132.84006,558.798019 134.857997,558.507156 C135.970406,559.365033 139.295763,558.526396 140.677795,559.358243 C138.983745,559.650238 137.059074,559.303918 135.098793,559.60044 C135.561731,559.827925 135.537991,559.526876 136.312947,559.60044 C137.354134,560.549991 142.229402,559.816607 143.835273,560.329297 C142.994183,560.31232 143.445251,560.944977 142.619423,560.937054 C138.999007,561.089843 135.198842,560.685803 132.185502,560.937054 C134.373014,561.01741 135.938187,561.407868 138.495371,561.301483 C138.600507,561.635353 137.593234,561.414659 137.525404,561.667042 C138.432628,561.877551 139.071924,561.371652 140.194508,561.301483 C143.046751,561.124927 147.838928,561.645539 149.900954,562.152569 C148.413785,562.134461 147.002925,562.157097 146.016001,562.393635 C147.827057,562.432115 149.995916,562.760327 151.600091,562.514734 C151.96298,562.658468 151.881585,563.021765 152.568361,563.002525 C155.980201,563.32055 160.604499,563.028555 163.002282,563.85248 C164.752292,563.867193 166.505692,563.881906 167.613014,564.215776 C167.524835,564.464764 165.201664,564.210117 165.913877,564.456842 C168.647419,564.438734 170.948545,564.684327 172.952916,564.702435 C172.95122,564.863145 172.525588,564.81448 172.466237,564.945764 C174.721579,564.748837 177.071882,565.444872 179.744376,565.433555 C178.043544,565.765162 175.096338,565.369044 174.165374,565.795719 C178.69471,565.880602 181.428251,566.515522 185.811753,566.524576 C183.617459,566.987467 180.673645,566.401213 179.744376,567.375663 C182.299864,567.511474 183.893865,567.257959 185.570957,567.61786 C184.967272,567.760463 184.141444,567.794416 183.386837,567.860058 C182.825546,568.189401 183.846384,568.429335 183.386837,568.590046 C180.236142,568.739439 177.017618,568.468947 174.648661,568.831112 C175.628802,568.82998 176.520764,568.86846 176.832781,569.198935 C176.953179,569.578076 175.720373,569.287213 175.620324,569.5611 C177.726439,569.822538 180.819479,569.249865 182.896767,569.922133 L180.95853,569.922133 C181.090798,570.371443 181.251894,570.576293 180.473547,570.775483 C177.84175,570.44614 174.847064,570.947512 171.737067,570.775483 C174.719883,571.330048 179.973302,571.412667 183.87182,571.871031 C181.304462,572.000053 178.257208,571.891403 175.864511,572.112097 C176.390192,572.335055 177.848533,572.087198 178.289427,572.355427 C177.568735,572.983556 175.437183,572.155104 174.404474,572.598756 C183.010382,572.930363 192.148753,574.332619 200.853014,573.206514 C200.174716,572.662135 201.529617,572.741358 202.30966,572.598756 C202.531802,571.694476 202.280832,570.559316 203.525509,570.169989 C202.124823,570.117928 202.438536,569.327957 202.30966,569.077837 C203.817177,568.918258 207.295151,568.88091 205.950425,569.317771 C207.390113,569.529411 209.452139,569.428684 209.831986,570.169989 C214.814086,570.958829 223.49291,569.982116 227.062454,570.654385 C223.292812,571.40814 220.915377,570.485752 217.839295,571.382109 C219.307811,571.239507 220.043764,571.454542 221.235873,571.141043 C229.365276,571.852923 239.110725,570.860366 246.958634,571.263274 C245.518947,571.270064 244.693119,571.585827 243.077073,571.50434 C243.051637,572.00458 243.913076,572.056641 244.532023,572.234328 C246.544872,571.794071 250.738451,572.536509 253.265111,572.112097 C252.775041,570.77322 256.263189,571.426248 257.150064,570.775483 C255.846036,570.778879 254.96764,570.572897 253.995978,570.411055 C254.960857,569.801034 258.001328,570.233368 258.603318,569.440001 C259.296877,569.299662 257.55026,569.496589 258.35913,569.077837 C260.419461,568.730385 263.493847,568.888832 264.668999,568.102256 C267.126134,567.96418 270.671937,568.052458 272.678004,567.375663 C286.835782,566.328781 300.715457,566.868632 314.169501,565.311324 C313.513248,564.440997 318.781928,564.470423 320.479369,563.973579 C317.971362,564.336875 316.133174,564.041484 313.925314,563.731381 C315.795721,562.883689 320.879565,563.648762 322.178506,562.514734 C319.987603,562.095981 315.897465,562.689026 313.925314,561.908108 C316.116217,561.224523 318.1155,560.442473 320.962657,560.087099 C321.819008,560.050883 320.106305,559.757756 320.962657,559.721539 C321.805442,559.453311 322.5397,560.10068 323.875947,559.966 C324.08622,559.573278 323.243434,559.711353 323.146777,559.479342 C325.720918,558.347577 325.315635,556.982669 325.08671,555.106204 C325.468252,555.051879 325.295286,554.723667 326.05498,554.864006 C326.065155,554.57767 325.641218,554.504105 325.819271,554.134018 C326.139767,553.838627 326.718017,554.266434 326.787542,554.012919 C325.87184,553.467409 327.53367,553.176545 328,552.918503 L328,552.918503 Z M217.356008,573.93537 C218.887266,573.89689 220.857722,574.22397 221.722552,573.69204 C220.711888,573.995353 218.332757,573.613949 217.356008,573.93537 L217.356008,573.93537 Z M222.207535,573.56981 C223.280942,574.286217 226.228148,573.771264 227.788233,573.69204 C226.141665,573.436262 224.349262,573.808612 222.207535,573.56981 L222.207535,573.56981 Z M218.568466,571.990998 C219.614741,572.000053 221.132433,572.229801 221.722552,571.748801 C220.962858,571.418326 218.660036,571.987603 218.568466,571.990998 L218.568466,571.990998 Z M282.867738,571.625438 C283.956406,571.644678 284.945026,571.611857 285.536841,571.382109 C284.6364,571.457937 283.039008,571.187446 282.867738,571.625438 L282.867738,571.625438 Z M287.235978,571.382109 C290.095004,571.316467 293.057471,571.302886 295.485779,571.021076 C292.501267,570.987123 289.942387,571.016549 287.235978,571.382109 L287.235978,571.382109 Z M298.882357,569.077837 C300.640845,569.026907 302.258586,569.140084 300.340698,568.951079 C299.83367,568.905808 298.926446,568.657952 298.882357,569.077837 L298.882357,569.077837 Z M305.921396,568.831112 C305.082002,568.639844 303.967897,568.499505 303.494784,568.951079 C307.166073,568.768865 311.878549,569.102735 314.169501,568.22675 C311.744585,568.004924 308.371748,568.377274 305.921396,568.831112 L305.921396,568.831112 Z M311.498702,567.860058 C310.371031,567.398298 306.960888,567.840818 305.434717,567.981157 C307.216945,568.305973 308.738029,567.680107 311.498702,567.860058 L311.498702,567.860058 Z M296.699932,567.375663 C295.697747,566.652465 291.728007,567.321338 290.388368,567.61786 C291.682222,567.879298 294.953315,567.625783 296.699932,567.375663 L296.699932,567.375663 Z M179.988564,566.887872 C179.564627,566.959173 178.565833,566.743006 178.533614,567.010103 C178.815108,567.031606 178.796455,567.203635 178.772714,567.375663 C179.367921,567.306625 179.66298,567.089326 179.988564,566.887872 L179.988564,566.887872 Z M307.132158,567.2523 C311.491919,567.166286 316.706336,567.511474 319.750199,566.766773 C315.619363,566.049235 311.239253,566.689813 307.132158,567.2523 L307.132158,567.2523 Z M312.47206,566.280115 C313.504769,566.282378 313.923618,566.460065 314.65618,566.159016 C313.994839,566.235976 312.729813,566.005096 312.47206,566.280115 L312.47206,566.280115 Z M319.021028,566.039049 C319.329654,566.203155 320.209746,566.228053 320.235182,565.916818 C319.668803,565.880602 319.188907,565.657644 319.021028,566.039049 L319.021028,566.039049 Z M318.539437,565.433555 C316.901347,565.434687 315.765197,565.14156 314.65618,565.311324 C314.985154,565.260395 317.766177,565.831936 318.539437,565.433555 L318.539437,565.433555 Z M321.206844,560.450396 C321.712176,560.379094 322.800845,560.60092 322.90259,560.329297 C322.577006,560.164059 321.20854,560.097285 321.206844,560.450396 L321.206844,560.450396 Z M90.9381927,558.384925 C93.3003659,558.337391 95.8897691,558.819523 97.9755358,558.507156 C96.2492671,558.303438 92.0370357,558.097457 90.9381927,558.384925 L90.9381927,558.384925 Z M107.195303,557.899398 C102.935591,557.763587 108.458634,557.967304 107.439491,557.899398 C107.361486,557.89374 107.273308,557.901662 107.195303,557.899398 L107.195303,557.899398 Z M110.593577,548.058706 C108.953791,548.228471 107.310614,547.764447 106.225337,548.058706 C107.856644,548.102845 110.028894,548.669859 110.593577,548.058706 L110.593577,548.058706 Z M104.283709,544.173358 C103.719025,544.182412 101.685827,544.074895 102.584572,544.415556 C102.749059,544.121297 104.209096,544.726791 104.283709,544.173358 L104.283709,544.173358 Z M316.836908,532.268327 C316.334968,532.341892 315.242908,532.118934 315.141163,532.390558 C315.761806,532.500339 316.514717,532.588617 316.836908,532.268327 L316.836908,532.268327 Z M92.3948379,530.081758 C91.3146481,530.153059 90.0140115,529.489845 89.2390558,530.203989 C90.4972989,530.024038 92.0743421,530.548045 92.3948379,530.081758 L92.3948379,530.081758 Z M102.101284,529.961791 C99.6136258,529.739965 95.5964051,529.990085 92.8798211,530.203989 C95.5116179,530.210779 99.6746727,530.557099 102.101284,529.961791 L102.101284,529.961791 Z M109.381119,523.765381 C108.877483,523.840077 107.692157,523.569585 107.922778,524.00871 C108.567161,524.006446 109.350596,524.076616 109.381119,523.765381 L109.381119,523.765381 Z M302.278935,524.00871 C300.978298,523.56619 299.190982,523.370395 298.639865,522.549865 C295.913107,523.011625 291.977282,522.472905 290.634251,523.037656 C295.211068,522.968618 297.620722,524.50895 302.278935,524.00871 L302.278935,524.00871 Z" id="Fill-1"></path>
        </g>
    </g>
</svg>