<?xml version="1.0" encoding="UTF-8"?>
<svg width="254px" height="54px" viewBox="0 0 254 54" version="1.1" xmlns="http://www.w3.org/2000/svg" xmlns:xlink="http://www.w3.org/1999/xlink">
    <!-- Generator: Sketch 42 (36781) - http://www.bohemiancoding.com/sketch -->
    <title>Fill 1 Copy</title>
    <desc>Created with Sketch.</desc>
    <defs></defs>
    <g id="Page-1" stroke="none" stroke-width="1" fill="none" fill-rule="evenodd" opacity="0.896059783">
        <g id="首页--copy-13" transform="translate(-372.000000, -520.000000)" fill="#A0A0A0">
            <path d="M558.54325,569.5611 C559.871019,569.801034 562.699522,569.764818 565.097306,569.801034 C565.007432,568.851484 568.476927,569.655036 569.462155,568.951079 C566.555647,568.819794 560.440789,568.461025 558.54325,569.5611 L558.54325,569.5611 Z M594.940728,568.102256 C592.832917,568.367088 589.807707,568.152053 588.876743,568.468947 C590.804805,568.290128 593.275506,568.622867 594.940728,568.102256 L594.940728,568.102256 Z M596.926446,568.312764 C596.153186,568.22675 595.334141,568.686246 595.914086,568.468947 C598.233866,568.545907 600.451901,568.359166 602.463055,567.981157 C601.686403,567.787625 595.308705,567.991343 596.926446,568.312764 L596.926446,568.312764 Z M435.769592,560.450396 C434.684315,560.411916 432.369622,560.432287 432.128827,560.572626 C433.15984,560.564704 435.225258,560.981193 435.769592,560.450396 L435.769592,560.450396 Z M587.662589,527.045234 C587.206434,527.075792 585.971931,527.025994 584.264316,527.045234 C584.18292,526.681938 589.156541,526.946771 587.662589,527.045234 L587.662589,527.045234 Z M570.678004,525.587521 C569.74704,525.575072 568.778769,525.436997 568.008901,525.466423 C568.97378,525.155187 571.468221,525.416625 572.132953,525.466423 C575.037765,525.68938 571.407174,525.597707 570.678004,525.587521 L570.678004,525.587521 Z M566.798139,525.466423 C565.994355,525.460764 565.589072,525.260441 564.610627,525.345324 C563.896718,525.233279 567.10846,524.99674 566.798139,525.466423 L566.798139,525.466423 Z M558.54325,531.419504 C556.945858,531.306328 559.777753,531.305196 560.486574,531.297273 C562.306109,531.27577 564.222301,531.246344 565.582289,531.297273 C562.306109,531.445535 560.255953,531.537207 558.54325,531.419504 L558.54325,531.419504 Z M555.150064,567.737827 C556.742369,567.398298 561.192005,567.263618 562.428203,567.860058 C559.943936,567.836291 557.127303,568.22675 555.150064,567.737827 L555.150064,567.737827 Z M554.419198,532.874953 C554.758347,532.598803 556.109856,532.829683 556.845809,532.754986 C556.064071,533.080934 555.606219,532.845527 554.419198,532.874953 L554.419198,532.874953 Z M551.995978,536.519235 C552.960857,536.625621 553.786685,536.339284 554.178402,536.519235 C553.99187,536.720689 552.175727,536.720689 551.995978,536.519235 L551.995978,536.519235 Z M544.958634,531.297273 C547.012182,530.940768 550.456241,531.368575 552.238469,531.176175 C550.831,531.658306 546.767995,531.418372 544.958634,531.297273 L544.958634,531.297273 Z M543.986972,532.754986 C545.04003,532.749327 545.83703,532.759513 546.652684,532.754986 C544.298989,533.050377 539.174447,532.781017 543.986972,532.754986 L543.986972,532.754986 Z M539.861224,536.642597 C540.80745,536.017863 543.841138,536.667496 544.958634,536.398136 C544.190462,536.947042 541.429788,536.494336 539.861224,536.642597 L539.861224,536.642597 Z M539.861224,570.411055 C540.308901,570.149618 541.292433,570.15754 542.289531,570.169989 C541.728239,570.358994 540.446256,570.614773 539.861224,570.411055 L539.861224,570.411055 Z M537.192121,549.759748 C538.014557,549.507365 539.098138,549.502837 540.105411,549.639781 C539.608558,549.919327 538.090866,549.682788 537.192121,549.759748 L537.192121,549.759748 Z M534.280526,558.507156 C535.096179,558.226478 536.946238,558.464149 538.160391,558.384925 C537.349825,558.667867 535.498071,558.430196 534.280526,558.507156 L534.280526,558.507156 Z M533.31056,557.293904 C533.415696,557.020017 534.507756,557.242975 535.009696,557.16941 C534.78925,557.632302 534.034643,557.25882 533.31056,557.293904 L533.31056,557.293904 Z M531.368931,558.507156 C531.475763,558.236664 532.56104,558.459622 533.066372,558.384925 C532.86797,558.640704 531.789476,558.717664 531.368931,558.507156 L531.368931,558.507156 Z M529.186507,558.628255 L530.883948,558.628255 L530.883948,558.384925 L529.186507,558.384925 L529.186507,558.628255 Z M525.788233,558.628255 C526.013767,558.172154 527.73834,558.470939 528.698132,558.384925 C528.330156,558.765198 526.8379,558.587511 525.788233,558.628255 L525.788233,558.628255 Z M523.122522,559.479342 C523.614288,558.894219 524.675824,559.350321 526.029029,559.237144 C525.454171,559.67061 524.212886,559.190742 523.122522,559.479342 L523.122522,559.479342 Z M522.149164,557.415003 C521.584481,557.2011 523.795732,557.356151 524.090792,557.16941 C524.240018,557.65041 522.757936,557.313144 522.149164,557.415003 L522.149164,557.415003 Z M520.207535,551.339691 C519.975218,550.901698 521.163936,551.169927 521.662485,551.097494 C521.637049,551.407597 520.850223,551.337428 520.207535,551.339691 L520.207535,551.339691 Z M519.722552,558.628255 C519.290137,558.628255 519.212133,558.765198 518.752586,558.749354 C520.151576,558.215161 523.137783,558.638441 519.722552,558.628255 L519.722552,558.628255 Z M517.295941,551.097494 C518.262515,551.201616 518.515181,551.201616 519.478365,551.097494 C519.693725,551.485689 517.078885,551.485689 517.295941,551.097494 L517.295941,551.097494 Z M515.596804,558.384925 C516.356498,558.701819 517.216241,558.216292 518.02172,558.507156 C517.774141,558.662208 515.473014,558.819523 515.596804,558.384925 L515.596804,558.384925 Z M511.957734,551.219724 C512.159528,550.952628 515.405185,551.166531 516.807566,551.097494 C515.693461,551.536618 514.058763,551.116734 511.957734,551.219724 L511.957734,551.219724 Z M512.686905,558.628255 C512.539375,558.148387 514.019761,558.485652 514.628533,558.384925 C514.572574,558.762935 513.419467,558.589775 512.686905,558.628255 L512.686905,558.628255 Z M510.260293,557.415003 C510.838542,556.988328 511.864468,557.437638 512.927701,557.16941 C512.898873,557.683231 511.065772,557.291641 510.260293,557.415003 L510.260293,557.415003 Z M508.561156,569.922133 C509.047835,569.546387 509.917753,569.807825 511.23026,569.682199 C511.199736,570.193756 509.368331,569.801034 508.561156,569.922133 L508.561156,569.922133 Z M510.50448,558.384925 C510.697795,558.846685 509.353069,558.541109 508.801952,558.628255 C508.837563,558.283067 509.816008,558.406429 510.50448,558.384925 L510.50448,558.384925 Z M509.04614,551.219724 C509.303893,551.035247 511.386268,550.705903 511.471055,551.219724 L509.04614,551.219724 Z M508.561156,536.398136 C509.583691,536.074451 510.726623,536.505654 511.715243,536.278169 C511.769507,536.75351 508.106697,536.514708 508.561156,536.398136 L508.561156,536.398136 Z M503.221254,554.620677 C503.283997,554.33434 504.287878,554.550507 504.437104,554.620677 C505.571557,554.697637 507.34022,554.461098 508.076173,554.741775 C506.461824,554.697637 504.464236,554.848161 503.221254,554.620677 L503.221254,554.620677 Z M499.339693,567.981157 C500.70816,568.513086 503.548533,568.305973 505.166274,568.711145 C503.367088,568.61155 499.604229,569.164982 499.339693,567.981157 L499.339693,567.981157 Z M500.553847,559.358243 C501.104964,559.010791 501.489898,559.284678 502.495475,559.116045 C502.644701,559.592518 501.160924,559.256384 500.553847,559.358243 L500.553847,559.358243 Z M503.709629,558.384925 C502.420862,558.753881 500.221481,558.479994 499.097202,558.507156 C500.153651,558.226478 502.247896,558.467544 503.709629,558.384925 L503.709629,558.384925 Z M502.249592,557.16941 C501.311845,557.506676 500.635243,557.305222 499.097202,557.415003 C499.263385,556.888733 501.298279,557.302959 502.249592,557.16941 L502.249592,557.16941 Z M503.950425,536.278169 C503.538359,536.555451 502.098671,536.32344 501.281322,536.398136 C501.696779,536.120854 503.136467,536.355129 503.950425,536.278169 L503.950425,536.278169 Z M504.437104,530.081758 C503.967382,530.363568 502.958414,529.891622 502.249592,530.203989 C502.336075,529.641502 503.818157,530.139478 504.437104,530.081758 L504.437104,530.081758 Z M502.495475,531.176175 C502.549739,531.001883 503.219559,531.134299 503.221254,530.932845 C505.261236,531.090161 506.075194,531.206732 502.495475,531.176175 L502.495475,531.176175 Z M507.350394,553.892952 C506.39569,554.15439 505.405374,554.146467 504.437104,554.012919 C504.930566,553.734505 506.451649,553.969912 507.350394,553.892952 L507.350394,553.892952 Z M507.831986,536.278169 C506.921371,536.738797 504.40658,536.089164 507.831986,536.278169 L507.831986,536.278169 Z M510.260293,531.297273 C509.227584,531.287088 508.561156,531.093556 507.350394,531.176175 C506.824713,531.059603 510.382387,530.820801 510.260293,531.297273 L510.260293,531.297273 Z M512.442717,530.081758 C511.462577,530.527674 510.046629,530.223229 508.318665,530.203989 C509.215714,529.924443 511.143776,530.162114 512.442717,530.081758 L512.442717,530.081758 Z M514.628533,524.737566 C511.93569,525.109917 511.381181,524.588173 514.628533,524.737566 L514.628533,524.737566 Z M520.936706,549.759748 C519.988784,549.656757 518.674582,549.548108 517.78262,549.759748 C517.816534,549.364762 520.899399,549.364762 520.936706,549.759748 L520.936706,549.759748 Z M518.752586,538.464738 C519.393578,538.457948 520.071876,538.469265 520.694214,538.464738 C519.090039,538.752206 515.106733,538.500955 518.752586,538.464738 L518.752586,538.464738 Z M520.450027,536.519235 C519.859908,536.896112 516.833002,536.325703 515.839295,536.519235 C515.888472,536.068793 520.25332,536.643729 520.450027,536.519235 L520.450027,536.519235 Z M517.536736,531.053944 C516.927964,531.598323 514.336865,531.151276 512.927701,531.297273 C514.347039,530.991697 515.522191,531.164857 517.536736,531.053944 L517.536736,531.053944 Z M519.235873,530.326219 C518.11329,530.351118 515.210174,530.305848 512.927701,530.326219 C514.86085,529.970845 517.575739,530.062518 520.207535,530.203989 C521.748968,530.287739 519.742901,530.312638 519.235873,530.326219 L519.235873,530.326219 Z M519.478365,532.635019 C516.77026,532.997184 516.273406,532.482231 519.478365,532.635019 L519.478365,532.635019 Z M519.478365,531.053944 L520.694214,531.053944 C521.063887,531.427426 519.110388,531.427426 519.478365,531.053944 L519.478365,531.053944 Z M510.745276,531.176175 C510.774104,530.906815 511.772898,531.125245 512.200226,531.053944 C512.195139,531.386683 511.053902,531.342544 510.745276,531.176175 L510.745276,531.176175 Z M516.325974,532.635019 C515.350921,532.915697 513.336375,532.675763 511.957734,532.754986 C512.934484,532.473177 514.949029,532.711979 516.325974,532.635019 L516.325974,532.635019 Z M524.818267,529.476264 C520.801046,530.045542 517.496039,529.398173 512.686905,529.596231 C515.283091,529.316686 521.011319,529.553224 524.818267,529.476264 L524.818267,529.476264 Z M526.029029,527.775222 C524.372286,528.28678 521.689617,527.861236 520.207535,527.895189 C521.862583,527.568109 524.604603,527.929142 526.029029,527.775222 L526.029029,527.775222 Z M527.974049,524.858665 C527.433106,525.2661 526.619148,524.974105 525.545742,524.979764 C525.881499,524.702482 527.234704,524.935625 527.974049,524.858665 L527.974049,524.858665 Z M528.214845,525.101994 L529.912286,525.101994 L529.912286,524.858665 L528.214845,524.858665 L528.214845,525.101994 Z M529.913982,529.71733 C529.03389,529.591704 527.099044,529.994612 527.002387,529.476264 C527.412757,529.718462 531.087437,529.474001 529.913982,529.71733 L529.913982,529.71733 Z M533.31056,530.326219 C532.818793,530.604634 531.296014,530.370358 530.398965,530.446186 C530.694025,529.858801 532.466078,530.404311 533.31056,530.326219 L533.31056,530.326219 Z M532.823881,527.895189 C534.614588,527.839733 533.703973,527.746928 536.707138,527.895189 C541.097422,528.11362 533.31056,528.067217 531.853914,528.016288 C529.29673,527.929142 532.304983,527.913298 532.823881,527.895189 L532.823881,527.895189 Z M536.464646,524.979764 C536.35951,525.252519 535.269145,525.02843 534.767205,525.101994 C534.963911,524.846216 536.045797,524.769256 536.464646,524.979764 L536.464646,524.979764 Z M531.12644,529.71733 C531.879351,529.445707 535.721909,529.668664 537.680495,529.596231 C535.82535,529.9799 533.875243,529.612076 531.12644,529.71733 L531.12644,529.71733 Z M536.707138,530.326219 C536.213676,530.604634 534.694288,530.370358 533.795543,530.446186 C534.289005,530.167772 535.81348,530.403179 536.707138,530.326219 L536.707138,530.326219 Z M531.368931,531.297273 C532.927321,531.176175 538.872604,530.933977 540.832886,531.419504 C537.159902,531.481751 534.316137,531.318777 531.368931,531.297273 L531.368931,531.297273 Z M534.524713,536.642597 C534.575586,536.264588 535.732084,536.435484 536.464646,536.398136 C536.078016,536.609776 535.372586,536.661837 534.524713,536.642597 L534.524713,536.642597 Z M534.524713,551.219724 C533.802326,551.466449 530.709286,551.579625 530.154778,551.339691 C531.175616,551.083912 533.112157,551.281971 534.524713,551.219724 L534.524713,551.219724 Z M531.12644,543.322271 C530.953474,542.992928 532.271068,543.410549 532.09471,543.081206 C532.937496,543.272474 537.322693,543.179669 535.252188,543.322271 C534.851992,543.350566 533.169813,543.304163 531.12644,543.322271 L531.12644,543.322271 Z M533.554747,536.398136 C533.468264,536.801044 532.154061,536.589404 531.368931,536.642597 C531.453718,536.238557 532.766225,536.451329 533.554747,536.398136 L533.554747,536.398136 Z M531.853914,532.754986 C529.144113,533.118283 528.645564,532.60333 531.853914,532.754986 L531.853914,532.754986 Z M529.67149,531.176175 C528.16906,531.573424 523.192047,531.265584 521.421689,531.176175 C523.181873,531.075448 526.632714,531.235026 529.67149,531.176175 L529.67149,531.176175 Z M525.545742,530.203989 C525.572874,530.532201 523.044517,530.638586 523.122522,530.203989 L525.545742,530.203989 Z M529.427303,530.203989 C529.145809,530.671408 527.30423,530.354514 526.274912,530.446186 C526.620844,529.841824 528.911796,530.458636 529.427303,530.203989 L529.427303,530.203989 Z M525.062454,529.476264 C525.847584,529.404963 526.190125,529.55662 526.7582,529.596231 C526.698849,529.771655 524.760612,529.879172 525.062454,529.476264 L525.062454,529.476264 Z M522.149164,536.519235 C524.50625,536.394741 529.171245,536.162729 531.12644,536.642597 C527.746819,536.600722 525.86115,536.470569 522.149164,536.519235 L522.149164,536.519235 Z M527.002387,549.759748 C527.258444,549.486993 528.526862,549.714477 529.186507,549.639781 C528.559081,549.99176 528.028313,549.757484 527.002387,549.759748 L527.002387,549.759748 Z M525.30325,554.741775 C525.798408,554.463361 527.321187,554.695373 528.214845,554.620677 C527.721383,554.899091 526.200299,554.664815 525.30325,554.741775 L525.30325,554.741775 Z M526.5191,557.16941 C527.204181,557.299563 527.526372,557.299563 528.214845,557.16941 C528.526862,557.555342 526.205387,557.555342 526.5191,557.16941 L526.5191,557.16941 Z M541.801157,530.446186 C540.112194,530.488062 539.857832,530.555968 538.648766,530.446186 C539.145619,530.246996 541.305999,530.246996 541.801157,530.446186 L541.801157,530.446186 Z M541.321261,531.419504 L543.017006,531.419504 L543.017006,531.176175 L541.321261,531.176175 L541.321261,531.419504 Z M545.441922,530.326219 C544.86876,530.604634 543.264585,530.370358 542.289531,530.446186 C542.862693,530.166641 544.466868,530.403179 545.441922,530.326219 L545.441922,530.326219 Z M544.229464,529.596231 C543.729219,529.879172 542.988178,529.816925 542.289531,529.71733 C542.467584,529.443443 543.649519,529.669796 544.229464,529.596231 L544.229464,529.596231 Z M542.772819,524.979764 C543.156057,524.968446 546.310143,524.988818 547.868533,524.979764 C546.939265,525.623738 541.372133,525.021639 542.772819,524.979764 L542.772819,524.979764 Z M549.323483,525.101994 C548.729972,525.103126 548.813064,525.339665 548.112721,525.101994 C550.268013,524.81679 552.387695,525.094072 549.323483,525.101994 L549.323483,525.101994 Z M551.509299,527.895189 C550.598683,528.356949 548.082197,527.707316 551.509299,527.895189 L551.509299,527.895189 Z M544.712751,529.71733 C545.692892,529.435521 547.700655,529.676587 549.082687,529.596231 C548.333168,530.124765 545.251998,529.725253 544.712751,529.71733 L544.712751,529.71733 Z M550.295145,530.326219 C549.689764,530.943031 547.112231,530.215307 546.898567,530.567285 C546.554331,530.001403 549.615151,530.579735 550.295145,530.326219 L550.295145,530.326219 Z M555.150064,531.297273 C554.965228,531.498727 553.147389,531.498727 552.96764,531.297273 C554.091919,531.368575 554.431068,531.132036 555.150064,531.297273 L555.150064,531.297273 Z M554.665081,524.979764 C555.436645,525.379277 552.140116,525.270627 551.75179,525.101994 C552.301212,524.716063 554.40224,525.218566 554.665081,524.979764 L554.665081,524.979764 Z M560.244083,525.101994 C560.705326,525.340797 558.297367,525.174427 557.57498,525.224225 C557.25618,525.370223 557.193437,525.271759 556.845809,525.224225 C557.500367,524.943547 559.187634,525.181218 560.244083,525.101994 L560.244083,525.101994 Z M557.091692,530.567285 C556.83733,530.316034 559.542044,530.505038 560.486574,530.446186 C563.081065,530.586525 558.392329,530.651036 557.091692,530.567285 L557.091692,530.567285 Z M496.429794,558.384925 C497.24036,558.380398 497.867786,558.387189 498.613914,558.384925 C496.490841,558.679184 492.153124,558.409824 496.429794,558.384925 L496.429794,558.384925 Z M487.208331,557.293904 C489.311055,557.009831 492.463446,557.253161 494.973149,557.16941 C492.868729,557.453483 489.718034,557.213549 487.208331,557.293904 L487.208331,557.293904 Z M483.570957,529.110704 C483.467517,529.0179 483.954196,528.99866 484.05594,528.990737 C485.772035,528.841344 484.919075,529.032613 485.751686,529.110704 C488.648019,529.380064 483.754098,529.279337 483.570957,529.110704 L483.570957,529.110704 Z M481.87182,549.155386 C482.287278,548.87584 483.721879,549.108983 484.539228,549.030892 C484.196687,549.326282 482.826525,549.26743 481.87182,549.155386 L481.87182,549.155386 Z M482.112616,571.871031 C482.041395,571.550742 484.417134,571.435302 484.29504,571.871031 L482.112616,571.871031 Z M490.606605,530.811746 C488.286825,531.170516 487.367731,530.671408 490.606605,530.811746 L490.606605,530.811746 Z M490.8474,529.110704 C490.25389,529.690168 488.734502,529.068829 487.450823,529.231803 C487.203244,528.980551 489.906262,529.169556 490.8474,529.110704 L490.8474,529.110704 Z M492.790725,549.155386 C492.607584,549.580929 491.576571,549.095402 490.8474,549.397583 C490.698175,548.917715 492.180256,549.253849 492.790725,549.155386 L492.790725,549.155386 Z M495.698928,550.855296 C495.381824,551.006952 492.973865,551.173322 493.03152,550.730802 C493.76917,550.867745 494.584823,550.700244 495.698928,550.855296 L495.698928,550.855296 Z M494.728962,529.231803 C492.497361,529.641502 492.373571,528.970366 494.728962,529.231803 L494.728962,529.231803 Z M498.369727,557.16941 C498.24085,557.5859 497.199663,557.356151 496.672286,557.293904 C496.77403,557.020017 497.867786,557.242975 498.369727,557.16941 L498.369727,557.16941 Z M474.832781,558.264958 C474.441064,558.020497 476.950767,558.194789 477.744376,558.144991 C477.313657,558.550163 476.118156,558.125751 474.832781,558.264958 L474.832781,558.264958 Z M466.828863,535.671543 C467.469855,535.11132 470.06265,535.554972 471.195408,535.548181 C469.816767,535.877524 468.721315,535.600242 466.828863,535.671543 L466.828863,535.671543 Z M466.58298,556.806114 L470.707033,556.806114 C470.105043,557.194309 467.703868,556.911368 466.58298,556.806114 L466.58298,556.806114 Z M467.312151,548.788694 C464.992371,549.147463 464.074973,548.648355 467.312151,548.788694 L467.312151,548.788694 Z M460.034012,548.788694 C460.766574,548.51028 462.535236,548.747951 463.674777,548.666463 C463.262711,549.129355 460.844578,548.890553 460.034012,548.788694 L460.034012,548.788694 Z M459.547333,535.183753 C460.434208,535.204125 460.846274,535.32296 461.24647,535.183753 C462.340226,535.456508 459.182748,535.653435 459.547333,535.183753 L459.547333,535.183753 Z M457.848196,528.259617 C458.358615,528.353554 462.245264,528.444095 460.517299,528.502947 C460.229023,528.514264 458.484101,528.717982 457.848196,528.259617 L457.848196,528.259617 Z M458.573975,548.788694 C457.770192,548.666463 455.940483,549.058054 455.906568,548.546496 C456.886709,548.665332 459.260752,548.566868 458.573975,548.788694 L458.573975,548.788694 Z M451.780819,535.063786 C452.520164,534.777449 453.858107,535.032096 454.209127,535.063786 C453.676663,535.39992 452.481162,535.045677 451.780819,535.063786 L451.780819,535.063786 Z M468.7671,531.7828 C468.353339,532.060083 466.917042,531.828071 466.101389,531.905031 C466.511759,531.626617 467.951447,531.858629 468.7671,531.7828 L468.7671,531.7828 Z M448.628429,534.941555 C448.735261,534.669932 449.823929,534.891758 450.327566,534.821588 C450.127468,535.076235 449.047278,535.154327 448.628429,534.941555 L448.628429,534.941555 Z M439.649457,534.577127 C439.802074,534.316821 441.1468,534.462819 441.35029,534.577127 C441.060317,534.903075 440.085264,534.577127 439.649457,534.577127 L439.649457,534.577127 Z M436.737862,536.398136 C437.76718,536.652783 439.832598,536.38795 440.861915,536.642597 C440.295536,536.640334 437.224541,536.848578 436.737862,536.398136 L436.737862,536.398136 Z M435.769592,532.754986 C435.676326,532.457332 437.877403,532.515052 437.953712,532.874953 C437.350026,532.775358 436.649684,532.716506 435.769592,532.754986 L435.769592,532.754986 Z M432.61381,532.635019 C432.220397,532.389426 434.731796,532.56485 435.525404,532.512789 C434.864064,532.89872 433.987363,532.522974 432.61381,532.635019 L432.61381,532.635019 Z M423.87733,533.969369 C425.23223,533.8992 426.76688,534.115367 428.971349,534.090468 C428.232004,534.406231 424.930388,534.269287 423.87733,533.969369 L423.87733,533.969369 Z M426.063145,536.642597 C426.398903,536.365315 427.752108,536.596195 428.489757,536.519235 C428.152304,536.796517 426.800795,536.565637 426.063145,536.642597 L426.063145,536.642597 Z M422.909059,536.033708 C422.842925,535.970329 425.167792,535.879788 426.063145,536.033708 C425.135573,536.215922 423.107461,536.235162 422.909059,536.033708 L422.909059,536.033708 Z M411.988459,536.033708 C412.197036,535.783588 413.677421,535.905819 413.931783,536.033708 C413.543458,536.375501 412.839723,535.862811 411.988459,536.033708 L411.988459,536.033708 Z M413.6859,530.688384 C413.302662,530.990565 411.988459,530.740445 411.505172,530.688384 C411.890106,530.389598 413.200917,530.639718 413.6859,530.688384 L413.6859,530.688384 Z M398.646335,535.548181 C398.274967,535.354649 401.359527,535.354649 401.79703,535.548181 C400.594746,535.856021 400.248814,535.442927 398.646335,535.548181 L398.646335,535.548181 Z M400.101284,532.874953 C400.681229,532.828551 399.963929,533.43065 400.827063,533.240513 C400.40991,533.447626 400.19455,533.221273 399.372114,533.361612 C399.445031,533.113755 399.857097,533.037927 400.101284,532.874953 L400.101284,532.874953 Z M626,552.918503 C625.286091,551.989324 622.399933,551.606788 622.847609,550.489736 C621.209519,550.135494 619.188191,549.971388 617.26352,549.759748 C616.987114,549.379475 617.646758,549.466621 617.750199,549.275353 C617.143122,549.290066 616.990505,549.505101 616.778537,549.155386 C617.117686,548.228471 618.445455,547.800664 619.206844,547.089915 C619.001659,546.654186 617.953688,547.400019 617.750199,546.966553 C622.62038,545.885718 626.498549,539.140402 616.778537,540.407978 C616.763275,540.252926 616.469911,540.239345 616.539437,540.04355 C619.400159,539.692703 620.933113,537.94639 619.932623,536.398136 C620.565136,536.270247 621.409617,536.247611 621.633456,535.912609 C621.562234,535.50291 620.556657,535.56063 620.419302,535.183753 C621.809813,534.754814 620.424389,533.886751 619.449336,533.969369 C619.554472,533.698878 620.646532,533.920704 621.146777,533.847139 C619.35607,532.711979 614.682596,533.230327 612.65618,532.635019 C612.559522,532.842132 613.015678,532.945123 612.65618,532.998315 C608.949281,533.266544 610.424579,530.662354 610.229568,529.839561 C608.511778,529.484187 608.615219,528.218874 606.83299,527.895189 C607.728344,527.820493 607.574031,527.213867 607.560465,526.681938 C605.232207,526.007406 601.006409,525.692776 598.822289,525.345324 C600.602822,524.815658 601.628748,525.60563 603.677208,525.587521 C603.773866,525.296658 603.232923,525.324952 603.434717,524.979764 C599.056302,524.43878 593.495953,523.685025 588.876743,524.00871 C589.926409,524.252039 591.784946,524.091329 592.756608,524.373138 C591.391533,524.80434 587.805032,524.379929 587.662589,523.400952 C587.757551,523.086322 588.386673,523.034261 588.388368,522.672096 C585.180018,521.551649 580.162308,523.121407 575.773719,522.915425 C575.112378,522.884868 574.357771,522.598531 573.589599,522.549865 C572.494147,522.483091 571.079896,522.769428 570.193021,522.672096 C569.987836,522.649461 569.502852,522.242026 569.223054,522.186569 C568.302265,522.002091 567.549354,522.278242 567.037239,521.94324 C567.622271,521.662562 567.408607,521.552781 567.281426,521.093285 C566.438641,520.906543 565.068478,520.986899 563.884848,520.971054 C563.508393,521.483743 565.229574,520.945023 564.854814,521.458844 C554.683734,520.796762 546.659467,521.905891 536.464646,521.579943 C536.367988,521.060463 536.698659,520.328212 536.220459,520 C534.923213,520.119967 533.995641,520.42328 532.823881,520.606626 C533.122332,520.62247 533.40213,520.642842 533.31056,520.851087 C523.894086,521.753103 513.351637,521.398861 500.553847,521.458844 C500.738683,522.025858 498.344291,521.837986 497.642252,522.3088 C492.663544,521.790451 485.390492,521.624082 478.473547,522.066602 C477.713853,522.029254 479.089102,522.415185 478.231055,522.429898 C475.943495,522.745661 472.624921,522.471774 470.466237,522.549865 C467.144272,522.673228 462.572543,522.017936 461.731453,522.915425 C466.754251,522.830543 468.441517,523.864976 472.892849,523.888743 C463.137226,523.919301 449.128674,524.110569 442.561052,524.495369 C442.983292,524.607413 443.86508,524.490842 443.776901,524.858665 C443.403837,525.350983 441.475775,525.002399 440.861915,524.858665 C441.006053,524.563275 442.432175,524.917517 442.31856,524.495369 C440.088655,524.138863 437.412769,524.112832 435.040421,524.250908 C436.85826,524.402564 438.872806,524.828107 439.893644,524.373138 C439.757985,524.589305 439.768159,524.879037 439.410357,524.979764 C432.696901,524.52819 425.198315,525.434733 417.570853,525.101994 C418.881664,525.937237 423.480525,525.025034 425.091483,525.953081 C424.586151,526.552917 421.628771,525.850091 421.452414,526.316378 C421.883133,526.344672 422.666568,526.195279 422.424076,526.559707 C419.471783,527.090505 419.583702,525.99722 417.08587,526.803037 C419.949983,526.907159 422.473253,527.182178 424.848992,527.531893 C421.279448,527.75485 419.724449,527.348547 417.570853,527.895189 C418.332242,528.162286 420.246739,527.85105 420.239956,528.502947 C413.122913,528.618387 404.352518,528.121542 399.131318,529.355166 C400.014801,529.391382 400.706665,529.334794 401.313742,529.231803 C400.996638,529.754678 402.468545,529.381196 402.283709,529.839561 C405.785423,529.501163 407.716877,530.381676 411.016797,529.961791 C411.298291,530.104394 411.293204,530.39073 411.260984,530.688384 C407.211544,530.765344 403.04849,530.548045 399.372114,531.176175 C399.348373,530.986038 399.402637,530.755158 398.887131,530.811746 C396.309598,530.346591 394.083084,531.144485 391.607296,530.932845 C389.862374,531.356125 386.813424,531.126377 385.297427,531.66057 C392.719705,531.665097 398.475064,531.971805 404.71032,532.268327 C400.304774,532.775358 396.263813,532.438092 391.607296,532.635019 C392.307639,533.089988 392.307639,532.905511 391.607296,533.361612 C393.372567,533.164685 395.08527,532.707452 397.917164,532.754986 C397.243953,533.01416 398.364841,533.415937 397.430485,533.483842 C394.033907,533.104701 391.225753,534.001059 387.484939,533.847139 C387.125441,534.310031 388.566824,533.870906 388.209022,534.332666 L386.513277,534.332666 C386.418315,534.744628 387.584988,534.523934 387.239056,535.063786 C384.537734,534.839696 383.301535,535.645513 380.688392,535.671543 C381.683794,535.940903 383.242184,535.930717 384.81414,535.912609 C385.149898,536.068793 384.96167,536.486414 385.297427,536.642597 C387.022,536.790858 389.248514,536.689 390.394838,537.128124 C389.889506,537.403143 388.588869,537.276385 387.968226,537.491421 C388.239546,537.317129 388.227675,537.19603 387.724039,537.128124 C386.925343,538.002978 384.566561,536.980995 382.872512,537.491421 C386.981303,537.956576 390.879821,538.661665 395.00557,538.706936 C394.724076,539.089472 395.385416,539.002326 395.490553,539.192463 L392.823145,539.192463 C392.987633,539.757213 394.986916,539.404103 395.00557,540.04355 C391.695475,540.21671 386.793075,539.236602 386.754073,541.137966 C388.395554,541.41638 391.53777,540.909349 392.578958,541.74346 C387.171226,541.850978 384.062925,541.861163 377.776797,541.864559 C380.162711,542.665848 384.191801,542.388566 386.028294,543.201173 C391.931183,543.363015 396.664008,543.700281 402.768692,543.931161 C402.938266,544.370285 404.191422,544.27069 404.469524,544.660017 C400.294599,544.746031 397.045551,544.360099 393.791416,544.538918 C398.93122,545.042553 404.878199,545.143281 410.048526,545.631071 C410.514856,545.804231 410.487724,546.22072 410.777697,546.482158 C412.702368,546.610047 414.772873,546.666636 415.871716,547.211014 C413.612983,547.366066 411.244027,546.937127 409.809426,547.089915 C412.161425,547.693146 416.154905,547.472452 418.539123,548.058706 C416.224431,548.659673 412.317434,548.042861 409.561848,548.058706 C409.132824,549.198393 405.909212,548.451428 404.952812,548.909793 C406.090657,548.989016 407.859319,548.752478 408.593577,549.030892 C405.224131,549.537922 400.837238,548.934692 397.674673,549.639781 C399.241541,549.704292 399.79605,550.279228 401.79703,550.12644 C402.471936,549.944226 401.378181,549.629595 402.041217,549.518682 C404.089677,549.468885 405.902429,549.51076 408.347694,549.518682 C410.536901,549.525473 413.733381,549.13275 414.900054,550.005341 C413.74186,550.054007 412.222472,549.648835 411.260984,550.005341 C411.644223,550.014395 412.10377,549.988364 411.988459,550.247538 C410.280844,550.322235 407.876277,550.051743 406.892744,550.489736 C407.872885,550.567828 409.471973,550.332421 410.048526,550.611967 C404.520397,551.103152 398.042649,550.66516 393.306433,551.219724 C393.735456,551.245755 394.520586,551.097494 394.274703,551.461922 C390.347357,550.882458 385.950289,551.566044 382.387528,552.190778 C382.865729,552.286978 383.257446,552.61519 382.872512,552.798536 C380.213583,552.838147 376.32863,553.009044 372.923574,553.525129 C370.0035,553.647359 374.900813,553.743559 375.350185,553.40403 C383.338842,553.702816 393.145337,553.021493 400.34208,554.012919 C400.33021,553.803543 400.528612,553.700552 400.827063,553.647359 C402.916222,554.23135 407.996675,554.127227 410.777697,554.741775 C410.601339,555.049615 409.390577,554.447517 409.321052,554.983973 C410.740391,555.203535 412.982166,555.015662 413.445104,555.713961 C410.689518,555.638133 406.42811,555.474027 403.012879,556.076126 C403.511428,556.14969 404.695058,555.881462 404.469524,556.32285 C404.062545,556.336432 402.270143,556.253813 403.012879,556.442817 C407.857623,556.606923 413.51463,556.249286 417.326665,557.16941 C417.443672,557.026808 417.58781,556.896655 417.811649,556.806114 C419.217422,557.424057 423.054893,557.562133 426.548129,557.777168 C426.531171,557.988808 426.600697,558.155177 426.79062,558.264958 C429.498726,558.001257 430.84006,558.798019 432.857997,558.507156 C433.970406,559.365033 437.295763,558.526396 438.677795,559.358243 C436.983745,559.650238 435.059074,559.303918 433.098793,559.60044 C433.561731,559.827925 433.537991,559.526876 434.312947,559.60044 C435.354134,560.549991 440.229402,559.816607 441.835273,560.329297 C440.994183,560.31232 441.445251,560.944977 440.619423,560.937054 C436.999007,561.089843 433.198842,560.685803 430.185502,560.937054 C432.373014,561.01741 433.938187,561.407868 436.495371,561.301483 C436.600507,561.635353 435.593234,561.414659 435.525404,561.667042 C436.432628,561.877551 437.071924,561.371652 438.194508,561.301483 C441.046751,561.124927 445.838928,561.645539 447.900954,562.152569 C446.413785,562.134461 445.002925,562.157097 444.016001,562.393635 C445.827057,562.432115 447.995916,562.760327 449.600091,562.514734 C449.96298,562.658468 449.881585,563.021765 450.568361,563.002525 C453.980201,563.32055 458.604499,563.028555 461.002282,563.85248 C462.752292,563.867193 464.505692,563.881906 465.613014,564.215776 C465.524835,564.464764 463.201664,564.210117 463.913877,564.456842 C466.647419,564.438734 468.948545,564.684327 470.952916,564.702435 C470.95122,564.863145 470.525588,564.81448 470.466237,564.945764 C472.721579,564.748837 475.071882,565.444872 477.744376,565.433555 C476.043544,565.765162 473.096338,565.369044 472.165374,565.795719 C476.69471,565.880602 479.428251,566.515522 483.811753,566.524576 C481.617459,566.987467 478.673645,566.401213 477.744376,567.375663 C480.299864,567.511474 481.893865,567.257959 483.570957,567.61786 C482.967272,567.760463 482.141444,567.794416 481.386837,567.860058 C480.825546,568.189401 481.846384,568.429335 481.386837,568.590046 C478.236142,568.739439 475.017618,568.468947 472.648661,568.831112 C473.628802,568.82998 474.520764,568.86846 474.832781,569.198935 C474.953179,569.578076 473.720373,569.287213 473.620324,569.5611 C475.726439,569.822538 478.819479,569.249865 480.896767,569.922133 L478.95853,569.922133 C479.090798,570.371443 479.251894,570.576293 478.473547,570.775483 C475.84175,570.44614 472.847064,570.947512 469.737067,570.775483 C472.719883,571.330048 477.973302,571.412667 481.87182,571.871031 C479.304462,572.000053 476.257208,571.891403 473.864511,572.112097 C474.390192,572.335055 475.848533,572.087198 476.289427,572.355427 C475.568735,572.983556 473.437183,572.155104 472.404474,572.598756 C481.010382,572.930363 490.148753,574.332619 498.853014,573.206514 C498.174716,572.662135 499.529617,572.741358 500.30966,572.598756 C500.531802,571.694476 500.280832,570.559316 501.525509,570.169989 C500.124823,570.117928 500.438536,569.327957 500.30966,569.077837 C501.817177,568.918258 505.295151,568.88091 503.950425,569.317771 C505.390113,569.529411 507.452139,569.428684 507.831986,570.169989 C512.814086,570.958829 521.49291,569.982116 525.062454,570.654385 C521.292812,571.40814 518.915377,570.485752 515.839295,571.382109 C517.307811,571.239507 518.043764,571.454542 519.235873,571.141043 C527.365276,571.852923 537.110725,570.860366 544.958634,571.263274 C543.518947,571.270064 542.693119,571.585827 541.077073,571.50434 C541.051637,572.00458 541.913076,572.056641 542.532023,572.234328 C544.544872,571.794071 548.738451,572.536509 551.265111,572.112097 C550.775041,570.77322 554.263189,571.426248 555.150064,570.775483 C553.846036,570.778879 552.96764,570.572897 551.995978,570.411055 C552.960857,569.801034 556.001328,570.233368 556.603318,569.440001 C557.296877,569.299662 555.55026,569.496589 556.35913,569.077837 C558.419461,568.730385 561.493847,568.888832 562.668999,568.102256 C565.126134,567.96418 568.671937,568.052458 570.678004,567.375663 C584.835782,566.328781 598.715457,566.868632 612.169501,565.311324 C611.513248,564.440997 616.781928,564.470423 618.479369,563.973579 C615.971362,564.336875 614.133174,564.041484 611.925314,563.731381 C613.795721,562.883689 618.879565,563.648762 620.178506,562.514734 C617.987603,562.095981 613.897465,562.689026 611.925314,561.908108 C614.116217,561.224523 616.1155,560.442473 618.962657,560.087099 C619.819008,560.050883 618.106305,559.757756 618.962657,559.721539 C619.805442,559.453311 620.5397,560.10068 621.875947,559.966 C622.08622,559.573278 621.243434,559.711353 621.146777,559.479342 C623.720918,558.347577 623.315635,556.982669 623.08671,555.106204 C623.468252,555.051879 623.295286,554.723667 624.05498,554.864006 C624.065155,554.57767 623.641218,554.504105 623.819271,554.134018 C624.139767,553.838627 624.718017,554.266434 624.787542,554.012919 C623.87184,553.467409 625.53367,553.176545 626,552.918503 L626,552.918503 Z M515.356008,573.93537 C516.887266,573.89689 518.857722,574.22397 519.722552,573.69204 C518.711888,573.995353 516.332757,573.613949 515.356008,573.93537 L515.356008,573.93537 Z M520.207535,573.56981 C521.280942,574.286217 524.228148,573.771264 525.788233,573.69204 C524.141665,573.436262 522.349262,573.808612 520.207535,573.56981 L520.207535,573.56981 Z M516.568466,571.990998 C517.614741,572.000053 519.132433,572.229801 519.722552,571.748801 C518.962858,571.418326 516.660036,571.987603 516.568466,571.990998 L516.568466,571.990998 Z M580.867738,571.625438 C581.956406,571.644678 582.945026,571.611857 583.536841,571.382109 C582.6364,571.457937 581.039008,571.187446 580.867738,571.625438 L580.867738,571.625438 Z M585.235978,571.382109 C588.095004,571.316467 591.057471,571.302886 593.485779,571.021076 C590.501267,570.987123 587.942387,571.016549 585.235978,571.382109 L585.235978,571.382109 Z M596.882357,569.077837 C598.640845,569.026907 600.258586,569.140084 598.340698,568.951079 C597.83367,568.905808 596.926446,568.657952 596.882357,569.077837 L596.882357,569.077837 Z M603.921396,568.831112 C603.082002,568.639844 601.967897,568.499505 601.494784,568.951079 C605.166073,568.768865 609.878549,569.102735 612.169501,568.22675 C609.744585,568.004924 606.371748,568.377274 603.921396,568.831112 L603.921396,568.831112 Z M609.498702,567.860058 C608.371031,567.398298 604.960888,567.840818 603.434717,567.981157 C605.216945,568.305973 606.738029,567.680107 609.498702,567.860058 L609.498702,567.860058 Z M594.699932,567.375663 C593.697747,566.652465 589.728007,567.321338 588.388368,567.61786 C589.682222,567.879298 592.953315,567.625783 594.699932,567.375663 L594.699932,567.375663 Z M477.988564,566.887872 C477.564627,566.959173 476.565833,566.743006 476.533614,567.010103 C476.815108,567.031606 476.796455,567.203635 476.772714,567.375663 C477.367921,567.306625 477.66298,567.089326 477.988564,566.887872 L477.988564,566.887872 Z M605.132158,567.2523 C609.491919,567.166286 614.706336,567.511474 617.750199,566.766773 C613.619363,566.049235 609.239253,566.689813 605.132158,567.2523 L605.132158,567.2523 Z M610.47206,566.280115 C611.504769,566.282378 611.923618,566.460065 612.65618,566.159016 C611.994839,566.235976 610.729813,566.005096 610.47206,566.280115 L610.47206,566.280115 Z M617.021028,566.039049 C617.329654,566.203155 618.209746,566.228053 618.235182,565.916818 C617.668803,565.880602 617.188907,565.657644 617.021028,566.039049 L617.021028,566.039049 Z M616.539437,565.433555 C614.901347,565.434687 613.765197,565.14156 612.65618,565.311324 C612.985154,565.260395 615.766177,565.831936 616.539437,565.433555 L616.539437,565.433555 Z M619.206844,560.450396 C619.712176,560.379094 620.800845,560.60092 620.90259,560.329297 C620.577006,560.164059 619.20854,560.097285 619.206844,560.450396 L619.206844,560.450396 Z M388.938193,558.384925 C391.300366,558.337391 393.889769,558.819523 395.975536,558.507156 C394.249267,558.303438 390.037036,558.097457 388.938193,558.384925 L388.938193,558.384925 Z M405.195303,557.899398 C400.935591,557.763587 406.458634,557.967304 405.439491,557.899398 C405.361486,557.89374 405.273308,557.901662 405.195303,557.899398 L405.195303,557.899398 Z M408.593577,548.058706 C406.953791,548.228471 405.310614,547.764447 404.225337,548.058706 C405.856644,548.102845 408.028894,548.669859 408.593577,548.058706 L408.593577,548.058706 Z M402.283709,544.173358 C401.719025,544.182412 399.685827,544.074895 400.584572,544.415556 C400.749059,544.121297 402.209096,544.726791 402.283709,544.173358 L402.283709,544.173358 Z M614.836908,532.268327 C614.334968,532.341892 613.242908,532.118934 613.141163,532.390558 C613.761806,532.500339 614.514717,532.588617 614.836908,532.268327 L614.836908,532.268327 Z M390.394838,530.081758 C389.314648,530.153059 388.014011,529.489845 387.239056,530.203989 C388.497299,530.024038 390.074342,530.548045 390.394838,530.081758 L390.394838,530.081758 Z M400.101284,529.961791 C397.613626,529.739965 393.596405,529.990085 390.879821,530.203989 C393.511618,530.210779 397.674673,530.557099 400.101284,529.961791 L400.101284,529.961791 Z M407.381119,523.765381 C406.877483,523.840077 405.692157,523.569585 405.922778,524.00871 C406.567161,524.006446 407.350596,524.076616 407.381119,523.765381 L407.381119,523.765381 Z M600.278935,524.00871 C598.978298,523.56619 597.190982,523.370395 596.639865,522.549865 C593.913107,523.011625 589.977282,522.472905 588.634251,523.037656 C593.211068,522.968618 595.620722,524.50895 600.278935,524.00871 L600.278935,524.00871 Z" id="Fill-1-Copy"></path>
        </g>
    </g>
</svg>