<?xml version="1.0" standalone="no"?><!DOCTYPE svg PUBLIC "-//W3C//DTD SVG 1.1//EN" "http://www.w3.org/Graphics/SVG/1.1/DTD/svg11.dtd"><svg class="icon" width="200px" height="171.67px" viewBox="0 0 1193 1024" version="1.1" xmlns="http://www.w3.org/2000/svg"><path fill="#ffffff" d="M276.034783 657.437681h108.336231v366.562319h-108.336231zM112.788406 777.646377h436.313043v105.368116H112.788406zM330.944928 663.373913C148.168348 663.373913 0 515.205565 0 332.428986S148.168348 1.484058 330.944928 1.484058s330.944928 148.168348 330.944927 330.944928-148.168348 330.944928-330.944927 330.944927z m0.742029-105.368116c124.172614 0 224.834783-100.662168 224.834782-224.834783S455.859571 108.336232 331.686957 108.336232 106.852174 208.9984 106.852174 333.171014 207.514342 558.005797 331.686957 558.005797zM724.22029 663.373913c-182.77658 0-330.944928-148.168348-330.944928-330.944927S541.44371 1.484058 724.22029 1.484058s330.944928 148.168348 330.944927 330.944928-148.168348 330.944928-330.944927 330.944927z m0.742029-105.368116c124.172614 0 224.834783-100.662168 224.834782-224.834783S849.134933 108.336232 724.962319 108.336232 500.127536 208.9984 500.127536 333.171014 600.789704 558.005797 724.962319 558.005797zM833.164986 630.769159l91.87506-57.409298 194.248348 310.862655-91.875061 57.409298zM820.64102 793.971014l321.072974 74.125728-23.70189 102.66713L796.93913 896.638145zM1191.88851 649.974354L1117.764267 971.048812 1015.095652 947.345438 1089.219896 626.272464z" /></svg>