<?xml version="1.0" standalone="no"?><!DOCTYPE svg PUBLIC "-//W3C//DTD SVG 1.1//EN" "http://www.w3.org/Graphics/SVG/1.1/DTD/svg11.dtd"><svg class="icon" width="200px" height="200.00px" viewBox="0 0 1024 1024" version="1.1" xmlns="http://www.w3.org/2000/svg"><path fill="#ffffff" d="M126.855176 612.361779l94.236268 0c-8.745175-15.838733-18.302855-30.863938-28.680203-45.069475l42.611493-23.76424c15.294334 21.855774 30.319539 44.800345 45.069475 68.833715l72.931033 0c12.016685-23.48897 23.48897-47.25321 34.416857-71.291696l49.166793 22.124903c-8.194636 15.300474-17.207917 31.689746-27.04189 49.166793l89.319282 0 0 47.527456L126.855176 659.889235 126.855176 612.361779zM153.077398 293.597805 292.38314 293.597805l0-59.81941L134.230144 233.778394l0-47.527456L292.38314 186.250938l0-72.931033 53.264111 0 0 72.931033 150.778028 0 0 47.527456L345.646228 233.778394l0 59.81941 133.569088 0 0 47.527456L153.077398 341.125261 153.077398 293.597805zM160.452365 387.014404l312.208675 0 0 163.068959-52.444443 0 0-16.389272L212.896808 533.694091l0 16.389272-52.444443 0L160.452365 387.014404zM160.452365 709.875696l313.846988 0L474.299353 903.265218l-52.444443 0 0-36.055171L212.896808 867.210048l0 36.055171-52.444443 0L160.452365 709.875696zM420.215574 432.903547 212.896808 432.903547l0 55.722092 207.319789 0L420.216597 432.903547zM421.85491 755.764839 212.896808 755.764839l0 65.555042 208.958102 0L421.85491 755.764839zM537.396413 293.597805l147.500379 0 0-59.81941L518.54916 233.778394l0-47.527456 166.347632 0 0-73.749678 54.083779 0 0 73.749678 166.347632 0 0 47.527456L738.979548 233.778394l0 59.81941 145.041374 0 0 47.527456-346.624509 0L537.396413 293.597805zM521.008164 612.361779l95.874581 0c-9.832949-16.389272-19.666922-31.683607-29.499871-45.889143l43.430138-23.76424c18.570961 27.316136 33.597189 50.537 45.069475 69.65236l72.931033 0c12.015661-22.944572 23.213701-46.976918 33.597189-72.111364l49.166793 22.124903c-10.383488 19.122523-19.666922 35.787064-27.861558 49.986461l106.528222 0 0 47.527456L521.008164 659.888212 521.008164 612.361779zM543.951713 387.014404l332.694241 0 0 163.068959-52.444443 0 0-16.389272L596.396155 533.694091l0 16.389272-52.444443 0L543.951713 387.014404zM543.951713 709.875696l332.694241 0L876.645954 903.265218l-52.444443 0 0-36.055171L596.396155 867.210048l0 36.055171-52.444443 0L543.951713 709.875696zM824.202535 432.903547 596.396155 432.903547l0 55.722092 227.805356 0L824.201511 432.903547zM824.202535 755.764839 596.396155 755.764839l0 65.555042 227.805356 0L824.201511 755.764839z" /></svg>