<?xml version="1.0" standalone="no"?><!DOCTYPE svg PUBLIC "-//W3C//DTD SVG 1.1//EN" "http://www.w3.org/Graphics/SVG/1.1/DTD/svg11.dtd"><svg class="icon" width="200px" height="200.00px" viewBox="0 0 1024 1024" version="1.1" xmlns="http://www.w3.org/2000/svg"><path fill="#ffffff" d="M391.853737 154.956934h252.945205l15.434281-37.267151H376.41494l15.438797 37.267151zM648.533333 160.551748h-260.413987l-20.067276-48.447748h300.548539l-20.067276 48.447748z m-252.945204-11.185112h245.476421l10.805803-26.086555H384.782326l10.805803 26.086555z m283.637659 19.850527l178.857944 178.857944 37.267152-15.434281-200.686299-200.690815-15.438797 37.267152zM856.774212 354.676897l-184.141183-184.141182 20.067275-48.443234 212.517141 212.521657-48.443233 20.062759z m-170.955665-186.764739l173.579222 173.579221 26.086554-10.805803-188.859972-188.859973-10.805804 26.086555zM164.304202 635.451674V382.506469l-37.267151-15.438797v283.818283l37.267151-15.434281zM121.446752 659.25334V358.704802l48.443233 20.067275v260.413988l-48.443233 20.067275z m11.180597-283.813767v267.088028l26.086555-10.805804V386.245376l-26.086555-10.805803z m45.937082-27.355435l178.857944-178.857944-15.434281-37.267152-200.690815 200.686299 37.267152 15.438797zM179.878467 354.676897l-48.443233-20.067275L343.952375 122.087966l20.067275 48.443233-184.141183 184.145698z m-28.710111-23.991321l26.086554 10.805803 173.579221-173.579221-10.805803-26.086555-188.859972 188.859973zM872.348476 382.506469v252.945205l37.267152 15.434281V367.067672l-37.267152 15.438797zM915.201411 659.25334l-48.443233-20.067275v-260.413988l48.443233-20.067275v300.548538z m-37.262636-27.531543l26.086555 10.805804V375.439573l-26.086555 10.805803v245.476421zM858.088248 669.87852l-178.857944 178.857944 15.434281 37.267152 200.690815-200.690814-37.267152-15.434282zM692.700304 895.874692l-20.067275-48.443233 184.141183-184.141183 48.443233 20.067276-212.517141 212.51714z m-6.881757-45.819676l10.805804 26.086555 188.859972-188.859973-26.086554-10.805803-173.579222 173.579221zM357.422375 848.74098l-178.857944-178.857944-37.262636 15.434281 200.690814 200.690815 15.429766-37.267152zM343.952375 895.874692l-212.521657-212.521656 48.443234-20.067275 184.141182 184.141183-20.062759 48.447748z m-192.784019-208.593094l188.859972 188.859973 10.805803-26.086555-173.579221-173.579221-26.086554 10.805803zM644.798942 863.005724H391.853737l-15.434281 37.267152h283.818283l-15.438797-37.267152zM668.600609 905.863174H368.05207l20.067276-48.443233h260.413987l20.067276 48.443233z m-283.818283-11.180597h267.088027l-10.805803-26.086555H395.588129l-10.805803 26.086555zM518.326339 244.821661c-145.885117 0-264.161926 118.276809-264.161926 264.161926s118.276809 264.161926 264.161926 264.161926 264.161926-118.276809 264.161927-264.161926-118.276809-264.161926-264.161927-264.161926z m11.00449 110.067469a33.022499 33.022499 0 1 1 0 66.044997 33.022499 33.022499 0 0 1 0-66.044997z m-3.675689 396.242889c-64.830304 0-117.396269-54.241249-117.39627-121.139692 0-66.898443 49.68502-121.117114 117.39627-121.117114 64.852882 0 117.418847-54.241249 117.418847-121.139692 0-63.290488-47.065979-115.242334-107.051056-120.633947l-0.243842-0.261904c124.968911 5.459346 224.691167 111.738237 224.691167 242.040058 0.004516 133.787856-105.131931 242.252291-234.815116 242.252291z m-29.342294-121.071958a33.022499 33.022499 0 1 0 66.044997 0 33.022499 33.022499 0 0 0-66.044997 0z" /></svg>