<?xml version="1.0" standalone="no"?><!DOCTYPE svg PUBLIC "-//W3C//DTD SVG 1.1//EN" "http://www.w3.org/Graphics/SVG/1.1/DTD/svg11.dtd"><svg class="icon" width="200px" height="200.00px" viewBox="0 0 1024 1024" version="1.1" xmlns="http://www.w3.org/2000/svg"><path fill="#ffffff" d="M866.983957 179.115333v733.787644H274.317485c-46.763434 0-84.676315-37.912881-84.676316-84.676316 0-46.763434 37.894819-84.6718 84.676316-84.671799h536.226132V66.230136H246.104088c-62.08031 0-112.889712 50.809402-112.889712 112.889712v677.324726c0 62.098373 50.809402 112.889712 112.889712 112.889712h677.324725V179.115333h-56.444856zM277.708692 176.862054h388.340609a36.124708 36.124708 0 0 1 0 72.249416h-388.340609a36.124708 36.124708 0 0 1 0-72.249416z m0 162.561185h388.340609a36.124708 36.124708 0 0 1 0 72.249416h-388.340609a36.124708 36.124708 0 0 1 0-72.249416zM274.317485 800.013265a28.235975 28.235975 0 0 0 0 56.462918h536.171945v-56.444856H274.371672v-0.018062h-0.054187z" /></svg>