<?xml version="1.0" standalone="no"?><!DOCTYPE svg PUBLIC "-//W3C//DTD SVG 1.1//EN" "http://www.w3.org/Graphics/SVG/1.1/DTD/svg11.dtd"><svg class="icon" width="200px" height="200.00px" viewBox="0 0 1024 1024" version="1.1" xmlns="http://www.w3.org/2000/svg"><path fill="#ffffff" d="M339.570859 112.975051l6.445806 8.153704c0.409322 0.465604 0.696872 0.995677 1.137916 1.425466L406.690536 197.838857l201.373357 0 59.648518-75.413574c0.153496-0.165776 0.260943-0.36225 0.420579-0.528026l7.05058-8.921183-1.200338-2.451842c0.522909-2.039449 1.245364-4.009314 1.245364-6.235005 0-10.766205-6.6607-19.883863-16.008602-23.633257l-0.815575-1.623987c0 0-79.299067-17.270339-151.027715-16.969487-68.540026 0.280386-151.027715 16.969487-151.027715 16.969487l-0.795109 1.607614c-9.404184 3.713578-16.127306 12.846586-16.127306 23.653723 0 2.251274 0.733711 4.2897 1.282203 6.379291L339.570859 112.975051zM617.786325 248.502747 413.747255 248.502747c-160.187329 56.33403-292.328905 234.901984-292.328905 406.013107 0 206.548216 116.533087 307.049165 394.347416 307.049165 277.816376 0 394.349463-100.500948 394.349463-307.049165C910.11523 483.405755 777.983887 304.841893 617.786325 248.502747zM625.057939 655.974066l0 0.11461c18.434861 0.119727 33.347502 15.247262 33.347502 33.927717 0 18.661012-14.912641 33.793664-33.347502 33.913391l-67.775616 0.031722 0 34.177404-0.388856 0c0.522909 2.650363 0.824785 5.414313 0.824785 8.251941 0 23.436782-18.777669 42.429345-41.951461 42.429345-23.167652 0-41.951461-18.992563-41.951461-42.429345 0-2.837628 0.302899-5.601578 0.825808-8.251941L473.948359 758.13891 473.948359 723.961506l-67.083861 0 0-0.031722c-0.056282 0-0.112564 0.031722-0.172939 0.031722-18.533099 0-33.56342-15.216563-33.56342-33.945113 0-18.759249 15.029298-33.94409 33.56342-33.94409l0.172939 0 0-0.098237L473.948359 655.974066l0-33.810037-67.083861 0 0-0.067538c-0.056282 0-0.112564 0.031722-0.172939 0.031722-18.533099 0-33.56342-15.211447-33.56342-33.939997 0-18.764366 15.029298-33.94409 33.56342-33.94409l0.172939 0 0-0.067538 61.201897 0c0.548492-2.152013 1.457188-4.176113 2.867304-5.995551l-75.29794-76.144214c-9.31311-9.413394-6.29231-27.762297 6.763031-40.972157 13.046131-13.18837 31.16786-16.259312 40.485063-6.845918l73.626881 74.470085 68.165496-73.489758c10.629081-11.69946 32.120558-8.883321 45.26902 4.54348 13.07069 13.355169 19.650549 25.541723 6.716982 40.276309l-79.268368 81.954547c-0.065492 0.762363 0.154519 1.441838 0.021489 2.204202l67.642586 0 0 0.081864c18.434861 0.11461 33.347502 15.248286 33.347502 33.92874 0 18.661012-14.912641 33.810037-33.347502 33.908274l0 0.067538-67.775616 0 0 33.810037L625.057939 655.974066z" /></svg>