<?xml version="1.0" standalone="no"?><!DOCTYPE svg PUBLIC "-//W3C//DTD SVG 1.1//EN" "http://www.w3.org/Graphics/SVG/1.1/DTD/svg11.dtd"><svg t="1546514216482" class="icon" style="" viewBox="0 0 1024 1024" version="1.1" xmlns="http://www.w3.org/2000/svg" p-id="955" xmlns:xlink="http://www.w3.org/1999/xlink" width="200" height="200"><defs><style type="text/css"></style></defs><path d="M495.1 351c37.8 6.1 72.6-9.8 92-42.2 20.2-33.9 17.9-72.1-7.6-103.2-19.2-23.4-39.5-45.9-61-70.8-6.2 5.8-15.6 12.5-22.4 21.2-18.4 23.6-20.1 51.5-19.1 80.1 0.2 5.5-3.4 11.1-5.2 16.7-5.9-3.9-15-6.5-17.2-11.9-4.6-11.1-5.5-23.7-8.1-36.9-18 22.2-26.6 46.6-21.6 74.2 6.8 38.1 35.8 67.2 70.2 72.8zM714.1 382.1c-6.3-2.5-13.8-3.9-21.8-3.9H331.6c-21.5 0-39.2 10.5-41.4 23.9-0.2 0.9-0.2 1.9-0.2 2.8 0 7.2 4.4 13.7 11.5 18.5l0.2 0.3c53.8 30.4 89.4 73.7 95.4 122.3-0.1 0.6-0.2 1.2-0.2 1.8 0 1.3 0.3 2.5 0.7 3.6 0.9 2.4 2.7 4.6 5.1 6.4 2 1.5 4.4 2.7 7.2 3.6 12.7 5.7 28.2 9.1 42 9.1h21.6c-6 2.1-10.3 7.7-10.3 14.4v1.5c0 8.4 6.9 15.2 15.3 15.2h1.8v21.2h-1.8c-8.4 0-15.3 6.9-15.3 15.2v1.5c0 8.4 6.9 15.3 15.3 15.3h1.8v21h-1.8c-8.4 0-15.3 6.9-15.3 15.3v1.5c0 8.4 6.9 15.2 15.3 15.2h1.8v12.7h-2.4c-7.8 0-16.5 3-23.6 8-1.5 0.8-2.9 1.9-4 3.2-1.4 1.6-2.4 3.5-2.9 5.6-0.2 1-0.4 2.1-0.4 3.2 0 0.5 0 1 0.1 1.6-3.3 42.7-23.4 80.7-53.7 107.4l-0.1 0.2c-4 4.2-6.5 9.9-6.5 16.2 0 0.8 0 1.7 0.1 2.5 1.2 11.8 11.2 21 23.4 21H613.6c4.5 0 8.7-1.3 12.3-3.5 6.7-4.1 11.2-11.6 11.2-20 0-6.7-2.8-12.8-7.3-17-0.4-0.3-0.8-0.7-1.1-1-30.1-27.3-49.7-65.8-52.2-108.9v-0.7c-0.4-3.9-2.5-7.2-5.5-9.4-0.2-0.1-0.4-0.3-0.6-0.4-7.1-4.9-15.7-7.8-23.4-7.8h-3V708h1.8c8.4 0 15.3-6.9 15.3-15.2V691c0-8.4-6.9-15.3-15.3-15.3H544v-21h1.8c8.4 0 15.3-6.9 15.3-15.3V638c0-8.4-6.9-15.2-15.3-15.2H544v-21.2h1.8c8.4 0 15.3-6.9 15.3-15.2v-1.5c0-6.7-4.3-12.3-10.3-14.4h23.4c13.6 0 28.9-3.3 41.5-8.9 0.3-0.1 0.7-0.3 1-0.5 5.3-2.5 9-6.3 9.7-10.7 0-0.3 0.1-0.6 0.1-0.8 4.5-49.1 39.3-93 92.6-124.1 0.7-0.4 1.3-0.8 2-1.2 8-4.9 13-11.8 13-19.4 0-9.6-8-18.1-20-22.8z" fill="#ffffff" p-id="956"></path></svg>