<?xml version="1.0" standalone="no"?><!DOCTYPE svg PUBLIC "-//W3C//DTD SVG 1.1//EN" "http://www.w3.org/Graphics/SVG/1.1/DTD/svg11.dtd"><svg class="icon" width="200px" height="200.00px" viewBox="0 0 1024 1024" version="1.1" xmlns="http://www.w3.org/2000/svg"><path fill="#ffffff" d="M281.014102 644.726692l-112.140124-163.617833m278.047361 1.395317L334.78573 645.521436l17.357922 12.770084 112.840041-164.119063m140.669612 160.330484l-109.146289-159.332539 20.4511-8.678961 106.549826 155.440102-17.854637 12.571398z m83.308092 0.99343l184.470821-271.264947-20.550444-9.577563-183.77542 270.271517m-518.096044-151.452838l112.239467 163.816519 17.75981-12.571398-112.140125-163.617833-15.064003 9.577563m-22.745019-116.02353c-33.921101 0-61.357816 27.436716-61.357816 61.357816s27.436716 61.357816 61.357816 61.357816 61.357816-27.436716 61.357816-61.357816-27.436716-61.357816-61.357816-61.357816zM309.046876 634.047325c-33.921101 0-61.357816 27.436716-61.357817 61.357817s27.436716 61.357816 61.357817 61.357816 61.357816-27.436716 61.357816-61.357816-27.441231-61.357816-61.357816-61.357817zM645.860105 634.047325c-33.921101 0-61.357816 27.436716-61.357816 61.357817s27.436716 61.357816 61.357816 61.357816 61.357816-27.436716 61.357816-61.357816-27.436716-61.357816-61.357816-61.357817zM483.736932 374.653861c-33.921101 0-61.357816 27.436716-61.357817 61.357816s27.436716 61.357816 61.357817 61.357816 61.357816-27.436716 61.357816-61.357816-27.436716-61.357816-61.357816-61.357816zM884.201896 274.881933c-33.921101 0-61.357816 27.436716-61.357816 61.357817s27.436716 61.357816 61.357816 61.357816 61.357816-27.436716 61.357816-61.357816-27.4322-61.357816-61.357816-61.357817z" /></svg>