<?xml version="1.0" standalone="no"?><!DOCTYPE svg PUBLIC "-//W3C//DTD SVG 1.1//EN" "http://www.w3.org/Graphics/SVG/1.1/DTD/svg11.dtd"><svg class="icon" width="200px" height="200.00px" viewBox="0 0 1024 1024" version="1.1" xmlns="http://www.w3.org/2000/svg"><path fill="#ffffff" d="M768.406 282.877c5.698-34.166 21.354-106.769-8.54-127.44-48.522-33.55-108.195 60.53-108.195 60.53-193.608-44.131-294.679 7.119-294.679 7.119-72.602-93.956-111.039-62.638-111.039-62.638-32.744 28.47 0 103.921 0 103.921-52.675 75.45-71.176 270.478-51.248 407.139 19.927 136.662 69.757 259.09 101.075 251.975 31.317-7.114 41.285-64.061 41.285-64.061 175.099 45.557 333.116-1.426 333.116-1.426s48.399 48.403 68.331 46.978c19.931-1.426 49.822-55.52 72.602-156.591C874.048 469.162 768.406 282.877 768.406 282.877zM330.921 342.665c0-10.007 7.211-18.119 16.107-18.119s16.107 8.112 16.107 18.119-7.211 18.119-16.107 18.119S330.921 352.672 330.921 342.665zM510.024 596.061c-86.874 0-157.303-40.152-157.303-89.685s70.429-89.685 157.303-89.685c86.879 0 157.309 40.152 157.309 89.685S596.903 596.061 510.024 596.061zM660.666 370.743c-8.896 0-16.107-8.112-16.107-18.119 0-10.007 7.211-18.12 16.107-18.12s16.107 8.112 16.107 18.12C676.774 362.631 669.563 370.743 660.666 370.743zM438.164 487.914c-13.693 0-24.788 11.386-24.788 25.435 0 14.046 11.095 25.433 24.788 25.433 13.682 0 24.776-11.387 24.776-25.433C462.941 499.3 451.846 487.914 438.164 487.914zM589.921 487.914c-13.693 0-24.786 11.386-24.786 25.435 0 14.046 11.093 25.433 24.786 25.433 13.681 0 24.776-11.387 24.776-25.433C614.698 499.3 603.602 487.914 589.921 487.914z" /></svg>