<?xml version="1.0" standalone="no"?><!DOCTYPE svg PUBLIC "-//W3C//DTD SVG 1.1//EN" "http://www.w3.org/Graphics/SVG/1.1/DTD/svg11.dtd"><svg class="icon" width="200px" height="200.00px" viewBox="0 0 1024 1024" version="1.1" xmlns="http://www.w3.org/2000/svg"><path fill="#ffffff" d="M841.333145 842.534218c8.922252-3.431635 20.77494-3.092987 35.56258 1.02949 14.765063 4.122478 25.58826 9.631156 32.465076 16.489911 6.181459 6.876817 11.676591 17.700014 16.494427 32.465077 4.799774 14.787639 11.676591 27.651757 20.612389 38.651051 2.736278 2.736278 4.975871 9.102864 6.696204 19.068153 1.706787 9.951743 2.91689 17.004656 3.607733 21.127135 0.677296 5.490617-2.754339 9.61761-10.308453 12.367433-7.567659 2.736278-13.401439 5.156484-17.523917 7.21998-6.876817 1.368139-12.028785-1.034006-15.46042-7.21998-3.449697-6.181459-7.215465-11.337943-11.337943-15.455905-4.122478-3.445181-9.969804-5.156484-17.523917-5.156484-7.567659 0-13.753633 0.677296-18.553407 2.063497-6.876817 0-11.694652-1.544236-14.43093-4.637224-2.754339-3.092987-7.567659-4.989417-14.43093-5.666713-6.876817-0.690842-12.882179-2.063497-18.038663-4.122478-5.151968-2.063497-11.51404-3.449697-19.068152-4.122478-6.181459 0-12.882179 0.162551-20.097644 0.514746-7.215465 0.338648-14.607027 0.519261-22.16114 0.51926-5.508678 0.677296-11.175392 1.368139-17.004657 2.063497-5.847326 0.677296-11.175392 4.461126-15.975165 11.333427-3.445181 4.799774-5.847326 8.068858-7.215465 9.793707-1.3862 1.706787-2.930436 2.578242-4.637223 2.578242a35.12911 35.12911 0 0 1-5.666714-0.514746c-2.063497-0.356709-5.151968-0.176097-9.274446 0.514746-4.81332 1.368139-8.425568 1.882884-10.823198 1.548751a7.901792 7.901792 0 0 1-5.666713-3.607733 77.690419 77.690419 0 0 0-4.637223-6.185974c-1.720333-2.063497-3.959927-3.78383-6.696205-5.151968-3.449697-0.690842-8.940313-0.871455-16.494426-0.514746a136.831946 136.831946 0 0 0-23.190631 3.092988c-7.906307 1.706787-15.636518 3.431635-23.190631 5.151968-7.567659 1.706787-13.058276 3.255538-16.489911 4.637223-7.567659 3.431635-12.028785 6.863271-13.401439 10.308452-1.3862 3.431635-2.754339 7.034853-4.122478 10.823198-1.3862 3.765768-3.78383 8.068858-7.215465 12.882178-3.445181 4.799774-11.690137 10.308452-24.734866 16.494427-4.817835 1.368139-11.179907 1.368139-19.068153 0-7.906307-1.3862-14.268379-3.092987-19.068153-5.156484-5.508678-1.381685-9.789191-5.332581-12.882179-11.852688-3.092987-6.538168-7.052914-11.51404-11.852688-14.94116-12.367433-15.126288-17.185269-27.832369-14.43093-38.136306 2.736278-10.308452 4.799774-17.185269 6.181459-20.612389 1.368139-4.122478 2.221532-8.08692 2.578242-11.852688 0.338648-3.788345 1.192042-8.08692 2.578242-12.886694 2.063497-10.308452 5.671229-16.489911 10.823197-18.553407 5.156484-2.063497 10.823197-2.221532 17.004657-0.514746 6.185974 1.720333 12.015239 4.474672 17.523917 8.244956 5.490617 3.788345 9.951743 6.023423 13.396924 6.70072 8.244956 1.3862 22.675885-0.162551 43.288274-4.637224 20.612389-4.461126 40.538451-8.759701 59.782701-12.882178-4.122478-10.308452-6.023423-17.343305-5.671229-21.13165 0.338648-3.765768 1.192042-6.520107 2.578242-8.244955 1.368139-1.706787 2.221532-3.607732 2.578241-5.671229 0.338648-2.063497-2.239594-7.215465-7.73021-15.460421-10.308452 0-19.420347 5.332581-27.313108 15.975166-7.910823 10.660646-18.038662 19.763511-30.406096 27.313109 0.677296-3.431635 2.221532-6.70072 4.637223-9.789192a92.654155 92.654155 0 0 1 7.73021-8.759701c4.122478-4.122478 6.181459-7.034853 6.181459-8.759701 0-1.706787 1.368139-3.946381 4.122478-6.700719 4.122478-3.42712 8.407507-8.244956 12.882179-14.43093 4.461126-6.185974 5.666714-12.367433 3.607732-18.553408-4.81332-0.677296-6.70072-0.514745-5.671229 0.514746 1.029491 1.034006-2.578242 0.176097-10.823197-2.578242-2.754339-0.677296-7.215465-1.706787-13.401439-3.092987a357.359673 357.359673 0 0 0-18.553408-3.607733 178.548892 178.548892 0 0 1-17.004657-3.607732c-5.156484-1.368139-8.08692-2.063497-8.7597-2.063497-10.308452 0-17.519402-1.548751-21.646395-4.637223-4.122478-3.092987-7.052914-6.70072-8.759701-10.823197a75.52307 75.52307 0 0 1-4.122478-13.40144c-1.029491-4.799774-4.298575-8.583604-9.793707-11.337942 0.677296-5.490617 1.548751-8.922252 2.578242-10.303937 1.029491-1.368139 0.514745-6.863271-1.548751-16.494427-1.3862-5.490617-2.930436-9.098349-4.637223-10.818682-1.724848-1.706787-1.900945-6.70072-0.514745-14.945675 0.677296-3.431635 2.063497-6.863271 4.122477-10.303937 4.122478-6.863271 6.70072-11.857203 7.730211-14.945675 1.029491-3.092987 1.706787-5.829265 2.063496-8.244955 0.338648-2.397629 1.544236-6.70072 3.607733-12.882179 10.308452-13.04473 23.529279-21.646395 39.680541-25.768873 16.137717-4.117962 31.083392-9.274446 44.837026-15.455905 1.368139-1.368139 3.255538-2.221532 5.666714-2.578242 2.397629-0.338648 4.285029-1.192042 5.671229-2.578242 6.863271-3.42712 10.823197-5.151968 11.852688-5.151968 1.029491 0 4.641738-1.029491 10.823197-3.092987 3.431635-0.677296 10.981233-3.092987 22.675886-7.215465 11.676591-4.122478 18.196698-6.863271 19.582898-8.244956 4.122478-4.122478 6.863271-12.706082 8.244955-25.768872 1.368139-13.04473 2.063497-22.323691 2.063497-27.827854-0.690842-10.985749-0.514745-19.926062 0.514745-26.798363 1.029491-6.863271-0.176097-15.108226-3.607732-24.739382-3.445181 2.754339-5.666714 5.508678-6.70072 8.244955-1.029491 2.749824-3.269084 5.151968-6.70072 7.215465-3.445181 2.754339-6.023423 4.637223-7.73021 5.666714-1.724848 1.034006-4.298575 2.934951-7.73021 5.671229-3.445181 4.122478-6.023423 6.023423-7.73021 5.666714-1.720333-0.334133-4.993933 1.900945-9.789192 6.700719-2.063497 2.063497-6.538168 5.847326-13.401439 11.337943-9.631156 7.572174-15.975166 12.724143-19.068153 15.460421-3.092987 2.754339-4.637223 4.474672-4.637223 5.151968 0 0.690842 0.677296 1.548751 2.063497 2.578242 1.368139 1.034006 0.677296 3.269084-2.063497 6.700719-4.81332 7.572174-10.308452 12.028785-16.489911 13.40144-6.185974 1.3862-12.724143 2.063497-19.582898 2.063496-8.244956-6.185974-12.724143-9.61761-13.40144-10.308452-0.690842-0.677296-5.156484-2.058981-13.401439-4.117962-6.181459-1.368139-14.43093-5.31452-24.739382-11.857204-10.308452-6.520107-16.489911-12.186821-18.553408-17.004656-0.690842-4.122478-1.724848-6.348525-3.092987-6.70072-1.3862-0.334133-2.754339-2.578242-4.122477-6.700719-2.063497-6.185974-3.959927-10.6471-5.671229-13.40144-1.724848-2.736278-2.578242-4.799774-2.578242-6.181459 0-1.368139 0.514745-2.91689 1.544236-4.637223 1.029491-1.706787 2.221532-5.319035 3.607732-10.823197 0.677296-8.244956 2.221532-14.769578 4.637223-19.582898a415.214336 415.214336 0 0 0 7.73021-16.489911c1.368139-4.122478 1.882884-7.554113 1.544236-10.308452-0.352194-2.736278 0.162551-5.490617 1.548752-8.244956 4.122478-4.799774 5.829265-6.520107 5.151968-5.151968-0.690842 1.381685 0-1.034006 2.063497-7.219981a346.924792 346.924792 0 0 0 6.700719-18.034147c1.706787-5.156484 1.544236-11.857203-0.514745-20.097643-1.3862-3.431635-2.239594-6.005362-2.578242-7.730211-0.356709-1.706787-0.514745-2.912375-0.514745-3.607732a4.470157 4.470157 0 0 1 0.514745-2.063497c0.338648-0.677296 0.514745-2.736278 0.514745-6.185974 0-2.736278-0.356709-6.005362-1.02949-9.789191a57.163821 57.163821 0 0 0-3.092987-10.823198c0-1.368139-0.690842-4.975871-2.063497-10.823197a220.64964 220.64964 0 0 1-3.092987-14.945675c-7.567659 4.122478-13.396924 8.601665-17.519402 13.401439-0.690842 1.381685-2.063497 5.847326-4.122478 13.401439-2.058981 7.567659-3.445181 12.367433-4.122477 14.43093a333.48723 333.48723 0 0 0-2.578242 9.274446 13.505291 13.505291 0 0 0-0.514746 3.092987c0 0.690842-0.690842 1.548751-2.063496 2.578242-1.3862 1.034006-3.092987 3.269084-5.151969 6.70072-4.122478 6.185974-8.08692 13.758149-11.852688 22.675885-3.78383 8.940313-6.696204 16.846621-8.7597 23.709892-3.445181 6.876817-5.847326 10.303937-7.215465 10.303936-1.3862 0-2.058981 4.817835-2.058982 14.43093 0 4.117962-1.029491 10.999294-3.092987 20.612389-2.063497 9.631156-3.607732 18.214759-4.637223 25.768873-1.029491 7.567659-1.029491 11.690137 0 12.367433 1.029491 0.690842 4.975871-5.490617 11.852688-18.553408 1.368139-4.122478 3.607732-6.863271 6.70072-8.244955 3.092987-1.368139 6.005362-4.799774 8.759701-10.308452 2.063497-4.799774 4.461126-8.402991 7.215465-10.823198 2.736278-2.397629 5.490617-5.666714 8.244955-9.789191 1.368139-4.122478 3.092987-7.73021 5.156484-10.823197 2.063497-3.092987 4.122478-6.70072 6.181459-10.823198 1.368139-1.363624 2.91689-6.34401 4.637223-14.945675 1.706787-8.583604 3.255538-12.886694 4.637223-12.886694 4.122478 9.631156 6.005362 16.155778 5.671229 19.582898-0.352194 3.449697-2.930436 8.601665-7.73021 15.460421-3.449697 4.117962-5.508678 9.11641-6.185975 14.945675-0.690842 5.847326-3.092987 12.209397-7.215464 19.068153-4.122478 6.876817-6.876817 11.690137-8.244956 14.43093-1.3862 2.754339-2.415691 8.601665-3.092987 17.523917-0.690842 3.445181-2.415691 8.601665-5.156484 15.455905-2.754339 6.876817-5.151968 12.028785-7.215465 15.46042-1.3862 4.817835-2.754339 8.244956-4.122478 10.308453a15.835191 15.835191 0 0 0-2.578241 6.700719 235.527586 235.527586 0 0 0-1.029491 8.244956c-0.352194 3.092987-1.205588 7.052914-2.578242 11.852688-1.3862 8.244956-3.092987 14.945675-5.151968 20.097643-2.063497 5.151968-2.754339 12.209397-2.063497 21.127134 0.677296 4.817835 0.853394 10.489064 0.514745 17.009172a98.33893 98.33893 0 0 1-3.092987 19.582898c-1.720333 6.542684-4.122478 12.371949-7.215465 17.523918-3.092987 5.151968-6.70072 8.421053-10.823197 9.789191-6.876817 2.063497-10.484549 6.362071-10.823197 12.886694a85.641879 85.641879 0 0 1-3.607733 20.097644c-4.122478 15.121772-8.244956 34.189925-12.367433 57.204458-4.122478 23.02808-9.969804 41.40539-17.519402 55.140963-2.754339 4.817835-5.847326 14.607027-9.274446 29.376605a1793.390715 1793.390715 0 0 1-11.337943 45.866516 2420.711726 2420.711726 0 0 1-11.852688 43.80302c-3.78383 13.401439-7.052914 20.77494-9.789191 22.16114-2.754339 1.368139-5.508678 1.882884-8.244956 1.548751-2.754339-0.356709-5.508678-0.519261-8.244955-0.519261-3.445181 0-6.181459 1.192042-8.244956 3.607733-2.063497 2.397629-4.993933 3.607732-8.759701 3.607732-3.78383 0-7.73021-1.3862-11.852688-4.122478-4.122478-2.754339-9.631156-8.601665-16.489911-17.523917a767.286581 767.286581 0 0 1-22.675885-26.279102 482.460844 482.460844 0 0 1-24.220122-31.950332 3168.198674 3168.198674 0 0 0-23.705376-33.499083 978.729505 978.729505 0 0 1-20.097643-28.861859c-2.063497-4.122478-6.023423-11.161846-11.852688-21.127135a2118.682658 2118.682658 0 0 1-17.523917-30.406095 1426.160576 1426.160576 0 0 1-15.975166-28.86186c-4.81332-8.922252-8.244956-14.769578-10.308452-17.523917-6.876817-6.858755-11.852688-11.161846-14.945675-12.882179-3.092987-1.706787-4.637223-8.068858-4.637224-19.068153 0-6.858755-0.514745-13.401439-1.544235-19.582898a107.563708 107.563708 0 0 1-1.539721-17.537463c0-5.490617 1.192042-10.985749 3.607732-16.489911 2.397629-5.490617 7.378016-10.985749 14.945676-16.489911 4.799774-4.799774 8.407507-8.588119 10.823197-11.337943 2.397629-2.736278 7.73021-4.461126 15.975166-5.156483 9.613094-1.368139 16.313814-1.368139 20.097643 0 3.770284 1.3862 9.436997 2.754339 17.004657 4.122477 3.431635 0 8.407507-0.334133 14.945675-1.02949 6.520107-0.677296 13.220827-1.368139 20.097643-2.063497 6.863271-0.677296 13.559475-1.706787 20.097644-3.092987 6.524623-1.368139 11.161846-2.736278 13.916185-4.122478 0-8.244956-3.269084-19.745449-9.789192-34.528573-6.538168-14.769578-11.852688-25.931424-15.975166-33.499083a470.576549 470.576549 0 0 1-12.886694-35.043319 1448.493298 1448.493298 0 0 0-11.852688-35.047834c-1.3862-3.431635-1.3862-5.666714 0-6.700719 1.368139-1.029491 0.338648-4.280514-3.092987-9.789192-3.445181-5.490617-4.637223-8.583604-3.607732-9.274446 1.029491-0.677296 0.514745-4.122478-1.544236-10.308452a1461.822492 1461.822492 0 0 1-4.637223-16.489911 392.615211 392.615211 0 0 0-5.666714-18.553408c-0.690842-3.431635-1.900945-6.185974-3.607732-8.244956-1.724848-2.058981-2.930436-4.795259-3.607733-8.244955-0.690842-4.122478-1.3862-9.61761-2.058981-16.489911-0.690842-6.185974-1.548751-8.922252-2.578242-8.244956-1.029491 0.690842-0.871455-2.736278 0.514745-10.308452 0-3.42712 0.162551-7.034853 0.514746-10.818682 0.338648-3.770284 0.514745-7.039368 0.514745-9.793707 4.122478 0.690842 7.378016 0.519261 9.789191-0.514745 2.397629-1.029491 5.31452-1.192042 8.759701-0.514745 4.122478 0 10.132355 1.205588 18.038663 3.607732 7.888246 2.415691 11.852688 7.391562 11.852688 14.945675 13.735572 6.876817 21.646395 12.886694 23.705376 18.038663s4.799774 9.789191 8.244955 13.916184c1.368139 1.3862 2.578242 3.449697 3.607733 6.185975 1.029491 2.754339 2.221532 4.817835 3.607732 6.185974 2.058981 5.504163 5.490617 9.274446 10.308452 11.333427 4.799774 2.063497 7.215465 7.21998 7.215465 15.460421 0 2.754339-0.514745 5.508678-1.544236 8.244955a74.954141 74.954141 0 0 0-2.578242 8.244956c-1.3862 15.126288-0.690842 27.313109 2.063497 36.59207 2.736278 9.274446 7.892761 22.513334 15.46042 39.680542 1.368139 2.754339 2.578242 5.666714 3.607733 8.759701 1.029491 3.092987 2.578242 5.666714 4.637223 7.73021 1.368139 3.449697 3.431635 9.789191 6.181459 19.068153 2.736278 9.278961 8.244956 15.975166 16.494426 20.097643 2.058981-3.431635 3.251023-6.70072 3.607733-9.789191 0.338648-3.092987 1.544236-6.005362 3.607732-8.759701 2.063497-4.799774 2.221532-7.554113 0.514746-8.244956-1.720333-0.677296-1.205588-3.092987 1.548751-7.21998 2.063497-3.431635 3.431635-5.151968 4.122478-5.151968 0.677296 0 2.063497-3.092987 4.122477-9.274446 1.368139-3.431635 2.221532-6.520107 2.578242-9.274447 0.338648-2.736278 2.221532-3.765768 5.671229-3.092987 2.736278 3.445181 3.607732 9.789191 2.578242 19.068153-1.029491 9.274446-0.514745 15.636518 1.544236 19.068153 0.677296 3.449697 2.063497 9.274446 4.122478 17.523917 2.063497 8.244956 3.092987 13.401439 3.092987 15.460421 3.431635-0.677296 6.863271-6.005362 10.308452-15.975166a1281.128827 1281.128827 0 0 0 10.823198-32.984338 366.512205 366.512205 0 0 0 9.274446-35.558064c2.397629-11.676591 3.946381-19.921546 4.637223-24.739382 4.122478-17.85805 10.132355-35.896712 18.038662-54.111471 7.888246-18.201213 14.588966-35.896712 20.097644-53.081981a222.374489 222.374489 0 0 1 8.244955-27.313109 206.57542 206.57542 0 0 0 8.244956-28.342599c1.368139-10.308452 1.544236-17.523917 0.514745-21.646395-1.029491-4.122478-2.415691-7.554113-4.122478-10.303937a44.769296 44.769296 0 0 0-6.185974-7.73021c-2.415691-2.397629-3.607732-7.73021-3.607732-15.975166 0-3.431635 1.368139-7.888246 4.122477-13.401439 2.736278-5.490617 5.490617-8.917737 8.244956-10.303937 1.368139-1.368139 5.490617-1.706787 12.367433-1.034006 6.858755 0.690842 12.015239 1.3862 15.460421 2.063497 0.677296 0 3.255538 1.3862 7.73021 4.122478 4.461126 2.754339 9.274446 5.847326 14.43093 9.274446a260.700437 260.700437 0 0 0 13.916184 8.759701c4.122478 2.415691 6.858755 3.959927 8.244956 4.637223 0.677296 0.690842 1.706787 3.092987 3.092987 7.215465 11.676591 2.063497 18.553408 3.449697 20.612389 4.122477 2.063497 0.690842 6.858755 4.474672 14.43093 11.337943 6.185974 6.185974 10.6471 8.759701 13.401439 7.73021 2.736278-1.029491 5.829265 1.548751 9.274446 7.730211 1.368139 2.063497 3.092987 3.445181 5.156484 4.122477 2.063497 0.690842 3.770284 2.749824 5.151968 6.181459 2.063497 3.445181 4.799774 6.876817 8.244956 10.308453 1.368139 1.3862 3.42712 4.474672 6.181459 9.274446a218.586144 218.586144 0 0 0 8.244955 13.401439c3.431635 4.81332 4.461126 7.567659 3.092988 8.244956-1.3862 0.690842-0.690842 3.092987 2.063496 7.215464 2.063497 2.754339 3.431635 4.993933 4.122478 6.70072 0.677296 1.724848 1.029491 3.269084 1.029491 4.637223 0 6.185974-0.514745 11.00381-1.544236 14.43093-1.029491 3.445181-0.871455 8.601665 0.514745 15.460421 4.799774-0.677296 11.337943-2.402145 19.582898-5.156484a444.7264 444.7264 0 0 0 25.254127-9.274446c8.583604-3.431635 16.313814-7.888246 23.190631-13.40144 6.863271-5.490617 11.337943-10.6471 13.401439-15.455905 0.677296-3.431635 1.544236-10.308452 2.578242-20.612389 1.029491-10.308452 2.063497-21.131649 3.092987-32.469592 1.029491-11.337943 1.882884-22.319176 2.578242-32.979822 0.677296-10.6471 1.029491-18.377311 1.029491-23.190631 0-19.921546 1.029491-37.445464 3.092987-52.567236 2.058981-15.108226-1.3862-32.627628-10.308452-52.567235-4.122478-8.922252-5.508678-16.313814-4.122478-22.16114 1.368139-5.829265 6.181459-11.161846 14.43093-15.975166 4.122478-2.736278 10.981233-5.829265 20.612389-9.274446 9.613094-3.431635 17.167208-4.799774 22.675885-4.122478 17.862565 3.449697 30.568647 12.724143 38.136306 27.827854 7.554113 15.121772 7.215465 31.950332-1.02949 50.503739-3.445181 7.572174-5.847326 14.945675-7.215465 22.16114-1.3862 7.215465-4.122478 14.607027-8.244956 22.16114-6.181459 10.303937-8.759701 18.553408-7.73021 24.739382 1.029491 6.181459 0.514745 14.43093-1.548751 24.734867a745.25187 745.25187 0 0 1-5.151969 27.313108c-2.063497 9.969804 1.029491 17.361366 9.274447 22.16114 3.431635 2.063497 7.215465 3.092987 11.337942 3.092987s8.068858-0.338648 11.852688-1.034005a25.5115 25.5115 0 0 1 11.337943 0.514745c3.770284 1.034006 7.378016 3.269084 10.823197 6.70072a232.16368 232.16368 0 0 1 9.789192 10.308452c2.397629 2.754339 4.637223 4.81332 6.700719 6.181459 2.063497 1.3862 4.461126 2.754339 7.215465 4.122477 2.736278 1.3862 6.863271 3.445181 12.367434 6.185975 6.863271 4.122478 13.916185 6.876817 21.131649 8.244955 7.215465 1.381685 11.495979 6.181459 12.882179 14.43093 4.122478 19.939608 2.397629 35.558064-5.151969 46.896007-7.567659 11.337943-21.646395 13.577536-42.258783 6.70072-14.43093-4.117962-30.067447-3.765768-46.900522 1.034005-16.846621 4.817835-28.342599 15.812615-34.528574 32.979823-1.3862 5.508678-3.269084 13.238888-5.666713 23.19063a221.88232 221.88232 0 0 0-5.151969 30.920841c-1.029491 10.660646-1.3862 20.612389-1.02949 29.891351 0.338648 9.274446 2.221532 16.670523 5.671229 22.16114 2.063497 4.81332 6.858755 8.759701 14.430929 11.852688 7.554113 3.092987 15.799069 5.666714 24.739382 7.73021 8.922252 2.063497 17.681953 4.122478 26.283618 6.185974 8.583604 2.063497 15.284323 4.817835 20.097644 8.244956 6.181459 3.445181 13.735572 6.876817 22.675885 10.303937 8.922252 3.449697 14.07422 7.906307 15.460421 13.401439 2.736278 6.876817 2.578242 14.092282-0.514746 21.646395-3.092987 7.567659-7.052914 13.396924-11.852688 17.519402-7.567659 6.876817-13.238888 12.54353-17.004656 17.009171-3.78383 4.474672-11.51404 6.70072-23.190631 6.70072h-22.16114c-2.415691 0-4.817835 0.866939-7.215465 2.578242-2.415691 1.720333-6.023423 4.637223-10.823197 8.759701a83.117821 83.117821 0 0 0-18.038662 14.430929c-5.151968 5.504163-7.052914 13.058276-5.666714 22.675886 1.368139 7.567659 1.887399 15.121772 1.544236 22.675885a510.731198 510.731198 0 0 0-0.514746 23.705376c0.677296 6.876817 1.368139 16.155778 2.063497 27.827854 0.677296 11.694652 1.029491 20.969098 1.029491 27.832369 0 8.935798-0.514745 16.32736-1.548752 22.156625-1.029491 5.847326-0.514745 12.54353 1.548752 20.097644 2.736278 0 5.31452-0.162551 7.73021-0.514746a63.823903 63.823903 0 0 1 8.759701-0.514745 296.701002 296.701002 0 0 0 19.582898-2.578242 353.458445 353.458445 0 0 1 18.553408-2.578242c10.981233-1.368139 17.519402-3.431635 19.582898-6.181459 2.049951-2.745308 6.511077-5.838295 13.387893-9.283476zM328.037251 738.433752c-0.690842-7.554113-5.508678-14.769578-14.43093-21.646395-8.940313-6.858755-15.46042-13.04473-19.582898-18.553408-3.445181-6.181459-9.274446-7.888246-17.519402-5.151968-4.122478 2.063497-9.278961 3.78383-15.46042 5.151968-6.181459 1.3862-10.308452 4.122478-12.367433 8.244956-3.445181 5.508678-8.244956 7.906307-14.43093 7.215465-6.185974-0.677296-11.337943 1.034006-15.460421 5.151968-6.876817 6.876817-16.846621 11.00381-29.89135 12.371949-4.122478 0.690842-6.876817 2.063497-8.244956 4.122478-1.3862 2.063497-3.092987 3.092987-5.156483 3.092987-4.81332 0-7.567659-1.548751-8.244956-4.637223-0.690842-3.092987-2.754339-3.607732-6.185974-1.548751-4.122478 4.817835-3.959927 10.145901 0.514745 15.975165 4.461126 5.847326 8.068858 11.175392 10.823197 15.975166a67.28263 67.28263 0 0 1 10.308453 16.489911c2.736278 6.185974 5.829265 11.337943 9.278961 15.460421 1.368139 2.063497 4.285029 6.023423 8.759701 11.852688 4.461126 5.847326 8.922252 11.694652 13.401439 17.523917a332.525469 332.525469 0 0 0 13.401439 16.489911c4.461126 5.156484 7.73021 8.759701 9.789192 10.823197 2.736278 2.754339 7.039368 6.185974 12.886694 10.308452 5.829265 4.117962 12.191336 8.082404 19.068153 11.852688 6.863271 3.78383 13.04473 6.538168 18.553407 8.244956 5.490617 1.724848 9.613094 1.548751 12.367434-0.514745 0.677296-1.368139 2.736278-9.274446 6.185974-23.705376 3.431635-14.43093 6.858755-30.406096 10.308452-47.930013 3.431635-17.523917 6.181459-33.499083 8.244956-47.930013 2.054466-14.426415 3.083957-22.67137 3.083956-24.730351z m343.226754 116.467899c0-8.922252-0.176097-12.529984-0.514746-10.823197-0.356709 1.724848-1.544236-0.514745-3.607732-6.70072 0-1.368139 0.514745-3.946381 1.544236-7.73021 1.029491-3.770284 1.192042-7.039368 0.514745-9.789192-1.3862-8.244956-4.122478-14.07422-8.244956-17.523917-4.122478-3.431635-8.940313-1.706787-14.430929 5.151969-4.817835 6.185974-7.73021 10.484549-8.759701 12.886693-1.029491 2.415691-0.871455 4.298575 0.514745 5.666714 1.368139 1.3862 2.912375 2.239594 4.637223 2.578242 1.706787 0.356709 3.251023 1.548751 4.637223 3.607732 4.122478 4.122478 6.70072 8.940313 7.73021 14.43093 1.034006 5.508678 6.348525 8.244956 15.979682 8.244956z" /></svg>