<?xml version="1.0" standalone="no"?><!DOCTYPE svg PUBLIC "-//W3C//DTD SVG 1.1//EN" "http://www.w3.org/Graphics/SVG/1.1/DTD/svg11.dtd"><svg class="icon" width="200px" height="200.00px" viewBox="0 0 1024 1024" version="1.1" xmlns="http://www.w3.org/2000/svg"><path fill="#ffffff" d="M323.584 321.536c-98.304 0-178.176 79.872-178.176 178.176 0 61.44 30.72 116.736 79.872 149.504-32.768 12.288-63.488 32.768-88.064 59.392-45.056 45.056-92.16 126.976-92.16 202.752 0 12.288 12.288 24.576 24.576 24.576s24.576-12.288 24.576-24.576c0-61.44 40.96-129.024 77.824-165.888 38.912-38.912 92.16-61.44 145.408-63.488h6.144c98.304 0 178.176-79.872 178.176-178.176s-77.824-182.272-178.176-182.272z m131.072 178.176c0 69.632-57.344 129.024-126.976 131.072h-10.24c-69.632-4.096-122.88-61.44-122.88-129.024 0-73.728 59.392-131.072 131.072-131.072s129.024 59.392 129.024 129.024zM512 708.608c-4.096-4.096-12.288-6.144-16.384-6.144-6.144 0-12.288 2.048-16.384 6.144-10.24 10.24-10.24 24.576 0 34.816 38.912 38.912 77.824 104.448 77.824 165.888 0 12.288 12.288 24.576 24.576 24.576s24.576-12.288 24.576-24.576C604.16 833.536 557.056 753.664 512 708.608z"  /><path fill="#ffffff" d="M686.08 321.536c-98.304 0-178.176 79.872-178.176 178.176 0 61.44 30.72 116.736 79.872 149.504-32.768 12.288-63.488 32.768-88.064 59.392-45.056 45.056-92.16 126.976-92.16 202.752 0 12.288 12.288 24.576 24.576 24.576s24.576-12.288 24.576-24.576c0-61.44 40.96-129.024 77.824-165.888 38.912-38.912 92.16-61.44 145.408-63.488h6.144c98.304 0 178.176-79.872 178.176-178.176S786.432 321.536 686.08 321.536zM819.2 499.712c0 69.632-57.344 129.024-126.976 131.072h-10.24c-69.632-4.096-122.88-61.44-122.88-129.024 0-73.728 59.392-131.072 131.072-131.072 69.632 0 129.024 59.392 129.024 129.024z m55.296 208.896c-4.096-4.096-12.288-6.144-16.384-6.144-6.144 0-12.288 2.048-16.384 6.144-10.24 10.24-10.24 24.576 0 34.816 38.912 38.912 77.824 104.448 77.824 165.888 0 12.288 12.288 24.576 24.576 24.576s24.576-12.288 24.576-24.576c-4.096-75.776-49.152-155.648-94.208-200.704zM575.488 77.824c-30.72 0-57.344 18.432-67.584 45.056-12.288-26.624-34.816-45.056-67.584-45.056-40.96 0-73.728 32.768-73.728 73.728 0 22.528 10.24 40.96 26.624 57.344l112.64 110.592 69.632-67.584c12.288-10.24 20.48-20.48 30.72-30.72l12.288-12.288c16.384-16.384 26.624-34.816 26.624-59.392 4.096-40.96-28.672-71.68-69.632-71.68z"  /></svg>