<?xml version="1.0" standalone="no"?><!DOCTYPE svg PUBLIC "-//W3C//DTD SVG 1.1//EN" "http://www.w3.org/Graphics/SVG/1.1/DTD/svg11.dtd"><svg class="icon" width="200px" height="200.00px" viewBox="0 0 1024 1024" version="1.1" xmlns="http://www.w3.org/2000/svg"><path fill="#ffffff" d="M895.910817 502.097314c-15.700701-63.195661-70.181276-109.055977-129.543202-109.055977-44.329532 0-84.540848 25.467919-113.363849 71.617233a16.382555 16.382555 0 0 1-13.880919 7.753266 16.165807 16.165807 0 0 1-13.880919-7.753266c-28.723658-46.149314-69.034317-71.617233-113.363849-71.617233-59.361926 0-113.842501 45.860317-129.543202 109.055977-10.81935 43.467055-23.837792 196.184257 256.792486 347.555815 280.621246-151.371557 267.602805-304.084244 256.783454-347.555815zM289.35891 237.939904c-47.011792 8.809913-89.715712 40.784795-114.126983 85.308497-28.818486 52.565966-30.538925 116.619588-4.881352 180.194559a16.337399 16.337399 0 0 0 15.222049 10.24587c2.009437 0 4.118217-0.383825 6.127654-1.146959a16.332884 16.332884 0 0 0 9.094395-21.254875c-21.927698-54.286405-20.776223-108.383155 3.255739-152.23855 19.719575-36.093099 53.90258-61.850015 91.436151-68.93949a16.283212 16.283212 0 0 0 13.018442-19.146095c-1.72947-8.90474-10.336182-14.747912-19.146095-13.022957zM927.696044 494.249222a187.089862 187.089862 0 0 0-24.700269-56.58484c6.028311-61.46619-6.800476-119.870812-37.438744-169.470035-29.301654-47.395617-73.148018-83.204233-123.510376-100.819544-74.015011-25.946571-176.938819-14.937567-252.480099 88.753891-27.671526-37.912881-60.603713-65.584407-98.1418-82.626238-40.121004-18.093963-84.256365-22.885002-127.533765-13.691264-96.994841 20.586568-171.962641 104.842933-186.61121 209.780694-11.39283 81.479279 13.402267 168.702386 71.806888 252.290444 65.584407 93.833929 174.640385 185.459735 332.812418 269.237448 2.393262 1.246302 4.980694 1.91461 7.662954 1.914609 2.582917 0 5.265176-0.672823 7.662953-1.914609a1555.33575 1555.33575 0 0 0 74.778146-42.320096 989.257062 989.257062 0 0 0 59.551581 33.993351c2.393262 1.246302 4.980694 1.91461 7.662953 1.914609 2.582917 0 5.265176-0.672823 7.662954-1.914609 113.363849-60.030233 194.7483-127.727936 241.854919-201.350091 50.83198-79.478873 49.206368-145.736103 38.960497-187.19372z m-288.577713 355.408422c-280.630277-151.376073-267.60732-304.08876-256.792485-347.555814 15.700701-63.195661 70.181276-109.055977 129.543202-109.055977 44.329532 0 84.540848 25.467919 113.363849 71.617233a16.382555 16.382555 0 0 0 13.880919 7.753265 16.165807 16.165807 0 0 0 13.880919-7.753265c28.723658-46.149314 69.034317-71.617233 113.363849-71.617233 59.361926 0 113.842501 45.860317 129.543202 109.055977 10.828381 43.467055 23.846823 196.179742-256.783455 347.555814z m-149.55629 8.326745c-143.812462-77.171407-249.319187-162.86373-313.661807-254.972703-53.52327-76.597927-76.403757-155.774256-66.157887-228.926789 12.73396-91.341324 77.460405-164.584169 160.94912-182.303339 79.370499-16.852176 154.148644 20.392398 205.088998 102.160674a16.382555 16.382555 0 0 0 13.880919 7.753266 16.165807 16.165807 0 0 0 13.880919-7.753266C559.747833 203.653041 644.961503 167.844424 731.322133 198.19821c69.129144 24.32096 137.585465 96.796155 140.362552 203.07956-1.5353-1.336614-2.966742-2.582917-4.596869-3.928562-29.202311-23.937135-65.010927-37.149746-100.724717-37.149746-49.021229 0-93.450104 23.648137-127.244768 67.020364-33.79918-43.467055-78.223539-67.020364-127.244767-67.020364-35.808617 0-71.522406 13.212612-100.819545 37.149746-29.586136 24.221617-51.130008 58.594276-60.603713 96.796155-10.340698 41.556961-11.966309 107.714848 38.965013 187.184689 33.510182 52.376311 84.450536 101.682021 151.755383 147.447511a1084.346324 1084.346324 0 0 1-51.608661 29.206826z" /></svg>