<?xml version="1.0" standalone="no"?><!DOCTYPE svg PUBLIC "-//W3C//DTD SVG 1.1//EN" "http://www.w3.org/Graphics/SVG/1.1/DTD/svg11.dtd"><svg class="icon" width="200px" height="200.00px" viewBox="0 0 1024 1024" version="1.1" xmlns="http://www.w3.org/2000/svg"><path fill="#ffffff" d="M53.5 502a44.1 44.1 0 1 0 88.2 0 44.1 44.1 0 1 0-88.2 0z"  /><path fill="#ffffff" d="M97.6 556c-29.7 0-53.9-24.2-53.9-53.9s24.2-53.9 53.9-53.9 53.9 24.2 53.9 53.9c0.1 29.7-24.1 53.9-53.9 53.9z m0-88.2c-18.9 0-34.2 15.4-34.2 34.2s15.4 34.2 34.2 34.2c18.9 0 34.2-15.4 34.2-34.2s-15.3-34.2-34.2-34.2zM867.9 502a44.1 44.1 0 1 0 88.2 0 44.1 44.1 0 1 0-88.2 0z"  /><path fill="#ffffff" d="M912 556c-29.7 0-53.9-24.2-53.9-53.9s24.2-53.9 53.9-53.9 53.9 24.2 53.9 53.9S941.7 556 912 556z m0-88.2c-18.9 0-34.2 15.4-34.2 34.2s15.4 34.2 34.2 34.2 34.2-15.4 34.2-34.2-15.3-34.2-34.2-34.2zM508.4 60.6c-211.2 0-387.3 152.4-424.5 353h40.2C160.7 234.9 319 100 508.4 100s347.7 134.9 384.3 313.6h40.2c-37.2-200.6-213.3-353-424.5-353z m381.3 523.8c-41.5 172.2-196.6 300.5-381.4 300.5-184.7 0-339.8-128.3-381.3-300.5H86.4c42.3 194.1 215.4 339.9 421.9 339.9 206.6 0 379.7-145.8 421.9-339.9h-40.5z"  /><path fill="#ffffff" d="M469.5 756.8c0-19.5 15.8-35.4 35.4-35.4 0.3 0-2 0.1-1.7 0.1l79.2-143.3-189.3-116.1c-4-2.4-6.9-6.3-8-10.8-1.1-4.6-0.3-9.4 2.2-13.3L505 249.1c-2.7-5-3-8.1-3-14.2 0-8.7 3.1-16.6 8.3-22.8-1.3 0-2.5-0.1-3.8-0.1-155.8 0-282.1 126.3-282.1 282.1 0 144.8 109.2 264.1 249.7 280.2-2.9-5.2-4.6-11.1-4.6-17.5z"  /><path fill="#ffffff" d="M569 219c2.4 4.8 3.8 10.1 3.8 15.8 0 19.5-15.8 35.4-35.4 35.4-0.7 0 0.7 0 0 0L434.2 441.5 620 555.6c8.1 4.8 10.9 15.2 6.3 23.4l-89.9 161.7c3 5.2 4 9.7 4 16.1 0 6.5-1.8 12.5-4.8 17.7 142.1-14.5 253-134.4 253-280.4 0-134.3-93.9-246.6-219.6-275.1z"  /></svg>