<?xml version="1.0" standalone="no"?><!DOCTYPE svg PUBLIC "-//W3C//DTD SVG 1.1//EN" "http://www.w3.org/Graphics/SVG/1.1/DTD/svg11.dtd"><svg class="icon" width="200px" height="200.00px" viewBox="0 0 1024 1024" version="1.1" xmlns="http://www.w3.org/2000/svg"><path fill="#ffffff" d="M540.35456 138.752c-12.67712-21.15584-44.19584-21.15584-56.7808 0l-58.71616 98.48832h174.35648l-58.85952-98.49856zM845.4144 347.8528c12.20608-21.46304-3.09248-48.39424-27.50464-48.39424h-117.6576l87.4496 149.97504 57.71264-101.5808z m-608.45056 102.12352l87.7568-150.528h-118.272c-24.48384 0-39.7824 26.94144-27.4944 48.40448l58.0096 102.12352z m-68.66944 216.9856c-12.67712 21.1456 3.16416 47.54432 28.42624 47.54432h122.9824L230.8096 562.21696l-62.49472 104.74496z m687.39072 0l-61.57312-103.12704-87.7568 150.67136h121.05728c25.10848 0 40.93952-26.39872 28.27264-47.54432zM484.57728 885.02272l-61.57312-108.1344H601.2928l-61.57312 108.1344c-12.35968 21.46304-42.94656 21.46304-55.15264 0zM757.76 512.07168c-1.9968 1.9456-3.82976 4.20864-5.36576 6.78912L639.04768 716.8a25.64096 25.64096 0 0 0-3.45088-0.23552H394.0352L276.48 511.21152l117.79072-205.824c1.536-2.6624 2.60096-5.53984 3.29728-8.42752H633.1392l119.31648 208.24064c1.46432 2.6624 3.2256 4.9152 5.29408 6.8608z m-61.44-1.26976a20.7872 20.7872 0 0 1-3.9424-5.19168L603.52512 348.16H428.09344c-0.512 2.18112-1.31072 4.36224-2.4576 6.36928L337.92 510.1568l87.552 155.26912h179.87584c0.86016 0 1.71008 0.0512 2.57024 0.17408l84.40832-149.66784c1.13664-1.9456 2.5088-3.65568 3.9936-5.12z"  /></svg>