<?xml version="1.0" standalone="no"?>
  <!DOCTYPE svg PUBLIC "-//W3C//DTD SVG 1.1//EN" "http://www.w3.org/Graphics/SVG/1.1/DTD/svg11.dtd" >
  <svg>
  <metadata>
  Created by font-carrier
  </metadata>
  <defs>
  <font id="iconfont" horiz-adv-x="1024" vert-adv-y="1024" >
    <font-face
      
      font-family="iconfont"
      
      font-weight="400"
      
      font-stretch="normal"
      
      units-per-em="1024"
      
      ascent="820"
      
      descent="-204"
      
    />
      <missing-glyph />

      
      <glyph glyph-name="x" unicode="&#x78;" horiz-adv-x="100"
        d="M20 20 L50 20 L50 -20 Z" />
      

      
      <glyph glyph-name="uni2c" unicode="&#x2c;" d="M128 76Q164 76 188 48Q216 14 216-32Q216-119 119-177Q104-188 94-188Q80-188 80-178Q80-170 86-165Q124-138 142-114Q167-78 167-48Q167-15 156-15Q147-15 140-18Q129-21 123-21Q103-21 88-8Q74 5 74 22Q74 44 90 60Q106 76 128 76L128 76Z"  horiz-adv-x="512" vert-adv-y="1024"  />

      
      <glyph glyph-name="uni2d" unicode="&#x2d;" d="M32 336L480 336L480 280L32 280L32 336Z"  horiz-adv-x="512" vert-adv-y="1024"  />

      
      <glyph glyph-name="uni30" unicode="&#x30;" d="M280 672Q356 672 406 569Q448 477 448 316Q448 160 406 70Q356-32 280-32Q203-32 154 70Q112 160 112 316Q112 477 154 569Q203 672 280 672L280 672M280 2Q329 2 356 87Q376 159 376 316Q376 477 356 552Q329 638 280 638Q231 638 204 552Q184 477 184 316Q184 159 204 87Q231 2 280 2L280 2Z"  horiz-adv-x="512" vert-adv-y="1024"  />

      
      <glyph glyph-name="uni31" unicode="&#x31;" d="M286 672L286 108Q286 8 394 8L394-16L114-16L114 8Q226 8 226 108L226 502Q226 560 182 560Q150 560 106 545L106 572Q203 607 286 672L286 672Z"  horiz-adv-x="512" vert-adv-y="1024"  />

      
      <glyph glyph-name="uni32" unicode="&#x32;" d="M248 672Q321 672 363 598Q392 550 392 480Q392 395 339 303Q280 195 170 48L315 48Q370 48 396 104L420 104L380-16L80-16L80 8Q173 112 249 239Q320 355 320 450Q320 521 302 562Q280 609 226 609Q177 609 148 567Q123 529 120 480L96 480Q100 556 126 600Q175 672 248 672L248 672Z"  horiz-adv-x="512" vert-adv-y="1024"  />

      
      <glyph glyph-name="uni33" unicode="&#x33;" d="M272 672Q336 672 377 624Q408 585 408 524Q408 422 328 368Q387 343 420 290Q440 255 440 208Q440 100 357 21Q294-32 224-32Q173-32 143-8Q120 11 120 36Q120 51 132 62Q144 73 161 73Q179 73 201 56Q240 13 278 13Q323 13 354 60Q385 104 385 165Q385 235 351 271Q315 314 220 317L220 341Q269 344 300 371Q353 418 353 495Q353 551 333 579Q310 612 256 612Q221 612 198 591Q177 572 164 516L140 516Q147 580 174 621Q213 672 272 672L272 672Z"  horiz-adv-x="512" vert-adv-y="1024"  />

      
      <glyph glyph-name="uni34" unicode="&#x34;" d="M366 672L366 240L421 240L421 176L366 176L366-16L306-16L306 176L77 176L77 246L333 672L366 672M306 240L306 570L112 240L306 240Z"  horiz-adv-x="512" vert-adv-y="1024"  />

      
      <glyph glyph-name="uni35" unicode="&#x35;" d="M216 656L416 656L391 592L227 592L173 460Q279 440 340 374Q400 307 400 212Q400 111 337 38Q276-32 192-32Q142-32 116-14Q92 2 92 32Q92 66 121 66Q133 66 147 55Q202 14 235 14Q289 14 323 59Q360 107 360 171Q360 257 298 318Q231 385 112 394L216 656Z"  horiz-adv-x="512" vert-adv-y="1024"  />

      
      <glyph glyph-name="uni36" unicode="&#x36;" d="M412 672L412 646Q352 643 297 598Q234 547 195 437Q179 392 170 352Q181 361 193 368Q240 396 280 396Q351 396 391 327Q420 278 420 204Q420 113 383 50Q337-32 252-32Q175-32 128 49Q88 120 88 228Q88 339 124 429Q169 537 245 608Q318 672 412 672L412 672M273 5Q356 5 356 159Q356 351 252 351Q208 351 172 318Q165 313 161 309Q153 265 153 221Q153 139 180 79Q213 5 273 5L273 5Z"  horiz-adv-x="512" vert-adv-y="1024"  />

      
      <glyph glyph-name="uni37" unicode="&#x37;" d="M136 656L420 656L240-32L195-16L356 589L204 589Q171 589 150 571Q127 553 112 502L88 512L136 656Z"  horiz-adv-x="512" vert-adv-y="1024"  />

      
      <glyph glyph-name="uni38" unicode="&#x38;" d="M256 672Q323 672 368 621Q408 576 408 508Q408 465 383 426Q366 396 293 335Q370 268 391 227Q416 183 416 132Q416 56 362 8Q319-32 252-32Q173-32 125 23Q88 67 88 132Q88 172 111 217Q133 263 207 316Q156 364 130 403Q96 453 96 508Q96 578 147 626Q194 672 256 672L256 672M237 288Q186 244 168 210Q149 176 149 138Q149 83 173 48Q205 6 258 6Q301 6 322 25Q356 55 356 110Q356 148 331 188Q302 231 237 288L237 288M265 361Q315 405 329 429Q351 465 351 508Q351 568 322 603Q296 634 256 634Q216 634 191 609Q163 579 163 530Q163 490 182 456Q205 417 265 361L265 361Z"  horiz-adv-x="512" vert-adv-y="1024"  />

      
      <glyph glyph-name="uni39" unicode="&#x39;" d="M252 672Q338 672 386 581Q420 511 420 408Q420 291 379 202Q328 83 243 19Q179-30 100-32L100-10Q189 10 239 67Q291 125 321 218Q333 259 340 289Q334 285 328 281Q275 244 224 244Q154 244 116 314Q88 363 88 440Q88 544 129 603Q177 672 252 672L252 672M252 287Q288 289 330 317Q341 324 347 329Q355 376 355 417Q355 500 330 559Q296 638 233 638Q153 638 153 483Q153 287 252 287L252 287Z"  horiz-adv-x="512" vert-adv-y="1024"  />

      
      <glyph glyph-name="uni3001" unicode="&#x3001;" d="M72 50L80 70Q132 55 192.50 18.50Q253-18 266-82Q266-127 233.50-136Q201-145 180-104Q166-63 140.50-25.50Q115 12 72 50L72 50Z"  horiz-adv-x="1024" vert-adv-y="1024"  />

      
      <glyph glyph-name="uni3002" unicode="&#x3002;" d="M134 36L162 40Q247 20 244.50-43.50Q242-107 160-126Q87-114 77.50-56.50Q68 1 134 36L134 36M144 8Q101-9 107.50-50.50Q114-92 162-96Q216-87 214.50-42Q213 3 160 10L144 8Z"  horiz-adv-x="1024" vert-adv-y="1024"  />

      
      <glyph glyph-name="uni201C" unicode="&#x201C;" d="M760 448Q748 404 711 402Q674 400 644 432Q603 500 633 568.50Q663 637 746 666Q751 662 748.50 654Q746 646 740 642Q700 611 682.50 582.50Q665 554 666 516Q665 500 673 494Q681 488 698 494Q720 501 740 488Q760 475 760 448L760 448M868 488Q882 497 890 498.50Q898 500 914 494Q965 448 925.50 416.50Q886 385 834 424Q800 468 802.50 513Q805 558 836 602Q859 628 884.50 647.50Q910 667 938 666L938 652L920 636Q876 607 856.50 559Q837 511 868 488L868 488Z"  horiz-adv-x="1024" vert-adv-y="1024"  />

      
      <glyph glyph-name="uni201D" unicode="&#x201D;" d="M156 568L146 568Q53 560 74.50 622.50Q96 685 184 630Q213 589 210 546Q207 503 180 460Q157 436 131 416.50Q105 397 80 396Q78 413 84.50 417.50Q91 422 104 430Q142 461 157 498.50Q172 536 156 568L156 568M348 548Q347 554 344 561Q341 568 334 568Q250 557 254.50 611Q259 665 336 652Q414 595 386 513Q358 431 268 396Q259 406 264.50 413Q270 420 280 424Q318 455 333 484Q348 513 348 548L348 548Z"  horiz-adv-x="1024" vert-adv-y="1024"  />

      
      <glyph glyph-name="uni300A" unicode="&#x300A;" d="M508 308L690 698L752 672L574 308L752-52L690-78L508 308M878-78L692 308L878 698L940 672L760 310L938-52L878-78Z"  horiz-adv-x="1024" vert-adv-y="1024"  />

      
      <glyph glyph-name="uni300B" unicode="&#x300B;" d="M76 672L136 698L322 308L136-78L74-52L254 306L76 672M262 672L324 698L510 308L324-78L262-52L442 308L262 672Z"  horiz-adv-x="1024" vert-adv-y="1024"  />

      
      <glyph glyph-name="uniFF01" unicode="&#xFF01;" d="M438 174L420 394Q414 457 408 515Q402 573 412 636Q429 672 456 666Q483 660 490 624Q493 507 481.50 401Q470 295 464 174L438 174M410 80Q421 90 431 92Q441 94 454 92Q511 82 508.50 33Q506-16 450-24Q408-19 396.50 14.50Q385 48 410 80L410 80Z"  horiz-adv-x="1024" vert-adv-y="1024"  />

      
      <glyph glyph-name="uniFF0C" unicode="&#xFF0C;" d="M136-20Q51-5 80.50 47.50Q110 100 188 48Q230-16 205-78Q180-140 102-184Q88-188 81.50-182Q75-176 86-164Q132-133 155-86Q178-39 150-12L136-20Z"  horiz-adv-x="1024" vert-adv-y="1024"  />

      
      <glyph glyph-name="uniFF1A" unicode="&#xFF1A;" d="M92 452Q100 458 109 459.50Q118 461 128 460Q185 449 183.50 400.50Q182 352 124 342Q80 349 69 384.50Q58 420 92 452L92 452M92 94Q104 101 111.50 102.50Q119 104 132 102Q190 92 187.50 43Q185-6 126-14Q83-8 72 26.50Q61 61 92 94L92 94Z"  horiz-adv-x="1024" vert-adv-y="1024"  />

      
      <glyph glyph-name="uniFF1F" unicode="&#xFF1F;" d="M272 524Q295 488 271 467Q247 446 212 470Q186 532 214 588Q242 644 316 662Q444 675 486.50 594Q529 513 474 402Q425 339 391.50 291Q358 243 358 174L330 174Q329 244 352 298.50Q375 353 420 422Q457 498 435.50 563Q414 628 318 632Q268 623 256 595.50Q244 568 272 524L272 524M312 88Q324 95 331.50 96.50Q339 98 352 96Q409 86 406.50 37Q404-12 346-20Q303-14 292 21Q281 56 312 88L312 88Z"  horiz-adv-x="1024" vert-adv-y="1024"  />

      
      <glyph glyph-name="uni7231" unicode="&#x7231;" d="M817 382Q821 381 825 369Q832 351 834 332Q837 307 841 292Q845 267 852 261Q859 255 868 256Q875 257 883 267Q893 280 894 301Q895 314 890 326Q889 330 887 343Q886 353 886 361Q887 380 880 394Q873 412 846 425Q812 443 763 443Q655 444 486 445Q344 446 234 441Q177 440 162 426Q146 411 138 376Q125 339 120 314Q119 280 124 269Q131 257 144 255Q156 254 166 263Q178 275 177 309Q178 337 182 355Q185 367 191 374Q201 387 266 396Q342 405 472 404Q620 405 702 400Q795 394 817 382M574 51Q773-27 864-52Q889-62 915-42Q973 3 973 16Q974 25 960 25Q852 26 747 47Q662 65 607 80Q634 105 655 136Q677 158 687 162Q703 171 703 189Q703 196 688 213Q663 238 635 227Q628 227 618 227Q570 228 554 227Q538 226 514 230Q492 236 477 231Q450 221 443 207Q439 197 448 187Q454 180 488 186Q537 192 582 191Q625 190 634 186Q641 182 627 170Q609 139 579 111Q572 104 562 97Q537 107 498 123Q428 154 399 173Q411 189 423 203Q457 248 478 285Q580 285 710 280Q741 280 745 294Q749 307 742 317Q729 329 682 327Q588 327 500 327Q501 334 505 339Q515 366 512 377Q509 386 497 389Q481 393 473 387Q463 377 455 353Q451 341 446 328Q371 329 290 329Q244 330 228 317Q213 304 221 287Q231 268 272 275Q330 285 428 285Q409 252 386 220Q344 169 277 122Q181 58 121 33Q96 23 100 7Q104-9 123-22Q142-37 191-4Q242 26 308 82Q341 112 367 139Q368 138 373 135Q400 123 524 71Q505 61 483 50Q416 20 381 15Q365 14 358 5Q345-5 351-17Q358-30 382-39Q398-45 447-23Q514 8 573 51Q573 51 574 51M651 668Q641 661 620 655Q580 645 431 630Q379 626 334 621Q315 621 312 615Q308 605 328 599Q350 592 388 592Q497 591 674 607Q702 611 705 621Q708 633 697 656Q687 675 678 678Q668 681 651 668M286 522Q302 509 317 499Q336 486 350 479Q365 469 376 478Q386 485 364 510Q358 520 350 539Q343 552 343 558Q336 573 328 575Q312 579 288 570Q269 561 266 548Q265 538 286 522M482 560Q475 539 486 524Q496 511 508 479Q515 463 527 465Q536 466 536 491Q535 510 539 531Q543 550 532 564Q520 580 504 577Q488 574 482 560M684 551Q681 544 677 531Q670 515 651 493Q629 471 653 469Q666 469 703 495Q719 505 727 514Q743 542 735 561Q723 583 705 576Q692 572 684 551L684 551Z"  horiz-adv-x="1024" vert-adv-y="1024"  />

      
      <glyph glyph-name="uni5B89" unicode="&#x5B89;" d="M773 512Q779 511 784 497Q793 478 796 454Q800 424 806 408Q810 380 818 373Q827 367 836 368Q843 369 853 380Q865 396 866 418Q865 434 859 448Q856 454 853 468Q852 481 851 489Q852 507 846 520Q839 538 813 551Q780 569 733 569Q651 570 530 571Q543 601 546 625Q547 668 519 679Q485 689 470 671Q464 659 482 624Q495 602 495 571Q375 572 282 568Q228 567 214 554Q198 539 190 506Q177 458 173 425Q172 388 178 375Q185 362 200 359Q213 358 225 368Q238 381 237 419Q237 456 240 478Q243 494 249 503Q259 515 313 521Q376 530 485 530Q609 531 677 527Q755 523 773 512M451 107Q435 100 417 89Q309 32 278 22Q241 7 232-4Q222-19 227-33Q230-43 252-49Q280-52 317-29Q378-4 495 64Q502 68 511 73Q587 28 672-26Q723-60 740-59Q761-58 770-43Q776-33 769-17Q760-1 702 30Q632 70 564 106Q624 143 662 174Q699 202 698 230Q783 223 879 195Q910 182 929 200Q953 219 973 251Q985 273 958 273Q930 272 864 273Q804 276 675 278Q647 318 623 346Q607 362 601 374Q591 396 573 405Q555 415 538 404Q531 397 534 376Q538 360 567 330Q595 305 613 279Q549 282 473 282Q443 283 400 282Q409 292 422 306Q464 351 473 356Q501 371 506 392Q507 414 496 429Q489 439 477 437Q456 434 446 413Q434 388 389 343Q353 306 331 281Q271 281 195 277Q161 278 135 277Q96 276 68 254Q44 232 56 213Q68 194 109 203Q179 218 296 224Q293 208 306 194Q319 179 386 144Q417 128 451 107M597 195Q564 171 504 136Q503 137 501 138Q440 166 401 195Q376 211 371 227Q417 231 473 231Q542 234 627 231Q623 212 597 195L597 195Z"  horiz-adv-x="1024" vert-adv-y="1024"  />

      
      <glyph glyph-name="uni6848" unicode="&#x6848;" d="M731 552Q732 552 733 546Q736 536 739 518Q739 490 744 480Q751 470 760 470Q770 469 779 482Q786 491 788 514Q788 524 788 530Q788 533 788 537Q794 574 773 596Q761 611 725 615Q616 616 545 616Q539 617 534 616Q541 628 547 638Q548 678 521 687Q490 696 477 680Q473 670 489 637Q495 630 498 616Q407 620 309 620Q257 619 245 608Q230 598 232 565Q232 562 232 555Q231 548 230 515Q230 484 237 474Q244 464 254 464Q266 464 277 487Q283 499 282 526Q283 533 285 545Q286 549 286 551Q299 575 483 578Q693 587 731 552M470 340Q412 327 375 324Q326 318 314 310Q302 303 301 287Q300 275 313 268Q329 261 371 267Q441 282 522 316Q573 292 628 263Q674 235 689 239Q707 242 714 255Q718 264 711 277Q702 290 650 313Q614 329 579 344Q639 377 664 405Q664 406 664 406Q677 407 694 406Q776 399 870 373Q901 360 918 377Q940 396 960 426Q972 447 946 447Q919 446 855 447Q797 450 668 452Q667 453 666 454Q641 488 572 532Q553 544 546 544Q537 544 531 537Q527 533 528 519Q532 513 541 504Q575 479 603 453Q545 456 474 456Q455 457 430 456Q434 460 442 466Q470 488 476 491Q498 498 504 515Q508 531 500 544Q496 551 487 552Q471 552 460 537Q451 521 418 497Q384 472 367 455Q298 455 202 451Q168 452 143 451Q106 450 80 429Q56 408 68 390Q80 372 119 381Q203 397 349 403Q350 400 354 396Q364 386 414 366Q442 354 470 340M581 384Q559 372 535 361Q522 367 508 372Q465 387 437 403Q433 404 429 406Q450 407 474 408Q535 409 613 407Q603 397 581 384M539 115Q549 111 561 102Q652 38 729-46Q751-71 785-57Q815-45 835-26Q851-5 820 3Q789 12 728 44Q647 87 556 149Q662 150 733 141Q764 135 783 146Q811 165 815 180Q816 193 781 194Q624 195 541 190Q541 203 543 217Q546 253 529 272Q516 290 493 271Q480 262 483 226Q483 216 484 189Q432 190 379 189Q336 188 321 195Q290 198 256 192Q226 185 213 163Q203 144 214 127Q226 114 278 127Q342 143 466 147Q435 105 381 74Q294 31 225 10Q191-2 185-17Q181-33 198-44Q216-53 260-40Q311-24 375 16Q436 58 484 107Q484 49 483-6Q479-46 490-59Q511-81 525-65Q544-46 539 7Q538 29 539 100Q539 107 539 115L539 115Z"  horiz-adv-x="1024" vert-adv-y="1024"  />

      
      <glyph glyph-name="uni516B" unicode="&#x516B;" d="M320 456Q317 429 301 391Q286 360 264 333Q237 300 194 263Q133 209 56 163Q40 153 42 137Q43 121 68 109Q89 100 113 116Q174 156 225 210Q268 255 309 312Q345 364 357 398Q370 431 378 446Q390 468 381 492Q374 514 351 520Q335 524 325 515Q318 508 320 491Q321 479 320 456M527 461Q612 319 775 118Q812 67 871 72Q929 75 954 96Q973 112 941 121Q904 133 824 187Q751 239 688 304Q627 367 600 423Q587 447 590 473Q591 515 564 537Q543 552 526 549Q507 545 510 516Q513 483 527 461L527 461Z"  horiz-adv-x="1024" vert-adv-y="1024"  />

      
      <glyph glyph-name="uni767D" unicode="&#x767D;" d="M217 441Q174 440 161 422Q154 409 164 380Q176 331 199 39Q206 0 224-12Q237-22 260-11Q326 17 497 20Q653 21 753-8Q781-14 802-5Q823 5 836 39Q855 129 858 227Q861 312 875 366Q888 393 881 407Q874 419 852 432Q824 445 741 448Q605 452 481 449Q514 507 527 558Q542 603 515 622Q484 643 462 629Q452 619 460 576Q469 515 441 450Q440 450 440 449Q389 450 342 447Q285 446 217 441M233 187Q293 197 524 199Q741 200 803 188Q799 133 787 71Q783 61 776 55Q769 51 733 53Q544 65 291 49Q264 48 257 50Q250 54 245 73Q236 133 232 187Q233 187 233 187M523 242Q303 238 231 251Q231 251 229 251Q228 308 231 358Q231 374 235 381Q239 387 260 391Q387 404 741 397Q784 397 797 389Q807 380 806 364Q810 312 807 250Q749 244 523 242L523 242Z"  horiz-adv-x="1024" vert-adv-y="1024"  />

      
      <glyph glyph-name="uni767E" unicode="&#x767E;" d="M673 9Q716 2 742 22Q764 38 762 91Q758 215 769 324Q776 358 756 373Q729 392 683 394Q611 395 502 391Q505 401 507 412Q520 488 532 512Q532 513 532 513Q605 514 695 512Q779 505 872 478Q905 465 924 483Q949 504 969 536Q982 560 955 559Q925 558 856 560Q762 563 475 568Q393 569 205 563Q171 563 147 562Q107 561 77 539Q52 517 64 496Q77 477 119 486Q234 508 460 512Q461 503 463 493Q464 477 459 430Q456 408 458 391Q454 392 448 391Q372 391 317 390Q292 390 280 379Q262 363 266 332Q267 310 267 286Q266 228 269 163Q272 103 272 59Q271 17 295 2Q311-8 358 2Q413 12 522 11Q646 10 673 9M513 186Q667 187 707 179Q708 179 709 178Q708 93 691 75Q675 62 639 65Q578 68 485 63Q419 62 383 59Q349 59 339 68Q326 78 322 167Q321 174 321 179Q366 186 513 186M512 229Q371 228 319 233Q318 323 331 332Q344 345 489 346Q673 350 691 337Q707 324 708 234Q671 230 512 229L512 229Z"  horiz-adv-x="1024" vert-adv-y="1024"  />

      
      <glyph glyph-name="uni5B9D" unicode="&#x5B9D;" d="M764 561Q674 562 542 562Q549 577 550 598Q551 623 542 643Q526 665 495 670Q482 671 470 654Q463 642 488 606Q501 590 503 575Q502 568 502 562Q501 563 500 562Q365 563 260 559Q202 558 186 544Q167 528 160 491Q147 433 142 393Q141 357 147 346Q154 334 168 331Q181 330 192 339Q204 352 203 388Q202 433 206 459Q207 478 216 488Q226 501 289 509Q362 519 487 518Q631 519 708 514Q798 508 819 497Q825 494 829 479Q836 457 838 431Q839 397 844 378Q847 353 855 345Q864 339 872 340Q879 341 888 351Q898 367 900 388Q901 407 896 424Q895 431 893 449Q892 465 893 475Q894 494 886 509Q879 528 851 542Q815 561 764 561M715 64Q642 71 581 74Q565 75 550 75Q550 76 550 79Q547 101 546 210Q588 210 617 207Q660 203 715 190Q728 187 743 196Q756 203 758 214Q762 230 758 236Q751 245 731 246Q626 253 545 253Q544 332 550 361Q551 365 551 370Q623 371 669 365Q700 359 719 370Q747 389 751 404Q752 417 717 418Q569 419 512 415Q470 416 427 415Q396 414 385 419Q354 422 320 416Q290 409 277 387Q267 368 278 351Q290 338 342 351Q391 364 485 368Q485 364 486 359Q490 335 491 253Q398 253 328 247Q291 243 281 231Q266 215 280 199Q293 184 330 195Q357 201 398 206Q435 210 492 211Q492 111 487 85Q486 81 485 76Q389 77 287 65Q175 52 138 56Q105 60 79 30Q54-1 69-23Q90-44 126-27Q157-14 208 4Q259 19 359 30Q465 39 575 31Q677 25 735 11Q801-5 867-35Q897-48 919-28Q935-15 953 15Q963 33 941 36Q835 52 745 61Q746 64 748 66Q755 85 768 102Q781 117 777 135Q773 156 756 161Q740 165 727 155Q711 139 715 119Q719 103 715 67Q715 66 715 64L715 64Z"  horiz-adv-x="1024" vert-adv-y="1024"  />

      
      <glyph glyph-name="uni672C" unicode="&#x672C;" d="M525 104Q550 105 572 104Q618 103 660 92Q703 82 728 104Q746 122 744 136Q741 158 665 153Q631 152 525 149Q525 204 525 281Q524 323 524 362Q542 356 558 342Q718 236 853 96Q875 68 914 82Q948 95 970 115Q989 137 954 148Q906 164 815 220Q691 296 550 403Q534 416 524 425Q524 441 525 458Q660 459 740 447Q776 441 795 453Q826 474 830 490Q834 506 793 506Q615 509 527 505Q528 544 531 581Q534 617 517 636Q504 654 481 635Q468 626 471 590Q472 566 473 505Q419 506 364 505Q318 504 301 511Q267 515 229 508Q196 499 181 476Q171 454 183 436Q196 420 253 436Q328 455 474 457Q474 450 474 441Q468 437 465 429Q420 345 326 283Q199 208 95 169Q56 153 51 134Q47 115 69 104Q90 95 140 113Q218 143 314 210Q405 282 475 363Q475 359 476 352Q476 249 474 149Q368 148 324 152Q287 156 266 134Q253 116 255 102Q259 80 293 89Q318 96 353 98Q420 102 473 103Q472 67 471 30Q467-10 478-23Q499-45 513-29Q532-10 527 43Q526 65 525 104L525 104Z"  horiz-adv-x="1024" vert-adv-y="1024"  />

      
      <glyph glyph-name="uni907F" unicode="&#x907F;" d="M375 634Q347 640 326 620Q307 602 311 565Q315 492 313 442Q310 405 300 372Q290 341 276 316Q261 291 243 274Q221 256 215 240Q211 227 223 218Q235 211 249 213Q265 216 280 230Q298 246 314 271Q330 296 345 337Q355 371 359 426Q360 450 367 454Q371 458 408 464Q475 471 502 469Q532 465 543 480Q549 489 548 505Q545 521 547 551Q551 579 556 596Q566 621 557 630Q553 634 541 635Q528 639 496 635Q481 635 428 633Q385 633 375 634M354 545Q354 576 370 593Q374 597 434 599Q495 602 500 596Q509 589 508 560Q508 526 497 511Q496 510 429 507Q365 503 363 506Q353 513 354 545M482 205Q513 201 532 215Q548 227 547 265Q547 299 552 328Q556 353 542 363Q523 376 489 378Q467 377 430 375Q411 375 397 374Q378 375 370 367Q358 355 360 333Q361 326 361 318Q361 299 363 277Q364 258 365 242Q364 211 382 201Q392 194 427 201Q437 202 455 204Q477 205 482 205M501 301Q502 261 495 253Q491 252 483 251Q470 251 447 248Q432 248 424 247Q417 247 414 249Q410 252 407 280Q403 329 408 333Q411 336 446 337Q491 340 495 337Q499 333 501 301M718 260Q717 220 716 181Q712 127 726 91Q730 78 744 77Q753 77 760 89Q770 108 770 140Q769 210 768 259Q769 259 769 259Q802 258 821 252Q842 248 863 237Q885 227 901 242Q913 252 926 273Q933 286 917 288Q836 301 781 303Q774 304 768 303Q768 331 769 349Q769 371 775 388Q806 389 829 386Q863 382 903 373Q913 370 924 377Q936 384 938 394Q942 409 938 415Q932 424 913 425Q849 429 795 429Q802 439 811 449Q827 471 841 484Q860 503 840 528Q813 558 799 521Q795 505 779 467Q770 449 761 430Q749 431 738 429Q719 430 702 428Q701 434 699 441Q692 477 688 488Q684 498 682 508Q678 526 652 532Q636 535 626 525Q617 516 626 502Q636 487 647 467Q659 445 665 427Q637 428 613 425Q579 422 568 411Q555 395 568 380Q580 367 615 376Q634 380 666 385Q685 388 713 387Q719 371 719 340Q719 321 718 302Q693 302 669 298Q627 294 613 294Q600 295 591 285Q572 261 584 245Q599 230 625 243Q635 247 652 252Q668 256 700 260Q707 261 718 260M742 569Q788 569 816 565Q844 562 878 554Q887 553 896 557Q908 564 910 574Q914 589 910 595Q904 604 885 605Q824 609 776 611Q782 627 785 640Q786 677 761 687Q731 696 719 680Q713 670 729 640Q736 628 738 612Q678 613 633 609Q599 606 588 595Q575 579 588 564Q600 551 635 560Q651 564 678 567Q703 568 742 569M125 552Q171 540 188 530Q203 521 217 522Q227 522 230 534Q231 550 213 564Q189 580 169 603Q147 631 112 615Q81 599 83 577Q87 559 125 552M113 297Q146 310 174 334Q217 368 218 385Q224 404 199 427Q192 433 169 437Q135 447 119 461Q100 476 71 457Q52 444 48 428Q47 410 71 413Q92 420 105 422Q118 423 131 420Q159 401 153 385Q152 372 127 346Q105 324 78 307Q75 306 73 303Q69 303 66 301Q50 294 47 283Q46 271 61 261Q80 248 111 240Q132 236 136 228Q139 218 126 209Q89 172 72 133Q59 111 60 92Q63 74 81 64Q105 54 126 54Q262 67 389 52Q546 39 786-55Q831-74 885-57Q931-42 955-22Q977-4 976 7Q975 20 944 20Q779 20 665 41Q472 83 337 94Q204 109 134 107Q118 103 114 117Q121 136 143 160Q164 179 185 215Q195 230 191 243Q185 253 164 258Q152 259 139 277Q126 290 113 297L113 297Z"  horiz-adv-x="1024" vert-adv-y="1024"  />

      
      <glyph glyph-name="uni522B" unicode="&#x522B;" d="M213 627Q174 626 163 609Q156 599 165 571Q172 555 197 454Q204 418 220 408Q232 398 252 409Q271 418 326 419Q375 420 407 411Q432 405 451 414Q470 423 481 454Q494 482 501 514Q508 542 517 559Q530 583 522 596Q515 606 496 618Q471 631 396 632Q321 633 256 629Q237 629 213 627M249 464Q243 468 238 484Q228 521 226 551Q225 564 229 572Q233 578 252 581Q289 585 396 587Q435 586 447 579Q456 572 455 557Q452 524 437 482Q434 473 428 469Q421 465 388 466Q342 467 280 463Q255 462 249 464M326 267Q332 268 340 269Q415 270 439 264Q470 254 470 231Q473 200 454 154Q435 105 372 22Q350-6 361-22Q371-37 393-30Q409-24 436 13Q482 74 509 152Q531 225 529 261Q529 288 501 298Q474 307 340 305Q346 327 349 344Q355 375 348 387Q344 396 329 397Q310 398 303 389Q294 376 292 347Q291 326 286 305Q247 306 222 311Q192 315 166 296Q150 287 157 268Q163 250 207 257Q240 261 274 263Q270 250 263 234Q238 185 190 132Q121 59 75 28Q50 12 59-4Q68-19 90-28Q114-38 156 6Q192 40 236 101Q285 171 307 225Q317 247 326 267M906 647Q896 671 880 672Q862 672 854 658Q845 639 841 581Q838 232 845 170Q849 98 824 71Q788 37 733 24Q666 8 635 21Q623 24 621 15Q618 5 627-11Q636-33 645-38Q664-54 692-49Q747-48 811-13Q859 15 890 58Q906 89 897 173Q885 273 888 385Q895 497 909 572Q919 623 906 647M644 516Q647 458 644 344Q643 256 642 244Q641 219 648 209Q670 176 695 198Q705 207 700 252Q696 297 697 357Q697 421 700 450Q704 490 707 505Q711 521 700 532Q679 548 660 547Q644 546 644 516L644 516Z"  horiz-adv-x="1024" vert-adv-y="1024"  />

      
      <glyph glyph-name="uni4E19" unicode="&#x4E19;" d="M732 385Q656 386 545 385Q551 431 551 494Q550 513 547 525Q611 526 689 524Q771 517 865 490Q898 477 917 495Q942 516 962 548Q975 572 948 571Q918 570 849 572Q755 575 470 579Q388 582 200 575Q167 575 143 574Q103 573 73 551Q48 529 60 508Q73 489 115 498Q233 520 470 525Q474 526 481 525Q482 518 486 509Q496 481 498 440Q499 410 497 385Q496 386 493 384Q370 384 275 380Q217 379 202 364Q184 348 177 313Q149 168 144 71Q141 31 149 18Q156 5 172 2Q185 1 198 11Q211 24 211 66Q208 175 215 237Q219 283 239 309Q248 322 304 329Q368 338 480 339Q484 340 489 339Q485 330 482 322Q463 274 415 236Q361 193 305 167Q284 158 281 146Q277 131 291 118Q304 105 320 105Q336 104 355 116Q412 150 462 206Q483 230 500 257Q504 256 513 250Q520 244 540 225Q562 203 611 144Q638 113 677 121Q732 133 745 143Q773 162 729 172Q704 176 660 197Q608 222 574 247Q529 289 524 300Q523 301 522 302Q528 315 533 329Q534 333 536 339Q623 340 677 337Q756 333 776 324Q788 314 795 280Q808 225 806 167Q802 91 810 45Q814 17 822 9Q832 2 841 3Q850 4 859 15Q871 33 872 56Q876 111 863 158Q859 180 857 228Q854 271 858 298Q859 317 853 333Q846 352 817 366Q783 384 732 385L732 385Z"  horiz-adv-x="1024" vert-adv-y="1024"  />

      
      <glyph glyph-name="uni64AD" unicode="&#x64AD;" d="M271 289Q281 293 295 295Q329 304 347 321Q359 334 349 344Q343 350 319 346Q294 343 270 337Q269 406 269 446Q288 447 309 446Q340 443 351 458Q361 471 353 486Q346 499 311 497Q289 496 270 495Q274 556 284 604Q291 638 272 660Q256 679 235 670Q214 658 216 620Q217 553 219 495Q206 495 195 495Q161 496 126 504Q101 508 77 481Q61 460 70 444Q80 428 116 437Q138 444 176 445Q198 446 221 445Q222 378 222 325Q212 324 204 320Q179 311 158 309Q118 303 88 270Q63 239 77 225Q92 212 117 225Q165 247 204 266Q211 270 223 273Q222 159 217 133Q208 76 181 51Q150 21 104 16Q80 10 63 9Q38 8 38-10Q38-25 64-40Q92-56 117-51Q168-45 209 0Q249 45 263 115Q275 151 274 210Q273 253 271 289M478 489Q494 489 525 479Q549 467 556 471Q563 477 558 484Q554 496 538 508Q528 518 516 530Q492 552 470 551Q442 548 445 521Q448 496 478 489M774 546Q765 533 739 511Q717 498 717 490Q717 481 726 481Q739 480 758 486Q771 490 789 494Q817 503 828 521Q840 545 817 556Q795 566 774 546M752 325Q843 267 887 245Q906 235 929 246Q980 274 982 284Q983 291 973 293Q915 300 859 319Q808 335 781 349Q765 356 729 376Q704 392 689 402Q720 403 757 401Q806 397 859 381Q886 371 901 384Q920 400 937 426Q947 445 926 444Q902 443 847 446Q801 447 673 450Q673 504 674 534Q674 559 682 577Q689 580 698 581Q725 588 741 589Q772 593 778 615Q779 639 770 658Q758 680 737 666Q722 656 694 643Q657 628 594 614Q545 602 496 601Q480 601 479 588Q478 576 502 572Q536 565 588 567Q601 568 617 569Q621 553 622 524Q622 487 621 451Q575 452 478 449Q459 450 445 449Q414 448 390 431Q371 413 380 397Q390 382 423 389Q481 401 593 401Q565 371 523 349Q450 319 393 305Q360 296 354 281Q348 268 366 256Q382 246 423 256Q465 266 518 298Q570 329 611 369Q614 372 618 375Q618 368 618 359Q614 302 629 264Q635 249 648 249Q658 249 665 262Q677 283 676 316Q675 347 674 376Q698 360 752 325M460 225Q424 224 413 209Q406 199 416 172Q423 147 445-7Q452-41 467-51Q479-58 497-50Q536-34 636-31Q727-31 786-47Q810-53 827-45Q846-36 856-7Q869 39 875 90Q879 133 890 161Q902 183 895 196Q888 206 870 217Q846 229 775 230Q648 234 535 229Q501 228 460 225M625 76Q625 34 622 21Q619 12 621 5Q575 6 524 2Q502 1 495 3Q489 7 485 22Q481 47 477 70Q511 77 625 76M473 118Q472 137 473 154Q472 167 476 173Q480 179 498 182Q538 188 621 187Q621 186 622 182Q623 169 624 114Q512 113 473 118M824 71Q820 47 814 20Q811 11 805 7Q799 3 768 4Q725 8 677 6Q678 10 678 16Q677 26 676 77Q790 78 824 71M675 114Q674 166 678 184Q678 185 678 187Q721 188 776 187Q813 187 823 180Q832 173 831 159Q831 140 830 118Q797 117 675 114L675 114Z"  horiz-adv-x="1024" vert-adv-y="1024"  />

      
      <glyph glyph-name="uni4E0D" unicode="&#x4E0D;" d="M670 257Q769 151 818 110Q842 88 877 97Q959 119 966 132Q970 141 956 147Q883 175 814 217Q753 254 720 280Q704 293 661 332Q618 374 604 395Q594 408 580 407Q567 406 564 392Q561 379 571 368Q586 349 670 257M463 522Q447 488 370 405Q291 321 230 273Q136 200 96 183Q65 167 57 153Q53 143 71 125Q86 112 102 111Q123 111 154 133Q238 191 341 297Q423 388 467 442Q474 357 474 284Q475 176 470 43Q464-20 481-38Q494-51 511-39Q529-30 527 21Q521 124 521 347Q522 413 533 470Q539 501 528 523Q628 522 732 509Q781 502 816 491Q850 478 884 500Q909 519 927 551Q937 570 906 570Q702 563 293 563Q220 564 168 571Q119 578 88 558Q61 536 64 513Q70 491 106 495Q304 517 463 522L463 522Z"  horiz-adv-x="1024" vert-adv-y="1024"  />

      
      <glyph glyph-name="uni8D22" unicode="&#x8D22;" d="M750 368Q744 365 740 357Q718 327 701 307Q688 291 660 268Q633 246 598 223Q558 196 497 169Q476 159 472 139Q471 121 488 110Q504 101 533 112Q557 121 598 151Q646 185 696 236Q724 267 749 287Q749 277 749 264Q748 71 746 43Q742-11 759-34Q778-62 799-43Q820-25 807 70Q800 164 797 291Q796 391 798 450Q850 450 889 445Q920 439 939 450Q967 469 971 484Q972 497 937 498Q853 499 800 497Q807 573 813 601Q820 635 797 658Q779 671 763 670Q750 669 750 644Q751 584 752 495Q743 496 737 495Q697 496 654 495Q624 494 613 499Q582 502 548 496Q518 489 505 467Q495 448 506 431Q518 418 570 431Q619 444 717 449Q735 450 752 449Q751 412 750 368M390 604Q339 603 306 600Q255 601 199 600Q153 599 143 590Q130 580 132 553Q133 531 131 484Q130 441 133 214Q133 180 140 170Q147 160 158 160Q171 160 182 184Q189 197 188 225Q182 330 183 467Q184 528 189 538Q193 548 277 554Q371 561 390 547Q396 541 397 488Q401 385 395 224Q394 194 400 185Q407 173 416 174Q426 173 437 187Q444 196 446 221Q450 360 446 442Q443 485 450 531Q454 565 436 587Q424 600 390 604M328 414Q329 433 330 444Q334 472 313 491Q298 501 281 496Q266 490 270 465Q274 443 276 397Q273 309 263 258Q248 185 225 147Q200 102 161 73Q127 45 105 37Q62 21 63-4Q64-20 83-25Q110-32 147-10Q198 21 240 75Q271 112 285 157Q301 203 315 282Q327 363 328 414M345 130Q393 54 420 28Q439 4 464 9Q491 12 503 31Q510 46 484 61Q409 113 365 152Q353 162 344 153Q337 147 345 130L345 130Z"  horiz-adv-x="1024" vert-adv-y="1024"  />

      
      <glyph glyph-name="uni91C7" unicode="&#x91C7;" d="M272 476Q314 448 328 430Q338 417 352 413Q362 412 367 420Q374 435 361 453Q342 478 328 509Q316 540 279 538Q245 534 241 512Q240 496 272 476M476 531Q463 512 473 493Q480 477 486 441Q490 422 503 421Q513 421 519 448Q522 467 531 488Q541 507 532 524Q522 543 504 545Q486 545 476 531M651 429Q715 460 736 479Q763 498 758 524Q757 552 737 565Q722 574 705 548Q662 487 629 451Q619 439 627 429Q633 422 651 429M534 231Q559 230 583 210Q724 125 845 10Q870-18 910 0Q944 15 967 38Q985 63 948 71Q905 83 819 125Q704 183 571 268Q549 284 539 294Q538 295 536 296Q536 300 537 304Q634 304 724 299Q758 296 771 313Q781 328 772 344Q763 357 727 355Q618 348 539 346Q538 373 525 388Q512 406 489 387Q476 380 478 346Q457 346 440 346Q355 349 268 363Q240 367 213 338Q195 316 205 297Q218 279 257 290Q309 305 403 304Q437 305 471 304Q420 235 330 188Q201 130 98 104Q58 94 50 74Q43 56 64 43Q83 31 136 44Q214 63 312 120Q406 178 481 249Q481 227 482 198Q482 96 479 2Q475-38 486-51Q507-73 521-57Q540-38 535 15Q534 49 534 156Q534 195 534 231M615 595Q646 596 653 619Q656 643 647 663Q637 685 615 671Q594 658 556 645Q507 629 424 616Q360 606 297 608Q281 609 279 596Q278 584 302 579Q345 569 414 570Q511 574 559 586Q593 593 615 595L615 595Z"  horiz-adv-x="1024" vert-adv-y="1024"  />

      
      <glyph glyph-name="uni6D4B" unicode="&#x6D4B;" d="M172 535Q220 523 238 513Q254 504 269 505Q279 506 282 518Q283 536 264 549Q239 565 216 589Q192 617 156 600Q123 584 127 560Q131 542 172 535M112 323Q166 322 187 313Q203 307 219 311Q229 314 229 326Q228 344 205 353Q174 365 145 385Q117 407 84 385Q56 363 63 340Q70 324 112 323M240 185Q173 134 117 102Q95 95 91 83Q87 67 98 48Q116 21 132 24Q147 28 167 54Q216 112 263 159Q279 178 272 189Q263 199 240 185M869 637Q863 585 868 497Q875 310 873 136Q873 78 859 50Q843 22 809 7Q769-8 746-5Q704-2 699-8Q695-15 705-27Q724-46 762-52Q811-61 857-45Q897-29 916 6Q928 34 923 125Q913 420 921 519Q925 577 933 605Q943 633 925 655Q910 676 890 672Q872 668 869 637M562 555Q569 549 569 493Q573 384 567 212Q566 182 572 173Q579 161 588 162Q598 161 609 175Q616 184 618 209Q624 357 618 444Q615 490 622 539Q626 573 608 594Q598 607 563 610Q518 611 489 611Q444 612 392 614Q349 613 338 604Q326 595 328 569Q329 545 327 495Q326 449 325 206Q325 172 332 162Q339 152 350 152Q363 152 374 176Q381 189 380 217Q374 329 378 477Q379 543 385 554Q389 563 463 565Q547 569 562 555M504 430Q505 449 506 460Q510 488 489 507Q474 517 457 512Q442 506 446 481Q450 459 452 413Q449 317 439 263Q423 184 399 144Q374 96 334 64Q300 34 277 26Q232 8 235-16Q236-32 255-37Q282-44 319-21Q371 13 415 69Q446 109 461 157Q477 205 491 290Q503 375 504 430M516 84Q553 60 612 15Q637-7 646-6Q659-5 655 10Q651 23 634 39Q579 105 571 120Q558 139 533 134Q511 128 502 112Q495 97 516 84M710 380Q711 316 708 255Q705 216 715 205Q734 184 748 199Q766 217 762 267Q761 288 762 355Q762 413 765 465Q769 499 753 517Q740 533 718 516Q706 507 709 473Q710 454 710 380L710 380Z"  horiz-adv-x="1024" vert-adv-y="1024"  />

      
      <glyph glyph-name="uni67E5" unicode="&#x67E5;" d="M668 442Q647 451 598 477Q559 498 539 511Q539 518 540 524Q657 527 728 516Q762 510 781 521Q811 542 814 557Q818 572 779 572Q625 573 541 569Q542 594 547 614Q554 645 539 670Q526 689 501 685Q479 679 481 646Q485 604 487 567Q429 568 367 567Q324 566 307 573Q274 576 239 570Q208 561 193 540Q183 519 194 502Q207 487 261 502Q334 520 477 524Q477 524 478 524Q450 490 348 445Q251 405 151 400Q129 399 122 382Q115 366 128 349Q140 330 170 329Q210 330 319 375Q395 405 484 478Q485 479 488 481Q488 463 488 442Q482 384 498 366Q510 354 526 364Q542 374 541 421Q540 442 539 473Q572 454 634 414Q760 339 819 312Q844 299 873 315Q939 355 941 368Q942 377 929 379Q850 386 775 407Q705 426 668 442M385 70Q416 83 497 85Q570 86 618 73Q642 67 659 75Q678 84 688 113Q701 153 707 198Q713 237 722 261Q734 283 727 296Q720 306 702 317Q678 329 607 330Q502 333 410 328Q382 328 348 325Q312 324 301 309Q294 299 304 272Q311 250 333 113Q340 79 355 69Q367 62 385 70M372 179Q400 183 516 185Q628 186 655 180Q651 161 646 140Q643 131 637 127Q631 123 600 124Q521 128 412 122Q390 121 383 123Q377 127 373 142Q369 161 366 179Q367 179 372 179M516 221Q407 220 370 225Q364 226 361 225Q361 241 361 254Q360 267 364 273Q368 279 386 282Q444 289 608 287Q645 287 655 280Q664 273 663 259Q663 243 661 225Q639 222 516 221M787 24Q610 33 482 32Q380 33 266 31Q184 31 133 29Q102 28 79 6Q55-16 56-37Q57-52 71-59Q86-68 136-50Q211-28 314-18Q413-9 483-7Q639-11 733-28Q809-41 849-55Q883-67 904-58Q926-49 939-35Q970 1 966 10Q963 20 933 22Q896 15 787 24L787 24Z"  horiz-adv-x="1024" vert-adv-y="1024"  />

      
      <glyph glyph-name="uni4EA7" unicode="&#x4EA7;" d="M462 516Q583 516 753 515Q784 514 797 530Q806 545 792 556Q780 566 755 566Q646 567 541 566Q548 588 552 607Q553 649 526 659Q495 668 480 652Q474 640 491 607Q501 589 503 566Q460 567 420 566Q362 565 327 572Q296 579 273 555Q257 536 263 520Q269 505 302 507Q360 514 462 516M288 355Q254 362 229 343Q207 324 206 268Q212 228 210 192Q209 164 199 137Q192 115 178 99Q159 77 120 56Q83 37 65 23Q52 11 51 1Q48-12 58-25Q68-38 87-38Q112-35 139-17Q172 4 202 45Q227 76 242 119Q255 161 257 205Q258 236 261 267Q265 289 281 297Q293 306 331 305Q401 314 516 316Q601 317 669 311Q733 307 807 285Q850 275 886 295Q911 311 912 332Q912 341 901 347Q889 354 858 352Q746 356 650 357Q657 376 676 404Q689 426 697 434Q707 444 705 453Q702 469 685 484Q669 497 657 494Q648 491 643 467Q634 436 627 410Q620 379 617 357Q523 358 447 357Q446 376 442 401Q436 426 437 445Q434 476 396 477Q350 476 371 435Q380 422 401 389Q408 373 417 356Q323 355 288 355L288 355Z"  horiz-adv-x="1024" vert-adv-y="1024"  />

      
      <glyph glyph-name="uni5E38" unicode="&#x5E38;" d="M343 588Q362 584 399 562Q423 544 431 547Q440 551 436 561Q432 576 415 594Q402 607 391 625Q369 653 345 655Q315 656 313 629Q312 601 343 588M725 585Q750 589 754 612Q758 631 738 645Q716 658 678 628Q636 591 596 568Q581 561 582 550Q583 540 598 543Q628 547 682 573Q707 582 725 585M815 453Q821 450 826 436Q836 414 840 389Q844 356 852 338Q855 313 863 305Q872 299 880 300Q887 301 896 311Q906 327 908 348Q907 367 899 382Q896 389 892 406Q889 421 889 431Q890 450 883 464Q876 483 848 496Q814 515 763 515Q672 516 539 517Q540 530 541 549Q541 565 544 599Q544 609 547 618Q554 649 539 674Q526 693 501 689Q479 683 481 650Q484 629 485 612Q486 593 488 570Q484 537 488 517Q359 518 258 513Q200 512 185 498Q167 482 160 447Q141 387 134 345Q133 309 139 298Q146 286 160 283Q173 282 184 291Q196 304 195 340Q198 386 203 414Q207 433 216 444Q226 457 288 465Q361 475 485 474Q627 475 705 470Q793 464 815 453M493 173Q492 97 490 30Q486-25 501-64Q507-79 520-79Q530-79 537-66Q549-45 548-13Q547 105 545 175Q627 178 661 172Q677 171 684 162Q694 153 698 87Q701 23 710-28Q713-40 723-48Q733-55 741-55Q757-51 765-34Q769-24 762-4Q753 18 749 79Q748 115 749 132Q750 147 759 161Q766 174 764 183Q761 195 751 205Q738 218 714 216Q689 216 552 216Q548 216 545 216Q545 229 546 238Q546 262 554 280Q600 281 612 280Q646 274 665 290Q681 303 681 343Q682 359 686 374Q690 399 675 411Q656 424 619 427Q564 427 470 424Q421 425 386 423Q367 424 357 416Q344 403 347 380Q347 376 347 369Q348 356 349 342Q350 329 351 319Q351 286 369 275Q381 268 417 275Q442 281 487 281Q494 263 494 228Q494 222 493 216Q399 217 379 218Q351 221 339 222Q329 223 317 213Q307 203 306 170Q310 151 311 128Q310 103 276 67Q243 39 174 5Q153-4 149-13Q146-23 151-32Q161-51 173-54Q186-55 215-44Q246-28 276-6Q306 19 330 53Q354 92 354 127Q354 149 362 157Q369 170 475 173Q484 174 493 173M630 361Q630 336 626 331Q616 324 593 324Q554 327 495 323Q455 322 431 320Q409 320 403 326Q400 327 398 346Q394 377 397 380Q404 387 497 389Q615 392 626 384Q629 381 630 361L630 361Z"  horiz-adv-x="1024" vert-adv-y="1024"  />

      
      <glyph glyph-name="uni6F6E" unicode="&#x6F6E;" d="M126 586Q160 576 172 568Q187 558 201 558Q211 558 214 569Q217 587 199 600Q184 615 174 634Q153 662 117 649Q84 636 86 613Q89 597 126 586M87 342Q124 338 140 332Q156 325 171 328Q181 329 181 342Q181 358 160 369Q141 381 124 398Q97 423 65 402Q35 383 41 361Q48 345 87 342M190 190Q132 124 82 79Q61 67 59 54Q58 36 74 20Q99-4 114 3Q127 10 143 41Q180 111 218 169Q231 193 221 201Q209 208 190 190M405 163Q342 164 296 159Q259 155 249 143Q234 127 248 111Q261 96 298 107Q316 111 343 115Q367 118 404 119Q403 88 402 59Q398 2 413-36Q419-51 432-51Q442-51 449-38Q461-17 460 16Q459 76 458 119Q476 120 490 118Q520 117 556 108Q566 107 575 112Q588 119 590 130Q594 146 590 152Q583 161 563 162Q505 165 458 164Q458 189 458 206Q458 231 466 249Q487 248 504 243Q528 237 544 245Q560 252 571 280Q583 316 589 356Q593 390 603 411Q613 433 607 444Q601 454 584 464Q562 476 494 477Q475 478 457 477Q458 490 459 510Q459 522 459 539Q499 540 548 541Q578 538 589 555Q596 568 585 580Q573 589 549 588Q504 589 461 589Q462 598 465 606Q472 636 458 659Q445 677 422 673Q400 667 402 636Q405 612 406 590Q391 591 378 591Q350 590 331 594Q303 600 280 578Q267 559 271 546Q277 531 308 533Q339 537 393 539Q400 540 408 539Q409 535 409 530Q405 496 409 476Q378 477 350 474Q329 474 304 472Q270 471 260 456Q253 446 262 422Q269 403 290 281Q297 248 311 239Q321 232 339 240Q355 249 398 249Q405 231 406 196Q405 180 405 163M324 339Q346 343 436 344Q512 345 539 341Q536 325 532 306Q529 297 523 293Q517 289 488 291Q436 294 364 289Q342 288 337 289Q331 293 328 307Q324 323 321 339Q322 339 324 339M436 382Q351 381 322 385Q318 386 316 385Q316 395 316 405Q316 417 319 423Q323 427 340 431Q380 437 495 436Q529 436 540 430Q547 423 547 409Q547 399 545 384Q523 383 436 382M884 201Q887 69 892 17Q896-23 912-39Q925-52 944-44Q966-34 959 11Q931 162 929 364Q928 493 946 557Q956 591 939 609Q923 625 890 621Q874 620 810 619Q764 622 752 625Q718 634 705 629Q695 623 685 609Q675 593 677 563Q687 358 677 267Q667 179 642 123Q620 81 580 25Q555-8 557-22Q561-46 582-48Q603-47 631-15Q659 22 686 77Q708 128 718 200Q719 200 724 200Q740 203 807 204Q862 204 884 201M729 380Q730 380 732 380Q748 383 809 383Q864 384 882 381Q881 312 883 251Q861 251 808 251Q744 250 723 252Q727 307 729 380M730 512Q730 549 737 563Q744 575 813 578Q847 574 859 572Q871 571 875 565Q882 558 883 531Q882 479 882 431Q863 431 810 431Q749 430 730 433Q730 470 730 512L730 512Z"  horiz-adv-x="1024" vert-adv-y="1024"  />

      
      <glyph glyph-name="uni8FB0" unicode="&#x8FB0;" d="M380 516Q364 516 346 499Q330 483 333 469Q337 456 359 460Q419 470 516 470Q613 469 654 460Q681 453 697 465Q710 475 715 492Q718 505 708 512Q698 518 670 518Q600 518 493 516Q411 515 380 516M624 136Q757 24 821-19Q848-38 881-26Q960 5 966 19Q970 29 955 33Q865 58 783 99Q707 136 667 162Q651 174 617 199Q618 200 623 200Q681 206 772 227Q799 237 800 249Q800 262 783 282Q768 298 758 300Q748 301 733 284Q729 280 720 274Q702 264 636 239Q614 230 593 223Q590 223 589 221Q538 263 520 283Q510 295 495 293Q483 290 481 277Q480 262 491 253Q510 234 624 136M341 344Q340 335 343 318Q353 270 356 229Q360 180 353 144Q349 98 334 43Q321 19 323-6Q327-27 346-27Q374-28 482 15Q569 52 590 69Q603 79 600 90Q596 97 575 92Q502 73 422 50Q389 40 397 71Q397 125 399 198Q403 273 409 290Q419 321 394 343Q390 347 387 349Q445 353 516 352Q654 351 711 339Q739 332 756 344Q769 354 775 372Q779 385 768 393Q758 400 728 400Q628 400 477 398Q362 397 319 397Q307 398 296 391Q300 461 301 549Q302 568 307 575Q311 581 327 581Q529 588 609 588Q682 588 709 585Q740 581 750 594Q763 613 747 629Q732 642 627 637Q413 633 322 641Q298 642 274 634Q258 628 249 614Q242 601 245 579Q249 542 250 517Q250 387 244 326Q235 253 205 203Q178 154 54 57Q26 35 38 12Q45-1 61-4Q77-5 95 4Q126 20 161 55Q212 101 242 157Q276 217 288 308Q289 323 291 338Q292 338 296 338Q315 342 341 344L341 344Z"  horiz-adv-x="1024" vert-adv-y="1024"  />

      
      <glyph glyph-name="uni79F0" unicode="&#x79F0;" d="M329 307Q304 320 292 316Q282 312 290 302Q317 271 324 244Q334 213 356 207Q378 201 388 216Q401 235 387 261Q369 285 329 307M215 394Q219 395 225 394Q212 343 174 294Q117 234 66 195Q36 171 37 153Q37 137 60 132Q81 131 119 159Q155 187 193 241Q211 269 226 297Q223 170 222 55Q218-2 233-40Q239-55 252-55Q262-55 269-42Q281-21 280 12Q277 250 277 398Q323 401 358 399Q383 399 394 411Q401 420 393 432Q381 445 350 446Q308 447 277 447Q277 501 278 538Q278 563 286 581Q305 585 325 587Q347 587 354 614Q358 630 338 650Q317 669 299 653Q280 634 246 620Q206 604 121 595Q105 594 107 581Q108 569 126 569Q168 565 217 571Q218 572 221 571Q225 555 226 528Q226 488 226 447Q198 448 184 445Q144 442 110 442Q85 443 70 416Q58 397 67 381Q74 368 95 372Q150 388 215 394M739 470Q779 467 798 454Q808 445 806 432Q805 428 802 421Q795 396 779 362Q769 341 776 329Q782 319 800 325Q813 331 826 346Q836 361 862 425Q868 440 879 454Q883 461 883 468Q884 487 861 500Q834 516 800 509Q781 509 734 510Q674 511 620 510Q566 510 556 514Q552 515 546 516Q549 525 553 532Q563 557 572 572Q588 600 574 617Q556 633 535 637Q510 641 509 615Q509 596 501 565Q491 525 462 463Q443 415 412 373Q402 360 411 352Q421 343 439 361Q466 383 496 431Q503 444 511 455Q532 454 581 457Q612 461 655 466Q692 470 739 470M618 212Q618 109 615 14Q611-26 622-39Q643-61 657-45Q676-26 671 27Q670 61 670 170Q670 264 675 349Q678 385 661 404Q648 422 625 403Q612 394 615 358Q616 328 618 212M532 226Q539 256 531 268Q524 277 515 266Q464 164 407 118Q376 99 375 72Q376 45 395 39Q420 32 444 55Q495 112 532 226M754 241Q824 103 866 59Q882 29 910 31Q938 31 954 49Q964 64 939 84Q836 187 779 260Q767 273 756 265Q749 259 754 241L754 241Z"  horiz-adv-x="1024" vert-adv-y="1024"  />

      
      <glyph glyph-name="uni627F" unicode="&#x627F;" d="M348 305Q358 315 352 329Q346 342 321 354Q242 378 200 397Q172 410 130 392Q109 383 122 362Q140 337 183 339Q223 338 266 329Q282 329 289 315Q288 281 270 250Q249 216 217 193Q171 162 84 132Q50 122 48 95Q47 74 62 68Q87 55 151 85Q218 118 260 157Q294 188 335 283Q342 298 348 305M503 151Q507 152 512 151Q512 145 512 138Q505 80 464 47Q424 13 339 3Q314 0 293 0Q283-1 283-7Q283-20 304-33Q353-58 400-53Q469-44 516-3Q558 31 563 91Q564 116 564 151Q589 152 618 152Q649 152 653 166Q657 179 650 189Q637 201 590 199Q577 199 563 198Q562 220 562 247Q581 248 604 249Q632 249 637 262Q641 275 634 284Q621 294 578 294Q568 294 560 292Q559 323 557 347Q576 348 600 349Q628 349 633 362Q637 375 630 384Q617 394 574 394Q564 394 553 392Q552 414 549 430Q548 443 540 459Q592 478 643 521Q683 557 686 580Q687 622 628 635Q589 639 536 646Q500 650 426 646Q374 647 344 638Q313 629 297 605Q285 584 304 570Q329 552 376 574Q443 605 499 607Q556 606 584 594Q600 590 605 576Q609 563 590 542Q565 520 527 498Q523 497 519 494Q495 528 488 527Q458 540 437 525Q412 507 459 475Q486 462 496 445Q506 423 510 393Q510 393 510 392Q485 392 458 392Q415 393 399 380Q386 367 393 352Q403 333 441 341Q465 345 504 347Q507 348 512 347Q513 323 515 292Q485 292 450 292Q407 293 391 280Q378 267 385 252Q395 233 433 241Q458 245 501 247Q508 248 516 247Q516 220 515 197Q482 198 446 197Q400 198 384 185Q369 172 377 155Q387 136 428 143Q456 149 503 151M785 383Q724 347 700 337Q681 330 680 308Q681 295 708 287Q733 275 776 216Q822 152 832 126Q844 95 875 85Q927 72 966 86Q999 98 967 117Q937 133 880 185Q844 210 770 292Q763 299 763 303Q763 306 766 308Q770 311 780 314Q787 317 836 342Q861 343 865 359Q868 372 850 392Q831 411 785 383L785 383Z"  horiz-adv-x="1024" vert-adv-y="1024"  />

      
      <glyph glyph-name="uni4E11" unicode="&#x4E11;" d="M872 2Q905-11 924 7Q949 28 969 60Q982 84 955 83Q925 82 856 84Q805 85 703 87Q703 88 704 91Q756 404 770 427Q786 460 785 487Q785 515 760 531Q739 549 680 547Q577 548 430 556Q351 560 316 570Q285 579 250 560Q222 545 227 525Q236 497 289 505Q353 512 467 510Q463 498 418 333Q414 334 411 333Q299 332 256 336Q219 340 198 318Q185 300 187 286Q191 264 225 273Q246 279 276 281Q352 285 405 286Q398 258 388 222Q361 134 341 91Q280 91 201 87Q168 87 143 86Q103 85 73 63Q48 41 60 20Q73 1 115 10Q235 32 473 37Q569 40 694 36Q778 29 872 2M473 92Q443 93 400 92Q413 126 434 200Q447 246 458 286Q459 287 462 286Q499 285 536 276Q579 266 604 288Q622 306 620 320Q617 342 541 337Q522 337 473 334Q507 454 523 495Q526 502 528 508Q655 504 684 493Q709 483 707 460Q708 438 693 350Q666 191 638 89Q565 90 473 92L473 92Z"  horiz-adv-x="1024" vert-adv-y="1024"  />

      
      <glyph glyph-name="uni51FA" unicode="&#x51FA;" d="M229 54Q233 32 235 10Q236-9 252-20Q274-36 311-14Q366 8 487 8Q662 8 718-11Q749-27 764-26Q783-22 795-6Q817 24 824 79Q828 100 842 148Q854 187 858 196Q871 217 866 237Q862 256 847 263Q834 269 822 260Q810 253 803 229Q778 147 766 102Q757 68 748 55Q744 46 695 48Q617 54 547 55Q548 68 548 84Q544 171 542 333Q651 333 693 319Q721 303 736 305Q754 309 765 325Q784 353 791 406Q792 418 800 447Q804 471 808 476Q820 497 814 515Q808 533 795 539Q783 543 772 536Q760 527 755 505Q739 447 731 414Q727 390 720 380Q716 373 673 374Q604 378 542 378Q542 406 543 437Q544 509 555 570Q562 604 547 632Q531 654 504 649Q479 643 481 605Q493 481 493 379Q423 379 360 373Q330 369 321 376Q315 380 313 392Q300 447 293 498Q290 523 275 538Q266 547 252 545Q239 542 236 531Q233 518 239 484Q249 402 256 376Q260 355 261 334Q262 316 277 306Q298 291 333 312Q382 331 488 333Q489 334 493 333Q493 230 489 108Q485 77 488 55Q409 56 342 51Q308 47 299 55Q290 59 287 76Q271 149 260 219Q256 247 241 262Q231 272 216 269Q203 266 200 255Q196 239 202 205Q218 88 229 54L229 54Z"  horiz-adv-x="1024" vert-adv-y="1024"  />

      
      <glyph glyph-name="uni4F20" unicode="&#x4F20;" d="M203 273Q203 135 199 6Q195-34 206-47Q227-69 241-53Q260-34 255 19Q254 65 254 215Q253 345 259 461Q262 497 245 516Q244 517 242 518Q273 554 304 605Q329 648 324 664Q320 680 304 677Q294 673 281 646Q269 613 207 556Q146 502 75 473Q54 464 54 446Q54 427 71 417Q90 404 118 414Q143 424 198 474Q198 473 199 471Q202 429 203 273M628 68Q609 81 593 90Q544 121 513 130Q482 140 469 116Q457 92 492 79Q586 42 722-44Q747-60 754-53Q764-41 756-28Q744-12 725 4Q686 31 654 51Q706 76 745 116Q797 170 797 192Q797 217 757 236Q717 252 611 254Q577 253 556 257Q578 318 596 362Q639 363 684 358Q760 354 802 342Q850 330 899 307Q924 295 944 313Q957 325 973 350Q983 366 963 368Q803 393 692 399Q652 402 610 401Q626 453 633 480Q636 493 639 504Q694 505 728 501Q770 497 820 485Q833 482 846 490Q859 497 862 509Q866 525 862 533Q855 542 834 543Q731 549 653 549Q660 573 670 595Q679 617 659 641Q646 659 628 656Q612 655 610 633Q606 593 596 549Q518 550 459 544Q420 541 409 528Q393 509 408 494Q421 478 460 489Q485 495 524 500Q549 503 586 503Q580 476 572 446Q565 424 557 400Q514 399 470 394Q385 385 357 388Q332 392 313 370Q291 342 304 323Q322 305 354 320Q376 329 414 342Q451 352 526 360Q535 361 545 360Q520 287 497 236Q488 211 495 197Q496 196 497 194Q507 187 523 193Q584 211 620 214Q660 218 694 205Q721 198 721 185Q720 166 688 126Q660 95 628 68L628 68Z"  horiz-adv-x="1024" vert-adv-y="1024"  />

      
      <glyph glyph-name="uni6625" unicode="&#x6625;" d="M620 249Q482 249 435 246Q422 247 402 249Q389 250 378 238Q369 226 369 192Q368 125 371 21Q372-36 388-46Q403-55 432-47Q453-43 498-41Q555-38 609-46Q634-50 655-38Q671-29 678-11Q687 11 687 31Q687 119 686 169Q686 185 690 197Q700 225 676 240Q658 250 620 249M528 88Q612 89 632 84Q631 24 613 13Q603 12 590 11Q542 11 472 6Q441 5 433 11Q424 23 422 83Q441 87 528 88M528 126Q449 125 421 128Q422 189 434 198Q447 208 515 209Q603 209 615 199Q628 187 631 128Q607 127 528 126M461 423Q340 424 247 416Q208 413 197 400Q181 381 196 366Q209 350 248 361Q285 370 343 376Q382 380 438 381Q392 314 303 269Q174 202 88 196Q60 195 52 181Q36 156 53 139Q69 124 95 126Q200 135 339 221Q457 287 501 379Q507 372 524 364Q573 348 626 314Q690 280 729 243Q774 203 807 156Q834 111 871 91Q898 78 932 96Q963 114 974 129Q989 151 960 157Q923 163 888 184Q845 209 780 255Q689 322 627 362Q614 371 604 378Q625 378 644 375Q705 369 780 351Q799 347 818 358Q831 365 834 377Q838 393 834 401Q827 410 806 411Q643 421 519 422Q526 444 530 477Q597 478 685 477Q710 476 718 487Q725 499 716 512Q709 524 681 524Q590 523 534 520Q535 548 538 571Q611 572 701 571Q732 570 745 586Q754 601 740 612Q728 622 703 622Q624 623 546 622Q547 659 535 679Q522 698 508 697Q496 697 485 686Q472 674 479 633Q479 629 480 622Q450 623 421 623Q373 622 343 628Q312 635 289 611Q273 592 279 576Q285 561 318 563Q367 569 454 571Q467 572 482 571Q481 552 481 528Q480 524 480 520Q476 520 472 520Q436 520 332 523Q301 523 293 508Q287 498 292 488Q299 475 327 475Q382 476 476 476Q473 451 468 438Q465 431 461 423L461 423Z"  horiz-adv-x="1024" vert-adv-y="1024"  />

      
      <glyph glyph-name="uni9519" unicode="&#x9519;" d="M731 307Q789 303 824 294Q861 285 899 267Q924 255 944 273Q957 285 973 310Q983 326 963 328Q854 344 772 350Q772 357 773 365Q773 399 777 459Q808 455 844 447Q856 444 867 452Q880 459 882 470Q886 486 882 492Q875 501 855 502Q815 505 780 505Q780 512 781 519Q784 550 791 576Q798 604 788 626Q776 644 754 641Q735 638 734 608Q735 553 734 506Q695 507 662 507Q638 508 617 506Q617 510 617 513Q617 543 621 567Q625 595 613 616Q600 634 578 628Q559 624 562 593Q568 545 571 505Q546 506 524 503Q487 499 477 487Q462 471 476 455Q489 440 526 451Q545 455 573 459Q574 426 576 388Q575 366 576 348Q569 348 561 347Q491 340 469 341Q450 344 433 326Q411 298 424 279Q442 261 474 276Q492 283 521 293Q549 302 608 307Q669 311 731 307M624 351Q624 361 624 372Q621 405 618 462Q639 463 666 465Q703 465 732 463Q731 427 727 386Q723 367 723 352Q674 355 624 351M560 232Q526 231 516 216Q509 206 518 182Q525 155 546-3Q553-36 567-45Q577-52 595-44Q617-34 677-33Q729-32 764-41Q788-47 804-39Q820-32 831-4Q844 44 849 97Q853 143 863 171Q873 193 867 204Q861 214 844 224Q822 236 754 237Q676 238 607 234Q586 234 560 232M593 5Q587 9 584 23Q580 51 576 77Q580 77 586 78Q608 82 646 83Q686 83 738 82Q766 82 770 94Q774 107 766 114Q754 124 714 124Q686 124 660 125Q633 125 602 126Q583 127 572 124Q571 146 572 165Q572 177 575 183Q579 187 596 191Q638 197 755 196Q789 196 800 190Q807 183 807 169Q810 105 792 22Q789 13 783 10Q777 6 748 7Q693 10 620 5Q598 4 593 5M196 502Q229 508 280 506Q337 505 361 499Q383 493 398 503Q410 512 415 527Q418 539 409 545Q399 549 375 551Q335 551 272 551Q235 551 217 551Q217 552 218 552Q237 598 246 629Q250 648 241 661Q231 673 215 670Q202 666 200 638Q199 614 181 570Q163 527 128 477Q95 438 71 424Q52 411 44 396Q40 383 46 370Q56 357 72 355Q91 355 123 388Q163 437 196 502M248 198Q248 189 249 178Q250 108 240 61Q239 54 229 43Q204 21 202 3Q199-13 208-38Q212-50 222-51Q232-51 242-42Q267-18 311 5Q423 59 444 73Q459 83 453 96Q446 106 426 100Q329 69 310 66Q303 65 299 69Q296 73 296 80Q295 140 298 199Q322 200 341 198Q372 192 388 202Q416 221 419 235Q420 248 387 248Q335 249 301 246Q302 280 308 315Q309 331 307 344Q332 345 363 346Q390 345 401 359Q408 372 397 383Q387 390 364 391Q294 392 229 393Q207 393 191 396Q164 402 144 381Q131 365 135 351Q141 338 170 339Q195 343 238 344Q237 337 239 328Q243 294 246 246Q228 247 212 246Q193 246 187 249Q157 252 125 246Q97 239 85 219Q75 200 86 185Q96 172 146 185Q176 194 236 198Q242 199 248 198L248 198Z"  horiz-adv-x="1024" vert-adv-y="1024"  />

      
      <glyph glyph-name="uni642D" unicode="&#x642D;" d="M592 356Q605 369 616 370Q626 371 642 364Q706 333 757 294Q809 255 831 230Q856 199 883 197Q935 191 972 215Q1002 234 953 254Q920 264 834 308Q653 402 641 413Q622 432 609 434Q596 434 583 411Q567 383 507 347Q428 301 376 290Q345 284 329 273Q313 263 314 247Q317 231 333 223Q352 216 379 227Q431 242 492 281Q552 318 592 356M613 218Q661 218 724 217Q752 217 757 230Q761 243 754 252Q741 262 698 262Q664 261 631 262Q597 263 558 264Q515 265 499 252Q486 239 493 224Q503 205 541 213Q568 217 613 218M719-25Q738-29 762-15Q772-8 777 20Q784 48 794 66Q806 106 801 122Q797 132 781 141Q765 147 752 147Q734 146 700 148Q633 149 577 146Q543 146 508 147Q483 148 474 132Q470 122 476 94Q483 75 488 48Q489 29 490 9Q490-16 506-27Q516-34 546-27Q598-15 640-17Q688-18 719-25M733 71Q732 58 730 48Q729 41 727 39Q720 32 699 31Q638 27 589 24Q553 21 546 31Q539 38 534 65Q531 99 534 102Q550 114 586 115Q629 116 684 113Q721 110 733 100Q736 96 733 71M269 301Q282 305 300 310Q334 319 352 337Q362 350 352 360Q348 366 323 361Q296 357 270 349Q270 398 272 446Q294 447 317 446Q348 443 359 458Q369 471 361 486Q354 499 319 497Q292 496 272 495Q272 499 273 501Q272 553 283 590Q290 612 281 639Q274 663 258 665Q239 666 228 649Q222 639 221 559Q221 528 221 495Q208 495 196 495Q160 496 122 504Q97 508 73 481Q57 460 66 444Q76 428 112 437Q134 444 176 445Q198 446 222 445Q222 388 222 337Q212 336 204 331Q179 322 157 319Q115 312 87 278Q62 247 77 233Q92 221 117 234Q166 259 206 278Q212 282 222 284Q223 229 223 181Q222 106 200 77Q179 49 105 22Q62 9 54-8Q50-20 55-36Q61-49 75-56Q93-62 119-51Q204-14 235 30Q269 81 267 158Q268 230 269 301M825 481Q856 475 875 486Q903 505 907 520Q908 533 873 534Q807 535 758 533Q765 555 773 566Q783 582 769 598Q753 616 732 609Q711 602 711 578Q711 565 706 532Q670 533 648 531Q606 532 564 531Q561 568 565 584Q566 600 552 609Q524 622 503 604Q493 595 502 576Q506 564 512 552Q513 545 517 532Q513 533 509 535Q478 538 444 532Q414 525 401 503Q391 484 402 467Q414 454 466 467Q490 474 527 478Q534 451 543 442Q553 432 563 439Q573 449 570 482Q597 485 631 486Q667 487 700 487Q699 480 698 472Q695 448 699 439Q706 424 724 432Q734 436 739 466Q740 476 744 486Q790 486 825 481L825 481Z"  horiz-adv-x="1024" vert-adv-y="1024"  />

      
      <glyph glyph-name="uni6253" unicode="&#x6253;" d="M315 272Q328 276 345 278Q382 284 402 301Q415 314 405 325Q401 332 374 329Q343 328 315 322Q315 391 315 457Q357 461 402 465Q427 468 425 483Q422 504 388 503Q355 506 315 505Q316 517 316 528Q315 570 323 598Q330 620 321 647Q314 671 298 673Q279 674 268 657Q264 650 264 584Q265 544 266 506Q227 509 183 516Q149 519 94 477Q76 464 88 448Q101 429 133 439Q158 443 200 449Q233 450 267 453Q268 377 270 314Q254 311 239 307Q209 300 184 298Q141 295 107 262Q79 232 93 216Q106 201 135 213Q190 235 238 252Q251 258 270 261Q269 156 244 113Q216 67 120 21Q78 2 74-17Q70-29 79-44Q86-57 101-61Q120-64 144-49Q244 6 279 72Q318 145 315 258Q315 265 315 272M689 429Q689 425 690 419Q699 142 690 109Q678 75 640 59Q597 40 533 37Q508 38 490 41Q463 47 458 30Q454 15 475-8Q500-33 526-35Q602-31 662 3Q722 37 741 90Q748 112 748 150Q744 285 745 326Q746 369 754 404Q755 414 755 424Q804 421 834 413Q871 403 908 385Q935 373 955 392Q968 404 985 430Q995 446 975 449Q845 470 754 474Q669 478 573 470Q504 463 482 465Q461 468 446 450Q424 422 437 401Q455 383 488 398Q506 405 535 415Q563 422 621 428Q654 431 689 429L689 429Z"  horiz-adv-x="1024" vert-adv-y="1024"  />

      
      <glyph glyph-name="uni5927" unicode="&#x5927;" d="M482 316Q486 328 490 340Q494 356 497 380Q621 383 696 372Q730 366 749 377Q779 398 782 413Q786 428 747 428Q585 429 501 424Q505 475 505 546Q504 562 504 579Q505 610 497 621Q487 633 471 632Q455 631 446 618Q439 605 440 579Q447 491 446 423Q392 424 339 423Q296 422 279 429Q246 432 211 426Q180 417 165 396Q155 375 166 358Q179 343 233 358Q305 376 444 379Q443 360 440 342Q428 287 385 238Q342 190 269 147Q173 90 90 74Q71 68 68 61Q64 48 73 30Q83 9 103 3Q119 0 163 17Q208 33 294 92Q370 144 424 209Q443 233 458 262Q464 261 470 257Q498 245 558 201Q634 146 798 6Q832-27 877-13Q938 6 952 17Q983 42 931 50Q867 63 758 121Q628 194 546 261Q495 301 482 316L482 316Z"  horiz-adv-x="1024" vert-adv-y="1024"  />

      
      <glyph glyph-name="uni5E26" unicode="&#x5E26;" d="M482 172Q482 76 479-14Q475-54 486-67Q507-89 521-73Q540-54 535-1Q534 30 535 133Q534 176 535 217Q572 218 599 217Q644 216 655 209Q662 205 667 184Q677 153 678 118Q678 72 684 46Q687 21 695 13Q704 7 712 8Q719 9 728 19Q738 35 740 56Q741 86 734 111Q731 121 729 148Q728 172 729 187Q730 203 724 216Q717 232 694 245Q663 261 620 262Q586 262 536 262Q537 281 539 301Q540 332 529 351Q623 352 681 348Q765 344 785 332Q792 329 798 312Q810 287 814 257Q818 217 826 196Q830 168 838 161Q847 155 856 156Q863 157 873 168Q885 184 886 206Q885 231 875 249Q871 258 867 278Q863 297 863 309Q864 328 857 342Q850 361 823 374Q789 393 739 393Q640 394 486 395Q356 396 255 392Q198 391 183 377Q165 361 158 326Q142 263 137 221Q136 184 142 171Q149 158 164 155Q177 154 189 164Q202 177 201 215Q201 264 206 291Q209 312 217 323Q227 336 286 343Q353 352 473 351Q479 352 485 351Q476 341 479 310Q479 297 480 262Q425 263 381 260Q332 259 318 247Q302 234 296 203Q281 124 278 69Q277 33 283 22Q290 10 304 7Q317 6 328 15Q340 28 339 64Q336 125 339 160Q342 185 352 200Q356 207 388 211Q422 217 481 216Q481 197 482 172M657 514Q653 489 647 461Q638 431 649 427Q664 420 673 433Q686 449 695 474Q699 493 705 509Q721 508 736 505Q812 493 854 478Q885 468 906 475Q927 484 940 497Q968 531 966 541Q963 551 934 553Q897 546 788 554Q754 555 717 557Q718 564 721 572Q730 608 729 629Q729 663 700 668Q673 672 672 633Q671 602 664 558Q597 561 539 560Q539 564 540 570Q541 589 545 606Q552 636 538 659Q525 678 502 673Q480 667 482 636Q486 599 488 568Q488 565 488 560Q484 561 481 560Q421 561 357 560Q357 561 357 562Q356 578 358 593Q362 623 347 645Q332 663 310 656Q289 649 294 617Q301 586 304 560Q304 560 304 558Q283 559 263 558Q181 558 130 555Q99 554 78 533Q56 512 56 492Q57 477 71 470Q84 463 133 479Q206 501 308 511Q309 504 310 496Q310 439 327 424Q339 414 353 425Q368 435 362 480Q361 493 359 515Q429 522 483 523Q484 523 488 522Q489 509 489 494Q483 439 499 421Q509 411 526 420Q541 429 539 474Q539 492 539 521Q603 520 657 514L657 514Z"  horiz-adv-x="1024" vert-adv-y="1024"  />

      
      <glyph glyph-name="uni5F85" unicode="&#x5F85;" d="M889 342Q919 330 935 346Q957 365 975 393Q987 412 962 412Q937 411 876 414Q821 415 667 419Q668 432 669 449Q668 479 668 533Q740 536 785 530Q816 524 832 534Q860 553 863 567Q864 580 831 580Q723 581 669 577Q670 601 675 622Q682 653 668 678Q653 697 629 693Q607 687 609 653Q613 613 614 577Q592 578 569 577Q541 576 531 581Q501 584 469 578Q441 571 429 551Q419 532 430 517Q440 504 490 517Q533 529 615 532Q616 504 616 471Q612 440 615 420Q563 421 461 417Q440 417 424 417Q390 416 363 397Q341 378 352 359Q362 343 400 350Q476 363 632 367Q693 368 774 365Q829 361 889 342M724 235Q725 111 719 87Q715 60 699 42Q686 23 659 11Q632-1 598-4Q558-8 535-3Q514 0 505-9Q496-22 506-39Q516-58 531-68Q544-75 564-73Q625-69 683-37Q720-16 739 11Q755 32 763 62Q775 101 775 230Q774 233 774 234Q816 234 849 229Q880 223 899 234Q927 253 931 268Q932 281 897 282Q827 283 774 281Q775 299 778 308Q784 329 780 340Q774 352 767 354Q751 361 737 358Q709 349 723 288Q723 284 723 280Q689 280 667 278Q621 279 572 278Q538 277 525 283Q494 286 460 280Q430 273 417 251Q407 232 418 215Q430 202 482 215Q539 230 651 234Q690 235 724 235M532 161Q505 170 476 157Q451 147 461 122Q474 94 516 98Q555 107 595 107Q622 106 630 116Q636 126 625 132Q609 141 581 146Q557 150 532 161M309 648Q296 620 233 573Q172 530 105 511Q83 504 80 484Q79 465 95 453Q114 437 144 445Q171 454 236 504Q282 538 329 604Q359 646 356 663Q352 679 336 678Q324 675 309 648M218 171Q219 81 215-3Q211-48 223-61Q247-86 262-68Q283-47 277 11Q276 41 277 135Q277 217 282 291Q283 322 274 341Q298 368 322 403Q352 446 348 464Q344 480 328 478Q316 475 302 447Q287 416 221 363Q157 314 84 291Q62 284 60 264Q59 245 75 233Q94 217 124 226Q152 236 216 286Q217 253 218 171L218 171Z"  horiz-adv-x="1024" vert-adv-y="1024"  />

      
      <glyph glyph-name="uni5355" unicode="&#x5355;" d="M483 107Q482 73 482 39Q478-18 493-56Q499-71 512-71Q522-71 529-58Q541-37 540-4Q539 54 538 106Q556 107 576 105Q679 99 739 85Q805 70 872 40Q903 27 926 47Q942 60 961 91Q971 110 949 113Q732 144 584 149Q560 150 537 150Q537 192 537 227Q606 226 655 211Q680 205 699 214Q718 223 729 254Q744 297 749 346Q755 389 765 414Q778 439 770 452Q763 462 744 474Q719 487 644 488Q505 492 382 486Q345 486 301 483Q262 482 251 465Q244 455 253 427Q260 402 285 254Q292 218 308 208Q320 198 340 209Q380 227 485 227Q484 188 483 150Q387 151 285 139Q171 126 135 129Q101 133 76 103Q51 70 65 47Q87 25 124 43Q155 56 207 75Q258 91 359 102Q420 108 483 107M485 268Q430 268 368 263Q343 262 337 264Q331 268 326 284Q322 306 319 326Q359 333 486 333Q486 300 485 268M537 334Q652 335 694 327Q690 306 685 282Q682 273 676 269Q669 265 636 266Q590 270 537 268Q537 305 537 334M486 388Q486 379 486 369Q359 368 314 374Q313 392 314 408Q313 421 317 428Q321 434 340 437Q385 443 478 443Q485 425 486 388M538 398Q538 425 547 444Q590 444 644 443Q683 442 695 435Q704 428 703 413Q703 394 701 373Q665 372 537 369Q537 385 538 398M711 587Q736 603 732 626Q723 648 705 661Q684 674 672 652Q668 642 658 627Q645 608 617 581Q598 559 573 543Q558 536 563 524Q567 512 592 521Q611 525 637 539Q674 558 691 572Q703 582 711 587M300 601Q318 594 362 567Q393 548 425 525Q437 515 445 522Q452 529 442 543Q426 570 394 605Q370 629 359 649Q338 679 300 658Q254 628 300 601L300 601Z"  horiz-adv-x="1024" vert-adv-y="1024"  />

      
      <glyph glyph-name="uni9053" unicode="&#x9053;" d="M146 544Q191 538 208 530Q224 523 238 525Q248 526 249 538Q249 554 229 566Q205 579 184 599Q159 624 126 606Q95 587 101 565Q107 549 146 544M367 97Q240 112 174 110Q164 106 160 114Q172 133 201 153Q228 169 257 202Q270 218 266 233Q259 245 236 251Q214 252 186 277Q177 283 169 287Q194 299 215 316Q261 353 264 372Q268 394 236 416Q224 423 191 432Q154 441 138 453Q119 466 91 445Q72 432 70 414Q69 398 94 401Q121 408 137 410Q155 411 170 405Q192 386 188 373Q187 358 160 331Q136 310 111 292Q110 292 110 291Q109 291 108 290Q107 290 106 289Q105 289 108 290Q104 289 110 291Q91 278 90 267Q90 255 108 246Q139 231 184 223Q194 224 198 220Q201 216 195 209Q146 178 120 141Q105 119 104 102Q105 84 122 72Q144 59 166 58Q293 68 413 54Q558 39 782-50Q825-69 881-53Q927-38 952-18Q973 0 973 10Q972 23 940 23Q784 24 677 45Q494 85 367 97M672 684Q650 668 634 656Q612 637 599 624Q587 614 593 602Q597 592 623 606Q636 613 664 621Q683 627 691 627Q704 630 708 636Q715 649 712 672Q709 691 698 695Q691 699 672 684M494 672Q488 676 484 682Q468 694 443 684Q427 677 424 662Q423 649 439 642Q452 638 468 631Q487 621 499 613Q517 600 530 602Q539 606 539 618Q538 633 518 649Q500 667 494 672M684 477Q641 478 576 476Q583 498 593 510Q602 526 598 538Q640 539 671 538Q723 537 772 524Q815 514 840 536Q858 554 856 568Q853 590 777 585Q735 584 596 580Q439 577 380 584Q343 588 322 566Q309 548 311 534Q315 512 349 521Q377 528 418 532Q485 536 541 537Q542 524 541 508Q540 495 536 476Q532 477 527 475Q476 475 439 474Q417 474 407 465Q392 452 395 425Q396 406 396 384Q395 332 398 276Q401 224 400 184Q400 148 420 136Q433 127 474 135Q510 142 579 142Q658 142 676 141Q713 135 735 153Q754 166 752 212Q748 323 759 418Q763 448 747 460Q725 476 684 477M448 239Q473 243 576 245Q676 246 701 240Q702 240 704 240Q700 209 691 198Q681 191 657 191Q617 192 555 190Q512 189 487 187Q465 186 458 193Q451 200 446 239Q447 239 448 239M705 285Q686 282 576 281Q479 280 446 285Q443 286 442 285Q441 315 441 336Q442 336 444 336Q471 340 576 341Q679 342 705 336Q705 336 706 336Q706 335 707 330Q707 306 707 285Q706 285 705 285M576 377Q476 376 442 381Q442 381 441 381Q442 418 451 425Q460 432 557 434Q680 438 691 429Q700 422 704 380Q677 379 576 377L576 377Z"  horiz-adv-x="1024" vert-adv-y="1024"  />

      
      <glyph glyph-name="uni5FB7" unicode="&#x5FB7;" d="M448 500Q414 499 404 484Q397 474 406 450Q412 435 434 345Q441 312 455 303Q465 296 483 304Q520 320 619 322Q707 323 764 307Q788 301 804 308Q820 317 831 344Q841 369 849 399Q855 424 863 439Q873 461 867 472Q861 482 844 492Q822 504 754 505Q702 506 654 505Q655 517 655 534Q655 546 655 565Q731 568 777 562Q808 556 824 566Q852 585 855 599Q856 612 823 612Q712 613 659 609Q660 612 661 614Q668 644 654 667Q641 685 618 681Q596 675 598 644Q601 625 602 609Q584 610 568 609Q541 608 531 613Q501 616 469 610Q441 603 429 583Q419 564 430 549Q440 536 490 549Q530 559 604 563Q604 559 605 554Q601 524 604 505Q561 505 521 503Q488 502 448 500M675 460Q676 450 673 411Q672 372 668 363Q667 360 666 356Q635 357 602 356Q602 359 602 361Q601 368 599 411Q598 448 599 461Q599 462 599 464Q632 465 674 464Q674 463 675 460M718 406Q721 445 724 458Q724 462 725 464Q738 465 755 464Q789 464 800 458Q807 451 807 437Q806 407 792 370Q789 361 783 358Q777 354 748 355Q732 356 715 356Q715 368 718 406M549 458Q550 448 553 410Q554 374 553 365Q552 361 552 355Q530 355 508 353Q486 352 481 353Q475 357 472 371Q462 405 460 433Q460 445 463 451Q467 455 484 459Q508 463 548 463Q548 462 549 458M621 232Q691 232 730 228Q772 224 822 212Q835 209 848 217Q860 224 862 234Q866 249 862 255Q856 264 837 265Q710 272 618 272Q530 271 461 265Q427 262 416 251Q403 235 416 220Q428 207 463 216Q488 222 526 227Q563 230 621 232M419 155Q370 101 326 64Q307 54 304 41Q303 25 318 8Q342-16 356-9Q369-2 384 27Q415 87 446 134Q458 156 448 165Q438 172 419 155M521 167Q484 47 496 25Q515-6 610-34Q713-70 825-81Q877-85 907-44Q968 52 970 69Q971 91 945 70Q881 16 838 9Q783-4 729-1Q656 0 606 12Q560 21 541 42Q534 58 541 79Q548 101 565 108Q586 121 583 149Q582 174 556 181Q528 191 521 167M650 172Q647 160 636 131Q627 109 617 88Q610 78 617 72Q624 66 634 75Q650 85 669 105Q682 120 694 127Q716 146 696 176Q669 210 650 172M798 156Q792 143 775 110Q762 88 747 64Q738 54 745 48Q751 42 762 50Q781 62 806 83Q824 99 838 107Q862 125 844 156Q820 193 798 156M293 652Q280 624 217 579Q156 537 90 519Q66 512 64 493Q63 474 79 461Q98 445 128 453Q155 460 219 510Q265 543 312 608Q343 650 340 667Q336 683 320 682Q308 681 293 652M202 185Q202 94 199 10Q195-30 206-43Q227-65 241-49Q260-30 255 23Q254 53 255 148Q254 230 259 305Q260 327 254 343Q279 371 307 411Q335 454 332 472Q328 488 312 486Q300 483 286 455Q273 425 208 374Q145 326 75 303Q53 296 51 276Q50 257 67 245Q86 229 116 238Q141 248 199 293Q200 259 202 185L202 185Z"  horiz-adv-x="1024" vert-adv-y="1024"  />

      
      <glyph glyph-name="uni5F97" unicode="&#x5F97;" d="M734 431Q770 424 790 441Q808 454 806 498Q805 561 812 616Q816 644 801 656Q779 671 742 673Q678 673 573 670Q518 670 478 669Q457 669 448 660Q435 647 437 622Q438 610 438 597Q438 564 440 529Q441 496 442 471Q441 437 461 425Q473 418 512 425Q551 432 627 432Q715 432 734 431M488 527Q516 531 624 533Q730 534 757 528Q756 494 748 485Q738 476 711 477Q668 480 601 476Q555 475 528 473Q504 472 497 479Q490 485 486 527Q487 527 488 527M624 569Q521 568 486 573Q486 573 484 573Q484 616 490 622Q500 631 604 632Q736 636 749 626Q756 619 757 572Q730 571 624 569M781 339Q811 333 826 343Q851 359 855 373Q856 386 824 386Q688 387 634 383Q597 384 556 383Q528 382 517 387Q489 390 459 384Q432 377 420 358Q411 342 421 327Q431 314 478 326Q526 339 618 342Q723 346 781 339M725 224Q729 104 724 87Q712 51 674 36Q631 18 566 15Q541 15 525 19Q500 23 495 8Q491-5 511-28Q533-52 560-54Q635-50 695-16Q753 17 773 69Q777 82 777 105Q776 184 778 210Q778 216 778 220Q827 216 881 199Q909 187 927 202Q949 221 967 248Q979 269 954 268Q929 267 868 270Q840 271 785 273Q785 292 773 305Q758 321 740 314Q724 304 723 274Q674 277 609 278Q554 279 428 276Q406 277 388 276Q354 275 327 256Q305 237 316 219Q326 203 364 210Q446 225 609 226Q660 227 725 224M593 125Q620 138 623 152Q624 164 611 163Q554 153 517 161Q483 170 465 154Q446 138 454 120Q464 98 496 95Q536 96 593 125M309 665Q294 637 232 593Q172 553 106 535Q84 528 81 509Q80 490 96 477Q114 461 144 468Q171 475 235 524Q280 555 327 620Q358 662 356 679Q352 695 336 694Q324 693 309 665M222 181Q222 90 219 6Q215-34 226-47Q247-69 261-53Q280-34 275 19Q274 49 275 144Q274 226 279 301Q280 332 269 351Q299 382 331 424Q362 466 360 483Q356 499 340 498Q328 497 313 469Q297 438 228 387Q161 341 86 319Q64 312 61 293Q60 274 76 261Q94 245 124 252Q152 261 219 309Q220 282 222 181L222 181Z"  horiz-adv-x="1024" vert-adv-y="1024"  />

      
      <glyph glyph-name="uni7684" unicode="&#x7684;" d="M91 354Q90 339 92 220Q96 72 100 48Q101 32 102 23Q101 16 110 3Q120-10 131-12Q144-15 162-6Q169-3 216-1Q276 0 320 0Q371-3 392-8Q428-12 439-2Q449 11 450 26Q450 39 450 48Q457 207 455 299Q455 324 461 346Q470 377 465 397Q458 427 439 435Q421 442 394 439Q361 435 341 434Q326 435 261 435Q246 435 234 433Q235 437 240 440Q280 489 301 529Q314 551 334 577Q350 599 328 632Q309 663 290 664Q275 665 273 647Q269 598 259 572Q232 496 189 433Q170 430 156 438Q140 445 130 444Q108 443 93 425Q83 407 89 387Q92 371 91 354M274 194Q379 195 405 189Q404 137 400 84Q399 62 390 59Q383 55 369 52Q362 51 279 51Q204 50 176 55Q169 56 159 61Q152 65 149 82Q145 134 143 188Q171 194 274 194M274 237Q180 236 142 240Q142 289 144 342Q145 357 153 365Q160 372 178 377Q202 384 273 386Q337 387 363 385Q384 384 392 373Q401 360 402 346Q403 294 405 240Q377 239 274 237M580 383Q595 379 614 382Q657 389 694 394Q737 398 819 396Q847 395 861 377Q876 355 875 311Q874 251 876 188Q877 136 862 104Q846 71 808 51Q771 30 711 21Q647 12 588 17Q569 21 568 6Q567-10 589-40Q607-62 661-58Q767-40 826-9Q872 19 900 58Q927 100 926 156Q922 261 924 290Q931 332 939 362Q951 395 936 416Q923 437 879 436Q788 440 699 438Q648 437 620 437Q647 477 666 513Q688 556 710 589Q717 598 716 616Q712 632 697 650Q678 671 662 669Q643 668 643 641Q642 569 610 501Q576 441 514 376Q489 345 497 333Q504 324 522 330Q543 339 568 368Q574 375 580 383M584 208Q623 198 686 175Q720 159 730 162Q743 169 735 183Q725 196 703 208Q643 254 633 264Q614 282 587 269Q566 256 561 235Q558 216 584 208L584 208Z"  horiz-adv-x="1024" vert-adv-y="1024"  />

      
      <glyph glyph-name="uni7B49" unicode="&#x7B49;" d="M599 169Q600 99 597 82Q593 57 579 39Q566 21 539 11Q512 1 477-3Q437-6 413-2Q391 2 382-7Q372-20 382-39Q392-58 407-69Q420-76 442-75Q503-71 562-39Q599-18 618 8Q634 27 641 58Q648 85 649 165Q658 166 668 164Q699 160 721 153Q749 143 777 161Q796 177 811 202Q820 218 794 218Q734 217 648 213Q647 252 652 269Q653 275 653 279Q672 280 694 278Q778 271 871 244Q902 231 921 248Q945 267 965 299Q978 321 951 321Q923 320 856 322Q768 326 519 331Q520 344 521 361Q521 377 522 410Q568 410 615 404Q642 400 661 395Q688 385 714 402Q733 417 746 441Q755 456 730 455Q654 454 527 450Q533 480 520 502Q505 521 481 517Q459 511 461 477Q462 464 464 450Q430 451 394 450Q354 451 325 454Q288 461 263 444Q242 428 245 410Q249 391 277 396Q382 408 466 411Q467 398 468 383Q464 352 467 332Q383 333 202 328Q168 329 143 328Q104 327 76 306Q52 284 64 265Q76 246 117 255Q235 277 474 281Q526 282 591 280Q592 267 597 247Q597 229 598 212Q513 213 408 211Q362 212 329 216Q290 223 264 205Q242 187 245 169Q249 150 279 154Q403 169 504 173Q550 173 599 169M473 71Q501 77 507 88Q511 98 499 101Q457 107 434 122Q406 138 385 129Q363 119 366 101Q370 77 398 67Q426 61 473 71M381 547Q360 563 348 560Q338 557 344 547Q351 528 351 514Q357 483 377 475Q398 468 408 480Q421 496 412 523Q402 535 381 547M330 580Q352 584 388 582Q431 581 450 576Q475 569 493 581Q506 591 511 608Q515 621 505 628Q495 634 467 635Q436 635 389 635Q373 635 363 635Q363 641 363 647Q360 669 341 679Q328 688 317 680Q308 674 307 659Q306 649 299 627Q295 615 282 601Q272 588 257 580Q241 568 217 557Q183 542 141 531Q126 527 124 512Q123 499 140 483Q156 473 180 481Q210 488 239 505Q263 517 288 536Q310 552 320 565Q324 574 330 580M726 537Q699 544 688 536Q681 529 690 522Q711 503 719 487Q737 459 760 459Q784 459 789 476Q795 498 775 520Q759 530 726 537M671 564Q701 568 745 567Q800 566 822 560Q847 553 865 565Q878 575 883 592Q887 605 877 612Q867 618 839 619Q800 619 742 619Q711 619 693 619Q699 637 692 655Q685 674 664 678Q649 682 641 673Q635 666 638 652Q639 642 639 620Q638 613 632 600Q626 591 619 583Q610 573 596 563Q575 547 551 534Q538 527 540 512Q541 500 561 490Q579 484 598 498Q616 508 632 521Q645 531 658 547Q665 557 671 564L671 564Z"  horiz-adv-x="1024" vert-adv-y="1024"  />

      
      <glyph glyph-name="uni9012" unicode="&#x9012;" d="M684 676Q677 664 639 610Q612 579 611 573Q607 563 620 563Q632 563 678 594Q702 610 715 615Q737 625 740 643Q741 661 719 679Q697 695 684 676M515 644Q508 651 500 657Q484 670 459 659Q443 652 440 638Q439 625 454 617Q472 613 491 602Q516 589 531 578Q549 565 562 567Q571 568 571 582Q570 597 550 613Q525 638 515 644M572 261Q572 219 572 177Q568 123 582 87Q586 74 600 73Q609 73 616 85Q626 104 626 136Q625 230 624 301Q676 305 724 302Q788 298 807 290Q826 284 828 266Q829 247 808 227Q786 205 766 194Q747 181 755 169Q764 154 793 168Q827 181 851 201Q866 213 882 238Q900 262 900 277Q899 295 884 310Q872 320 858 326Q833 336 724 338Q669 339 624 337Q623 374 624 403Q699 407 748 402Q767 399 778 409Q791 419 795 451Q801 484 807 500Q817 522 789 540Q767 552 756 552Q746 551 724 550Q558 541 445 544Q417 547 395 538Q371 526 371 511Q371 504 391 494Q412 487 455 499Q476 506 568 510Q575 494 575 460Q575 453 575 443Q497 442 476 437Q452 436 439 439Q414 446 408 437Q399 424 401 401Q404 371 396 333Q386 296 395 280Q408 256 445 276Q469 288 553 296Q554 297 557 296Q557 296 557 295Q550 285 504 254Q464 229 414 212Q371 196 342 193Q323 192 313 184Q298 171 311 154Q321 144 343 137Q362 133 384 139Q427 154 480 189Q540 229 572 261M476 329Q448 326 447 341Q447 354 453 379Q454 388 482 393Q515 400 575 401Q574 368 574 336Q516 336 476 329M732 510Q748 509 750 498Q751 482 748 467Q744 448 706 448Q678 448 624 445Q624 458 625 469Q625 493 633 511Q685 512 732 510M176 547Q225 537 244 527Q260 520 274 521Q284 522 285 534Q286 550 267 562Q240 578 217 600Q192 627 159 609Q128 591 132 569Q138 553 176 547M126 285Q114 282 102 270Q89 257 89 245Q92 233 111 228Q145 218 193 217Q203 220 207 218Q210 214 206 207Q160 167 139 124Q124 102 125 83Q126 65 145 54Q169 42 191 43Q312 56 428 44Q570 34 786-48Q831-67 885-49Q931-33 955-13Q976 5 975 16Q975 29 943 28Q792 27 687 44Q509 78 385 87Q261 99 198 95Q185 92 181 103Q191 125 218 149Q242 171 268 209Q278 227 272 241Q263 251 239 254Q217 251 183 271Q180 272 176 273Q201 286 226 304Q278 344 282 363Q286 385 253 411Q240 418 200 425Q161 429 144 441Q122 453 95 429Q77 413 76 395Q77 376 102 383Q132 393 148 396Q169 397 185 393Q212 380 209 366Q208 350 175 321Q151 302 126 285L126 285Z"  horiz-adv-x="1024" vert-adv-y="1024"  />

      
      <glyph glyph-name="uni70B9" unicode="&#x70B9;" d="M637 176Q677 169 700 188Q719 203 718 250Q718 308 725 360Q729 391 712 404Q688 420 646 423Q585 424 492 421Q496 443 497 484Q497 505 497 524Q504 527 519 529Q538 530 574 531Q680 528 727 523Q764 519 787 508Q821 495 849 519Q868 535 878 553Q885 569 860 572Q793 576 519 577Q509 577 500 578Q501 600 504 609Q508 640 494 657Q481 670 467 669Q452 668 443 656Q431 640 437 618Q441 608 443 571Q446 516 446 503Q442 445 446 421Q442 422 437 421Q370 420 319 420Q297 419 286 410Q270 394 273 367Q274 355 275 343Q274 312 277 277Q278 246 279 221Q278 184 300 170Q313 161 357 170Q406 179 503 178Q614 177 637 176M663 314Q664 248 654 236Q639 224 607 227Q552 230 470 225Q412 224 379 222Q349 221 340 230Q333 234 330 281Q326 360 333 367Q345 379 474 379Q639 383 654 372Q663 365 663 314M122-40Q171 26 214 71Q232 83 233 95Q233 111 217 126Q192 145 179 138Q166 131 155 101Q125 34 94-22Q84-46 94-53Q104-59 122-40M367 55Q379 16 390-23Q391-30 399-36Q403-40 408-38Q412-35 413-26Q416 20 418 68Q419 99 413 114Q406 129 388 130Q370 131 361 113Q352 98 367 55M551 50Q567 16 583-20Q587-27 594-33Q598-36 604-33Q608-30 607-20Q606 25 602 73Q601 103 592 117Q582 130 564 130Q545 129 537 109Q531 93 551 50M767 59Q800 37 848-24Q867-49 877-48Q887-45 886-35Q882-7 860 26Q842 51 827 84Q812 118 788 128Q758 138 747 109Q738 81 767 59L767 59Z"  horiz-adv-x="1024" vert-adv-y="1024"  />

      
      <glyph glyph-name="uni5178" unicode="&#x5178;" d="M743 196Q744 205 746 217Q759 334 761 404Q761 440 770 479Q776 519 754 543Q742 558 703 562Q655 562 617 562Q620 583 624 601Q633 632 619 657Q606 676 581 673Q559 669 559 635Q560 598 562 562Q549 562 538 562Q501 563 461 562Q462 584 467 603Q474 634 460 658Q445 677 421 673Q399 667 401 633Q404 597 407 563Q365 564 323 565Q266 564 253 551Q237 539 240 505Q243 487 243 448Q244 414 257 226Q257 207 259 195Q162 186 128 189Q94 193 67 162Q42 131 57 109Q78 88 114 105Q147 118 200 137Q254 153 359 165Q470 174 584 166Q692 160 753 145Q820 129 891 97Q921 84 943 104Q959 117 977 147Q987 165 965 168Q845 186 743 196M607 236Q606 281 607 351Q677 352 706 345Q702 290 695 220Q694 210 695 200Q646 206 604 207Q607 220 607 236M312 237Q305 286 301 344Q328 348 412 350Q411 310 411 262Q408 228 412 207Q360 207 307 200Q311 213 312 237M465 242Q461 285 460 351Q481 352 507 352Q534 353 559 352Q556 309 554 259Q550 229 552 209Q509 210 463 208Q464 221 465 242M296 432Q293 481 297 490Q306 508 410 513Q411 485 412 457Q412 426 412 391Q331 392 298 397Q298 397 297 397Q296 415 296 432M459 503Q459 510 459 516Q468 517 479 517Q525 520 564 519Q564 488 564 456Q563 425 561 391Q536 392 506 391Q481 391 459 391Q459 442 459 503M612 501Q612 510 613 518Q688 515 710 495Q714 489 712 445Q711 423 709 396Q684 395 608 392Q609 441 612 501M379 87Q367 71 323 46Q280 24 234 18Q210 14 207-6Q203-25 219-39Q237-57 267-51Q285-47 330-18Q361 1 395 41Q429 81 427 99Q424 115 409 115Q396 114 379 87M627 102Q615 114 603 105Q593 98 606 76Q622 46 669-1Q703-35 735-49Q760-59 784-39Q797-26 796-4Q793 20 757 29Q724 39 692 58Q655 80 627 102L627 102Z"  horiz-adv-x="1024" vert-adv-y="1024"  />

      
      <glyph glyph-name="uni7535" unicode="&#x7535;" d="M482 120Q478 163 478 200Q584 199 656 178Q683 171 702 180Q723 190 735 222Q751 283 756 350Q760 408 772 444Q785 469 777 484Q770 494 750 507Q723 520 644 522Q560 525 481 524Q485 566 496 595Q506 623 476 654Q455 676 439 667Q420 657 426 632Q429 620 432 584Q433 562 433 523Q372 524 315 521Q269 520 213 516Q173 515 160 498Q153 485 163 457Q172 423 196 223Q203 186 220 174Q233 164 254 175Q305 197 433 199Q433 198 433 193Q429 123 433 84Q445 38 480 23Q631-26 843-45Q903-61 934-17Q962 14 972 53Q981 87 949 70Q894 37 854 32Q793 23 726 26Q618 32 547 54Q487 72 482 120M433 238Q361 238 283 232Q258 231 251 233Q244 237 240 254Q234 291 230 323Q282 330 434 331Q433 288 433 238M476 332Q650 333 700 324Q696 290 688 252Q685 242 678 238Q671 234 636 235Q563 241 478 239Q477 291 476 332M434 371Q287 370 226 377Q225 408 227 437Q226 452 230 458Q234 465 254 468Q312 475 434 475Q434 432 434 371M477 475Q550 476 645 474Q685 473 698 466Q708 459 707 442Q708 412 706 378Q655 374 476 371Q475 438 477 475L477 475Z"  horiz-adv-x="1024" vert-adv-y="1024"  />

      
      <glyph glyph-name="uni4E01" unicode="&#x4E01;" d="M503 520Q500 501 507 468Q510 245 498 208Q488 163 465 131Q444 97 405 76Q365 54 317 46Q262 37 229 43Q207 46 196 36Q186 23 197 2Q209-20 225-29Q240-36 262-35Q347-26 430 26Q482 59 510 101Q534 132 546 179Q562 231 563 403Q562 466 569 489Q573 507 572 517Q666 513 734 501Q810 489 850 474Q881 464 902 471Q923 480 936 493Q964 527 962 537Q959 547 930 549Q893 542 786 550Q611 559 483 558Q383 559 269 557Q188 557 138 555Q107 554 86 533Q64 512 64 492Q65 477 79 470Q92 463 141 479Q216 501 317 511Q416 518 485 521Q494 521 503 520L503 520Z"  horiz-adv-x="1024" vert-adv-y="1024"  />

      
      <glyph glyph-name="uni5B9A" unicode="&#x5B9A;" d="M773 516Q779 513 783 500Q792 478 794 454Q795 423 802 404Q806 376 814 369Q823 363 832 364Q839 365 849 376Q861 392 862 414Q862 433 856 447Q855 454 852 470Q851 483 851 493Q852 512 845 527Q838 546 810 560Q774 579 723 579Q638 580 508 580Q509 581 510 583Q522 608 526 629Q527 672 499 683Q465 693 450 675Q444 663 462 628Q475 609 475 581Q474 581 474 580Q474 581 473 580Q346 581 246 577Q188 576 172 562Q153 546 146 510Q133 449 129 409Q128 372 134 359Q141 346 156 343Q169 342 181 352Q194 365 193 403Q192 449 195 476Q196 495 205 507Q215 520 274 527Q341 536 461 535Q596 536 669 532Q753 528 773 516M457 78Q559 53 639 24Q702 3 801-47Q852-80 893-63Q929-45 959-18Q975-2 954 4Q827 23 764 41Q691 63 570 92Q549 98 528 102Q528 103 528 106Q525 125 524 211Q549 215 586 216Q635 217 655 213Q682 209 698 220Q710 230 715 248Q718 261 707 268Q697 272 669 272Q635 271 582 268Q542 267 527 265Q524 265 523 264Q522 354 527 386Q602 389 649 382Q680 376 696 386Q724 405 727 419Q728 432 695 432Q550 433 495 429Q455 430 412 429Q382 428 371 433Q341 436 309 430Q281 423 269 403Q259 384 270 369Q280 356 330 369Q376 382 468 385Q472 355 474 248Q474 148 469 116Q406 131 356 138Q329 142 309 145Q331 175 353 196Q366 208 370 222Q374 243 367 260Q361 276 348 276Q335 277 326 260Q305 223 288 196Q275 175 245 145Q217 114 179 83Q136 46 69 5Q47-8 46-28Q46-47 66-57Q85-64 113-49Q141-36 185 5Q224 42 266 91Q288 97 327 97Q373 97 457 78L457 78Z"  horiz-adv-x="1024" vert-adv-y="1024"  />

      
      <glyph glyph-name="uni8BA2" unicode="&#x8BA2;" d="M695 492Q692 455 695 391Q699 255 699 128Q700 71 687 44Q671 13 620 4Q563-6 526 2Q486 9 479 4Q473-3 482-16Q501-35 537-47Q604-65 664-54Q718-44 738-6Q751 22 748 116Q744 327 751 399Q755 439 760 460Q764 473 763 485Q794 481 817 475Q854 465 892 445Q919 433 939 452Q952 464 969 490Q979 506 959 509Q827 531 737 538Q650 544 554 536Q484 530 462 533Q443 536 426 518Q404 490 417 469Q435 451 468 466Q486 473 515 482Q545 489 603 494Q648 497 695 492M159 597Q238 591 333 579Q364 576 380 588Q389 597 380 608Q367 623 341 625Q275 632 258 638Q237 644 228 648Q203 660 187 658Q174 657 151 642Q130 626 132 613Q136 600 159 597M126 412Q101 418 80 412Q64 405 52 383Q45 365 59 351Q71 341 92 347Q117 354 143 358Q198 368 243 357Q262 353 265 324Q278 197 264 78Q261 62 250 51Q222 26 215-4Q209-29 218-41Q225-51 241-52Q253-52 263-36Q275-18 292-2Q311 14 385 52Q442 80 458 102Q471 121 470 144Q469 163 448 149Q406 121 345 96Q332 92 326 95Q317 99 317 114Q317 282 328 345Q335 370 328 385Q321 398 307 405Q285 415 251 409Q221 405 177 407Q146 408 126 412L126 412Z"  horiz-adv-x="1024" vert-adv-y="1024"  />

      
      <glyph glyph-name="uni51AC" unicode="&#x51AC;" d="M497 348Q605 276 815 115Q851 82 896 97Q959 119 973 132Q1004 157 950 165Q865 181 717 257Q608 315 524 372Q560 406 599 443Q636 480 656 498Q678 514 674 536Q670 557 636 564Q572 582 548 594Q521 610 502 639Q475 679 446 638Q431 619 407 596Q328 521 220 447Q186 425 208 404Q230 386 276 418Q295 434 312 447Q313 446 319 445Q332 444 351 435Q384 422 455 375Q439 362 422 347Q355 293 274 242Q180 185 68 140Q20 121 56 88Q89 60 150 95Q246 150 377 250Q435 293 497 348M431 441Q382 477 365 492Q377 505 389 515Q408 534 443 567Q456 579 478 580Q502 577 551 549Q576 539 580 523Q583 501 549 462Q515 431 484 400Q456 421 431 441M429 188Q398 184 378 164Q362 149 370 133Q386 114 439 128Q464 131 488 132Q509 133 532 128Q559 124 581 117Q614 110 622 125Q629 140 606 154Q594 161 546 172Q503 182 460 184Q442 185 429 188M403 21Q372 17 351-3Q335-19 343-36Q359-55 414-41Q448-35 482-31Q510-28 543-32Q580-36 612-44Q645-51 653-35Q663-19 637-5Q621 5 557 13Q500 20 444 20Q422 19 403 21L403 21Z"  horiz-adv-x="1024" vert-adv-y="1024"  />

      
      <glyph glyph-name="uni61C2" unicode="&#x61C2;" d="M240 279Q239 460 247 621Q250 657 233 676Q220 694 197 675Q184 666 187 631Q190 574 192 360Q193 170 187-6Q183-46 194-59Q215-81 229-65Q248-46 243 7Q240 71 240 279M892 18Q838 19 695 22Q692 38 691 71Q755 72 836 71Q858 70 866 80Q872 90 865 103Q858 113 832 114Q744 113 690 110Q689 132 689 157Q765 157 784 156Q818 150 837 166Q853 179 853 219Q852 265 858 306Q862 331 847 343Q828 356 791 359Q748 360 688 357Q688 382 689 402Q792 403 857 395Q887 389 902 399Q927 415 931 429Q932 442 900 442Q767 443 691 440Q692 456 696 467Q696 471 696 475Q709 476 724 478Q749 482 751 492Q752 502 741 523Q731 539 722 541Q713 544 699 530Q695 526 684 522Q665 516 590 501Q565 497 542 492Q524 491 522 485Q519 476 538 472Q551 468 570 468Q595 468 628 469Q628 468 629 465Q630 455 631 438Q582 439 531 438Q491 437 477 443Q449 446 419 440Q392 433 380 414Q371 398 381 383Q391 370 438 382Q504 398 632 402L633 402Q633 383 635 357Q622 358 608 357Q550 357 506 355Q487 356 477 348Q464 335 467 312Q468 302 468 292Q468 267 469 239Q470 214 471 195Q471 162 489 151Q501 144 537 151Q573 158 637 158Q636 133 636 110Q632 110 629 110Q593 110 493 113Q465 113 457 99Q451 90 456 81Q463 68 488 69Q542 70 634 70Q633 40 629 24Q575 25 448 21Q426 22 408 21Q372 20 347 1Q325-18 336-37Q346-53 384-46Q466-30 631-28Q697-27 783-30Q841-34 905-54Q935-66 951-50Q973-31 991-4Q1003 17 978 16Q953 15 892 18M637 241Q637 219 637 198Q586 197 557 195Q532 194 523 202Q517 206 515 237Q545 243 637 242Q636 242 637 241M689 241Q688 242 688 243Q781 244 805 238Q804 214 798 207Q785 197 757 199Q727 200 689 199Q689 218 689 241M636 275Q548 275 512 279Q512 309 517 312Q526 322 636 321Q636 300 636 275M688 322Q785 325 798 316Q804 312 804 278Q776 277 688 275Q687 300 688 322M99 437Q103 410 88 346Q70 285 36 235Q24 217 34 202Q44 189 63 189Q85 188 102 211Q115 232 131 300Q143 348 138 417Q135 465 123 475Q110 484 100 474Q93 465 99 437M337 381Q333 397 332 411Q329 432 302 442Q283 448 271 438Q261 429 268 412Q280 390 290 361Q302 324 307 298Q311 276 322 268Q332 264 341 273Q351 286 346 313Q342 365 337 381M935 628Q871 629 821 627Q824 636 827 640Q834 656 820 669Q804 682 786 675Q767 666 770 645Q770 639 770 627Q697 628 656 624Q616 625 574 624Q575 637 578 645Q582 661 568 671Q540 686 518 670Q508 661 515 641Q516 634 520 624Q493 624 483 629Q450 632 415 626Q384 617 369 596Q359 575 370 558Q383 543 437 558Q474 568 529 572Q529 569 530 565Q534 531 543 519Q553 507 563 515Q576 524 574 558Q573 568 573 576Q604 580 644 580Q713 581 769 580Q768 567 768 547Q767 525 772 517Q779 504 794 513Q803 517 805 545Q806 564 810 578Q850 577 884 572Q918 566 937 577Q967 598 970 613Q974 628 935 628L935 628Z"  horiz-adv-x="1024" vert-adv-y="1024"  />

      
      <glyph glyph-name="uni6597" unicode="&#x6597;" d="M322 525Q392 512 433 496Q458 489 471 495Q481 502 476 516Q469 532 440 542Q346 576 316 582Q285 589 260 599Q238 606 214 585Q198 570 201 553Q204 537 225 536Q271 535 322 525M306 367Q376 361 418 351Q443 347 456 355Q465 362 459 376Q450 392 420 398Q323 422 293 423Q263 427 237 433Q213 437 192 414Q179 398 183 381Q187 366 209 367Q254 371 306 367M562 219Q563 110 566-11Q565-44 580-58Q596-71 613-58Q625-48 624-12Q621 112 619 216Q692 210 741 198Q808 183 876 152Q907 139 930 159Q946 172 965 203Q975 222 953 225Q758 255 619 262Q616 479 624 605Q627 645 614 659Q590 677 576 664Q563 652 563 609Q562 450 562 264Q429 270 281 254Q166 241 128 245Q94 249 68 219Q43 186 57 163Q79 141 116 159Q147 172 200 191Q252 207 355 218Q457 227 562 219L562 219Z"  horiz-adv-x="1024" vert-adv-y="1024"  />

      
      <glyph glyph-name="uni5EA6" unicode="&#x5EA6;" d="M295 537Q560 546 667 545Q763 545 798 541Q829 537 839 550Q852 569 836 585Q817 601 681 595Q611 594 553 592Q563 613 567 629Q568 672 540 683Q506 693 491 675Q485 663 503 628Q513 613 515 592Q367 591 290 597Q265 598 241 589Q223 582 215 567Q208 554 212 531Q218 494 220 468Q220 347 215 290Q208 223 182 176Q158 130 52 40Q25 18 38-5Q47-18 61-21Q77-22 96-11Q121 5 152 37Q195 82 222 133Q250 190 261 276Q273 367 273 503Q272 522 275 529Q281 535 295 537M594 77Q604 87 619 96Q674 142 703 185Q721 213 714 228Q705 247 676 254Q649 255 630 253Q609 252 553 252Q487 252 455 261Q437 264 410 239Q386 215 394 198Q398 191 415 190Q433 189 466 195Q506 202 548 207Q597 211 632 212Q639 211 643 206Q644 200 642 190Q618 156 577 122Q561 110 544 98Q525 108 499 119Q429 153 402 174Q386 184 370 178Q358 171 359 155Q362 139 378 131Q400 119 500 74Q491 71 484 67Q423 39 364 28Q312 21 266 26Q250 27 244 16Q240 6 247-11Q253-27 264-36Q274-43 300-43Q343-42 395-26Q447-10 506 22Q528 35 553 49Q560 48 568 43Q757-39 844-66Q869-76 895-59Q955-16 956-3Q957 6 943 7Q840 11 738 36Q645 58 594 77M684 407Q717 406 749 396Q792 386 817 408Q835 426 833 440Q830 462 754 457Q733 457 690 454Q691 464 694 468Q701 492 680 518Q670 528 656 521Q644 514 642 480Q641 467 641 453Q613 454 577 452Q516 451 469 452Q469 467 470 475Q471 502 450 520Q437 530 422 520Q412 514 417 481Q418 468 422 452Q385 453 364 456Q327 460 306 438Q293 420 295 406Q299 384 333 393Q361 400 401 403Q414 404 428 404Q429 376 433 338Q433 313 440 306Q449 299 469 303Q527 313 632 303Q659 302 668 320Q677 339 681 380Q682 395 684 407M489 347Q473 350 471 378Q470 394 470 406Q575 413 640 410Q639 382 638 370Q634 348 623 346Q559 336 489 347L489 347Z"  horiz-adv-x="1024" vert-adv-y="1024"  />

      
      <glyph glyph-name="uni5BF9" unicode="&#x5BF9;" d="M288 216Q340 161 376 95Q386 74 407 76Q426 77 435 97Q448 118 434 145Q415 181 330 257Q327 260 324 262Q349 299 374 342Q408 411 420 465Q430 496 420 510Q407 525 376 526Q352 527 335 527Q316 528 267 531Q209 535 180 544Q164 547 137 524Q115 500 122 485Q126 478 141 477Q157 476 187 479Q224 483 260 486Q303 487 334 486Q350 487 358 477Q365 467 361 445Q352 402 326 352Q308 322 285 292Q239 326 171 358Q123 380 107 375Q91 368 96 353Q100 341 130 331Q172 321 251 252Q205 203 155 170Q106 140 59 127Q41 123 41 109Q42 96 56 83Q69 70 83 66Q96 63 121 74Q163 93 206 130Q248 164 288 216M619 182Q647 170 659 177Q669 184 660 193Q603 235 582 276Q567 307 543 311Q518 314 510 297Q500 275 518 249Q551 213 619 182M759 406Q766 133 756 91Q740 54 695 38Q643 19 564 15Q540 16 524 22Q499 29 494 13Q488 0 507-24Q529-49 554-53Q642-49 712-14Q782 19 804 73Q817 110 814 173Q808 323 807 402Q819 401 832 399Q860 395 879 388Q912 376 942 395Q966 413 981 440Q991 458 963 458Q900 457 806 458Q806 461 807 463Q810 535 820 592Q827 626 808 648Q792 667 771 658Q750 646 752 608Q755 527 757 458Q688 459 605 459Q562 460 531 465Q488 474 459 455Q434 436 436 415Q440 393 474 398Q589 408 681 411Q718 410 759 406L759 406Z"  horiz-adv-x="1024" vert-adv-y="1024"  />

      
      <glyph glyph-name="uni9041" unicode="&#x9041;" d="M169 584Q215 572 232 562Q247 553 261 554Q271 554 274 566Q275 582 257 596Q233 612 213 635Q191 663 156 647Q125 631 127 609Q131 591 169 584M421 71Q566 53 786-43Q829-64 885-49Q931-36 956-16Q978 2 978 12Q978 25 946 26Q790 30 684 55Q503 100 376 115Q249 133 184 132Q168 129 166 144Q173 163 195 186Q214 205 236 239Q246 257 239 269Q232 279 208 280Q189 279 158 297Q151 300 145 302Q178 324 204 353Q250 405 249 426Q250 447 219 466Q207 472 175 474Q138 477 121 487Q100 497 75 473Q59 457 59 440Q60 422 84 429Q109 441 123 444Q139 448 155 445Q183 432 181 416Q181 398 153 359Q131 334 108 312Q108 313 108 313Q96 310 82 298Q69 285 70 275Q71 263 90 258Q121 248 163 247Q176 248 180 246Q183 242 178 233Q141 197 125 161Q112 139 111 122Q114 104 131 93Q153 83 175 83Q302 90 421 71M650 625Q663 629 675 631Q706 638 726 641Q756 642 761 664Q764 686 755 705Q745 726 724 713Q706 701 671 688Q626 672 552 658Q494 648 436 648Q423 648 420 640Q410 644 396 635Q383 626 390 603Q396 584 398 562Q405 459 394 410Q384 361 354 324Q320 281 289 260Q265 244 278 227Q288 214 311 207Q330 201 351 220Q394 274 418 328Q439 377 446 459Q446 472 447 484Q457 484 471 490Q487 496 514 505Q541 512 592 517Q593 518 597 517Q597 468 594 453Q593 452 593 449Q565 448 555 450Q536 451 520 441Q510 435 506 417Q503 395 506 204Q507 170 518 156Q531 135 558 138Q606 144 751 140Q779 137 799 153Q815 166 814 205Q813 224 814 241Q815 281 814 339Q813 373 814 398Q817 423 805 436Q796 446 763 447Q705 451 649 449Q648 462 648 518Q675 519 703 516Q755 512 786 505Q820 496 854 480Q879 470 897 486Q910 498 925 522Q934 537 916 539Q796 558 714 561Q681 564 647 562Q647 602 650 616Q650 620 650 625M544 615Q569 616 593 618Q593 617 594 614Q595 602 596 560Q572 560 549 557Q485 550 465 551Q455 552 447 548Q447 549 447 551Q446 573 444 596Q445 609 441 620Q481 611 544 615M763 274Q735 273 662 272Q580 271 551 275Q550 291 550 309Q550 313 550 317Q572 321 660 322Q738 322 763 318Q763 297 763 274M756 195Q740 189 657 188Q569 187 560 195Q556 198 553 233Q578 237 662 238Q738 239 763 235Q762 202 756 195M643 410Q743 410 756 401Q763 397 763 358Q738 357 660 356Q578 355 550 359Q551 399 556 403Q560 410 643 410L643 410Z"  horiz-adv-x="1024" vert-adv-y="1024"  />

      
      <glyph glyph-name="uni591A" unicode="&#x591A;" d="M470 433Q436 420 399 406Q329 384 249 371Q203 365 228 328Q250 297 312 315Q384 337 486 385Q498 391 513 397Q519 394 525 391Q538 385 548 393Q555 400 551 413Q550 414 550 416Q601 444 662 481Q693 500 709 509Q725 516 726 533Q727 554 696 570Q641 592 621 607Q599 625 585 651Q567 694 532 662Q514 647 487 631Q363 571 207 519Q170 509 184 484Q197 462 250 478Q320 505 375 528Q394 522 421 494Q440 470 456 450Q463 441 470 433M512 595Q531 602 554 595Q573 592 611 565Q636 555 641 540Q640 525 611 506Q565 479 524 457Q472 512 450 535Q440 545 434 557Q464 573 512 595M551 119Q478 88 399 60Q297 29 180 11Q129 5 156-36Q181-72 249-52Q352-22 500 42Q540 60 584 81Q591 71 599 61Q615 42 631 39Q643 40 647 54Q650 72 631 96Q628 100 626 102Q687 135 754 173Q799 201 821 212Q846 222 847 244Q847 265 817 280Q765 308 748 324Q729 343 719 371Q703 416 665 385Q646 370 616 354Q459 276 260 209Q221 197 236 172Q251 148 305 167Q381 195 442 221Q479 194 519 154Q535 136 551 119M531 263Q573 282 642 317Q660 324 681 319Q699 315 731 285Q753 269 753 254Q752 232 709 204Q651 170 598 141Q561 190 545 206Q523 230 507 251Q519 258 531 263L531 263Z"  horiz-adv-x="1024" vert-adv-y="1024"  />

      
      <glyph glyph-name="uni8BB9" unicode="&#x8BB9;" d="M455 258Q455 132 451 14Q447-26 458-39Q479-61 493-45Q512-26 507 27Q506 69 506 205Q505 323 511 429Q512 463 499 481Q529 521 559 577Q581 620 577 637Q571 652 556 648Q546 644 535 616Q525 582 465 521Q407 463 336 429Q315 419 317 401Q318 382 335 373Q354 360 382 372Q404 384 451 429Q452 386 455 258M883-36Q919-42 947-9Q966 16 977 56Q981 87 957 73Q923 52 884 43Q856 40 813 44Q765 50 745 58Q729 64 722 77Q709 104 712 146Q712 228 712 293Q791 327 903 382Q930 397 928 409Q927 422 906 441Q888 456 877 456Q867 455 853 435Q849 425 832 413Q804 394 712 342Q713 511 720 537Q729 565 717 590Q707 608 680 603Q656 596 658 562Q665 495 663 315Q629 299 601 283Q582 274 580 268Q580 256 603 258Q625 259 658 272Q659 273 662 273Q661 213 660 141Q659 83 677 51Q690 27 714 16Q793-15 883-36M143 585Q213 581 297 571Q330 567 344 580Q353 589 344 600Q331 615 305 617Q251 624 237 628Q219 632 212 636Q187 648 171 646Q158 645 135 630Q114 614 116 601Q120 588 143 585M126 456Q101 462 80 456Q64 449 52 427Q45 409 59 395Q71 385 92 391Q117 398 143 402Q170 406 191 401Q210 397 213 368Q228 232 212 106Q209 90 197 80Q169 55 161 26Q155 1 163-11Q170-21 186-22Q198-23 209-7Q221 11 238 26Q254 38 321 67Q372 88 387 107Q402 125 402 148Q402 167 380 154Q343 135 289 121Q279 120 274 123Q265 127 265 143Q264 321 276 389Q283 414 276 429Q269 442 255 449Q233 459 200 453Q182 452 156 453Q137 453 126 456Z"  horiz-adv-x="1024" vert-adv-y="1024"  />

      
      <glyph glyph-name="uni4E8C" unicode="&#x4E8C;" d="M436 438Q559 438 663 432Q697 428 711 445Q721 460 713 476Q704 489 667 488Q537 484 465 487Q407 491 345 502Q317 506 290 477Q271 455 281 437Q293 419 332 429Q369 439 436 438M859 98Q893 85 912 103Q937 124 958 156Q971 180 943 179Q913 178 844 180Q751 184 472 190Q391 191 208 186Q175 187 151 186Q111 185 81 163Q56 141 68 120Q81 101 123 110Q238 132 472 135Q565 136 687 132Q769 125 859 98L859 98Z"  horiz-adv-x="1024" vert-adv-y="1024"  />

      
      <glyph glyph-name="uni4E4F" unicode="&#x4E4F;" d="M575 648Q565 638 544 631Q501 615 345 582Q290 572 242 562Q220 559 217 553Q214 541 237 537Q262 533 302 536Q420 546 608 584Q638 591 640 603Q643 616 627 640Q614 659 604 662Q594 665 575 648M232 154Q266 153 450 94Q598 45 776-34Q831-56 864-48Q918-32 954 7Q976 31 931 34Q888 35 809 51Q731 61 482 125Q394 147 341 165Q365 177 403 198Q536 268 666 325Q727 353 740 356Q776 363 777 385Q776 403 753 419Q729 435 709 425Q682 413 628 414Q552 408 472 401Q473 408 475 418Q476 437 485 459Q489 484 476 511Q463 533 442 522Q417 507 425 468Q435 438 440 405Q440 402 440 398Q415 398 389 395Q307 391 277 394Q220 397 200 386Q172 370 170 355Q169 339 187 331Q208 324 239 333Q279 342 591 369Q621 372 621 367Q622 363 601 353Q501 298 347 222Q298 200 283 183Q255 192 212 199Q176 209 155 181Q124 138 106 122Q82 101 83 80Q84 56 97 47Q110 34 130 39Q146 43 158 79Q162 100 178 126Q182 136 196 144Q209 151 232 154L232 154Z"  horiz-adv-x="1024" vert-adv-y="1024"  />

      
      <glyph glyph-name="uni6CD5" unicode="&#x6CD5;" d="M150 517Q219 498 244 481Q259 472 274 473Q284 474 285 486Q286 502 268 515Q228 537 193 568Q171 596 136 580Q105 564 107 541Q111 525 150 517M103 280Q164 284 190 280Q208 277 221 282Q230 286 228 298Q224 314 202 320Q162 327 126 343Q95 361 68 334Q43 309 54 289Q64 274 103 280M279 96Q150 44 110 30Q76 17 81-9Q85-28 100-41Q116-56 145-36Q182-8 284 63Q309 78 307 94Q304 107 279 96M562 291Q561 287 561 283Q494 284 427 275Q336 265 306 267Q279 270 259 246Q234 215 249 194Q268 175 304 191Q328 201 368 215Q408 227 487 236Q518 240 553 239Q552 235 549 227Q545 217 526 197Q501 175 485 163Q431 123 384 81Q344 41 353 12Q360-10 388-27Q416-43 458-44Q596-50 736-34Q773-25 785-32Q800-42 816-33Q831-27 830-1Q821 33 754 114Q717 162 697 176Q681 189 672 193Q654 200 648 191Q639 176 664 147Q731 71 751 21Q750 14 736 15Q660 8 574 5Q480 4 445 16Q433 25 431 36Q430 48 446 65Q519 119 561 150Q577 163 591 176Q609 197 616 222Q617 231 619 239Q637 240 656 238Q737 234 782 222Q834 210 886 186Q914 174 936 193Q952 206 969 234Q979 252 958 255Q784 280 666 284Q644 285 621 285Q621 292 621 300Q615 337 617 424Q653 424 678 421Q720 417 772 405Q785 402 798 410Q811 417 814 429Q818 445 814 453Q807 462 786 463Q692 469 619 469Q619 566 627 618Q630 643 619 656Q601 672 587 673Q569 674 559 659Q550 641 556 614Q562 590 563 470Q472 470 403 464Q364 461 353 448Q337 429 352 414Q365 398 404 409Q429 415 470 420Q507 424 564 425Q565 322 563 295Q562 294 562 291L562 291Z"  horiz-adv-x="1024" vert-adv-y="1024"  />

      
      </font>
</defs>
</svg>
