<?xml version="1.0" standalone="no"?>
<!DOCTYPE svg PUBLIC "-//W3C//DTD SVG 1.1//EN" "http://www.w3.org/Graphics/SVG/1.1/DTD/svg11.dtd" >
<!--
2013-9-30: Created.
-->
<svg>
<metadata>
Created by iconfont
</metadata>
<defs>

<font id="iconfont" horiz-adv-x="1024" >
  <font-face
    font-family="iconfont"
    font-weight="500"
    font-stretch="normal"
    units-per-em="1024"
    ascent="896"
    descent="-128"
  />
    <missing-glyph />
    
    <glyph glyph-name="x" unicode="x" horiz-adv-x="1001"
d="M281 543q-27 -1 -53 -1h-83q-18 0 -36.5 -6t-32.5 -18.5t-23 -32t-9 -45.5v-76h912v41q0 16 -0.5 30t-0.5 18q0 13 -5 29t-17 29.5t-31.5 22.5t-49.5 9h-133v-97h-438v97zM955 310v-52q0 -23 0.5 -52t0.5 -58t-10.5 -47.5t-26 -30t-33 -16t-31.5 -4.5q-14 -1 -29.5 -0.5
t-29.5 0.5h-32l-45 128h-439l-44 -128h-29h-34q-20 0 -45 1q-25 0 -41 9.5t-25.5 23t-13.5 29.5t-4 30v167h911zM163 247q-12 0 -21 -8.5t-9 -21.5t9 -21.5t21 -8.5q13 0 22 8.5t9 21.5t-9 21.5t-22 8.5zM316 123q-8 -26 -14 -48q-5 -19 -10.5 -37t-7.5 -25t-3 -15t1 -14.5
t9.5 -10.5t21.5 -4h37h67h81h80h64h36q23 0 34 12t2 38q-5 13 -9.5 30.5t-9.5 34.5q-5 19 -11 39h-368zM336 498v228q0 11 2.5 23t10 21.5t20.5 15.5t34 6h188q31 0 51.5 -14.5t20.5 -52.5v-227h-327z" />
    

    
    <glyph glyph-name="xingxing" unicode="&#58930;" d="M512.005628 725.677982 619.43129 417.116371l340.15005-2.428306L696.758446 206.563958 800.160467-125.679006 512.005628 72.292881 223.851812-125.679006l96.717785 336.665693L64.416614 414.688065l340.16233 2.428306L512.005628 725.677982z"  horiz-adv-x="1024" />

    
    <glyph glyph-name="xingxing1" unicode="&#58924;" d="M778.479-118.496c-12.288 0-24.576 3.071-37.888 10.239l-206.849 108.544c-5.12 3.072-12.288 5.12-20.479 5.12-7.168 0-15.36-2.048-20.48-4.096l-205.824-109.568c-12.288-7.168-24.576-10.239-38.912-10.239-24.576 0-48.128 11.264-64.513 29.695-16.384 18.433-22.527 43.008-18.432 67.584l39.937 229.376c2.048 14.336-3.072 28.672-13.313 38.912l-165.887 160.769c-23.552 22.527-31.744 55.296-21.504 86.016 10.239 30.721 35.84 52.225 67.584 57.345l229.376 33.792c14.336 2.048 27.647 11.264 33.791 23.552l102.4 208.896c14.336 28.672 43.008 46.08 74.752 46.08s60.416-17.408 74.752-46.08l102.4-208.896c7.168-13.313 19.456-21.504 33.792-23.552l229.377-33.793c31.744-5.12 57.344-26.624 67.584-56.32 10.24-30.72 2.048-63.488-20.48-86.017l-164.864-161.791c-11.265-10.24-15.36-24.576-13.313-38.912l38.912-228.352c4.096-24.576-2.048-49.152-18.432-67.584-15.359-19.456-38.911-30.72-63.487-30.72z"  horiz-adv-x="1025" />

    
    <glyph glyph-name="suo" unicode="&#58913;" d="M812.864 509.12 211.2 509.12c-42.56 0-77.376-34.816-77.376-77.376l0-481.28c0-42.496 34.816-77.376 77.376-77.376l601.664 0c42.432 0 77.248 34.88 77.248 77.376l0 481.28C890.112 474.304 855.296 509.12 812.864 509.12zM560 233.088l0.192-156.096C560.256 37.44 556.032 6.4 512 6.4c-43.968 0-47.744 32.064-47.744 71.488l-1.152 155.2c0 0-30.848 27.136-30.848 73.664C432.256 353.28 468.032 378.24 512 378.24c44.032 0 79.744-25.92 79.744-71.488C591.744 261.12 560 233.088 560 233.088zM663.296 577.152 663.296 667.968C663.168 751.36 595.328 819.136 512.064 819.264 428.672 819.136 360.832 751.36 360.768 667.968l0-90.816L285.12 577.152 285.12 667.968C285.184 793.024 386.944 894.784 512 894.848c125.056-0.064 226.88-101.824 226.88-226.88l0-90.816L663.296 577.152z"  horiz-adv-x="1024" />

    
    <glyph glyph-name="xingxing2" unicode="&#58914;" d="M509.956458 770.299113l126.648468-241.487983 257.600963-52.040237L714.888873 275.488611l32.546254-273.694499-237.478669 117.137861-237.491972-117.137861 32.558533 273.694499L125.700887 476.770893l257.600963 52.040237L509.956458 770.299113"  horiz-adv-x="1024" />

    
    <glyph glyph-name="xiala" unicode="&#58923;" d="M513.575051 101.473393a43.328357 43.328357 0 0 0-30.944698 12.997785L13.604685 592.600353a43.350032 43.350032 0 0 0 61.89662 60.711719L513.575051 206.734495l438.080971 446.584802a43.350032 43.350032 0 0 0 61.889395-60.711719L544.519749 114.471178a43.357257 43.357257 0 0 0-30.944698-12.997785z"  horiz-adv-x="1025" />

    
    <glyph glyph-name="finish" unicode="&#58969;" d="M879.7 702.2l-495-495-240.4 240.4-70.7-70.7 311.1-311.1 565.7 565.7z"  horiz-adv-x="1024" />

    
    <glyph glyph-name="btn_pay_sel" unicode="&#58886;" d="M402.204444 228.096l-170.097777 170.097778a48.128 48.128 0 0 1-67.811556-0.113778 47.786667 47.786667 0 0 1-0.085333-67.783111l203.832889-203.861333c7.224889-7.196444 16.270222-11.605333 25.742222-13.226667a47.900444 47.900444 0 0 1 42.695111 13.425778l415.772444 415.772444c18.773333 18.773333 18.944 49.066667 0.085334 67.953778a47.843556 47.843556 0 0 1-67.982222-0.085333L402.204444 228.12444400000004zM512-128C229.233778-128 0 101.23377800000003 0 384S229.233778 896 512 896s512-229.233778 512-512-229.233778-512-512-512z"  horiz-adv-x="1024" />

    
    <glyph glyph-name="weixin" unicode="&#58887;" d="M692.224 547.8399999999999c12.288 0 22.528 0 34.816-2.048-30.72 147.456-186.368 256-364.544 256C163.84 801.792 0 664.576 0 492.544c0-100.352 55.296-182.272 145.408-243.712L108.544 138.24l126.976 63.488c45.056-8.192 81.92-18.432 126.976-18.432 12.288 0 22.528 0 34.816 2.048-6.144 24.576-10.24 49.152-10.24 75.776-2.048 159.744 133.12 286.72 305.152 286.72z m-194.56 98.304c26.624 0 45.056-18.432 45.056-45.056s-18.432-45.056-45.056-45.056-55.296 18.432-55.296 45.056c2.048 28.672 28.672 45.056 55.296 45.056z m-253.952-90.112c-26.624 0-55.296 18.432-55.296 45.056s26.624 45.056 55.296 45.056c26.624 0 45.056-18.432 45.056-45.056 2.048-26.624-16.384-45.056-45.056-45.056zM1024 265.216c0 145.408-145.408 262.144-307.2 262.144-172.032 0-309.248-118.784-309.248-262.144 0-145.408 135.168-262.144 309.248-262.144 36.864 0 71.68 8.192 108.544 18.432l100.352-55.296-26.624 90.112C970.752 111.61599999999999 1024 185.34400000000005 1024 265.216zM616.448 312.32000000000005c-18.432 0-36.864 18.432-36.864 36.864s18.432 36.864 36.864 36.864c26.624 0 45.056-18.432 45.056-36.864 0-20.48-18.432-36.864-45.056-36.864z m198.656 0c-18.432 0-36.864 18.432-36.864 36.864s18.432 36.864 36.864 36.864c26.624 0 45.056-18.432 45.056-36.864 0-20.48-18.432-36.864-45.056-36.864z"  horiz-adv-x="1024" />

    
    <glyph glyph-name="CombinedShapeCopy" unicode="&#58888;" d="M436.380444 363.548444l-223.857777-216.177777a45.511111 45.511111 0 0 1-1.052445-64.369778 45.539556 45.539556 0 0 1 64.355556-1.208889l226.161778 218.396444 226.147555-218.396444a45.539556 45.539556 0 0 1 64.355556 1.208889 45.511111 45.511111 0 0 1-1.038223 64.355555l-223.857777 216.177778 223.857777 216.192a45.511111 45.511111 0 0 1 1.038223 64.355556 45.539556 45.539556 0 0 1-64.355556 1.208889L501.987556 426.894222 275.825778 645.290667a45.539556 45.539556 0 0 1-64.355556-1.208889 45.511111 45.511111 0 0 1 1.038222-64.355556l223.857778-216.177778zM512-128C229.233778-128 0 101.23377800000003 0 384S229.233778 896 512 896s512-229.233778 512-512-229.233778-512-512-512z"  horiz-adv-x="1024" />

    
    <glyph glyph-name="icon-right" unicode="&#58891;" d="M725.991473 382.612968C857.983985 258.718958 989.584634 149.421843 1077.623183 111.672376c-158.312642-138.621528-228.586736-195.931488-228.586736-195.931488-34.157389 34.157389-144.401506 168.501079-290.892949 310.845306C438.037496 110.039614 327.205585-10.719493 261.241984-116.91436c-98.880091 98.880091-117.16703 177.08941-261.241984 228.586736 67.171845 44.051929 202.78909 164.190587 347.778391 299.089416C236.228064 496.775715 116.61189 568.911158 0 601.501095l261.241984 261.241984s115.632233-130.35975 264.932026-283.382242A20209.222684 20209.222684 0 0 1 816.381199 862.743079s153.087802-149.234483 293.897232-130.620992c0-23.217881-182.575491-168.599045-384.286958-349.509119z"  horiz-adv-x="1134" />

    
    <glyph glyph-name="icon-vs" unicode="&#58892;" d="M402.243148 56.655738c3.113967 17.424787 2.031213 16.148984 8.376655 25.180328 8.074492 6.932984 15.183738 14.814426 25.104787 16.786885 15.401967 3.063607 34.455082-1.149902 50.226361 8.393442l8.368262 25.180328 217.633574 125.90164v25.180328l-133.925771 25.180327c-9.501377 16.778492-24.399738 48.656787-41.849705 58.754099-1.905311-45.777836-13.60577-137.912656-25.11318-159.47541-11.692066-16.837246-11.264-17.340852-33.481442-25.180328v8.393443c-28.327869 28.974164-46.130361 35.160131-50.226361 50.360655-5.85023 21.730623 8.292721 51.17482-8.368262 100.721312-13.622557 40.515148-44.930098 107.394098-66.962886 151.081967-12.380328 24.534033-18.037508 24.592787-25.255869 50.39423-4.616393 16.493115-7.604459 33.25482-8.225573 50.327082 11.02059 11.465443 17.752131 26.691148 25.104787 41.967213 21.982426-5.422164 25.57482-2.123541 58.594623 0 34.715279-59.836852 36.662557-182.045377 75.339541-235.016394v8.393443l83.707803 243.409836c36.08341 32.054557 70.41259 54.406295 124.029901 125.179803C714.966033 816.900197 757.621508 853.856525 778.924066 896h8.368262v-25.180328c-10.256787-14.193311-45.551213-72.745967-50.226361-83.934426v-41.967213c-24.257049-35.62177-67.928131-33.044984-83.69941-83.934426h8.368263c7.260328 9.99659 6.882623 9.442623 16.736524 16.786885v-25.180328c-34.757246-37.057049-108.099148-161.25482-117.180852-218.229508h8.368262v8.393442c25.180328 23.216262 51.032131 61.330885 83.707803 75.540984 41.010361 17.844459 77.597377-9.568525 117.180853 0 22.956066 5.548066 54.507016 30.333902 75.339541 41.967213v-83.934426c5.892197-10.810754-3.080393-27.287082-8.368262-50.360656-26.002885-17.575869-28.613246-34.354361-66.971279-41.967213-23.837377 26.573639-47.985311 51.963803-92.076066 58.754098-12.934295-18.91882-26.565246-22.158689-33.481442-33.57377-11.80118-19.48118-11.448656-41.337705-8.368263-50.360656 3.416131-9.988197 11.708852-15.301246 25.113181-16.786885 14.848-1.645115 35.395148-7.327475 50.217967-8.393443 15.427148-1.107934 34.362754 4.31423 50.226361 0 42.890492-11.666885 89.490885-61.784131 66.962885-109.114754-14.386361-30.241574-56.269639-47.657967-125.557508-100.721311-43.612328-33.405902-98.27882-81.231738-133.925771-92.327869-16.593836 2.241049-74.861115-16.031475-37.64459 15.276065 18.683803 15.720918 0.99882 14.000262-29.318295-6.882623-28.898623-19.900852-37.879607-12.808393-58.594623-16.786885-27.203148-5.220721-39.625443-20.135869-58.594623-25.180328v-8.393442h16.736525c9.652459 6.89941 10.382689 3.944918 33.481442 8.393442v-16.786885h-8.368262c-15.217311-14.100984-43.008-21.067541-66.962885-33.57377-24.458492-12.766426-45.190295-31.022164-72.939017-41.329312-8.510951-3.155934-27.421377 2.241049-35.881967-0.637902-30.837508-10.50859-50.385836-27.496918-75.331148-33.57377v16.786885c17.021902 5.229115 26.456131 5.271082 33.481443 16.786885 13.160918 21.554361 9.106885 27.681574 16.744918 41.967214 2.643934 4.952131 10.760393 1.628328 16.736525 8.393442 6.219541 7.042098 10.357508 24.105967 16.744918 25.180328 33.431082 5.648787 75.070951 39.272918 108.81259 50.360656 0 0 3.667934-33.330361 8.376656-16.786885v8.393442c32.566557 14.445115 65.275803 31.702033 92.076065 50.360656v8.393443H452.469508c-14.277246-18.490754-20.26177-20.882885-50.22636-25.180328zM686.848 837.245902c3.357377 26.540066 8.242361 31.853115 16.736525 50.360655h16.744918v-33.57377c-6.731541-8.569705-2.971279-2.299803-8.376656-16.786885h-25.104787z m0-92.327869l-8.376656-25.180328h8.376656v8.393443c10.399475 13.152525 5.371803 4.280656 0 16.786885zM360.393443-10.491803l-16.744918-25.180328 33.489836 16.786885c-8.552918 6.748328-2.299803 2.979672-16.744918 8.393443z m-83.707804-41.967213c-11.373115-10.592525-14.797639-11.457049-33.481442-16.786886v-8.393442h16.744918c11.373115 10.592525 14.797639 11.457049 33.481442 16.786885v8.393443h-16.744918z"  horiz-adv-x="1024" />

    
    <glyph glyph-name="icon-wrong" unicode="&#58893;" d="M294.822535 424.086588l142.938353-276.028235S670.028182 709.029647 1036.288888 896.030118c-8.944941-133.571765-44.664471-249.344 17.859764-391.800471-160.798118-35.629176-491.339294-436.314353-598.528-632.199529C303.767476 59.000471 125.109594 201.487059 0.031005 246.000941l294.79153 178.085647z"  horiz-adv-x="1054" />

    
    <glyph glyph-name="icon-search" unicode="&#58894;" d="M1006.086982-110.086982a59.555234 59.555234 0 0 0-84.201242 0l-235.506302 235.530114C614.584545 71.245727 525.525539 38.717758 428.656011 38.717758 191.935268 38.717758 0.029779 230.623247 0.029779 467.343989S191.935268 895.970221 428.656011 895.970221s428.626231-191.905489 428.626231-428.626232c0-96.869528-32.527968-185.928534-86.725374-257.723427l235.530114-235.506302a59.555234 59.555234 0 0 0 0-84.201242zM428.656011 824.532516C231.392694 824.532516 71.467484 664.607306 71.467484 467.343989c0-197.263317 159.925209-357.188526 357.188527-357.188526 197.263317 0 357.188526 159.925209 357.188526 357.188526 0 197.263317-159.925209 357.188526-357.188526 357.188527z"  horiz-adv-x="1024" />

    
    <glyph glyph-name="icon-home" unicode="&#58895;" d="M1249.060066 358.941268l-87.100059-74.914041L624.576618 746.171947 87.193228 284.027227l-87.100058 74.914041L624.576618 896.00003l249.713471-214.753585V820.911189a49.942694 49.942694 0 0 0 49.942694 49.942694h74.914041a49.942694 49.942694 0 0 0 49.942694-49.942694v-289.992254l199.970548-171.977667zM1060.326624 296.5129H1049.089518v-349.598859a74.914041 74.914041 0 0 0-74.914041-74.914041H724.462006V171.656165h-199.770777v-299.656165H274.977759a74.914041 74.914041 0 0 0-74.914042 74.914041V296.5129h-11.237106L624.576618 671.257906 1060.326624 296.5129z"  horiz-adv-x="1248" />

    
    <glyph glyph-name="icon-border" unicode="&#58896;" d="M448 896h576v-128H576v-64h256v-384H576v-256H192V320H128v-448H0V448h192V576H0V896h320v-192h128V896z m128-448h128V576H576v-128zM192 768H128v-64h64V768z m128-576h128V320H320v-128z m0 384v-128h128V576H320z"  horiz-adv-x="1024" />

    
    <glyph glyph-name="icon-back" unicode="&#58897;" d="M1446.688855 281.828886H384.928045l401.578053-409.467485H502.607036L0.574245 384.090364 502.607036 895.819326h283.899062L384.928045 486.412066h1061.76081v-204.58318z"  horiz-adv-x="1446" />

    
    <glyph glyph-name="x" unicode="&#58898;" d="M999 571H899v-699H799V571h-75v75H574v-150H0V896h100v-300h350V796H350v-100H250V896h324v-100h150V896h300v-325h-25m-75 225H799v-150h125V796z"  horiz-adv-x="1024" />

    
    <glyph glyph-name="icon-window-close" unicode="&#58899;" d="M1024-128h-120.661333L512 263.338667 120.661333-128H0v120.661333L391.338667 384 0 775.338667V896h120.661333L512 504.661333 903.338667 896H1024v-120.661333L632.661333 384 1024-7.338667V-128z"  horiz-adv-x="1024" />

    
    <glyph glyph-name="icon-window-menu" unicode="&#58900;" d="M0-128v170.666667h1194.666667v-170.666667H0z m0 597.333333h1194.666667v-170.666666H0V469.333333z m0 426.666667h1194.666667v-170.666667H0V896z"  horiz-adv-x="1194" />

    
    <glyph glyph-name="icon-window-maximize" unicode="&#58901;" d="M0-128V896h1024v-1024H0zM853.333333 725.333333H170.666667v-682.666666h682.666666V725.333333z"  horiz-adv-x="1024" />

    
    <glyph glyph-name="icon-window-restore" unicode="&#58902;" d="M877.714286 164.571429V749.714286H219.428571V896h804.571429v-731.428571h-146.285714z m-73.142857-292.571429H0V676.571429h804.571429v-804.571429zM658.285714 530.285714H146.285714v-512h512V530.285714z"  horiz-adv-x="1024" />

    
    <glyph glyph-name="window-minimize" unicode="&#58903;" d="M58.304 448.064l907.456 0 0-128.192-907.456 0 0 128.192Z"  horiz-adv-x="1024" />

    
    <glyph glyph-name="x1" unicode="&#58904;" d="M654 319q52 99 74 172t21 77H514v89h280v39H514V830H385v-134H131v-39h254v-89H169v-38h440q0-5-1-7t-5-6q-2-35-19.5-77.5T545 357q-239 88-336 72T99 396Q-46 273 14.5 166.5T118 57q171-34 287 18.5T596 223q5-4 10-5t10-1q71-37 230-113l178-85V211q-44 2-154 37t-216 71m-167-58Q362 118 248.5 116T105 134q-60 21-68 92.5T99 338q119 35 221.5 9.5T501 281q-6-10-10-15l-4-5m0 0z"  horiz-adv-x="1024" />

    
    <glyph glyph-name="x2" unicode="&#58905;" d="M308 364q-26 1-51.5-5.5T206 343q-16-5-25-15.5T165 302q-9-19-4.5-40.5T186 221q23-22 47-32t55-9q19 0 41 6.5t40 13.5q71 27 123 82l20 20q-13 6-30.5 10.5T451 323q-34 15-69 25.5T308 364M859 895H165Q96 893 50 847T2 731v-694q2-70 48-116t115-48h694q69 2 115 48t48 116V731q-2 70-48 116T859 895m41-779q-34 14-67 29l-205 91q-23 10-46 21-4 3-7-1-62-65-145-100-51-22-107-26-65-6-122 24-38 22-60 58-20 32-16 69 6 47 44 79 42 35 96 42 34 6 69 2.5t69-10.5q70-14 137-37 4-2 5 2 27 57 44 118l5 9H247v21h183v61H228l-1 41h203v61q1 19 21 20h81v-81h204q0-9-1-20.5t-1-20.5H532v-61h184q-14-48-38-93t-51-88l11-4q110-37 223-66l39-9v-131z"  horiz-adv-x="1024" />

    
    <glyph glyph-name="x3" unicode="&#58906;" d="M512 789q114-1 208.5-44T877 629q-1-4-74-38t-181-83l-111-50q-57-26-107-42-25 2-71.5 47T267 491q-8-7 2.5-32.5T297 400l56-122q3-3 11-5.5t22 0.5q91 49 294.5 173T911 580q49-79 50-174-5-163-131.5-270.5T512 23q-81 1-153 23-25 1-75-33t-69-33q-11 5-9 17 27 85 25.5 100T200 131q-64 53-100 123.5T63 406q5 163 131.5 271T512 789z"  horiz-adv-x="1024" />

    
    <glyph glyph-name="x4" unicode="&#58907;" d="M852.995069 591.995838q-71.999584 28.999832-79.499541 68.499604T724.995809 721.995086q-83.999514 31.999815-146.999151 38.499777t-65.999618 4.499974q-2.999983 1.999988-65.499621-4.499974T298.998271 721.995086q-40.999763-21.999873-48.499719-61.499644T170.999011 591.995838q-84.999509-25.99985-128.499257 2.999982T0 677.99534q0.999994 34.999798 21.499876 69.999596T84.999509 808.994583q121.999295 61.999642 267.99845 75.999561T511.99704 895.99408q12.999925 2.999983 158.999081-10.999936t267.99845-75.999561q41.999757-25.99985 62.999636-60.999647t21.999873-68.999601q0.999994-54.999682-41.999757-83.999515t-128.999254-2.999982m-511.99704 42.999751h84.999508v-42.999751h171.999006v42.999751h84.999508v-42.999751l255.99852-304.998237v-173.998994q-0.999994-35.999792-24.999855-60.999648t-60.999647-24.999855H170.999011q-36.999786 0-60.999647 24.999855t-24.999855 60.999648V286.997601l255.99852 304.998237v42.999751m170.999011-521.996982q71.999584 2.999983 120.499303 51.499702T682.996051 286.997601q-1.999988 73.999572-50.499708 123.499286T511.99704 459.996601q-71.999584 0-120.499303-49.499714T340.998029 286.997601q1.999988-73.999572 50.499708-122.499292T511.99704 112.998607m0 261.998485q36.999786-0.999994 60.49965-25.499853T595.996554 287.997595q0-36.999786-23.499864-61.999642T511.99704 200.998098q-36.999786 0-60.49965 24.999855T427.997526 287.997595q0 36.999786 23.499864 61.499644T511.99704 374.997092z"  horiz-adv-x="1024" />

    
    <glyph glyph-name="x5" unicode="&#58908;" d="M1024 266v-158H315V581h394V738H158v-630H0V896h866v-472H472v-158h552z"  horiz-adv-x="1024" />

    
    <glyph glyph-name="x6" unicode="&#58909;" d="M512 832q-190-5-316.5-131.5T64 384q5-190 131.5-316.5T512-64q190 5 316.5 131.5T960 384q-5 190-131.5 316.5T512 832m82-692H486V512l-68-38-28 90 120 64h84v-488z"  horiz-adv-x="1024" />

    
    <glyph glyph-name="x7" unicode="&#58910;" d="M860 832H164q-42-1-70.5-29T64 732v-696q1-42 29.5-70.5T164-64h696q42 1 70.5 29.5T960 36V732q-1 43-29.5 71T860 832M420 262q-20 0-39 3l-39 8-78-39 23 67q-42 29-65.5 66.5T198 451q2 81 65 134t157 55q84-1 146-44.5T645 484q-11 1-22 1-81-2-134-51.5T434 309q0-24 7-47h-21m328-78l17-56-61 33q-33-9-67-11-81 2-134 47.5T448 312q2 68 55 113.5T637 473q78-2 132.5-47.5T826 312q0-38-21.5-70.5T748 184M348 545q-13 0-23-7.5t-10-20q0-12.5 10-20t23-7.5q13 0 20.5 7.5t7.5 20q0 12.5-7.5 20T348 545m228-161q-9 0-15.5-7t-6.5-15.5q0-8.5 6.5-15T576 339q13 1 20.5 7.5t7.5 15q0 8.5-7.5 15.5t-20.5 7m-72 106q12 0 19.5 7.5t7.5 20q0 12.5-7.5 20t-20 7.5q-12.5 0-22.5-7.5t-10-20q0-12.5 10-20t23-7.5m194-106q-8 0-14.5-7t-6.5-15.5q0-8.5 6.5-15T698 339q13 1 20.5 7.5t7.5 15q0 8.5-7.5 15.5t-20.5 7z"  horiz-adv-x="1024" />

    
    <glyph glyph-name="xEB" unicode="&#58911;" d="M512-128q-186.53883 3.927133-310.73442 128.122723T72.161074 310.857143q4.908917 186.53883 129.104506 310.73442T512 750.696069q186.53883-4.908917 310.73442-129.104506T950.857143 310.857143q-3.927133-186.53883-128.122723-310.73442T512-128m0 832.552253q-166.903164-3.927133-278.33557-115.35954T118.30489 310.857143q3.927133-166.903164 115.35954-277.844679T512-81.856184q166.903164 3.927133 277.844679 114.868648t114.868648 277.844679q-3.927133 166.903164-114.868648 278.33557T512 704.552253z"  horiz-adv-x="1024" />

    
    <glyph glyph-name="xE" unicode="&#58912;" d="M557-8q-13 0-22.5 9.5T525 24q0 13 10 23l337 337-337 337q-10 10-10 23t9.5 22.5Q544 776 557 776t23-9l360-360q9-10 9-23t-9-23L580 1q-10-9-23-9z"  horiz-adv-x="1024" />

    
    <glyph glyph-name="pattern" unicode="&#58915;" d="M926.47619 310.857143h-292.571428V505.904762H438.857143V798.47619H0V896h536.380952v-292.571429h97.52381V896h390.095238v-390.095238h-292.571429v-97.52381h292.571429v-536.380952h-97.52381v438.857143z m0 292.571428V798.47619h-195.047619v-195.047619h195.047619z"  horiz-adv-x="1024" />

    
    <glyph glyph-name="icon-order" unicode="&#58916;" d="M819.2-128H204.8a68.266667 68.266667 0 0 0-68.266667 68.266667V827.733333a68.266667 68.266667 0 0 0 68.266667 68.266667h614.4a68.266667 68.266667 0 0 0 68.266667-68.266667v-887.466666a68.266667 68.266667 0 0 0-68.266667-68.266667zM307.2 691.2H238.933333v-68.266667h68.266667V691.2z m0-170.666667H238.933333v-68.266666h68.266667v68.266666z m0-170.666666H238.933333v-68.266667h68.266667v68.266667z m0-170.666667H238.933333v-68.266667h68.266667v68.266667zM785.066667 691.2H375.466667v-68.266667h409.6V691.2z m0-170.666667H375.466667v-68.266666h409.6v68.266666z m0-170.666666H375.466667v-68.266667h409.6v68.266667z m0-170.666667H375.466667v-68.266667h409.6v68.266667z"  horiz-adv-x="1024" />

    
    <glyph glyph-name="iconorder" unicode="&#58918;" d="M227.555556-128V896h682.666666v-1024H227.555556zM824.888889 810.666667h-113.777778v-455.111111h113.777778V810.666667zM113.777778 71.111111h85.333333v-199.111111H113.777778v199.111111z m0 284.444445h85.333333v-256H113.777778v256zM113.777778 640h85.333333v-256H113.777778V640z m0 256h85.333333v-227.555556H113.777778V896z"  horiz-adv-x="1024" />

    
    <glyph glyph-name="patter_" unicode="&#58919;" d="M1592.888889-14.222222v-113.777778H227.555556V668.444444h910.222222v-341.333333H568.888889v-113.777778h682.666667V782.222222H113.777778v-910.222222H0V896h1365.333333v-796.444444H455.111111V440.888889h568.888889V554.666667H341.333333v-568.888889h1251.555556z"  horiz-adv-x="1592" />

    
    <glyph glyph-name="unlock" unicode="&#58920;" d="M765.465347-128H258.534653c-69.991921 0-126.732673 56.740752-126.732673 126.732673v380.19802c0 69.991921 56.740752 126.732673 126.732673 126.732673h506.930694c69.991921 0 126.732673-56.740752 126.732673-126.732673v-380.19802c0-69.991921-56.740752-126.732673-126.732673-126.732673z m-253.465347 435.960396c-41.994139 0-76.039604-34.045465-76.039604-76.039604 0-27.070099 14.183921-50.769109 35.485149-64.243327V74.772277a40.554455 40.554455 0 0 1 81.10891 0v92.905188c21.301228 13.474218 35.485149 37.173228 35.485149 64.243327 0 41.994139-34.045465 76.039604-76.039604 76.039604z m152.079208 314.29703c0 83.993347-68.085861 152.079208-152.079208 152.079208-83.993347 0-152.079208-68.085861-152.079208-152.079208v-81.108911H248.39604V632.39604C248.39604 777.981465 366.414574 896 512 896s263.60396-118.018535 263.60396-263.60396v-91.247525h-111.524752V622.257426z"  horiz-adv-x="1024" />

    


  </font>
</defs>
</svg>
