<?xml version="1.0" standalone="no"?>
  <!DOCTYPE svg PUBLIC "-//W3C//DTD SVG 1.1//EN" "http://www.w3.org/Graphics/SVG/1.1/DTD/svg11.dtd" >
  <svg>
  <metadata>
  Created by font-carrier
  </metadata>
  <defs>
  <font id="Li Xuke" horiz-adv-x="2018" vert-adv-y="2018" >
    <font-face
      
      font-family="Li Xuke"
      
      font-weight="400"
      
      font-stretch="normal"
      
      units-per-em="1000"
      
      ascent="895"
      
      descent="-330"
      
    />
      <missing-glyph />

      
      <glyph glyph-name="x" unicode="&#x78;" horiz-adv-x="100"
        d="M20 20 L50 20 L50 -20 Z" />
      

      
      <glyph glyph-name="uni2d" unicode="&#x2d;" d="M283 310Q287 310 287.50 310.50Q288 311 292 312Q304 313 315 312.50Q326 312 340 312Q344 312 356 314Q368 316 382 318L410 322Q424 324 432 324Q438 324 442.50 324.50Q447 325 451 325Q456 324 460 324L470 324Q482 324 491 323.50Q500 323 511 322Q519 322 521 321Q523 320 529 319Q534 318 541.50 318.50Q549 319 554 312Q556 308 555.50 308.50Q555 309 557 305Q559 301 561.50 299Q564 297 566 294Q564 286 562.50 284Q561 282 559 277Q557 272 557.50 268Q558 264 558 259.50Q558 255 555.50 251.50Q553 248 545 245Q541 243 540 243Q536 241 535 240Q534 239 529 239Q526 239 519 240Q512 241 509 242Q503 244 501.50 245Q500 246 492 247L475 249Q468 250 458 253L440 258Q429 261 410 259.50Q391 258 380 257Q370 256 360.50 256.50Q351 257 340 255Q332 254 326.50 254Q321 254 313.50 254.50Q306 255 294.50 254.50Q283 254 265 251Q257 250 247.50 251Q238 252 231 252Q213 252 209 250Q205 248 197 247Q189 247 187 247.50Q185 248 175 246Q162 243 148.50 240.50Q135 238 123 232Q117 229 114.50 228Q112 227 110.50 227Q109 227 107.50 226.50Q106 226 102 225Q97 223 97.50 223Q98 223 93 221Q86 219 73 220.50Q60 222 52 228L33 251Q28 259 26 261Q24 263 24 264Q24 265 25 268Q26 271 25 282Q24 288 24 292Q24 296 31 299Q38 302 37 301.50Q36 301 41 305Q48 310 51.50 309.50Q55 309 61 311Q64 312 66 313Q68 314 71 315Q76 317 82.50 315.50Q89 314 96 314Q104 314 107.50 312Q111 310 119 310L148 311L154 311Q155 311 160 312Q165 313 171 311.50Q177 310 184 310L238 312L283 310Z"  horiz-adv-x="590" vert-adv-y="1000"  />

      
      <glyph glyph-name="uni30" unicode="&#x30;" d="M107 439L120 439Q123 439 180 374L193 374Q204 374 245 384L250 384Q289 347 289 309L289 306Q289 264 208 139Q158 82 125 66L83 66Q29 66 5 152Q0 162 0 173L0 207Q0 284 94 405Q100 439 107 439M75 197L75 181Q75 103 109 103Q164 129 211 230Q221 249 221 272L221 285Q210 303 185 303L180 303Q177 303 159 298Q140 309 130 309Q102 309 78 230Q75 213 75 197Z"  horiz-adv-x="328" vert-adv-y="1000"  />

      
      <glyph glyph-name="uni31" unicode="&#x31;" d="M159 544L165 544Q219 544 219 482L219 473Q195 335 134 158Q96 5 74 5L54 0Q23 29 23 45L23 51Q23 86 63 164Q111 339 153 459L148 470L105 462L102 462Q98 462 94 470Q153 541 159 544Z"  horiz-adv-x="237" vert-adv-y="1000"  />

      
      <glyph glyph-name="uni32" unicode="&#x32;" d="M205 472L224 472Q304 472 344 375Q346 360 346 341L346 336Q346 303 310 210L310 208Q372 184 372 163L372 152Q366 141 358 141Q297 163 280 166Q274 166 202 108Q105 52 52 52L40 52Q-18 57-18 105L-18 121Q-18 176 77 210Q125 224 166 224L230 224Q266 224 282 322L282 350Q282 398 166 439Q149 450 149 453L149 455Q172 472 205 472M49 110Q49 106 57 102L71 102Q118 104 199 177L202 183L202 185Q200 194 180 194L152 194Q89 194 49 144L49 110Z"  horiz-adv-x="419" vert-adv-y="1000"  />

      
      <glyph glyph-name="uni33" unicode="&#x33;" d="M190 569L195 569Q227 569 300 492Q313 475 313 461Q313 416 215 320L215 312Q261 283 261 207L261 204L265 204Q273 204 313 237L315 232Q296 192 240 127Q157 5 129 5Q92 23 92 35L92 38Q92 95 168 154Q208 216 208 243Q202 259 195 259L181 259Q155 259 104 221L95 221Q54 221 54 251L54 268Q54 318 120 345Q222 425 222 458Q222 481 165 541Q157 541 154 555Q170 569 190 569Z"  horiz-adv-x="360" vert-adv-y="1000"  />

      
      <glyph glyph-name="uni34" unicode="&#x34;" d="M203 522L209 522Q238 522 265 468L265 454Q265 448 168 338Q100 252 100 227L100 219Q103 219 108 216Q233 216 233 257Q284 353 284 419L287 419Q306 418 306 414L311 416Q326 416 357 419L365 408L365 395Q365 386 319 289L319 287Q319 262 384 243Q395 231 395 230L395 227Q395 184 317 184Q244 170 244 149Q183 85 138 11L127 2L117 2Q111 2 111 8L111 11L176 159L176 162Q101 154 92 154L49 154Q11 154 11 214L11 222Q11 263 152 446L165 468L160 471Q139 462 130 462L130 468Q170 488 203 522Z"  horiz-adv-x="431" vert-adv-y="1000"  />

      
      <glyph glyph-name="uni35" unicode="&#x35;" d="M222 511Q305 515 307 496L307 491Q308 485 297 452Q359 438 383 429Q416 413 418 392L421 372Q421 367 405 359Q394 358 304 381Q271 383 258 382Q223 363 201 258Q195 212 197 188Q218 124 221 98Q227 32 124-4L107-6Q44-12 11 59L9 79Q7 101 18 106Q33 108 71 63L92 62Q153 79 151 105Q140 154 137 185Q131 244 181 397L181 403Q166 408 166 410Q123 382 120 382L119 385Q117 406 213 510L222 511Z"  horiz-adv-x="358" vert-adv-y="1000"  />

      
      <glyph glyph-name="uni36" unicode="&#x36;" d="M275 552Q318 552 318 470L318 464Q314 460 291 449Q157 302 157 276L157 266L160 266Q191 282 218 282L236 282Q282 282 297 227Q297 69 160 5L133 5Q85 5 51 69Q44 83 41 130Q44 165 44 181Q41 181 41 184Q25 175 14 175L11 181L11 187Q63 225 63 251Q94 354 199 467Q235 500 263 552L275 552M120 99L120 84Q121 51 148 51Q199 51 251 175Q254 181 257 206Q251 233 227 233L196 233Q130 219 130 190Q120 137 120 99Z"  horiz-adv-x="365" vert-adv-y="1000"  />

      
      <glyph glyph-name="uni37" unicode="&#x37;" d="M75 543L81 543Q205 517 279 513Q339 487 341 465Q342 458 266 308Q224 230 176 84Q143 12 130 10Q93 6 90 34L90 37Q84 93 131 154Q170 259 253 433L254 447L254 450Q253 462 177 468Q143 479 70 536Q70 542 75 543Z"  horiz-adv-x="374" vert-adv-y="1000"  />

      
      <glyph glyph-name="uni38" unicode="&#x38;" d="M161 540L183 540Q273 540 282 439L282 425Q282 412 271 355L274 355Q284 355 372 383L389 383Q395 382 395 377L395 371Q395 367 327 335Q257 281 257 267Q304 177 304 158L304 138Q304 57 181 20Q153 14 130 14L119 14Q39 14 9 93L9 121Q9 203 147 287L158 298Q102 372 102 405L96 442Q108 540 161 540M172 428Q172 392 203 352L209 349Q217 359 237 422Q237 473 203 473L198 473Q172 473 172 428M116 135L116 132Q116 104 150 101Q240 117 240 169Q240 219 206 228Q177 228 119 146Q116 141 116 135Z"  horiz-adv-x="350" vert-adv-y="1000"  />

      
      <glyph glyph-name="uni39" unicode="&#x39;" d="M215 556L235 558Q246 560 312 533Q341 530 343 522L344 511Q345 499 297 414Q245 313 180 93Q143 2 121-1Q118-1 112 6L109 23Q103 79 187 305L188 315Q169 300 162 299L120 295Q54 312 49 354L47 376Q39 438 122 515Q173 552 215 556M94 371L96 357Q100 324 129 328Q165 332 235 447Q257 469 253 505L252 510Q251 521 214 524Q147 516 104 439Q91 399 94 371Z"  horiz-adv-x="380" vert-adv-y="1000"  />

      
      <glyph glyph-name="uni201C" unicode="&#x201C;" d="M263 445Q263 443 261.50 441.50Q260 440 258 438Q252 430 250 430.50Q248 431 245 428L243 427Q240 426 239.50 424Q239 422 238 421Q233 418 233 419.50Q233 421 230 417Q226 414 227 413Q228 412 224 412Q219 412 213 413Q208 412 206 412Q204 412 204 412.50Q204 413 202.50 414.50Q201 416 197 419L190 422Q182 428 179 429Q176 430 173 430Q168 431 160.50 442.50Q153 454 152 455Q147 464 147 462.50Q147 461 143 467Q139 472 140 476.50Q141 481 141 487Q141 493 141 495.50Q141 498 140 499.50Q139 501 138 504Q137 507 136 513Q135 519 138 525.50Q141 532 145 537Q148 540 148 539.50Q148 539 151 541Q159 545 160.50 549.50Q162 554 167 557Q170 559 169.50 559Q169 559 172 562Q179 567 179.50 566.50Q180 566 185 569Q190 571 190.50 572Q191 573 191.50 573.50Q192 574 193 574Q194 574 198 576Q203 580 213 584.50Q223 589 226 595L230 593Q231 598 230.50 596.50Q230 595 233 598L237 602Q238 602 238.50 603Q239 604 240.50 604.50Q242 605 247 607Q253 611 254 615Q255 619 262 622Q268 623 274 629L275 630Q283 636 281.50 635.50Q280 635 287 636Q293 637 292 637.50Q291 638 296 637L301 635Q299 626 300.50 625.50Q302 625 294 620Q291 618 288 614Q285 611 285.50 611Q286 611 283 609Q280 607 279.50 606Q279 605 279 605Q279 605 277.50 603Q276 601 272 597Q270 595 267.50 590.50Q265 586 262 582Q255 575 253 570.50Q251 566 246 559Q241 552 239 548Q237 544 236.50 542.50Q236 541 236 540Q236 539 235 536Q234 532 231.50 528.50Q229 525 227 519Q231 516 230 516.50Q229 517 231 515Q232 512 232.50 508Q233 504 233 501Q237 499 237 498.50Q237 498 242 492Q250 484 248.50 482.50Q247 481 251 479Q257 476 260 475.50Q263 475 265 470Q268 461 267 456.50Q266 452 263 445M108 511Q110 510 112 504.50Q114 499 116 497Q118 494 119.50 493.50Q121 493 123 490Q123 488 123 486Q123 484 122 482Q122 480 121.50 480.50Q121 481 122 478L121 475Q154 991 122 473Q122 475 121 471L119 468Q115 463 116 461Q117 459 111 450Q109 447 109.50 445Q110 443 105 440Q103 439 104 439.50Q105 440 102 437Q94 430 94.50 428Q95 426 89 424Q86 422 80 423Q74 424 69 426Q63 427 58.50 428Q54 429 48 433Q43 436 40.50 437Q38 438 38 439L35 442Q32 444 27 450Q23 456 21.50 456.50Q20 457 17 462Q14 467 13 468Q12 469 10.50 469.50Q9 470 8.50 471.50Q8 473 5 477L4 478Q0 484 0.50 484Q1 484 1 489Q1 493 0.50 493.50Q0 494 0 495Q0 496 0.50 500Q1 504 4 516L7 524Q8 526 16 523L17 531L18 533L21 541Q22 544 26 548Q28 551 29.50 553.50Q31 556 33 560Q37 563 37.50 562.50Q38 562 41 567Q45 574 47.50 576.50Q50 579 53 584Q55 587 56.50 587.50Q58 588 62 592Q64 594 65 597Q66 600 69 601Q73 603 73.50 602.50Q74 602 75 602.50Q76 603 77.50 604.50Q79 606 83 610Q86 612 85 612Q84 612 87 613L91 616Q93 618 93 618.50Q93 619 95 620L97 622L100 624Q102 626 105.50 628.50Q109 631 111 632L113 634Q115 635 115 635.50Q115 636 117 637Q120 638 127.50 641Q135 644 138 653Q144 653 149.50 656.50Q155 660 162 662L163 663Q173 668 172.50 669Q172 670 177 673Q181 674 183 674Q185 674 190 674Q193 675 192 675.50Q191 676 193 675Q198 673 197 666Q199 662 192 659Q188 657 186 656Q184 655 181 653.50Q178 652 173.50 649.50Q169 647 163 642Q160 638 156 636Q155 634 153 633Q149 629 150.50 629.50Q152 630 147 627Q143 627 143.50 627Q144 627 142 625Q141 623 139.50 620.50Q138 618 136 617Q133 613 130.50 611.50Q128 610 124 603Q120 599 119 598Q118 597 113 587L105 574Q97 560 96.50 550Q96 540 98 533Q100 526 103.50 521Q107 516 105 512L108 511Z"  horiz-adv-x="319" vert-adv-y="1000"  />

      
      <glyph glyph-name="uni201D" unicode="&#x201D;" d="M24 548Q24 550 25.50 551.50Q27 553 28 557Q31 567 32.50 567.50Q34 568 37 572L38 573Q40 575 40 577.50Q40 580 41 582Q44 587 44 585Q44 583 46 589Q48 593 47.50 594Q47 595 51 597Q53 598 55.50 598.50Q58 599 61 601Q66 604 67 604.50Q68 605 69 604.50Q70 604 71.50 603Q73 602 78 602L85 601Q96 599 99 600Q102 601 104 601Q106 601 111 599Q116 597 120.50 594Q125 591 133 586Q136 583 138 582Q140 581 140.50 581Q141 581 142 580.50Q143 580 146 579Q151 575 151.50 571Q152 567 154 560Q156 554 157 552Q158 550 159.50 549Q161 548 163 546Q165 544 167 538Q170 532 169.50 524.50Q169 517 167 511Q165 506 165.50 507Q166 508 164 504Q159 496 158.50 491.50Q158 487 154 482Q151 478 151.50 479Q152 480 150 475Q146 467 145.50 467.50Q145 468 142 463Q139 459 138 457.50Q137 456 137 455.50Q137 455 136 454.50Q135 454 132 451Q127 444 119.50 435.50Q112 427 111 420L107 420Q107 415 107 416.50Q107 418 105 414Q103 410 103 408L103 406Q103 406 102 404.50Q101 403 98 399Q93 393 92.50 388.50Q92 384 87 379Q81 374 79 366L78 365Q74 356 74 357Q74 358 68 354Q63 350 64 350.50Q65 351 61 350Q59 349 58.50 349.50Q58 350 55 349Q54 358 52 357.50Q50 357 57 366Q59 369 60 374L62 379Q60 379 62 382Q64 385 64.50 385.50Q65 386 65 387Q65 388 66 390L70 398Q71 401 71.50 406Q72 411 74 416Q77 426 78 431L81 446Q83 455 83 460L83 466L83 468L83 472Q83 477 83.50 481.50Q84 486 84 492L80 492Q82 492 80 494Q78 496 76 500Q74 504 73 507Q68 507 67.50 507.50Q67 508 62 511L54 516Q52 517 52 518L50 520Q50 521 47 521Q41 521 39 520.50Q37 520 32 524Q25 530 24.50 535Q24 540 24 548M197 528Q195 528 191 532L185 538Q182 540 180 540Q178 540 176 542Q173 545 173 549Q172 551 172.50 551Q173 551 172 553L171 556L170 558Q170 556 170 560L171 564Q172 571 170.50 572.50Q169 574 172 585Q173 590 172.50 591Q172 592 175 597L177 601Q181 612 180 613Q179 614 185 620Q187 623 192.50 624.50Q198 626 204 627Q210 628 214 629Q218 630 226 629Q232 628 234 628Q236 628 237.50 627.50Q239 627 242.50 625.50Q246 624 251 621Q257 618 258.50 618Q260 618 266 615Q270 612 271 611Q272 610 273.50 610Q275 610 276.50 609.50Q278 609 282 606L283 605Q288 601 288 600.50Q288 600 290 595Q291 591 291.50 591Q292 591 292 590Q292 589 292.50 584.50Q293 580 295 568L295 560Q295 556 288 556L289 548L289 546L289 537Q289 533 287 528Q286 524 286 521Q286 518 284 514Q282 509 281 509.50Q280 510 279 503Q277 495 275.50 491.50Q274 488 273 483Q272 478 271 477Q270 476 268 471Q267 468 267 464.50Q267 461 265 459Q263 456 261.50 455.50Q260 455 259.50 454.50Q259 454 257.50 452Q256 450 254 444Q252 440 252.50 440.50Q253 441 251 439L249 434Q248 432 248 431.50Q248 431 247 428Q246 426 245.50 425.50Q245 425 244 423Q242 416 235 410L234 408Q232 406 232.50 405.50Q233 405 231 403Q229 401 223.50 395Q218 389 218 378Q211 376 208 370Q205 364 199 359L198 358Q189 349 190 348Q192 348 188 343Q185 338 183.50 338Q182 338 176 335Q174 334 175 333.50Q176 333 174 333L173 333Q171 333 169 335Q167 337 167 339Q165 344 168 348Q171 352 173.50 354.50Q176 357 178 359.50Q180 362 183.50 366Q187 370 190 378L192 382Q192 384 194 387Q195 389 197 391Q199 396 198 395.50Q197 395 201 400Q203 402 203 401Q203 400 204 404Q205 406 205.50 409Q206 412 207 414L210 422Q211 424 213 432Q215 438 216 439.50Q217 441 219 453L221 469Q223 486 220.50 495.50Q218 505 213.50 511Q209 517 204.50 520Q200 523 200 528L197 528Z"  horiz-adv-x="319" vert-adv-y="1000"  />

      
      <glyph glyph-name="uni3001" unicode="&#x3001;" d="M249-3Q249-4 248.50-4Q248-4 250-7Q245-8 246-8Q247-8 244-10L240-11Q236-13 234-17L227-15Q226-15 217-17Q208-19 204-19Q202-16 201-15.50Q200-15 196-12Q189-7 189-4.50Q189-2 187 0Q184 3 183.50 3Q183 3 179 6Q177 8 176.50 9.50Q176 11 174 13Q171 17 170 20Q169 23 165 28Q163 31 162.50 31Q162 31 159 35Q157 42 152 44Q145 48 146.50 49.50Q148 51 143 56L136 61Q133 63 132 63.50Q131 64 129 67Q125 71 125 73L125 76Q125 76 124 77Q123 78 119 81L116 83L111 86L100 99Q98 101 98.50 100.50Q99 100 96 102L92 105Q90 108 90 109Q90 110 88 112L67 131L66 132L62 136Q60 140 56 142Q52 144 49 147Q45 151 44.50 155.50Q44 160 42 165Q40 170 36 172.50Q32 175 30 178Q28 181 28.50 180.50Q29 180 27 185Q26 187 26 189Q26 191 24 194L37 194Q38 193 39.50 193Q41 193 43 191Q49 188 53.50 189.50Q58 191 72 189Q78 188 81 186L83 185L98 180Q103 178 104 177Q104 177 106 176L106 174Q107 174 110 173Q112 171 114.50 170.50Q117 170 120 168Q124 166 123.50 166.50Q123 167 125 165Q127 163 129.50 161.50Q132 160 137 158L144 155Q149 152 150 151.50Q151 151 151.50 150.50Q152 150 153.50 149.50Q155 149 159 146L164 144Q171 139 171.50 139Q172 139 180 134Q183 132 187 129Q191 126 197 123Q202 121 201 120.50Q200 120 206 117Q211 114 209.50 114.50Q208 115 212 111Q219 105 222.50 102.50Q226 100 232 91Q236 86 237 84.50Q238 83 238 82.50Q238 82 238.50 81Q239 80 245 76Q247 73 248 70.50Q249 68 251 65L262 53Q263 51 262.50 50Q262 49 263 47Q265 42 267.50 36Q270 30 268 21Q267 17 267 16L267 10L262 8Q260 8 260 7.50Q260 7 259 7Q256 7 253 5Q251 3 252 4Q253 5 251 2L249-3Z"  horiz-adv-x="568" vert-adv-y="1000"  />

      
      <glyph glyph-name="uni3002" unicode="&#x3002;" d="M219-5Q215-5 213-7.50Q211-10 208-12Q205-15 201-17L193-21Q191-23 189.50-23.50Q188-24 186-26Q183-27 180.50-28Q178-29 176-31Q174-32 174.50-31.50Q175-31 173-32Q168-34 166.50-35Q165-36 161-38Q159-40 155.50-41Q152-42 149-44Q143-48 142.50-47Q142-46 135-48Q132-48 128-50L125-50L123-49Q118-49 114.50-48.50Q111-48 106-48Q101-48 95-47Q89-46 84-44Q81-44 77-41Q73-38 70-36L69-35Q68-35 68-34Q63-30 56.50-27Q50-24 46-18Q44-14 42.50-12Q41-10 40-8Q36-2 33 3Q32 5 31 10.50Q30 16 29 18Q25 24 25 28Q25 28 25 37Q25 40 24.50 40.50Q24 41 24 44Q24 44 24 56Q24 59 25 61.50Q26 64 26.50 66.50Q27 69 28 75Q29 79 29 82.50Q29 86 31 90Q33 94 38 102Q43 110 45 112Q48 116 49.50 116Q51 116 54 122Q56 126 57 126Q58 126 61 128L72 141Q74 144 76 146Q78 148 81 150Q84 152 84 154Q84 156 87 159L99 170Q101 173 102.50 175.50Q104 178 105 181Q110 188 110.50 186.50Q111 185 114 185Q117 185 118 186.50Q119 188 125 187Q130 185 132 181.50Q134 178 136 173Q138 169 140 168Q140 168 142 166L146 164Q152 160 153 158Q154 156 158 152L165 144Q168 141 168 136Q170 136 171 135.50Q172 135 175 135Q179 134 185.50 135Q192 136 196 136Q209 137 213.50 130Q218 123 224 114Q226 109 231.50 106Q237 103 239 98Q242 93 245.50 78.50Q249 64 249 58Q248 50 248 46Q248 42 245 35L239 23L236 17Q234 15 232.50 13Q231 11 229 8Q227 5 223 2Q219-1 219-5M146-5Q149-5 153-2.50Q157 0 162 1Q169 3 167.50 3.50Q166 4 172 6Q176 7 182.50 10Q189 13 192 15Q199 21 202.50 25Q206 29 207 32Q208 35 208.50 38.50Q209 42 211 47Q215 57 211.50 65.50Q208 74 208 77Q204 77 201 80L199 80Q193 84 191.50 85.50Q190 87 190 87.50Q190 88 189 87.50Q188 87 183 89Q181 90 178.50 91.50Q176 93 174 93Q170 93 168.50 92.50Q167 92 166 92Q163 92 161 93Q159 94 157 93Q152 93 153.50 92Q155 91 150 90Q146 90 146 91.50Q146 93 145 93Q140 93 138 92.50Q136 92 134 93Q132 93 132.50 93.50Q133 94 127 94Q119 94 120 92L108 88L105 85Q96 79 95 76.50Q94 74 90 66Q87 58 87.50 53.50Q88 49 88 43Q88 38 89 36Q90 33 90 34Q90 35 90 30Q91 24 91 24.50Q91 25 93 20Q97 14 96 15.50Q95 17 100 12Q102 9 102 8Q102 7 105 5L109 4L110 4L114 2Q116 0 116 0.50Q116 1 119 0Q129-6 141-4Q146-4 144-4.50Q142-5 146-5Z"  horiz-adv-x="549" vert-adv-y="1000"  />

      
      <glyph glyph-name="uni300A" unicode="&#x300A;" d="M165 635Q165 641 168 642Q175 646 175.50 645Q176 644 183 641Q186 639 187.50 637.50Q189 636 192 634L200 629L200 628Q202 627 201.50 627Q201 627 204 626Q208 621 210 619Q212 617 213 609Q213 604 213.50 601Q214 598 216 594Q224 580 219.50 570.50Q215 561 210 554Q210 554 206 554Q203 554 200 555Q195 556 192 560Q190 555 188.50 550Q187 545 187 540L176 504Q174 499 173.50 494Q173 489 171 484Q168 477 167.50 470.50Q167 464 164 459L163 458Q163 458 162 454Q160 443 159 445Q158 447 156 440Q154 432 151 426Q148 420 146 413Q145 410 145 408Q145 406 144 403L135 384Q134 381 134 379Q134 377 132 374L127 359Q125 354 122 345.50Q119 337 116 332Q113 325 112.50 321Q112 317 110 313Q108 311 108 309L105 300L103 295L101 291Q99 287 99 284.50Q99 282 93 279Q81 271 81 266Q81 261 84 251Q86 247 86.50 247Q87 247 89 244Q91 241 91.50 240Q92 239 94 237Q98 230 97 230.50Q96 231 102 227Q105 224 106 221Q107 218 111 216Q116 214 116 212.50Q116 211 120 208Q122 206 125 206Q125 204 130 198.50Q135 193 140.50 187Q146 181 151 175.50Q156 170 157 169Q160 166 162 166Q164 166 167 161Q169 159 170.50 157Q172 155 174 153L204 122Q212 117 221 105Q230 93 241 92Q239 98 242.50 103.50Q246 109 250 109Q255 109 258 101.50Q261 94 263 90Q266 83 268 82.50Q270 82 271 78Q273 73 272 73Q271 73 273 69Q275 65 278 61.50Q281 58 283 54Q283 53 283.50 52.50Q284 52 284 51Q286 48 287 48Q288 48 289 44Q289 42 291 39Q296 32 297.50 31.50Q299 31 302 21Q304 16 304 16.50Q304 17 307 14Q309 11 309.50 6.50Q310 2 311-2Q311-4 311.50-5.50Q312-7 312-10Q312-14 308-21Q304-28 300-30Q292-36 278-36Q272-36 270-34Q268-32 263-28Q258-23 257-22.50Q256-22 251-17Q249-15 247.50-14.50Q246-14 244-12Q242-10 241-8.50Q240-7 238-5Q236-3 237-4Q238-5 236-4Q233-1 233 0Q231 4 230.50 4Q230 4 229 8Q228 9 228 13Q228 13 227 14L226 14Q224 18 222 21Q220 24 218 28L208 47Q206 51 199.50 56.50Q193 62 193 67Q189 67 190 67Q191 67 188 69Q188 69 185 72L182 75L182 76Q180 78 179.50 79Q179 80 177 82L174 85Q172 88 168 92L163 98Q161 104 158 107Q157 108 153 112L145 122Q141 126 137 130L132 135L108 162L101 173Q100 175 100 174.50Q100 174 98 176L95 179L92 182Q90 184 88.50 185Q87 186 85 188Q84 190 84 192Q84 194 83 196Q80 198 79 197.50Q78 197 75 201Q73 204 69.50 205.50Q66 207 64 209Q61 212 59 211.50Q57 211 51 211Q49 211 48.50 211.50Q48 212 45 212L39 210Q37 210 33 213Q31 215 32 214.50Q33 214 31 216L30 217Q29 219 27 224.50Q25 230 25 232Q25 236 25.50 236.50Q26 237 25 241Q25 244 24.50 244.50Q24 245 25 247Q25 250 26 251L27 254Q28 260 28 262Q28 264 30 269Q31 272 30.50 273Q30 274 31 277Q32 283 36.50 287Q41 291 44.50 295.50Q48 300 53 305.50Q58 311 61 322L61 324L62 325Q63 327 62.50 326Q62 325 63 327L67 336Q69 338 68.50 339Q68 340 69 342Q70 344 70 344L73 347Q75 349 75.50 351.50Q76 354 79 356L87 376Q90 382 91.50 386Q93 390 95 395Q96 397 97 398Q98 399 99 401L107 419Q108 422 107.50 422Q107 422 108 425Q109 428 109 428.50Q109 429 111 431Q113 433 113 436Q113 439 115 441L115 442L117 446Q117 446 117 450Q117 450 120 453Q122 455 123 458L125 464L126 466Q127 472 129 475.50Q131 479 133 484Q134 489 138 497Q138 502 140 504Q142 507 143 510Q144 512 143.50 513.50Q143 515 144 518L148 530Q149 533 148.50 534Q148 535 149 537Q150 539 151 540Q152 541 152 543Q154 550 154 549Q154 548 156 553Q160 561 161 571Q162 574 162 574.50Q162 575 163 577L165 591Q166 599 165.50 599Q165 599 165 607L165 614L165 617L165 620Q165 623 166 629Q167 634 165.50 633.50Q164 633 165 635M137 251Q136 252 136 253Q135 254 135 258Q135 259 134.50 260.50Q134 262 134 263L134 265Q134 269 134.50 268.50Q135 268 136 270Q138 274 137.50 276.50Q137 279 141 283L149 296Q151 300 154.50 303Q158 306 163 307Q170 309 171 311.50Q172 314 177 320Q179 323 184 331L193 345Q193 347 195 351L194 352Q194 352 196 354Q198 356 198.50 360.50Q199 365 201 368L206 380Q207 383 206.50 386Q206 389 207 392L208 396L209 398Q211 403 211 406.50Q211 410 214 416Q216 421 215 422Q214 423 216 428L223 446L224 452L226 458Q227 463 228.50 466.50Q230 470 232 474Q233 476 233 477Q233 478 234 480Q236 484 236 485Q237 490 236.50 490.50Q236 491 238 496Q240 501 243 506.50Q246 512 247 518Q248 525 248.50 526.50Q249 528 249.50 529Q250 530 250 532.50Q250 535 251 545Q251 550 252.50 550.50Q254 551 255 556Q257 570 256.50 576.50Q256 583 267 592Q276 600 279 597Q282 594 289 589Q291 587 292 587.50Q293 588 295 586Q303 581 301.50 580Q300 579 304 574L309 568Q311 563 311.50 560.50Q312 558 312 553L312 548Q312 546 313 538Q314 530 312 519L312 517Q311 511 311.50 511.50Q312 512 307 506Q302 500 302 496.50Q302 493 292 488Q286 484 284 477.50Q282 471 282 469L281 467Q278 465 277.50 462Q277 459 275 455L274 452Q273 451 271 448L270 440Q267 435 265 428.50Q263 422 261 416Q259 411 257.50 403.50Q256 396 254 391L248 366Q247 363 248 363Q249 363 247 359Q245 354 245 354L245 352Q245 351 244 350L242 342Q240 333 238 325Q236 317 233 308L230 301Q228 296 229 292.50Q230 289 231 285Q232 283 233 281.50Q234 280 234 278Q234 275 233 274Q232 273 232 271Q232 269 233.50 267.50Q235 266 234 263Q233 261 232.50 262.50Q232 264 233 259Q234 255 234 257L234 255Q234 251 233.50 250.50Q233 250 234 246Q235 241 235.50 239.50Q236 238 236 238L239 235Q240 233 239 232Q238 231 240 229Q240 227 242 226Q244 225 245 224L247 221L248 220L250 220Q255 218 254.50 216Q254 214 257 211Q259 209 260.50 208.50Q262 208 265 206L271 201Q276 197 278.50 193Q281 189 287 186Q292 184 292.50 182.50Q293 181 296 177Q299 173 300.50 173.50Q302 174 307 169Q309 166 310 164L315 160Q318 156 318 154.50Q318 153 323 151Q326 149 331.50 141Q337 133 339 130L346 117Q349 110 350 103Q350 98 350.50 94.50Q351 91 351 86Q351 83 348.50 80.50Q346 78 344 75Q341 67 337 69.50Q333 72 330 72Q330 67 326.50 67.50Q323 68 319.50 70Q316 72 313.50 75Q311 78 310 79Q308 81 308 81.50Q308 82 305 84Q301 89 297 93.50Q293 98 290 103Q288 107 286 109Q284 111 280 113Q274 118 273.50 120Q273 122 270 129Q268 132 267.50 132.50Q267 133 266 135L265 137Q263 141 260 142.50Q257 144 255 146L254 147L253 148Q252 149 252 150Q250 152 246 156.50Q242 161 240 162Q235 165 231 170Q227 174 226.50 175Q226 176 225.50 176Q225 176 224.50 176.50Q224 177 223 179Q221 182 218 184Q215 186 213 188Q210 191 209 193L207 195L205 197Q203 199 203 199.50Q203 200 200 202Q198 204 195.50 204.50Q193 205 191 207Q187 209 186 211Q185 213 180 213Q175 213 170 217.50Q165 222 163 227Q159 225 157 225.50Q155 226 152 228Q150 230 147 230.50Q144 231 143 232L142 234L137 240Q135 245 135.50 245.50Q136 246 137 251Z"  horiz-adv-x="375" vert-adv-y="1000"  />

      
      <glyph glyph-name="uni300B" unicode="&#x300B;" d="M130 664Q135 667 138.50 670Q142 673 149 665Q149 664 149.50 664Q150 664 150 663Q150 662 151 662Q153 660 154.50 660.50Q156 661 157 656Q162 656 164.50 655Q167 654 169 650L180 643Q182 641 182 640Q182 639 184 637Q185 635 185.50 634.50Q186 634 187 632Q190 627 189.50 619.50Q189 612 191 609L191 608L192 608Q195 604 195 603Q195 602 197 597Q198 595 198.50 594.50Q199 594 200 592Q201 590 201 588Q201 586 203 584Q205 580 206 577Q209 569 209 568.50Q209 568 210 564Q213 557 214 556.50Q215 556 217 551Q218 547 219 544Q221 540 224.50 535Q228 530 229 526Q230 523 231 521Q232 519 234 516Q236 512 238 509.50Q240 507 242 503L249 491Q251 487 251.50 484.50Q252 482 254 479Q256 476 257 472.50Q258 469 260 466Q262 464 262 462.50Q262 461 263 459Q264 458 265.50 456Q267 454 268 453Q270 450 271 448L274 442Q276 439 277.50 436.50Q279 434 281 431Q283 426 282.50 427Q282 428 284 425Q287 422 288 418.50Q289 415 292 413Q294 411 295 408Q297 406 296.50 405.50Q296 405 298 403Q300 400 301 397Q302 394 304 390L309 385L328 347Q330 344 331.50 342Q333 340 334 336Q334 334 335 333Q337 331 336.50 331.50Q336 332 338 331Q342 329 343 328Q345 326 347 322.50Q349 319 351 316Q358 306 358 300.50Q358 295 362 282Q364 277 363 278Q362 279 362 274Q362 272 362 272.50Q362 273 363 271Q365 266 364.50 262.50Q364 259 366 253Q370 240 369.50 237.50Q369 235 369 231L369 228Q369 227 370 223L369 222Q365 219 363.50 220Q362 221 360 216Q358 210 358 208.50Q358 207 354 203Q349 207 343 207L334 207Q331 207 331.50 207.50Q332 208 328 206L326 205Q324 204 322 202Q320 201 318.50 199Q317 197 315 196Q311 190 310 188Q308 186 306.50 185Q305 184 303 181Q300 177 296 174.50Q292 172 289 169L282 163Q279 160 278.50 160.50Q278 161 276 156Q274 149 272 147Q270 145 266 140Q263 138 261 134.50Q259 131 257 128L233 107Q225 100 222.50 101Q220 102 216 98Q214 96 213.50 94Q213 92 211 90Q209 88 208.50 86.50Q208 85 206 83Q204 80 202.50 79Q201 78 199 76Q197 74 196.50 71.50Q196 69 194 67Q192 64 191.50 64Q191 64 189 59Q187 56 186 52Q185 48 183 45Q177 36 170 31L161 22Q156 17 152 10Q148 3 144 0Q139-2 137.50-7.50Q136-13 131-14Q130-22 127-23.50Q124-25 121-28Q119-31 120-31Q121-31 119-34Q115-38 106-36Q102-36 101-34.50Q100-33 95-33Q95-27 94-26Q93-25 93-24L93-19Q93-16 95-7Q96-4 96 0Q98 10 101 14Q103 19 103 17.50Q103 16 104 23Q106 29 109 31Q112 33 114 37Q118 43 120.50 44.50Q123 46 124 46.50Q125 47 126.50 47.50Q128 48 131 52Q133 54 135.50 55Q138 56 141 58L147 67Q149 69 149.50 72Q150 75 152 77L156 81Q157 82 157 82.50Q157 83 161 86L165 90L169 100Q172 106 177 108Q182 110 186 115L191 122L192 122L192 123L193 123Q195 125 194 125L195 125L197 125Q197 130 200 132L211 146Q213 148 219 155.50Q225 163 226 165Q228 172 231.50 181Q235 190 239 195Q243 199 246 205Q249 211 250 216Q252 221 252.50 221Q253 221 257 227Q260 234 268 242Q275 255 276.50 256Q278 257 281 261Q284 266 287.50 271.50Q291 277 294 281Q302 286 301 291Q300 296 296 304Q294 309 293.50 310Q293 311 291 314Q287 317 287 318.50Q287 320 284 325L281 330L278 334Q277 336 277 337Q277 338 276 340Q274 345 272.50 347.50Q271 350 269 355L263 363L263 364L262 365Q260 367 259.50 369.50Q259 372 257 374Q255 376 255.50 375.50Q256 375 254 379L252 385L244 400Q242 402 239 407L234 414Q232 421 229 426Q227 429 227 430.50Q227 432 225 436Q224 438 224 438L221 441L220 444L218 447Q217 449 217.50 449.50Q218 450 216 452Q213 455 211.50 458.50Q210 462 208 467Q206 469 205 472.50Q204 476 203 478Q201 485 200 485.50Q199 486 197 490L195 496Q195 497 194.50 497.50Q194 498 194 499L193 500Q191 502 190.50 506Q190 510 188 512Q184 518 183 521Q182 524 181 526Q180 528 179.50 530.50Q179 533 178 539Q177 541 174 546Q172 549 170 554Q168 559 167 563Q165 568 163.50 569Q162 570 157 577Q155 582 153 583Q151 584 146 589L140 606L137 612Q136 614 135 618Q133 625 132.50 628.50Q132 632 132 633L132 635Q132 636 131 639Q129 643 129 647Q129 650 129.50 652Q130 654 130 664M42 574Q42 576 44 580Q46 584 48 585Q56 592 64.50 588.50Q73 585 74 585Q80 583 85.50 584Q91 585 96 579Q98 575 99 575Q100 575 103 572Q105 570 105 568Q105 566 107 564Q111 556 113 554.50Q115 553 115 545Q122 541 121.50 540Q121 539 123 534Q125 531 125.50 531.50Q126 532 128 527L131 518Q134 511 134.50 510Q135 509 140 501Q142 496 145 490Q148 484 149 480Q151 475 153 471L158 460Q159 458 159 457.50Q159 457 161 454Q162 449 162 448.50Q162 448 165 445Q168 440 169 433.50Q170 427 173 422L175 416L176 416L179 410Q181 406 180.50 405Q180 404 183 400L190 384Q192 379 191.50 379Q191 379 193 376Q194 373 195 372Q196 371 199 363Q201 358 204.50 355Q208 352 210 350Q212 348 213 345Q214 342 217 339Q220 336 219.50 335.50Q219 335 221 330Q222 328 224 326.50Q226 325 227 323Q228 320 227.50 316.50Q227 313 227 310Q229 304 229 299Q230 295 231.50 288Q233 281 232 278L230 266Q228 258 226 253Q224 251 224.50 250Q225 249 224 246Q224 245 223 244L221 240Q221 238 222 239Q223 240 220 238Q218 235 212 233Q206 231 207 230.50Q208 230 201 232Q198 234 197 232.50Q196 231 194 230Q189 229 187 226.50Q185 224 180 222Q174 217 173.50 216.50Q173 216 168 210Q166 208 166 206.50Q166 205 164 203L158 195Q157 192 157 191Q155 186 153 184.50Q151 183 149 180Q147 178 146.50 177Q146 176 144 173Q138 168 132 162Q126 156 122 148Q119 143 116 140Q113 137 111 133L101 119Q98 115 96 111Q94 107 91 104Q89 100 87 95Q86 91 85 91Q84 91 83 89Q79 85 78.50 82Q78 79 72 75L67 70Q64 68 62 67Q58 66 54.50 67.50Q51 69 49 67L38 62Q33 59 30 60Q27 61 25.50 66.50Q24 72 24 83Q24 88 24.50 89Q25 90 24 94Q24 99 25 99Q26 99 26 103Q26 109 25 109.50Q24 110 27 115Q30 120 32 126Q34 132 37 138Q38 140 37.50 140.50Q37 141 37 145Q37 147 37.50 148.50Q38 150 39 152Q39 155 38.50 155Q38 155 39 159Q43 161 43 160Q43 159 46 162Q48 166 50 168Q52 169 53.50 170Q55 171 58 172Q60 173 61 173Q62 173 64 174Q65 176 65 180L66 181L68 183Q72 185 73 186.50Q74 188 76 192Q78 196 80.50 197.50Q83 199 85 204Q87 206 86.50 206Q86 206 88 208Q90 210 90.50 212Q91 214 93 217Q96 222 99.50 225.50Q103 229 106 233Q109 237 111.50 241.50Q114 246 119 249Q122 251 122.50 253Q123 255 125 258Q127 260 126 259.50Q125 259 127 261Q130 263 129 262.50Q128 262 130 266L133 269Q138 273 137.50 274.50Q137 276 144 280Q146 281 150.50 287.50Q155 294 156 296Q157 298 159.50 300.50Q162 303 162 305Q162 310 159.50 311.50Q157 313 155 316Q153 319 153 323Q153 327 151 329Q149 332 148.50 335Q148 338 146 341Q145 343 145 343.50Q145 344 144 346Q143 350 142 353.50Q141 357 138 361L129 381Q127 386 125.50 389.50Q124 393 124 399Q122 399 119 402Q117 404 117 404.50Q117 405 116 407Q115 409 113.50 411.50Q112 414 111 416Q110 418 107 425Q104 432 100 439.50Q96 447 92 454Q88 461 86 464Q84 466 84.50 466.50Q85 467 84 469Q83 470 83 471Q81 474 80.50 474Q80 474 79 478Q77 481 75 483.50Q73 486 72 489Q70 492 68.50 494.50Q67 497 65 501L62 510Q60 513 56.50 521.50Q53 530 51 532Q49 534 49 533.50Q49 533 47 536Q44 540 43 553.50Q42 567 42 574Z"  horiz-adv-x="395" vert-adv-y="1000"  />

      
      <glyph glyph-name="uni4E00" unicode="&#x4E00;" d="M580.50 358.50Q580.50 358.50 597.25 360.25Q614 362 617 365Q620 368 694 366Q761 364 792 356.50Q823 349 839 330Q854 314 851.50 299Q849 284 832 277Q822 273 780.50 270.50Q739 268 700.50 268Q662 268 662 271.50Q662 275 699.50 290.50Q737 306 740 309Q747 316 664 307Q627 303 614 299Q527 271 496 267Q475 264 461 255.50Q447 247 441 249Q435 251 432.50 248Q430 245 402.50 237.50Q375 230 355 217Q335 204 314 205.50Q293 207 261 223Q230 239 189 252.50Q148 266 148 269.50Q148 273 160 275.50Q172 278 178.50 280.50Q185 283 214.50 289Q244 295 255 297Q346 316 370 320Q416 327 534 352Q547 355 580.50 358.50Z"  horiz-adv-x="1000" vert-adv-y="1000"  />

      
      <glyph glyph-name="uni4E01" unicode="&#x4E01;" d="M501 579Q554 589 562.50 591Q571 593 670 593Q743 593 761 591.50Q779 590 806 581Q845 569 858 561.50Q871 554 883 537Q897 518 897 507Q897 496 884 486Q874 479 863.50 477.50Q853 476 816 476Q771 475 754 470Q737 465 691 439Q652 417 614.50 398.50Q577 380 577 373.50Q577 367 595 334Q621 286 637.50 229Q654 172 654 133Q654 63 622 18Q605-8 587-22.50Q569-37 534-55Q498-73 480-86Q472-91 467.50-93.50Q463-96 459.50-96.50Q456-97 455-95.50Q454-94 452-90Q451-83 461.50-48.50Q472-14 485 13Q500 46 514 111Q519 130 514 175Q511 206 506.50 221.50Q502 237 485.50 271.50Q469 306 465.50 318Q462 330 464 345Q466 370 477.50 385Q489 400 521 419Q556 440 590 466Q624 492 624 498Q624 501 622 502.50Q620 504 613.50 503.50Q607 503 596.50 500.50Q586 498 566 493Q466 469 398 408Q338 355 287 346Q258 342 221 342.50Q184 343 161 348Q136 354 104 357Q82 359 76.50 361.50Q71 364 67 374Q61 388 61 396Q61 417 134 442Q182 458 261 497Q384 556 501 579Z"  horiz-adv-x="1000" vert-adv-y="1000"  />

      
      <glyph glyph-name="uni4E03" unicode="&#x4E03;" d="M314 696Q333 711 371 699.50Q409 688 441 659Q455 646 460.50 636.50Q466 627 472 608Q481 578 480.50 561Q480 544 479.50 531Q479 518 484 463Q489 408 486.50 387.50Q484 367 487.50 367Q491 367 521 382.50Q551 398 566 407Q582 417 637 445Q680 466 690.50 474Q701 482 703 493Q705 501 720 503.50Q735 506 766 518Q800 530 812 528.50Q824 527 841 507Q874 469 860 448Q855 440 802.50 418.50Q750 397 736 397Q717 397 659.50 367.50Q602 338 531 292Q497 270 492 261.50Q487 253 494 229Q507 183 548 153Q565 141 573 138.50Q581 136 606 136Q640 136 658 141.50Q676 147 689 161Q698 172 703 173.50Q708 175 721 173Q739 171 783 164Q820 159 832.50 154Q845 149 862 133Q884 112 875 78Q872 66 842 52Q812 38 791 38Q746 37 709 22Q647-5 622-21Q598-36 589-44Q580-52 568-54Q556-56 548-60.50Q540-65 538-64Q535-60 546-40.50Q557-21 572-4Q596 22 596 26Q596 30 578 30Q557 30 521.50 48.50Q486 67 465 89Q440 115 427.50 135.50Q415 156 406 186Q395 222 390 222Q380 222 325 173Q291 143 270.50 130.50Q250 118 250 115.50Q250 113 233 94Q216 75 216 72Q216 68 190.50 53.50Q165 39 153 36Q139 33 129 40Q119 47 101.50 76.50Q84 106 84 117Q84 137 142 161Q171 173 217 202Q377 302 384 314Q389 323 387.50 395Q386 467 381 486Q374 510 374 521.50Q374 533 357 566Q340 599 340 610.50Q340 622 331.50 627Q323 632 323 645Q323 658 314 673L305 688L314 696Z"  horiz-adv-x="1000" vert-adv-y="1000"  />

      
      <glyph glyph-name="uni4E07" unicode="&#x4E07;" d="M498 499Q498 505 514.50 505.50Q531 506 553 501.50Q575 497 589 489Q622 472 630.50 462.50Q639 453 641 431Q642 404 645.50 401.50Q649 399 674 393Q701 388 723.50 371.50Q746 355 757 334Q771 306 764 279.50Q757 253 711 163Q659 59 639 25Q613-19 575.50-55Q538-91 517-91Q500-91 499-35Q498-14 490 22.50Q482 59 474 74Q468 86 465 99Q462 114 454.50 132.50Q447 151 444 151Q441 151 397 122Q353 93 330 81Q228 25 219 25Q214 25 197 16Q170 2 166 11Q163 18 184 33Q256 86 308 133Q335 158 342 162Q349 166 356 177Q363 188 399 225Q492 319 529 394L550 438L541 446Q532 454 519.50 462Q507 470 507 478.50Q507 487 502.50 489.50Q498 492 498 499M665 351Q641 367 630.50 368.50Q620 370 609 359Q598 348 581 315.50Q564 283 522 237Q480 191 480 187Q480 181 493.50 155.50Q507 130 520 114Q539 88 553 86.50Q567 85 583 108Q592 122 606 142Q622 164 650 220Q678 276 685 297Q692 321 689.50 329Q687 337 665 351M716 695Q801 703 824 682Q835 671 844.50 671Q854 671 856.50 662Q859 653 871.50 650Q884 647 887 643Q890 639 884 632.50Q878 626 870 626Q862 626 857 615Q850 597 765 586Q711 579 688 558Q679 550 652 537Q625 524 622 526.50Q619 529 622 540Q625 549 621 550Q618 550 603 544Q540 521 527 522Q517 523 500 516Q482 508 442 507Q402 506 373 512Q341 519 336.50 516Q332 513 327 517Q321 522 279 527Q237 532 205 532Q178 532 154.50 536.50Q131 541 128 546Q123 554 138 557Q149 559 177 561Q221 563 224 565Q227 567 294.50 576.50Q362 586 399 595Q461 610 588 660Q608 668 655 680.50Q702 693 716 695Z"  horiz-adv-x="1000" vert-adv-y="1000"  />

      
      <glyph glyph-name="uni4E09" unicode="&#x4E09;" d="M705 184Q771 195 774 196Q778 196 801.50 189.50Q825 183 832 179Q840 175 868 144Q892 119 896.50 104.50Q901 90 888 78Q878 69 834 69.50Q790 70 771 78Q739 94 656 85.50Q573 77 479 48Q418 30 381 26Q344 22 329.50 17.50Q315 13 248 13L181 13L168 29Q155 46 155 56Q155 63 159.50 64.50Q164 66 188 66Q213 67 241.50 73Q270 79 387 111Q451 128 486 136Q521 144 524 146Q537 154 705 184M500 363Q518 372 545 371Q572 370 597 359Q624 346 624 342Q624 338 634.50 333.50Q645 329 660 326Q667 325 670 322.50Q673 320 672 317Q670 311 664.50 311Q659 311 634 296Q609 281 602.50 281Q596 281 548 262L500 243L443 244Q385 245 389.50 249.50Q394 254 393.50 257Q393 260 389 260Q383 260 348 277Q313 294 304 301Q294 310 299 318Q302 324 309 325.50Q316 327 341 328Q441 330 500 363M550 599Q554 603 581.50 601.50Q609 600 627 595Q651 588 669 583Q687 577 697 568Q707 559 724 556Q742 552 745 544.50Q748 537 736 521Q729 510 719.50 503.50Q710 497 688 488Q645 470 590.50 462.50Q536 455 512 463Q494 470 473 468Q453 465 453 470Q454 472 458 477Q467 486 448 489Q443 490 436 490Q419 490 356 501Q293 512 289 516Q284 520 252.50 528.50Q221 537 220 541Q219 542 227 543.50Q235 545 248.50 546.50Q262 548 279 550Q359 557 389 561Q419 565 453 576Q498 589 522.50 592.50Q547 596 550 599Z"  horiz-adv-x="1000" vert-adv-y="1000"  />

      
      <glyph glyph-name="uni4E0A" unicode="&#x4E0A;" d="M318 637Q339 650 447 604Q472 593 493.50 576Q515 559 524 542Q531 527 536 523.50Q541 520 558.50 518.50Q576 517 610 522Q658 526 670.50 525Q683 524 705 517Q731 508 747 493.50Q763 479 777 449L790 423L780 404Q771 385 759 377.50Q747 370 745 368Q740 362 726.50 354.50Q713 347 709 347Q703 347 633 313L563 279L560 260Q558 242 556 225Q554 208 550 184.50Q546 161 546.50 160Q547 159 577.50 165Q608 171 611 173Q618 177 665.50 183Q713 189 741 189Q768 189 779 187.50Q790 186 803 179Q824 168 838 153Q848 143 850 136.50Q852 130 851 107Q850 86 848 80Q846 74 838 69.50Q830 65 824 65.50Q818 66 800 73Q742 95 683 87Q654 83 610 71Q566 59 543 48Q525 40 495.50 35.50Q466 31 434 22.50Q402 14 357 3Q283-15 256-27Q233-37 222-37Q200-37 181-12Q162 13 158 42.50Q154 72 166 95Q175 108 188 110Q201 112 203 101Q204 93 209 90Q218 84 278 88.50Q338 93 353 101Q363 107 378 110Q402 114 405.50 118Q409 122 406 143Q403 169 397 180Q392 187 392.50 189.50Q393 192 399 199Q408 209 410.50 228Q413 247 408.50 285.50Q404 324 395 359Q386 394 378 404Q370 414 355 446.50Q340 479 337 492Q334 507 328.50 515Q323 523 323 534.50Q323 546 314 571Q307 592 308 611.50Q309 631 318 637M604 362Q604 367 599.50 370Q595 373 578 376Q565 379 561 375Q557 371 557 353Q557 325 566 325Q571 325 587.50 341Q604 357 604 362Z"  horiz-adv-x="1000" vert-adv-y="1000"  />

      
      <glyph glyph-name="uni4E0B" unicode="&#x4E0B;" d="M445 469Q456 482 489 445Q507 425 514 411.50Q521 398 526 374Q531 357 537.50 354.50Q544 352 557 363Q564 370 603.50 377.50Q643 385 656 383Q708 371 742 352Q762 341 779.50 323.50Q797 306 804 292Q809 280 808.50 275.50Q808 271 800 256Q788 236 785 233Q774 227 733 267Q708 290 691.50 300Q675 310 644 319Q595 334 564.50 327Q534 320 526 293Q521 274 515.50 186Q510 98 512 59Q514 12 512-31L510-74L488-94Q467-114 460-114Q447-114 428-69Q420-48 418-35.50Q416-23 416 14Q417 55 422 85.50Q427 116 443 180Q456 229 459 298.50Q462 368 457.50 373.50Q453 379 444 410Q431 453 445 469M578 649Q580 655 655 654.50Q730 654 744 648Q760 641 766 634.50Q772 628 774 615Q776 605 774.50 600Q773 595 765 588Q740 564 709 562Q623 557 598.50 554Q574 551 568 546Q563 542 529.50 530.50Q496 519 469 504Q431 482 396.50 477Q362 472 305 479Q260 484 217 501Q174 518 171 531Q171 535 176 537.50Q181 540 195 543Q220 548 247.50 555.50Q275 563 311.50 570.50Q348 578 392 592Q461 614 535 625Q573 630 575 636.50Q577 643 578 649Z"  horiz-adv-x="1000" vert-adv-y="1000"  />

      
      <glyph glyph-name="uni4E0D" unicode="&#x4E0D;" d="M618 714Q741 680 741 637L741 629Q741 602 676 569Q524 370 516 331L516 267Q516 256 717 238L733 238Q780 238 868 246Q946 191 946 165L946 161Q946 123 893 123L864 123Q860 123 807 136L680 136Q536 136 536 97Q536 63 532 63L536 55Q536-73 512-73Q498-81 487-81Q435-81 413 59L430 221L417 221Q373 139 241-1L221-5L208-5Q180 14 180 51Q180 153 225 182Q348 318 376 416Q376 421 393 429L409 425Q489 425 512 497L528 523L528 535L471 523Q380 523 286 569Q251 574 225 574L159 574Q151 574 151 582Q151 600 385 633Q393 633 618 714Z"  horiz-adv-x="1000" vert-adv-y="1000"  />

      
      <glyph glyph-name="uni4E0E" unicode="&#x4E0E;" d="M413 755L418 755Q464 755 472 687L445 550Q450 541 450 536Q472 536 509 573Q509 593 472 623Q472 632 486 632Q688 607 709 586Q732 561 732 532L732 527Q732 512 636 495Q511 423 486 423Q455 427 436 427Q413 392 404 318L413 313L427 313Q486 342 632 368Q814 368 814 231L814 227Q814 31 641-74Q600-83 582-83L559-83Q501-83 386-10Q346-10 258-56Q256-56 186-83L181-74Q231-47 290 13L290 22Q204 49 204 67L204 81Q204 98 286 113Q289 113 322 149Q281 186 281 231L281 236Q281 316 331 368Q354 430 354 464Q309 488 309 495Q309 502 368 514Q413 619 413 705L404 750L413 755M354 136L354 127L454 127Q500 87 500 49Q467 26 431 26L431 22Q431 1 536-15L545-15Q629-15 691 208L691 245Q691 270 668 281L650 281Q600 281 404 208Q369 152 354 136Z"  horiz-adv-x="1000" vert-adv-y="1000"  />

      
      <glyph glyph-name="uni4E11" unicode="&#x4E11;" d="M626 663Q648 678 661.50 679.50Q675 681 693 670Q710 660 716 660Q727 659 751 635.50Q775 612 782 594Q785 587 774 565.50Q763 544 755 540Q748 536 745 520Q742 504 723 440Q683 307 683 295Q683 284 678 272Q675 265 664.50 217.50Q654 170 650 142Q647 130 653 126Q669 116 720 128Q765 139 815 122Q842 113 853.50 105Q865 97 881 74Q900 48 900 31Q900 17 892.50 2Q885-13 876-17Q868-20 843-16.50Q818-13 798-6Q727 17 589 14Q487 11 435 5.50Q383 0 331-13Q289-24 270-26.50Q251-29 206-29L140-30L130-17Q105 14 99 48.50Q93 83 110 96Q130 112 147 95Q156 85 165 80Q181 71 222 77.50Q263 84 292 100Q309 109 346 131Q374 149 383.50 161Q393 173 396 195Q397 207 395.50 209.50Q394 212 382 214Q367 217 348 214Q303 207 273 237Q263 248 260.50 253.50Q258 259 260 270Q262 288 274 299.50Q286 311 320 331Q361 354 379 364Q401 376 409.50 400.50Q418 425 409 450Q406 459 402 461Q398 463 380 463Q356 463 333 472Q309 482 281.50 481.50Q254 481 233 472Q213 463 205 464Q198 465 202 473Q205 477 211 487Q230 515 257.50 529Q285 543 367 567Q416 582 509.50 613.50Q603 645 626 663M604 484Q605 490 605 495Q605 500 604.50 503Q604 506 603 506Q600 505 570 495Q540 484 520 477Q506 472 502.50 468.50Q499 465 498 455Q496 433 506 412Q516 391 528 391Q535 391 542.50 381Q550 371 550 361Q550 348 531 333Q514 318 509 302Q504 286 504 245Q504 224 504.50 211Q505 198 506.50 190Q508 182 511 180Q514 178 518 178Q526 179 537.50 205Q549 231 552 256Q556 277 574 352Q601 458 604 484Z"  horiz-adv-x="1000" vert-adv-y="1000"  />

      
      <glyph glyph-name="uni4E13" unicode="&#x4E13;" d="M503 723Q510 731 517 733Q524 735 540 735Q558 735 564 732.50Q570 730 579 720Q592 705 592 693Q592 680 598.50 675.50Q605 671 631 668Q664 663 684 653Q697 647 702 642Q707 637 709 627Q713 612 707 598Q703 587 672 555Q641 523 626 514Q611 506 615 494Q619 482 636 484Q646 485 687.50 481.50Q729 478 740 468L751 459L745 432Q740 405 731 399.50Q722 394 671 379.50Q620 365 581 345Q554 331 547 325.50Q540 320 537 309Q519 240 522 236Q524 234 576.50 233.50Q629 233 650 224Q687 207 705 174.50Q723 142 728 82Q729 59 726.50 45.50Q724 32 710-10Q690-69 676-95Q662-121 646-130Q634-137 624-138.50Q614-140 583-139Q550-138 539-135Q528-132 501-119Q445-91 396-42Q378-24 375-18.50Q372-13 376-8Q382-1 385.50 11.50Q389 24 407 32.50Q425 41 443 38Q458 36 479 21.50Q500 7 509-7L517-22L507-29Q498-37 488-38L482-39Q482-40 490-44Q500-50 530-50Q560-50 571-45Q588-36 604 25Q620 86 614 119Q609 145 602 154Q595 163 580 163Q561 163 538.50 156Q516 149 507 140Q491 124 463.50 126Q436 128 417 147L403 159L406 193Q408 227 419 246Q438 278 427 278Q423 278 387 263Q351 248 332 241Q292 226 256 196Q229 173 204 182Q179 191 161 228Q137 280 159 302Q167 310 174 311.50Q181 313 208 314Q222 314 230.50 318.50Q239 323 262 342Q296 369 332 404Q368 439 402 468Q429 492 429 497.50Q429 503 400 506Q377 509 356 516Q335 523 333 528Q327 545 367 566Q390 578 408 592.50Q426 607 462 627Q487 640 494 647Q501 654 498 665Q492 694 493 704Q494 714 503 723M472 433Q477 451 476 452Q475 453 454.50 440.50Q434 428 423 420Q411 410 371.50 380.50Q332 351 332 349Q333 348 336 348.50Q339 349 343.50 351Q348 353 351 356Q356 359 402 379Q443 396 455.50 405.50Q468 415 472 433Z"  horiz-adv-x="1000" vert-adv-y="1000"  />

      
      <glyph glyph-name="uni4E16" unicode="&#x4E16;" d="M600 659Q618 683 625.50 689.50Q633 696 641 696Q658 696 669.50 688.50Q681 681 695 659L714 631L710 586Q707 541 706 519L706 497L722 497Q791 500 806.50 498.50Q822 497 853 486Q892 471 912 451.50Q932 432 932 425.50Q932 419 905 409Q878 399 854.50 403Q831 407 775 407Q712 407 693.50 392.50Q675 378 652 313Q637 271 637 261Q637 251 652 243Q668 233 668 229Q668 219 655 204.50Q642 190 629 184Q609 175 602.50 165Q596 155 580.50 146.50Q565 138 554 144Q543 150 520 145.50Q497 141 477 129Q459 118 444.50 111Q430 104 430 100Q430 85 407 108Q391 124 381 143Q375 155 373.50 165.50Q372 176 373 203Q375 245 378 261Q381 272 379 276.50Q377 281 365 290Q330 316 312 285Q307 275 306.50 271Q306 267 310 259Q316 248 312 217.50Q308 187 312 115L316 44L347 43Q378 43 390 48.50Q402 54 410.50 53.50Q419 53 457 63Q565 90 671 98Q694 100 729 92.50Q764 85 788 73Q799 68 816 48.50Q833 29 833 20Q834 15 818 3L801-9L760-4Q682 6 632.50 3Q583 0 495.50-19Q408-38 355-23Q319-13 314-14Q309-15 305-33Q299-58 288-80Q277-102 271-102Q264-102 264-97Q264-92 248.50-65.50Q233-39 232.50-29Q232-19 226-11Q222-5 223.50-1.50Q225 2 237 13Q254 28 258 54Q266 98 266 198Q266 235 264.50 245.50Q263 256 253 271Q240 292 230.50 296.50Q221 301 168 306Q41 316 40 327Q39 330 43 333Q53 343 161 369Q204 379 211 385Q218 391 228.50 391Q239 391 247 398.50Q255 406 261 401Q274 391 318.50 397.50Q363 404 378 418Q384 424 382.50 428.50Q381 433 366 449Q352 465 346 480Q340 495 344 502Q353 516 382 504Q411 492 431 466Q445 449 456 446Q467 443 484 452Q495 458 502 469.50Q509 481 521 513Q552 596 600 659M629 632Q617 651 596 628Q582 614 573 595.50Q564 577 544 524Q523 467 527 463Q531 459 564.50 468Q598 477 603 484Q613 498 624 560.50Q635 623 629 632M572 368Q574 380 570.50 381Q567 382 541 375Q510 368 499 360Q488 352 478 329Q464 298 471.50 288.50Q479 279 517 280Q529 281 533.50 285.50Q538 290 551 317Q569 354 572 368M381 315Q390 321 382 321Q379 321 374 319Q365 316 369.50 313.50Q374 311 381 315M477 233Q479 234 479 236Q479 238 470 243Q464 246 463 245Q463 244 464 241Q467 233 477 233Z"  horiz-adv-x="1000" vert-adv-y="1000"  />

      
      <glyph glyph-name="uni4E19" unicode="&#x4E19;" d="M495 756Q540 770 572 770Q598 770 609 766Q620 762 637 747Q662 725 662 705Q662 693 649 680Q636 667 628 670Q621 673 601.50 675.50Q582 678 556 664Q530 650 500 625Q477 606 474 601.50Q471 597 477 590Q494 571 500 552.50Q506 534 509 492Q512 437 513.50 435Q515 433 545 444Q631 475 719 471Q771 469 790 461Q819 449 843 414.50Q867 380 876 338Q881 313 876 261Q863 132 858 128Q854 126 854 115.50Q854 105 849.50 105Q845 105 847 101Q851 95 833 55Q815 15 799-5Q785-23 762.50-36Q740-49 723-49Q712-49 706-46Q700-43 691-34Q681-23 660-8Q639 7 560 61Q504 100 494.50 105Q485 110 475 106Q455 98 446.50 99Q438 100 426 110Q413 120 407.50 135Q402 150 395 193Q391 221 383.50 248.50Q376 276 371 282Q368 285 334.50 266Q301 247 274.50 237.50Q248 228 216.50 208Q185 188 172 181Q150 169 150 132Q150 106 136 69Q122 32 109 23Q103 18 88 19.50Q73 21 68 27Q51 45 48 78Q45 111 57 137Q81 188 171 310.50Q261 433 328 506Q345 525 358.50 555Q372 585 381 594L390 604L380 606Q369 608 352 610Q325 614 296 631.50Q267 649 271 660Q274 666 305 684Q352 710 495 756M410 487Q405 516 399 516Q396 516 390 505Q377 484 373 454Q369 424 376 399Q384 370 404 391Q412 400 414 429.50Q416 459 410 487M358 392Q363 419 365.50 448.50Q368 478 362 485Q359 490 354.50 487Q350 484 337 466Q317 440 304 425Q216 320 172 265Q167 259 167 258.50Q167 258 173 263Q182 269 195.50 280.50Q209 292 225 300Q306 335 333 353Q347 362 350.50 367.50Q354 373 358 392M783 354Q771 375 756 383Q741 391 694 390Q647 390 622.50 386Q598 382 563 369Q535 358 528.50 353.50Q522 349 514 333Q508 320 504 300Q500 280 500 265Q500 250 505 250Q511 250 514 253Q517 256 551.50 271Q586 286 606 293Q644 307 668 288Q685 275 692.50 251Q700 227 692 212Q687 204 653 186Q619 168 599 146L580 124L625 103Q661 85 696.50 72Q732 59 738 62Q746 64 761 99.50Q776 135 784 172Q795 222 796 278Q796 319 794.50 329Q793 339 783 354M566 150Q573 165 571 167Q570 169 565 164.50Q560 160 555.50 153.50Q551 147 551 144Q551 132 559 140Q563 143 566 150Z"  horiz-adv-x="1000" vert-adv-y="1000"  />

      
      <glyph glyph-name="uni4E1A" unicode="&#x4E1A;" d="M513 714Q543 721 585 700Q647 670 666 649Q675 640 677 634Q679 628 678 611Q678 595 675 586.50Q672 578 661 563Q644 540 639 523Q634 508 628 473.50Q622 439 623 437Q624 436 656 440Q713 447 752 429Q781 415 787 401Q793 387 780 361Q766 333 724.50 295Q683 257 646 238Q626 229 619 223.50Q612 218 611 211Q609 199 609.50 179Q610 159 613 154.50Q616 150 662 126Q707 103 737 88Q764 73 780 70.50Q796 68 823 54Q841 45 845.50 40.50Q850 36 851 26Q852 12 839-2Q824-17 803-19Q782-21 742-11Q713-3 690.50-1.50Q668 0 592 0Q521 1 489.50-1Q458-3 409-10Q333-21 308-27Q282-33 250.50-33Q219-33 205-27Q191-20 186-4.50Q181 11 188 27Q195 43 198.50 45.50Q202 48 234 52Q289 60 302 84Q307 93 302 124Q293 179 302 231Q307 261 305 263Q303 265 286.50 258.50Q270 252 259 245Q252 241 225.50 231Q199 221 190 210Q167 184 147 184Q136 184 124 196.50Q112 209 106.50 209.50Q101 210 98 221Q95 232 97.50 261Q100 290 105 300Q117 325 153 318Q171 315 213 315.50Q255 316 252.50 312Q250 308 253.50 308Q257 308 274 313Q293 317 293 321Q293 325 303 326Q309 327 311 334.50Q313 342 315 378Q320 454 308 479Q300 494 308 490Q313 487 325 476Q366 436 376 386Q382 358 384.50 356Q387 354 401 358Q481 386 485 394Q490 403 495 459Q500 515 500 562Q499 658 485 658Q482 658 479 670Q477 678 479 683Q481 688 490 698Q505 712 513 714M662 380.50Q662 380.50 665 383.25Q668 386 668 392Q668 398 659 397Q649 397 635 393.50Q621 390 618.50 388Q616 386 614.50 370Q613 354 613.50 339.50Q614 325 616 325Q620 325 638 346Q656 367 656 371Q656 375 662 380.50M487 291Q490 331 484.50 335.50Q479 340 447 327Q390 304 390 292Q391 287 399 281Q407 276 405 271Q403 266 421 255Q442 241 443 244Q443 246 436 250Q424 260 433 259Q440 258 455 252Q478 244 481 248.50Q484 253 487 291M432 224Q409 248 405 248Q403 246 404.50 231.50Q406 217 410 199Q414 181 416 179Q420 175 432 179.50Q444 184 449 191Q453 197 450.50 202Q448 207 432 224M498 112Q498 119 484 134Q473 146 470 147Q467 148 456 143Q434 132 427 90Q424 71 417 66Q406 58 424 58Q433 59 455 61Q495 66 574 64Q649 62 654 68Q657 72 650 85Q644 95 631 109.50Q618 124 614 124Q611 124 606.50 114.50Q602 105 594.50 106.50Q587 108 582 96Q577 84 576 82.50Q575 81 558 90Q541 99 526 99Q498 99 498 112Z"  horiz-adv-x="1000" vert-adv-y="1000"  />

      
      <glyph glyph-name="uni4E2D" unicode="&#x4E2D;" d="M549 732Q558 737 565 736.50Q572 736 588 728Q601 722 604 717.50Q607 713 609 696Q611 673 608 638Q607 617 606 608.50Q605 600 607 589.50Q609 579 611 577Q613 575 622.50 571.50Q632 568 640 568Q648 568 668 567Q699 567 712 564.50Q725 562 750 551Q787 536 808 519Q823 506 825.50 500.50Q828 495 828 475Q828 456 825.50 450Q823 444 809 430Q789 411 780 396Q759 362 721 333Q696 314 696 306.50Q696 299 715 278L735 257L732 232Q730 216 727.50 209Q725 202 717 194Q704 183 691.50 183Q679 183 654 172Q638 165 630 158.50Q622 152 613 137Q597 114 597.50 98Q598 82 592.50-36Q587-154 590-170Q593-186 589-199Q585-211 558-236Q531-261 521-261Q513-261 504-252.50Q495-244 495-236Q495-228 487-195Q466-112 493-105Q499-104 501.50-97Q504-90 508-66Q513-29 513.50 21Q514 71 510 90Q505 112 495 120Q489 125 486 125Q483 125 478 121Q471 114 465.50 114Q460 114 447 105Q434 96 411 94.50Q388 93 381 89.50Q374 86 333 93Q302 98 288.50 104.50Q275 111 254 131Q246 140 227 146Q210 152 190.50 166Q171 180 169 188Q166 195 161 196Q152 196 145 222Q138 248 145 253Q150 256 150 263.50Q150 271 160.50 281Q171 291 171 296.50Q171 302 179 316Q185 325 186.50 339Q188 353 189 396Q189 462 186 512Q183 562 186.50 562Q190 562 209.50 518.50Q229 475 241 451.50Q253 428 260 414Q269 396 288.50 402Q308 408 355 444Q391 471 445 509L500 547L500 567Q500 589 504.50 620.50Q509 652 513 652Q516 652 516.50 657Q517 662 515 668.50Q513 675 510 677Q504 683 504 690Q504 695 519 709Q534 723 549 732M668 474Q657 478 636 470Q621 465 614 464Q609 464 601 454.50Q593 445 593 438Q593 430 603.50 413Q614 396 619 396Q625 396 650 422Q690 466 668 474M513 409Q511 423 509 428Q507 433 501 433Q492 435 488.50 429Q485 423 471 415Q446 399 421.50 378.50Q397 358 397 353Q397 346 388 338Q380 331 371.50 313.50Q363 296 363 286Q363 266 389 278Q404 285 418.50 287.50Q433 290 437.50 293.50Q442 297 460 302.50Q478 308 494 327Q509 344 513 362Q517 380 513 409Z"  horiz-adv-x="1000" vert-adv-y="1000"  />

      
      <glyph glyph-name="uni4E3A" unicode="&#x4E3A;" d="M474 665Q501 681 506.50 682.50Q512 684 514 678Q516 672 484 637Q445 593 434 577.50Q423 562 417 543Q410 517 402.50 510Q395 503 374 501Q350 498 330 507Q315 514 311 520.50Q307 527 296 559Q283 601 280 619Q278 632 279 634.50Q280 637 289 640Q298 642 328 634Q358 626 371 617Q378 612 384 614Q390 616 411 629Q442 647 474 665M556 761Q563 767 569 768Q575 769 592 768Q617 765 618.50 760.50Q620 756 630 744Q638 735 640 723Q642 711 637 708Q633 705 623.50 671Q614 637 606 597Q597 550 587 516Q574 474 578.50 468.50Q583 463 627 463Q685 463 712 452Q739 441 761 408Q781 378 790 336Q799 294 802 221Q803 183 801.50 168Q800 153 793 128Q785 100 765.50 58Q746 16 736 5Q729-3 723.50-3Q718-3 710.50-12Q703-21 683.50-32Q664-43 637-61Q617-75 600.50-79Q584-83 579-75Q577-72 564-76.50Q551-81 517-67Q489-55 469.50-38.50Q450-22 446-7Q444 6 440 8Q436 10 436 16.50Q436 23 440 23Q444 23 465 6Q508-28 555-20Q586-15 609-2Q632 11 657 38Q736 122 742 261Q744 298 742.50 311Q741 324 732 350Q725 372 720.50 380Q716 388 708 392Q686 403 641.50 406Q597 409 565 401Q551 397 545.50 392.50Q540 388 529 367Q513 338 508 322Q503 306 489 278L475 250L512 247Q588 241 616 224Q635 213 634.50 194Q634 175 613 155L600 142L566 167Q532 192 520 195Q508 198 511 206Q513 213 506 217.50Q499 222 481 224L464 227L451 199Q439 173 419 148.50Q399 124 378 110Q356 96 350 88Q342 78 319.50 69.50Q297 61 279 61Q257 61 241.50 68.50Q226 76 201 99L174 124L174 160Q174 195 185 219Q197 245 224 277.50Q251 310 276 329Q300 347 370.50 384Q441 421 473 432Q500 442 508 454Q515 462 528.50 494.50Q542 527 549 552Q556 573 568 644.50Q580 716 578 721Q575 728 564 726Q549 724 546.50 736.50Q544 749 556 761M457 336Q461 347 463 353Q465 359 465.50 362.50Q466 366 465 367Q464 368 462 368Q454 368 400 339Q346 310 326 295Q305 280 283 251Q261 222 252 198Q237 159 248.50 135.50Q260 112 291 118Q303 120 330.50 141.50Q358 163 376 184Q390 200 416 248.50Q442 297 457 336Z"  horiz-adv-x="1000" vert-adv-y="1000"  />

      
      <glyph glyph-name="uni4E3E" unicode="&#x4E3E;" d="M326 707Q335 719 334 707Q334 704 333 699Q327 671 295 621Q276 591 284 558Q287 546 280 535Q275 528 271 526.50Q267 525 257 526Q243 529 236 535Q229 541 218 562Q208 581 205.50 601Q203 621 211 624Q216 626 230 620Q244 614 256 621Q271 629 286 645Q301 661 310 679Q321 702 326 707M382 772Q384 776 388 776Q392 776 406 772Q423 768 442 747Q461 726 464 709Q466 694 471 693Q476 692 496 703Q508 708 519 713Q526 715 526 713Q525 711 513 697Q497 678 488 672Q479 666 472 643Q465 619 456 614Q447 609 431 621Q414 632 412 640Q401 666 401 706Q401 728 399.50 736Q398 744 390 754Q379 768 382 772M696 770Q683 777 680.50 781Q678 785 706 785Q725 785 733.50 782.50Q742 780 758 770Q779 757 786.50 745.50Q794 734 793 720Q792 711 786.50 704.50Q781 698 762 684Q734 663 708 647Q682 631 675 631Q664 631 556 564Q519 540 474 516.50Q429 493 414 489Q408 488 394 477Q380 466 369 454.50Q358 443 360 441Q363 438 379 444.50Q395 451 426.50 463.50Q458 476 482 490Q506 504 541 523Q568 537 575.50 539Q583 541 600 538Q640 530 640 520Q640 502 589 454Q553 419 555 416.50Q557 414 593 411.50Q629 409 669 404L709 400L735 374Q759 348 761.50 339.50Q764 331 751 319Q738 308 714.50 296.50Q691 285 681.50 285Q672 285 643 281L614 276L635 264Q657 252 657 248Q657 244 639 229Q626 218 624.50 215Q623 212 629 205Q637 197 686.50 164Q736 131 737.50 129.50Q739 128 737 118Q734 109 722 104Q710 99 682 96Q660 94 635 85Q610 76 601 68Q596 62 594.50 46.50Q593 31 593-33Q593-126 589-145Q579-200 575.50-211Q572-222 562-224Q543-227 536.50-214Q530-201 538-175Q540-167 547-81Q554 5 555 38Q555 48 516 28Q512 26 507 24Q429-18 393-24Q377-26 368-19L358-11L375 14Q393 39 393 45Q393 51 405 51Q427 51 467 89Q490 111 525 150Q560 189 558 190Q556 193 531 182Q477 158 428 157Q402 156 394.50 160.50Q387 165 394 177Q402 191 414 206.50Q426 222 429 222Q432 222 468 243.50Q504 265 535 277L566 288L565 321Q564 354 570 354Q575 354 582 344.50Q589 335 591 322Q594 309 596 304Q597 300 619.50 306.50Q642 313 664.50 323Q687 333 687 338Q687 341 679 345Q672 349 605 368.50Q538 388 532 388Q525 388 499 359Q473 330 456 304Q435 274 429 271.50Q423 269 413 253Q403 238 365.50 197Q328 156 318 150Q310 145 289.50 145Q269 145 266 150Q263 156 254.50 160.50Q246 165 242.50 178Q239 191 243 201Q246 210 248.50 210.50Q251 211 260 206Q269 202 273 202Q277 202 285 207Q300 217 341 259.50Q382 302 412 339Q450 386 466 403Q486 425 479 425Q473 425 429 407Q355 377 330 373Q302 370 296.50 380Q291 390 305 417Q315 436 364 476Q485 576 505 587Q517 594 553 623Q589 652 624 675.50Q659 699 684 721Q705 741 707.50 752Q710 763 696 770M528.50 244Q528.50 244 545.75 250.50Q563 257 565.50 260.50Q568 264 565 264Q560 264 534 255Q482 236 485 231Q486 231 487 231Q494 231 528.50 244M658 132Q658 132 662 132Q666 132 666 137.50Q666 143 636.50 172Q607 201 603 195Q601 192 598.50 171.50Q596 151 595.50 134.50Q595 118 598 115Q601 115 625.50 123.50Q650 132 658 132M551 97Q558 103 559.50 126Q561 149 558 149Q556 149 537 129.50Q518 110 501 90Q484 70 486 69Q490 68 517.50 79.50Q545 91 551 97Z"  horiz-adv-x="1000" vert-adv-y="1000"  />

      
      <glyph glyph-name="uni4E48" unicode="&#x4E48;" d="M618 610Q633 618 646 618Q657 618 678.50 608.50Q700 599 716 587Q729 578 748 552Q767 526 775 509Q781 493 783 474.50Q785 456 781 448.50Q777 441 751 433.50Q725 426 713 428Q705 430 700 427.50Q695 425 686 414Q671 397 667 397Q663 397 626 357Q590 320 568 296Q515 240 484 188Q482 184 493 185Q520 185 546 199Q565 208 602 219Q630 227 635 230.50Q640 234 642 246Q646 273 649.50 280.50Q653 288 661 288Q668 288 670.50 285Q673 282 674 269Q676 250 681 248Q685 247 685 251Q684 253 682 258Q678 269 675 303Q674 325 674.50 331.50Q675 338 680 340Q695 345 732.50 317.50Q770 290 796 255Q812 232 821 223Q831 214 850.50 166.50Q870 119 870 105Q870 92 860.50 77Q851 62 836 52Q824 44 815 44Q806 44 769 52Q751 56 746.50 62Q742 68 736 99Q734 108 731.50 109.50Q729 111 717 109Q702 106 676 102Q650 98 588.50 74Q527 50 495 39Q463 28 446 16.50Q429 5 403-8Q377-21 364.50-29.50Q352-38 340-37.50Q328-37 309-26Q279-9 265 16Q258 28 248 47Q238 65 238 98Q238 131 240.50 135.50Q243 140 277 143Q298 145 307 147.50Q316 150 326 158Q341 171 416 269Q491 367 497 381Q499 389 521 426Q528 437 532.50 445.50Q537 454 538.50 458.50Q540 463 538 464Q524 469 546 489Q570 511 587 541Q604 571 600 582Q594 597 618 610M296 614Q304 617 320 614Q335 610 382 584Q429 558 459 537Q482 520 486 514.50Q490 509 490 494Q490 474 484 469Q478 464 478 457Q478 452 455 439.50Q432 427 407 420Q390 415 371 397Q352 379 330.50 365Q309 351 285.50 326.50Q262 302 245 293Q198 269 168 229Q152 207 150 215Q148 223 158.50 251Q169 279 186 310Q205 345 228 410.50Q251 476 257.50 491.50Q264 507 268 550Q271 584 276.50 596.50Q282 609 296 614Z"  horiz-adv-x="1000" vert-adv-y="1000"  />

      
      <glyph glyph-name="uni4E4B" unicode="&#x4E4B;" d="M662 490Q685 500 692.50 500Q700 500 713 488Q727 475 743 460Q759 445 765 426Q771 407 763 394Q757 383 722 348Q687 313 682.50 313Q678 313 658.50 299Q639 285 628 273Q614 260 611 259.50Q608 259 595 246Q580 232 520 202Q474 180 420 151Q387 133 355 127Q302 117 302 114Q302 112 330 111Q362 111 417 102.50Q472 94 504 84Q534 76 554 70.50Q574 65 605 50Q643 32 676 23Q709 14 767 6Q840-5 862-11Q904-21 921.50-40.50Q939-60 924-80Q919-86 917-86Q915-86 911.50-80.50Q908-75 902.50-75Q897-75 877-80Q834-91 813-93.50Q792-96 760-94Q692-91 643-58Q566-8 494 14Q457 26 442.50 28.50Q428 31 402 29Q363 27 331.50 19.50Q300 12 285.50 12Q271 12 262.50 7.50Q254 3 221 0.50Q188-2 150 10Q104 25 97 32Q90 39 90 68Q90 97 96 106Q102 115 121 115Q134 116 167.50 124.50Q201 133 209.50 133Q218 133 235.50 147Q253 161 315 190.50Q377 220 419 248Q462 275 485 291Q501 302 523 319.50Q545 337 559 351.50Q573 366 571 367Q561 373 518 347Q506 340 480 328.50Q454 317 449 317Q445 317 433.50 308.50Q422 300 403 295Q384 290 378 284Q373 279 335 262.50Q297 246 286 244Q278 243 256 233Q204 209 187 227Q179 235 178 243Q177 251 181 280Q186 314 175 349Q172 357 174 357Q175 357 178 354Q185 349 190 359.50Q195 370 214 373Q233 376 245 378.50Q257 381 290 407Q339 447 334 427Q332 420 324 407Q315 391 311 379Q308 369 310 368Q312 367 323.50 369Q335 371 394 392.50Q453 414 496 432Q609 479 631 479Q638 479 662 490M348 701Q348 706 350 707Q352 708 360.50 705Q369 702 382.50 696Q396 690 421 678Q481 649 485 649Q489 649 500.50 638.50Q512 628 522 622.50Q532 617 543 593Q563 546 558 533Q553 520 512 515Q477 511 445.50 494.50Q414 478 408 484Q397 492 409 531Q417 560 410.50 584Q404 608 377 648Q361 673 361 678.50Q361 684 354.50 689.50Q348 695 348 701Z"  horiz-adv-x="1000" vert-adv-y="1000"  />

      
      <glyph glyph-name="uni4E4F" unicode="&#x4E4F;" d="M583 678Q670 608 670 602L669 580Q642 529 572 512Q536 500 494 494L494 489Q507 471 568 430Q582 383 591 369Q626 381 634 380Q698 371 697 348Q642 227 469 118Q447 119 350 55Q350 46 524 25Q797-25 885-46Q923-60 927-74Q843-121 754-117Q704-115 431-43Q389-33 355-31L338-31Q279-28 144-56Q121-55 107-29L107-12Q119 1 264 50Q342 108 512 223Q563 262 584 297Q580 310 576 310Q501 313 339 192Q324 193 268 135Q264 136 255 132Q218 133 198 198Q201 258 273 255Q321 269 446 376Q464 394 465 414L446 483Q361 487 181 396L173 409Q338 532 504 617Q544 680 575 679L583 678M470 336Q469 328 482 327Q517 342 517 347L518 356L496 357Q470 343 470 336Z"  horiz-adv-x="1000" vert-adv-y="1000"  />

      
      <glyph glyph-name="uni4E59" unicode="&#x4E59;" d="M545 622Q560 626 597 623.50Q634 621 650 615Q669 607 676.50 600Q684 593 688 578Q694 560 700 550Q705 542 703.50 532.50Q702 523 696 523Q691 523 646 504Q601 485 579 466Q528 421 461 315Q394 209 391 167Q389 152 391 147Q393 142 401 136Q423 120 452 114.50Q481 109 533 109Q595 110 655.50 121Q716 132 723 144Q729 155 734 194.50Q739 234 740 266Q740 310 745 310Q750 310 760 290Q770 270 770 260Q770 252 776 241.50Q782 231 782 219.50Q782 208 799.50 199Q817 190 821 180.50Q825 171 854 156Q883 141 895 121Q918 83 907 62Q902 53 889 55Q878 58 812.50 53.50Q747 49 714 43Q408-8 318 73Q294 94 286.50 109Q279 124 277 154Q275 179 276.50 189Q278 199 290 227Q302 257 340.50 322Q379 387 412 434Q437 470 444 482Q448 491 447.50 492Q447 493 440 491Q430 488 396 471.50Q362 455 321.50 438.50Q281 422 249 406.50Q217 391 190 391Q166 391 147 396.50Q128 402 123 410Q119 417 109 432Q95 454 104 465Q113 476 151 483Q211 493 296 531Q317 540 380 562Q443 584 477 594Q503 601 517 609.50Q531 618 545 622Z"  horiz-adv-x="1000" vert-adv-y="1000"  />

      
      <glyph glyph-name="uni4E5D" unicode="&#x4E5D;" d="M408 705L429 705Q475 705 522 646L522 633L455 477Q463 475 463 468Q505 472 527 472L535 472Q569 447 577 422Q514 272 489 168L489 134Q492 96 548 96L586 96Q771 107 789 130Q746 559 746 646Q746 650 742 658Q746 665 746 680L751 680Q760 675 785 527Q796 501 839 325Q854 310 911 147Q914 147 949 96L949 62Q949 24 730 24Q676 24 518 7Q425 21 425 50Q400 84 400 134Q400 189 451 358Q442 363 438 363Q380 330 328 244Q264 108 176-1L172-1Q135-1 125 75Q85 226 40 257Q40 263 32 274Q37 312 70 312L74 312Q104 303 108 303Q157 303 303 396Q338 417 404 608Q404 617 379 646L379 654Q379 679 408 705M138 193L138 181Q138 151 163 151Q186 151 235 257L231 257Q146 211 138 193Z"  horiz-adv-x="1000" vert-adv-y="1000"  />

      
      <glyph glyph-name="uni4E60" unicode="&#x4E60;" d="M391 466Q435 477 463 457Q476 447 494.50 420.50Q513 394 513 385Q513 381 502.50 379.50Q492 378 456 378L398 378L405 388Q411 398 405.50 401.50Q400 405 376 408Q353 411 339 412Q325 414 306 399.50Q287 385 284 394Q281 403 298 418Q311 429 342.50 445.50Q374 462 391 466M590 707Q620 714 637.50 712.50Q655 711 672 700Q692 688 700 674Q719 644 733 510Q738 469 738 371Q738 273 733 210Q726 118 723 110Q722 105 718 58.50Q714 12 713-12Q711-50 696-83Q689-97 685.50-99.50Q682-102 669-101Q651-99 631.50-79.50Q612-60 607-45Q603-31 588-17Q573-3 509 48Q490 64 484 76Q479 86 457 111.50Q435 137 432 137Q428 137 384 102Q340 67 323 51Q308 35 301 30.50Q294 26 284 26Q274 26 268.50 29Q263 32 255 42Q246 53 244 62Q242 71 240 101Q239 144 246 158Q260 185 280 190Q295 194 310.50 205.50Q326 217 332 229L340 245L346 232Q352 218 355 218Q358 218 390.50 238.50Q423 259 456 280Q489 301 500 308Q511 315 545 324.50Q579 334 597 339L614 344L614 331Q615 319 615.50 308.50Q616 298 598 271Q586 254 573.50 243Q561 232 530 212Q485 182 466.50 166.50Q448 151 451 146Q454 141 492 109Q523 84 559.50 64Q596 44 615 42Q626 41 629 44Q632 47 638 62Q660 122 665.50 368.50Q671 615 651 650Q640 668 625.50 668.50Q611 669 563 654Q507 635 487 626Q466 615 442.50 594Q419 573 415 562Q404 529 378 527Q323 523 306 517Q298 514 278 524Q258 534 251 544Q235 566 254 578Q262 583 316 603.50Q370 624 376 624Q382 624 436 649Q531 694 590 707Z"  horiz-adv-x="1000" vert-adv-y="1000"  />

      
      <glyph glyph-name="uni4E8B" unicode="&#x4E8B;" d="M534 772Q541 781 555.50 780.50Q570 780 584 772Q594 766 598.50 758Q603 750 611 726L623 689L638 690Q653 690 683 693L713 696L735 679Q757 661 755 655Q752 649 725 634Q698 619 666 606Q627 591 618.50 584.50Q610 578 607 563Q604 548 609.50 539Q615 530 635 520Q649 513 651.50 507Q654 501 650 483Q645 457 612 422Q602 411 592.50 393.50Q583 376 583 368Q583 362 594.50 364.50Q606 367 654 372Q690 375 698.50 374.50Q707 374 721 365Q740 354 756 333Q767 317 769 310.50Q771 304 769 285Q767 258 753 228Q726 170 717 131Q716 123 718 118.50Q720 114 730 104Q746 90 758 85Q770 80 770 75Q770 68 753.50 59.50Q737 51 715 47Q698 44 691 41Q684 38 676 28Q652-1 641 8Q636 12 614 15Q597 17 593.50 15.50Q590 14 587 6Q582-6 586-64Q588-109 586-149Q584-189 578-200Q575-207 566.50-208.50Q558-210 554-203Q551-198 538-192.50Q525-187 504-147Q483-107 473-96Q459-81 464-72Q465-68 470-70Q512-87 519.50-84Q527-81 527-47Q527-13 523-10Q516-6 430-39Q386-55 379.50-55Q373-55 363-45Q347-29 354-8Q361 13 386 26Q401 34 424.50 53.50Q448 73 474 92Q498 110 507 118Q516 126 519 135Q520 139 520.50 142Q521 145 518 146Q515 147 509.50 146Q504 145 494 142Q455 132 411 142Q367 152 367 171Q367 179 371.50 180Q376 181 400 180Q432 178 468 188Q510 198 516.50 206.50Q523 215 523 254L523 298L507 294Q491 289 435.50 252Q380 215 362 208Q349 202 344.50 202Q340 202 328 208Q313 215 307 226.50Q301 238 300 262Q299 282 305 291Q311 300 330 307Q356 316 410.50 356.50Q465 397 485 423Q495 436 506 449L517 462L504 459Q492 456 474.50 444Q457 432 448 429.50Q439 427 423.50 434Q408 441 405 449Q403 458 406 494Q408 518 410 526Q412 534 419 541Q430 551 438 551Q448 551 471 562.50Q494 574 508 586L525 601L508 599Q491 597 478 591.50Q465 586 437.50 578Q410 570 401.50 564.50Q393 559 386 559Q375 559 351.50 546Q328 533 310 519Q289 501 276.50 497.50Q264 494 239 501Q214 508 190 514Q156 522 142 531Q128 540 124 555Q119 577 145 586Q153 589 212 599.50Q271 610 303 615Q333 619 352 623Q371 627 412 634Q465 643 505.50 654.50Q546 666 552 673Q556 679 557 700.50Q558 722 554 728Q551 733 541 738Q531 743 529 754Q527 765 534 772M672 325Q664 330 615 324Q585 320 580.50 315.50Q576 311 576 270L576 228L594 226Q612 224 619.50 217Q627 210 638 207Q646 205 648.50 207.50Q651 210 655 223Q669 269 675 306Q677 321 672 325M623 154Q621 158 617 157.50Q613 157 601 150Q587 144 584 133Q581 123 581 102.50Q581 82 584 79Q587 75 595.50 81.50Q604 88 607 97Q626 149 623 154M524 74Q526 88 523 91Q520 94 485 66Q448 35 459 35Q464 34 479 38Q520 50 524 74Z"  horiz-adv-x="1000" vert-adv-y="1000"  />

      
      <glyph glyph-name="uni4E8C" unicode="&#x4E8C;" d="M505 571Q571 588 596.50 589.50Q622 591 646 580Q672 568 700.50 546Q729 524 734 512Q742 492 738.50 485Q735 478 712 467Q688 457 670 444Q652 431 605 391Q538 333 497 305Q469 287 429 253Q357 192 306 164Q275 147 275 143Q275 139 298 136.50Q321 134 351 136Q375 137 404.50 145Q434 153 524 184Q638 222 670.50 227.50Q703 233 746 222Q788 212 806.50 194Q825 176 825 146Q825 132 817.50 126.50Q810 121 784 117Q675 101 586 74Q396 17 287 38Q251 45 241 53Q230 61 219.50 82Q209 103 207 121Q205 142 213.50 151.50Q222 161 245 164Q299 171 426 283Q456 311 509 366Q562 421 560 423Q558 424 511 416Q444 405 377 421Q357 425 339 417Q326 411 320.50 410.50Q315 410 306 414Q272 429 260 460Q248 493 268 514.50Q288 536 332 536Q368 536 505 571Z"  horiz-adv-x="1000" vert-adv-y="1000"  />

      
      <glyph glyph-name="uni4E8E" unicode="&#x4E8E;" d="M572 693Q639 716 674 682Q687 669 701 661Q711 655 712 653Q713 651 707 646Q699 641 681.50 636Q664 631 659 624.50Q654 618 647.50 618Q641 618 618 597Q595 576 590 576Q585 576 571 564Q557 552 546 544Q538 539 537.50 536.50Q537 534 540 530Q547 524 593 505Q622 493 637.50 489Q653 485 679 484Q719 481 735.50 476Q752 471 769 454Q789 436 796.50 433.50Q804 431 804 423Q804 411 777 413Q769 414 760 407.50Q751 401 740 401Q729 401 666 385Q625 375 613 370.50Q601 366 598 360Q594 350 607 267.50Q620 185 620 176.50Q620 168 625 119Q629 73 626.50 23.50Q624-26 616-45Q607-65 589.50-84Q572-103 563-101Q553-100 549-107Q544-115 523-126Q502-137 495-135Q486-133 475-139Q435-162 410-162Q392-162 392-160Q392-159 393-157Q400-151 398-149Q396-147 386-149Q372-151 373-145Q374-140 391-129Q409-117 434.50-92.50Q460-68 484-45Q509-21 520.50-2.50Q532 16 537 41Q543 68 543 130Q543 192 537 234Q531 275 528.50 308Q526 341 519 341Q512 341 476 322Q440 303 433 303Q426 303 420 298Q415 295 420 295Q421 296 424 296Q430 298 431 297L420 286Q405 273 396 273Q382 273 348 247Q314 221 315 211Q315 206 306.50 205Q298 204 290 208Q281 212 274 215Q257 220 258 264Q258 288 262.50 296.50Q267 305 286 319Q307 335 326 361Q345 386 384 439Q410 475 455 520.50Q500 566 521 579L507 576Q502 575 495 572Q472 565 463 564Q454 563 437 566Q417 571 372.50 587.50Q328 604 318 611Q309 618 313 620Q325 628 390 634Q422 636 445.50 644.50Q469 653 478 656Q493 659 534 679Q543 683 572 693M496 464Q482 482 480 482Q470 482 430 427.50Q390 373 396 368Q397 366 433 383Q469 400 489.50 407.50Q510 415 513 421Q518 435 496 464M589 469Q576 481 571 476.50Q566 472 576 457Q585 445 595 449Q599 450 599 454Q599 459 589 469M433-128Q433-120 419-128Q408-135 413-138Q415-139 422-136Q433-131 433-128Z"  horiz-adv-x="1000" vert-adv-y="1000"  />

      
      <glyph glyph-name="uni4E94" unicode="&#x4E94;" d="M490 672Q553 680 579 674.50Q605 669 633 640Q649 624 651.50 618Q654 612 653 592Q652 566 636.50 512.50Q621 459 620.50 453Q620 447 645 441Q682 432 713.50 408Q745 384 756 357Q760 346 758.50 309Q757 272 752 254Q748 237 732.50 195Q717 153 711 144Q707 137 707 133Q707 129 728 128.50Q749 128 774 129.50Q799 131 809 135Q843 147 881 120Q916 96 916 60Q916 36 892 32Q868 28 807 41Q752 53 627.50 41Q503 29 377-1Q338-10 300-11Q274-13 261-11Q248-9 221 0Q95 42 166 69Q194 80 306 89Q354 93 358 97Q362 101 346 126.50Q330 152 322.50 167Q315 182 281 225Q256 255 251.50 263.50Q247 272 248 284Q250 301 267 324Q277 339 286.50 346.50Q296 354 315 364Q342 378 390.50 395.50Q439 413 465 418Q489 423 495 430Q499 435 512.50 474.50Q526 514 536.50 551.50Q547 589 544 589Q532 589 470 558Q433 540 405 535Q386 532 378 532.50Q370 533 357 538Q338 546 306 558Q274 570 264 579L253 588L262 601Q272 613 296.50 620.50Q321 628 366 642Q438 665 490 672M668 371Q640 381 607 369Q590 363 589 363Q588 363 543 235Q523 177 509 149Q497 124 499.50 121Q502 118 527 128Q561 141 594 173.50Q627 206 647 246Q659 270 670.50 304.50Q682 339 682 352Q682 361 679.50 364.50Q677 368 668 371M403 189Q420 220 438 262Q456 304 454.50 308Q453 312 439 303Q425 294 400 288Q362 280 339 263Q316 246 321 229Q323 219 338 201Q353 183 368 171L386 158L403 189Z"  horiz-adv-x="1000" vert-adv-y="1000"  />

      
      <glyph glyph-name="uni4EA5" unicode="&#x4EA5;" d="M658 641Q682 645 710 636Q738 627 755 609Q768 595 767 588Q766 581 750 569Q734 557 699 554Q664 551 656 548Q646 544 612 518Q578 492 556 472Q528 446 503 423Q478 400 480 398Q484 394 518.50 403Q553 412 567 422Q587 435 595 435Q603 435 610 440Q619 445 641.50 432Q664 419 672 404Q678 392 678 387.50Q678 383 673 370Q665 353 642.50 330.50Q620 308 620 306Q620 304 638 297Q667 286 688 264Q709 242 709 223Q709 205 661 155Q605 95 601 72Q599 61 601 58Q603 55 614 49Q636 39 695.50-2.50Q755-44 783-69Q807-90 807-103.50Q807-117 812-133.50Q817-150 810.50-154Q804-158 773-157L740-156L677-90Q613-25 597-12Q574 4 555-2Q536-8 494-45Q464-70 452.50-77Q441-84 420-89Q406-92 401.50-91Q397-90 389-80Q365-55 390-13Q404 10 434 28Q472 52 502 85.50Q532 119 603 217Q613 230 614 234.50Q615 239 611 247Q605 257 591 259Q577 261 564 252Q543 239 415 117Q374 78 357 67Q340 56 304.50 23.50Q269-9 262-9Q250-9 219 8Q207 14 206 55Q206 79 218.50 100Q231 121 264 151Q321 202 407 251Q485 296 478 306Q475 308 456 302.50Q437 297 419 288Q373 265 332 281L310 289L309 316Q308 343 315 361Q320 374 341.50 397.50Q363 421 387 438Q415 460 413 465Q410 465 392 456Q375 447 342 446.50Q309 446 280 454Q255 461 219 464Q188 466 175.50 473Q163 480 163 496Q163 505 165 506.50Q167 508 178 506Q193 503 234.50 516Q276 529 315 537Q387 552 434 574Q487 598 556 614Q609 627 628 633Q647 639 658 641M356 183Q379 205 374 204Q369 204 349 188Q329 172 329 168Q329 160 337 166Q342 170 356 183M455 789Q458 793 482 793Q497 793 506.50 790Q516 787 534 777Q598 738 598 710Q598 701 594.50 695.50Q591 690 576 679Q450 582 435 596Q430 601 436 607.50Q442 614 469 635Q534 685 534 699Q534 707 503 734Q449 779 455 789Z"  horiz-adv-x="1000" vert-adv-y="1000"  />

      
      <glyph glyph-name="uni4EB2" unicode="&#x4EB2;" d="M628 77Q641 82 674.50 74.50Q708 67 737 52Q763 39 776.50 26.50Q790 14 800-6Q812-29 812-42Q812-55 801-66Q793-74 788.50-74.50Q784-75 767-71Q748-66 737-59Q726-52 715-36Q704-22 662 26Q647 42 640 50.50Q633 59 628.50 65.50Q624 72 625 73.50Q626 75 628 77M442 797Q457 801 493 800Q561 797 587 763Q611 730 612 716.50Q613 703 592 692L574 683L586 679Q598 674 620.50 652.50Q643 631 641 625Q639 619 605 595.50Q571 572 568 567.50Q565 563 543 548.50Q521 534 504 518Q492 508 490.50 504.50Q489 501 494 496Q498 492 503 491.50Q508 491 523 495Q538 498 546 503.50Q554 509 568 523Q582 538 588.50 542Q595 546 608 546Q622 546 629.50 541Q637 536 662 510Q697 474 700 462Q703 452 698.50 432Q694 412 688 408Q683 405 666.50 402.50Q650 400 631 382Q604 358 618 358Q630 359 680 375Q722 389 735 391Q748 393 767 387Q785 382 798.50 368Q812 354 818 337Q823 319 815.50 313.50Q808 308 775 305Q744 302 711.50 291.50Q679 281 664 267Q649 255 643.50 250.50Q638 246 638 243.50Q638 241 670.50 215.50Q703 190 709 177Q713 169 713 165.50Q713 162 708 157Q701 149 693 149Q680 149 635 133Q590 117 584 110Q579 104 577 86Q575 68 573 0Q572-42 570.50-66.50Q569-91 567-112.50Q565-134 562.50-144Q560-154 555-161Q550-168 544-169.50Q538-171 529-171Q503-171 484-129Q478-115 456-82Q434-49 427-44Q419-37 411-43.50Q403-50 401-65Q395-98 361-91Q344-87 333.50-77Q323-67 311-44Q303-28 301-15.50Q299-3 298 32Q296 84 303 95Q318 117 369 127Q394 132 408.50 139Q423 146 450 165Q484 190 495 202Q506 214 506 227Q506 243 499 246Q491 249 459 239.50Q427 230 397 215Q359 197 331.50 189.50Q304 182 261 178Q148 168 122 210Q117 217 121.50 223.50Q126 230 136 230Q146 230 186 240Q226 250 284 262Q423 289 464 328Q477 340 479.50 341.50Q482 343 493 360Q504 377 528 405Q546 426 560 448Q574 470 574 477Q574 496 532 458Q528 454 523 450Q491 419 469.50 411Q448 403 413 370Q378 337 368.50 337Q359 337 341 358Q330 373 326.50 381.50Q323 390 321 408Q318 434 326.50 450.50Q335 467 367 500Q388 522 401 540Q414 558 411 561Q410 562 377 566Q324 574 328 585Q329 588 360.50 616Q392 644 418 652Q450 662 480.50 677Q511 692 517 701Q524 712 518 718.50Q512 725 485 735Q466 743 448 755.50Q430 768 424 778Q421 784 426 789.50Q431 795 442 797M512 18Q512 56 511 67.50Q510 79 506 79Q499 81 460 62Q435 49 427.50 44Q420 39 420 32Q420 18 448-14Q476-46 492-50Q505-53 508.50-42Q512-31 512 18Z"  horiz-adv-x="1000" vert-adv-y="1000"  />

      
      <glyph glyph-name="uni4EBA" unicode="&#x4EBA;" d="M381 191Q381 194 384 195Q387 196 399 195.50Q411 195 429 193.50Q447 192 482 188Q589 176 647.50 160Q706 144 796 102Q866 70 890 41Q898 32 898 5Q898-22 890.50-30Q883-38 873-37Q863-36 836-23Q805-8 800-8Q795-8 795-4.50Q795-1 767.50 11Q740 23 740 32Q740 42 699.50 62Q659 82 601 101Q542 120 497 135Q408 164 347 170Q320 173 320 177.50Q320 182 350.50 183Q381 184 381 191M524 758Q521 764 527 764Q532 763 547 755Q565 747 569 747Q574 747 587.50 734.50Q601 722 603 715Q608 704 602.50 682.50Q597 661 586 648Q573 631 548 579Q522 525 502 490.50Q482 456 414 345Q405 331 359 261.50Q313 192 313 184Q313 176 305 173.50Q297 171 283 148.50Q269 126 245 96Q221 66 214 53Q206 38 181.50 14.50Q157-9 141-17Q114-30 107-22Q100-14 100 30L100 75L143 121Q187 167 194 165Q204 163 218.50 174Q233 185 247 206Q287 270 342 346Q372 387 383 408.50Q394 430 404 442Q412 453 424.50 471.50Q437 490 437 493Q437 495 450 514Q466 537 513 640Q530 678 516 710Q509 728 509.50 739.50Q510 751 518 751Q526 751 524 758Z"  horiz-adv-x="1000" vert-adv-y="1000"  />

      
      <glyph glyph-name="uni4EC0" unicode="&#x4EC0;" d="M617 681Q634 698 668 668Q697 643 703 595Q706 575 704 545.50Q702 516 697 504Q695 498 697.50 488Q700 478 714 478Q728 478 741 482Q763 490 791.50 475.50Q820 461 838 433Q853 410 857.50 410Q862 410 861 398L859 386L810 387Q761 389 736 380L710 372L710 183Q710-6 711.50-76Q713-146 707-150Q700-154 679-153Q658-152 648-147Q636-141 631-123.50Q626-106 622-52Q617 4 622 10.50Q627 17 632 15Q634 14 635 22Q636 30 636.50 49.50Q637 69 637.50 100Q638 131 639 179L640 346L630 346Q622 346 587 333.50Q552 321 534 312Q518 304 477 288Q445 276 404 255.50Q363 235 348 225Q335 216 325 193Q318 177 316.50 164Q315 151 315 108Q316 45 317 36Q318-1 309-10Q305-15 299.50-13.50Q294-12 277-3Q252 10 248 21Q244 32 238 47Q224 87 236 129Q252 184 245 219L242 235L230 228Q218 222 207.50 225Q197 228 182 242Q153 267 153 314Q153 333 155 338.50Q157 344 168 352Q183 363 183 369Q183 375 213 428Q243 481 266 516Q285 546 300 581Q315 616 318 637Q321 661 326 666Q340 677 385 627Q404 606 412.50 591.50Q421 577 427 553L433 532L418 520Q337 455 287 357Q279 341 278.50 334Q278 327 281 305Q286 275 287 267Q288 257 292.50 257.50Q297 258 303 268Q323 304 408 339Q458 359 486 372Q514 385 552 397Q585 409 598.50 415.50Q612 422 626 434L641 446L645 510Q649 574 649 597Q649 624 639.50 639.50Q630 655 616 650Q611 648 610 656Q607 671 617 681M707 461Q705 467 700 469Q697 470 696 468.50Q695 467 696 465Q698 459 703 457Q706 457 707 458Q708 459 707 461Z"  horiz-adv-x="1000" vert-adv-y="1000"  />

      
      <glyph glyph-name="uni4ECB" unicode="&#x4ECB;" d="M459 739L471 739Q477 739 515 683L515 667Q515 634 443 539L443 535L463 531L483 531Q653 531 819 491L823 491L831 495Q915 454 915 407L915 387L907 375Q817 383 663 387Q627 387 627 363L587 215L587 191Q587 62 599-121Q593-153 567-153L555-153Q507-108 507-25L507-13Q523 89 523 131L523 219Q523 266 539 363Q535 363 535 367Q467 355 467 327Q379 74 379 43Q311 43 311 111Q306 111 303 135Q303 196 347 263Q351 270 351 283L351 287Q351 298 343 311Q343 344 371 367L391 367Q395 367 395 363Q499 388 499 423Q515 463 539 463Q560 463 619 427L727 443Q686 470 451 507L431 507Q410 507 335 419Q278 355 239 347Q239 332 175 283L167 283Q151 290 151 311L151 343Q151 431 339 531Q463 653 463 691Q451 725 451 735L459 739M247 447L247 443Q282 463 303 495L295 495Q285 495 247 447M403 319Q409 303 415 303Q427 303 435 339L435 343Q406 343 403 319Z"  horiz-adv-x="1000" vert-adv-y="1000"  />

      
      <glyph glyph-name="uni4ED6" unicode="&#x4ED6;" d="M615 592Q654 613 687 590Q705 578 709.50 562Q714 546 710 511Q705 471 707 467Q709 463 725 470Q770 490 813 495Q830 497 835.50 495.50Q841 494 849 485Q857 476 870.50 451Q884 426 884 419Q884 413 859 361Q834 309 823 293Q810 273 766 224Q720 171 694.50 152Q669 133 647 134.50Q625 136 591 159Q576 169 569.50 177Q563 185 555 202Q543 229 534 240Q526 251 526 255Q526 259 536 263Q547 267 547 273Q549 298 543 308Q543 309 538.50 305.50Q534 302 527.50 296Q521 290 514 282Q487 252 487 239Q487 220 529 129Q543 98 570 83Q597 68 656 57Q728 44 798 22Q868 0 904-22Q914-27 921-34.50Q928-42 929.50-48Q931-54 927-57Q920-61 855.50-50Q791-39 741-25Q704-15 626-2Q596 3 565 16Q533 29 513 52Q493 75 473 122Q444 190 428 190Q421 190 406 170Q393 152 379 148Q365 144 335 148Q331 148 325 149Q279 156 271 158Q263 160 262 167Q262 168 262 169Q260 182 272.50 194Q285 206 313 220Q361 244 370 256Q379 268 364 285Q352 299 350 306Q348 313 353 323Q357 331 369 339.50Q381 348 389 348Q393 348 421 329Q423 327 427 325Q444 313 452 314Q460 315 490 335Q496 339 500 342Q545 372 552.50 382.50Q560 393 560 425Q560 462 566.50 485Q573 508 582 544L592 580L615 592M604 430Q607 456 607 481Q607 506 602 506Q597 506 583.50 454Q570 402 574 393Q576 388 578.50 388.50Q581 389 589 395Q597 400 599.50 406.50Q602 413 604 430M804 444Q800 455 763.50 447.50Q727 440 711 424Q705 419 704 408.50Q703 398 703 360Q703 303 708 291L714 279L728 292Q742 306 774.50 360.50Q807 415 807 426Q807 437 804 444M604 339Q601 352 596 352Q591 352 577 339L563 326L565 294Q568 261 575 256Q583 250 592.50 250.50Q602 251 604 257Q606 263 606 294.50Q606 326 604 339M220 661Q238 675 281 655Q303 644 315.50 631.50Q328 619 340 593Q348 577 349.50 568Q351 559 350 536Q347 503 338.50 487.50Q330 472 310 463Q301 460 281 430Q261 400 241 360Q221 320 221 297Q221 279 227 260Q233 241 239 241Q243 241 252.50 249.50Q262 258 266 258Q268 256 268 243.50Q268 231 265.50 215Q263 199 260 195Q255 190 257.50 108Q260 26 269-2Q278-30 277.50-46Q277-62 267-77Q256-93 250.50-96.50Q245-100 232-100Q204-100 159-51Q138-27 133-6Q126 26 130 73.50Q134 121 146 154Q154 177 151.50 189.50Q149 202 136 200Q130 199 122.50 205Q115 211 97 231Q66 265 59 277Q52 289 52 307Q52 321 55.50 328.50Q59 336 76 354Q100 380 112.50 407.50Q125 435 146.50 479Q168 523 189.50 588Q211 653 220 661Z"  horiz-adv-x="1000" vert-adv-y="1000"  />

      
      <glyph glyph-name="uni4ED8" unicode="&#x4ED8;" d="M654 784Q658 790 662.50 791Q667 792 683 791Q700 790 706.50 786.50Q713 783 725 769Q744 748 748.50 726.50Q753 705 746 672Q741 648 739 586Q737 524 741 520Q744 518 764 528Q784 538 822 538L860 538L874 521Q899 493 885 493Q880 493 880 484.50Q880 476 875.50 476Q871 476 864 470Q857 464 829 455Q801 446 779 432Q755 418 750.50 401Q746 384 748 320Q753 169 746 50Q744 5 745-13Q746-31 752-60Q761-103 761-127Q761-143 759.50-147Q758-151 751-151Q742-151 731-157Q703-173 671-146Q650-129 625.50-112.50Q601-96 571-73.50Q541-51 496-25Q445 6 437.50 14.50Q430 23 430 55Q431 80 433.50 90Q436 100 449 124Q466 154 480.50 162Q495 170 542 174Q572 177 580.50 176.50Q589 176 595 171Q603 163 616 141Q629 119 629 112Q629 104 612.50 96Q596 88 571.50 83.50Q547 79 536.50 71Q526 63 516 41Q507 22 511.50 12Q516 2 536-5Q566-16 602.50-22Q639-28 657-25Q671-22 674.50-19Q678-16 680-6Q699 87 700 232.50Q701 378 683 382Q666 385 640 371.50Q614 358 565 320Q532 295 475 270Q452 259 441 253Q430 247 382 231Q307 207 294 182Q287 170 285 127Q283 84 278.50 73Q274 62 274 31Q274 0 272-20Q270-34 267.50-37Q265-40 256-40Q242-40 216-46Q197-50 191-49.50Q185-49 178-43Q168-35 161-21.50Q154-8 147 0Q142 6 140 17.50Q138 29 135 69Q132 128 105 155Q100 161 100 165.50Q100 170 89 182.50Q78 195 78 207.50Q78 220 73 230Q67 244 77 266Q87 288 109 307Q133 329 169 392Q226 492 260 599Q271 634 282 642.50Q293 651 295 651Q301 650 322 620.50Q343 591 358 562Q383 513 383 497.50Q383 482 357 438Q254 261 264 245Q266 242 268.50 242Q271 242 277.50 245.50Q284 249 293 256.50Q302 264 318 278Q362 314 383 325Q408 338 480 382Q511 401 590 441Q669 481 679 492L690 503L687 604Q685 686 680 715Q675 744 660 762Q650 774 654 784Z"  horiz-adv-x="1000" vert-adv-y="1000"  />

      
      <glyph glyph-name="uni4EE5" unicode="&#x4EE5;" d="M216 325Q235 343 238 343Q241 343 239.50 327Q238 311 237.50 306Q237 301 217 279Q196 256 192 245Q188 234 187 202Q186 168 179.50 133Q173 98 165 85Q155 69 144.50 66Q134 63 117 71Q99 80 90 84Q81 88 70.50 108Q60 128 60 166Q60 192 62.50 203.50Q65 215 75 236Q85 258 87 267Q89 276 87 301Q85 325 86 330Q87 335 93 335Q103 335 117 325.50Q131 316 141 303Q152 288 159 288Q175 288 216 325M606 576Q676 598 713 537Q731 508 734.50 491.50Q738 475 738 429Q737 347 714 291Q710 282 708 274.50Q706 267 707.50 262.50Q709 258 712 258Q718 258 736 266.50Q754 275 777 280Q792 283 799 282Q806 281 821 273Q841 263 863.50 240.50Q886 218 886 208Q886 195 862 151Q856 141 832 132Q779 113 779 104Q779 101 762.50 92Q746 83 739 83Q733 83 726 73Q721 64 692.50 43.50Q664 23 658 23Q643 23 659 46Q662 51 667 58Q688 85 701.50 109Q715 133 721.50 138.50Q728 144 728 158L728 173L698 157Q667 141 657.50 126Q648 111 641 105Q637 101 634.50 102Q632 103 629 110Q624 121 614.50 118.50Q605 116 597 119Q589 121 579.50 142Q570 163 566 185Q564 202 567.50 214Q571 226 598 286Q607 306 627 385Q647 464 649 486Q652 515 646.50 526Q641 537 625 539Q612 540 593.50 527Q575 514 538 477Q508 447 491 435.50Q474 424 461.50 407Q449 390 437 374.50Q425 359 420 342Q411 309 395 264Q385 239 384 194Q383 134 382 121Q381 108 375 102Q371 98 368.50 97.50Q366 97 362 102Q355 108 343 112.50Q331 117 319 136Q306 157 303.50 193.50Q301 230 310 259Q318 285 318.50 291.50Q319 298 335 281L352 263L364 277Q376 291 401 337Q420 373 438.50 398.50Q457 424 513 493Q549 537 567.50 553.50Q586 570 606 576Z"  horiz-adv-x="1000" vert-adv-y="1000"  />

      
      <glyph glyph-name="uni4EF7" unicode="&#x4EF7;" d="M381 751Q390 760 414 747Q429 738 434 725.50Q439 713 439 688Q439 668 435.50 660Q432 652 422 651Q413 650 404 638Q374 598 252 392L242 375L254 328Q265 281 263 251L260 220L289 278Q318 336 353 408.50Q388 481 408 511Q429 543 499.50 626Q570 709 590 727Q612 745 622 750.50Q632 756 647 756Q664 756 679 741Q689 730 691 723.50Q693 717 692 695Q692 665 684 647.50Q676 630 648 598Q617 562 587 521.50Q557 481 552 476Q545 470 530.50 448Q516 426 518 424Q520 422 553.50 429.50Q587 437 603.50 438.50Q620 440 623 442Q629 446 663 452Q697 458 724 460Q779 464 839.50 460Q900 456 931 446Q971 433 967 391Q965 371 957 364.50Q949 358 928 361Q836 372 813 363Q800 358 774 359Q744 359 739 352.50Q734 346 732 300Q728 246 726 51L723-143L711-161Q700-179 687-179Q671-179 656.50-157.50Q642-136 638-104Q635-90 636.50-85.50Q638-81 646-74.50Q654-68 656.50-60.50Q659-53 662-27Q669 56 672.50 186Q676 316 670 325Q664 334 627.50 323.50Q591 313 576 298Q567 288 565.50 248Q564 208 550.50 163Q537 118 529 69Q514-14 493-33Q483-43 476.50-40Q470-37 461-19Q445 13 459 65Q464 86 475 129Q486 169 488 197Q494 251 516 275Q525 285 564 309Q603 333 631 345Q661 359 661 368Q660 369 651.50 368.50Q643 368 629 364.50Q615 361 604 357Q585 351 532.50 342Q480 333 449 318Q427 307 421 305.50Q415 304 407 310Q396 317 388 331Q380 345 380 356Q380 369 375.50 369Q371 369 367 356Q362 340 350 314.50Q338 289 329 261Q302 183 275 122Q250 67 249 40Q248 13 235-6Q224-22 214.50-24.50Q205-27 193-17Q173-1 163 36Q153 73 162 97Q169 114 177 191Q178 203 183 231Q188 259 188 276L187 293L180 282Q173 272 147 236.50Q121 201 102.50 175.50Q84 150 79 150Q73 150 66 165Q59 180 57 198Q53 234 86 295Q101 322 104 323Q107 324 106 312Q106 310 105 307L103 287L126 317Q149 349 162.50 366.50Q176 384 173 392Q170 400 180 407Q190 413 217.50 453Q245 493 263 525Q280 557 293 578.50Q306 600 325 632Q344 664 359.50 689.50Q375 715 375 730.50Q375 746 381 751M555 608.50Q555 608.50 566.50 625.25Q578 642 601 675.50Q624 709 622 713Q622 714 619.50 713.50Q617 713 613 711Q609 709 604 705Q570 680 508.50 604Q447 528 423 482Q414 465 409.50 456Q405 447 403 441Q401 435 402 433.50Q403 432 406 432Q411 432 435 455.50Q459 479 468 493Q479 511 505.50 543Q532 575 555 608.50M702 376Q702 376 704 376Q706 376 712.50 380.50Q719 385 714.50 385Q710 385 704 380.50Q698 376 702 376Z"  horiz-adv-x="1000" vert-adv-y="1000"  />

      
      <glyph glyph-name="uni4F18" unicode="&#x4F18;" d="M686 457Q686 471 693 463Q698 458 701 447Q706 430 719.50 402Q733 374 746 342.50Q759 311 770 285Q806 200 807 191Q808 182 816 165Q831 131 860.50 90Q890 49 909 38Q921 30 921 22Q921 11 911.50-3Q902-17 889-25Q873-35 839.50-41Q806-47 780-44Q756-41 701-50Q626-63 584-59Q542-55 511-33Q491-18 484-3.50Q477 11 477 38Q477 63 485 122.50Q493 182 500 210Q518 283 505 314Q493 342 505 352Q512 357 514 351Q516 345 530 330Q550 307 552.50 287.50Q555 268 545 201Q537 144 532.50 93.50Q528 43 535 29Q541 17 548 13Q555 9 583 3Q611-2 645 1Q675 4 715.50 14Q756 24 760 28Q763 33 760.50 61Q758 89 752 112Q742 152 733 215Q728 247 722.50 272.50Q717 298 709.50 340.50Q702 383 694 415Q686 447 686 457M696 719Q703 730 713.50 730Q724 730 748 718Q771 707 793 683Q815 659 815 646Q815 635 799 621Q775 600 754 611Q733 622 709 668Q694 698 692 704.50Q690 711 696 719M504 723Q522 733 543.50 729Q565 725 578 708Q584 700 585 692.50Q586 685 585 663Q583 631 578.50 606Q574 581 579 575Q586 567 644 556Q668 551 688 538L708 526L700 516Q691 507 684 494Q680 485 675 482Q670 479 656 477Q611 471 561 451Q541 444 535 438.50Q529 433 522 420Q512 400 505.50 378.50Q499 357 487.50 331.50Q476 306 455 250Q431 183 397 127Q358 63 332 11Q323-8 316-2Q315-1 314 1Q313 6 301.50 1.50Q290-3 279 6Q271 11 269.50 17Q268 23 268 41Q268 59 271 68Q274 77 287 98Q313 138 357 241Q362 253 365.50 257Q369 261 372.50 260Q376 259 380 263Q384 267 390 278Q401 298 408 308Q413 316 428 348Q443 380 443 383Q443 391 419 371Q406 359 377.50 351Q349 343 324 343Q300 343 281 321.50Q262 300 243 253Q232 225 229 221Q218 206 185 109Q152 12 144-27Q138-61 118-72Q108-77 92-71Q76-65 66-53Q60-44 58.50-35Q57-26 57 1Q57 32 59.50 42.50Q62 53 79 87Q88 105 97 130Q106 155 113 179.50Q120 204 125 226.50Q130 249 130.50 261Q131 273 127 274Q123 274 120.50 270Q118 266 106 259Q77 244 47 290Q36 307 33.50 315.50Q31 324 32 346Q32 369 34.50 375.50Q37 382 51 397Q69 416 80.50 426.50Q92 437 97.50 450.50Q103 464 113 475Q122 486 140 526.50Q158 567 162 589Q167 610 162 636Q158 660 162 665.50Q166 671 183 665Q205 657 239 634.50Q273 612 285 598Q303 577 306.50 567.50Q310 558 306 544Q304 534 299 529Q294 524 282 517Q268 510 261.50 502Q255 494 242 471Q223 434 213.50 419Q204 404 201 393.50Q198 383 192.50 376.50Q187 370 191 334Q197 289 203 289Q204 289 207 292Q211 298 233 339.50Q255 381 264 394Q280 417 358 447Q391 459 440 483Q489 507 497 514Q506 523 511 545Q515 560 514.50 568Q514 576 508 593Q499 618 500.50 619.50Q502 621 513.50 613.50Q525 606 527 608.50Q529 611 531 639Q533 665 528.50 673Q524 681 506 678Q490 675 484 678Q477 681 477 688.50Q477 696 484.50 705.50Q492 715 504 723Z"  horiz-adv-x="1000" vert-adv-y="1000"  />

      
      <glyph glyph-name="uni4F1A" unicode="&#x4F1A;" d="M477 492Q488 496 513 496Q538 496 559 490Q575 487 584 481Q593 475 610 459Q632 437 637.50 425Q643 413 641 392Q638 373 630 365Q622 357 602 354Q570 350 525 309Q504 290 484 275.50Q464 261 464 260Q464 256 486 262.50Q508 269 532.50 279.50Q557 290 565 296Q584 311 610.50 299Q637 287 686 242Q698 232 696 224Q691 206 636 186Q608 176 592.50 164.50Q577 153 552 123Q523 89 510 82Q492 71 499 65Q502 62 510 64Q537 69 561 82.50Q585 96 589 107Q592 114 585 124Q572 144 593 146Q607 147 628 137Q675 115 712 64Q751 11 760-22Q766-45 771-53.50Q776-62 764.50-81.50Q753-101 750-101Q739-104 714.50-103.50Q690-103 690-100Q690-97 681-88Q672-79 653-50.50Q634-22 625-17Q616-12 608-14.50Q600-17 600-25Q600-34 562.50-50.50Q525-67 485-75Q440-85 429-91Q415-98 394.50-97Q374-96 361-87Q345-76 337.50-63Q330-50 327-28Q325-10 326.50 0Q328 10 336 31Q347 60 354.50 71.50Q362 83 370.50 83Q379 83 394.50 89.50Q410 96 413 101Q418 108 415 110Q412 112 397 112Q368 112 337 134Q306 156 306 177Q306 232 341 232Q354 232 382 248Q410 264 437 287Q461 308 479.50 330.50Q498 353 498 362Q498 368 484 373.50Q470 379 433 404Q407 422 401.50 428Q396 434 394 449Q391 469 399.50 475.50Q408 482 437.50 485Q467 488 477 492M519 779Q533 790 539 790Q545 790 555 779Q587 746 541 717Q526 706 511 691Q500 679 499 676Q498 673 504 670Q547 644 645 548Q715 479 757.50 445.50Q800 412 852 385Q902 359 912 345.50Q922 332 936 320Q945 313 947.50 307.50Q950 302 950 291Q950 258 929 258Q912 258 864.50 269.50Q817 281 804 289Q786 300 735 317Q664 341 664 356Q664 359 668 359.50Q672 360 676.50 359Q681 358 684 356Q688 352 725.50 344.50Q763 337 765 340Q768 343 746 367Q724 391 698 414Q663 443 635 477Q607 511 585 537Q540 590 498 611Q476 623 466.50 624Q457 625 450 617Q434 599 346 424.50Q258 250 240 200Q215 130 197 108Q185 94 142.50 62.50Q100 31 93 31Q86 31 68 49Q55 61 52.50 67Q50 73 50 89Q50 111 52 114Q56 118 60.50 113.50Q65 109 64 103Q63 93 67 87Q69 83 72 83Q75 83 82 87Q94 93 119.50 126Q145 159 159 187Q175 217 178 223Q182 230 277 422Q372 614 384 634Q396 654 393.50 660.50Q391 667 371 665Q358 663 353 664Q348 665 343 671Q337 677 337.50 680Q338 683 348 692Q372 717 408 706Q422 701 429 704.50Q436 708 472 740Q504 768 519 779Z"  horiz-adv-x="1000" vert-adv-y="1000"  />

      
      <glyph glyph-name="uni4F20" unicode="&#x4F20;" d="M719 701L732 701Q770 701 789 626Q844 617 851 599Q869 597 869 586L869 577Q781 501 781 489L776 463Q776 443 860 440Q904 417 909 405Q906 379 816 334Q750 294 750 259Q737 236 736 211L736 206Q807 211 820 211Q926 186 926 127L926 100Q915-16 829-112Q794-142 772-142L728-142L569-103L569-94L577-81L577-72Q577-62 573-54Q580-19 626-19Q663-19 679-72L719-76Q765-76 816 61Q820 66 820 92Q817 122 807 122Q748 122 679 30L675 30L657 34Q648 30 644 30Q607 30 599 122Q599 130 635 202L626 206Q524 136 507 136L502 136Q472 136 445 215Q440 215 440 220L440 228Q518 271 529 281Q529 288 648 436Q657 450 657 458Q401 400 401 357Q312 306 312 105Q317 28 317 8Q312-55 312-98L277-129Q215-115 215-23Q251 110 251 162L251 193Q251 253 224 330L228 330Q265 330 290 228Q296 228 317 299Q407 450 622 542Q666 570 666 595L666 635Q666 639 670 639L666 648L666 670Q687 701 719 701M348 683Q392 645 392 591Q315 457 109 220Q58 175 47 175L43 184Q334 606 334 666Q337 683 348 683M564 286L569 286Q688 334 688 414L688 418L683 418Q564 302 564 286Z"  horiz-adv-x="1000" vert-adv-y="1000"  />

      
      <glyph glyph-name="uni4F24" unicode="&#x4F24;" d="M326 659Q330 683 334 683Q339 679 357.50 642.50Q376 606 376 598Q376 587 363 545.50Q350 504 344 497Q339 491 334.50 477Q330 463 310.50 433.50Q291 404 273 383Q259 366 243 337Q227 308 227 299Q227 292 239.50 279.50Q252 267 258 267Q271 267 286 303Q295 324 347.50 430.50Q400 537 427.50 594Q455 651 456 648Q458 643 443.50 600.50Q429 558 414 523Q397 482 382 445.50Q367 409 361 397Q349 370 328 296Q313 247 310 240Q306 229 303 130Q300 31 304 20Q308 11 298.50 8Q289 5 270-11Q252-25 244-28Q236-31 230-27Q220-18 206.50 2.50Q193 23 193 30Q193 41 184 57Q169 88 164 117Q159 146 169 150Q174 152 180 172.50Q186 193 183 201Q177 217 154 174Q154 172 153 171Q138 141 123 125Q114 114 110.50 112.50Q107 111 103 115Q97 122 85.50 128Q74 134 67 157Q62 174 62 180Q62 186 69 201Q78 222 90.50 237.50Q103 253 103 258Q103 265 114 282.50Q125 300 139 317Q159 340 159 348Q159 356 164 359Q169 362 176.50 377.50Q184 393 184 400Q184 406 197 418Q210 430 216 449.50Q222 469 235 490.50Q248 512 265 546.50Q282 581 301.50 607Q321 633 326 659M545 807Q565 826 598.50 811Q632 796 632 768Q632 755 611 691Q590 627 575.50 597Q561 567 554 552Q547 536 540.50 511.50Q534 487 536 485Q538 483 570 492.50Q602 502 623 512Q645 523 649.50 523Q654 523 676 536Q695 548 722.50 554Q750 560 769 558Q782 556 794.50 545Q807 534 807 525Q807 510 795 488Q783 466 770 458Q741 438 735.50 429.50Q730 421 728 394L726 360L744 360Q764 360 790.50 350.50Q817 341 831 329Q845 317 849.50 296Q854 275 857 208Q859 146 853 133Q846 119 835.50 88.50Q825 58 822 46Q820 33 807.50 13Q795-7 795-10Q795-15 778.50-32.50Q762-50 755-54Q745-59 711-72Q663-89 655-90.50Q647-92 635-86Q620-79 609-81Q602-83 597-80.50Q592-78 583-67Q567-49 548-40Q529-31 527-23Q523-10 506-25Q498-32 481-49Q455-76 444-82.50Q433-89 411-87L393-85L407-68Q422-51 446 0L471 51L475 115Q479 179 480.50 184Q482 189 476.50 200Q471 211 466 231Q463 246 464.50 250.50Q466 255 477 264Q492 277 523 309Q595 384 612 393Q620 397 630.50 409Q641 421 641 427Q641 436 587 411Q586 410 584 409Q554 395 549.50 395Q545 395 523.50 380Q502 365 494.50 365Q487 365 469 379L451 392L450 425Q449 449 451.50 459.50Q454 470 468 500Q487 542 487 546.50Q487 551 501 583Q551 704 551 732Q551 752 547.50 754.50Q544 757 524 742Q504 727 504 731Q504 735 508.50 738Q513 741 523.50 762.50Q534 784 534 790Q534 796 545 807M646 374Q650 383 648 384Q645 385 635 380Q609 366 593 343Q577 319 582.50 314.50Q588 310 612 326Q632 339 637 353Q642 367 646 374M772 258Q749 272 735 262Q728 258 717 258Q706 258 690 246Q673 234 652.50 215.50Q632 197 632 194Q632 190 620 171.50Q608 153 578 95Q566 73 561 62.50Q556 52 552.50 42.50Q549 33 552.50 28.50Q556 24 561 21Q566 18 578 14Q611 2 663.50 18.50Q716 35 741 64Q795 128 792 208Q791 232 787.50 241Q784 250 772 258M551 176Q551 186 527 177Q509 169 508 161Q507 153 506 143Q505 134 507 125.50Q509 117 512 117Q515 117 533 144.50Q551 172 551 176Z"  horiz-adv-x="1000" vert-adv-y="1000"  />

      
      <glyph glyph-name="uni4F5C" unicode="&#x4F5C;" d="M255 319Q260 332 270.50 350Q281 368 283 368Q283 368 282 363Q281 358 278 349.50Q275 341 272 330L259 293L264 201Q268 110 271 102Q275 90 254-31Q248-61 240.50-62.50Q233-64 231-55Q229-46 217-43.50Q205-41 192-26.50Q179-12 174 3Q169 24 172 51Q175 78 191 165Q213 276 218 314Q222 350 229 350Q235 350 243 327L250 306L255 319M322 618Q328 634 332 629Q343 619 344.50 577.50Q346 536 337 510Q323 468 278.50 413.50Q234 359 184 322Q154 300 146.50 292.50Q139 285 111 282Q90 279 85 280Q80 281 73 289Q63 300 63.50 312.50Q64 325 73 335Q82 346 121 380Q185 438 245.50 510Q306 582 322 618M511.50 768Q511.50 768 511.25 769.50Q511 771 514.50 774.50Q518 778 536 777Q554 776 562 772Q590 758 590 701Q589 666 580 621.50Q571 577 558 551Q546 524 547 523Q549 520 563.50 527Q578 534 594 546Q625 569 665 586.50Q705 604 719 601Q727 599 745 583.50Q763 568 763 564Q763 560 734 547Q692 527 679.50 520Q667 513 663 507Q657 498 654 426L651 354L663 356Q675 359 684 362Q689 364 690 362.50Q691 361 689 353Q688 345 689.50 343.50Q691 342 700 344Q756 353 765 353.50Q774 354 794 345Q821 333 831.50 313.50Q842 294 827 280Q822 275 813.50 274.50Q805 274 777 275Q748 277 738 276Q728 275 712 267Q676 250 659.50 230Q643 210 643 182Q643 137 669 132Q707 124 749 133Q770 138 797 129Q819 121 835.50 106.50Q852 92 852.50 79.50Q853 67 832 62.50Q811 58 748 58Q697 58 682 59.50Q667 61 659 67Q647 75 644.50 72Q642 69 641-32Q640-174 631-174Q627-174 622-168Q617-162 603.50-164Q590-166 584-160Q577-151 571-114.50Q565-78 567-58Q579 30 593 245.50Q607 461 601 467Q599 469 555 442.50Q511 416 500 406Q491 397 488.50 385.50Q486 374 477.50 363.50Q469 353 463.50 358.50Q458 364 451 364Q427 364 415 410L408 440L423 465Q446 503 481.50 577.50Q517 652 529 684Q547 737 531 756Q523 765 517 765Q512 765 511.50 768M656 279Q656 291 650 291Q644 291 643 263Q642 256 642 249.50Q642 243 642 239.50Q642 236 642 236Q645 236 650.50 253.50Q656 271 656 279Z"  horiz-adv-x="1000" vert-adv-y="1000"  />

      
      <glyph glyph-name="uni4F8B" unicode="&#x4F8B;" d="M231 635Q244 652 299 613Q319 598 324 583Q328 570 325.50 539.50Q323 509 317 509Q308 509 288 486.50Q268 464 268 454Q268 450 251 421.50Q234 393 221 375Q210 360 210.50 349.50Q211 339 224 323Q234 309 237 297Q240 285 242 281Q244 277 255 295Q276 328 300 384Q337 473 360 491Q367 498 373 509Q379 520 397.50 529Q416 538 432.50 551Q449 564 456.50 564Q464 564 482 582Q506 605 518.50 608Q531 611 589 607Q596 607 611 595Q626 583 635 577Q653 565 623 532Q609 517 596.50 499Q584 481 584 476Q584 472 571 456Q558 440 560.50 436Q563 432 580 432Q617 432 640 397Q657 374 657 355Q657 341 658 340Q659 339 665 344Q672 351 692.50 351Q713 351 723.50 358Q734 365 735 363Q739 356 752 328Q765 300 766 297Q767 292 778 267.50Q789 243 789 236Q789 229 781.50 221.50Q774 214 767 214Q755 214 745.50 224Q736 234 714 268Q685 312 676 315Q667 318 662 325Q658 331 657 321Q657 317 657 310Q657 288 654 275Q652 267 653 264.50Q654 262 659 263Q666 264 674 274.50Q682 285 682 280Q682 275 668.50 234Q655 193 650 184Q638 161 648 125Q651 114 649.50 110Q648 106 638 98Q625 87 611.50 86.50Q598 86 594 81Q590 76 571.50 21.50Q553-33 543-45Q536-52 530.50-53.50Q525-55 508-53Q484-50 477-42.50Q470-35 459 0.50Q448 36 448 52Q448 65 437.50 91Q427 117 421 121Q416 125 400 125Q374 125 364 156Q361 165 354.50 173Q348 181 346 217L344 253L364 273Q393 300 405 338Q410 353 431 395.50Q452 438 457 454Q462 470 456 474.50Q450 479 425 479Q409 479 402.50 476.50Q396 474 386 466Q371 453 361 435.50Q351 418 328 367Q303 309 278 269L253 230L254 178Q255 127 258 83Q260 47 256.50 17.50Q253-12 244-22Q238-28 222-29Q206-30 194-24Q183-19 176-4Q168 12 167 46Q166 80 172 106Q178 135 180 163Q182 186 179 239Q176 292 172 301Q169 310 164 299Q160 290 140 267Q120 244 116 244Q113 244 99 253Q89 258 87 263Q85 268 85 282Q85 305 91.50 320Q98 335 115 353Q133 372 163 429Q193 486 213 539Q231 588 228.50 609Q226 630 231 635M548 301Q549 316 548 320.50Q547 325 543 325Q535 325 519 306.50Q503 288 492 266Q480 243 483.50 237Q487 231 513 228L536 226L541 251Q545 276 548 301M838 693Q827 714 829 720Q831 726 856 726L881 726L906 700Q924 682 927 676Q930 670 928 657Q926 639 921.50 622Q917 605 919.50 519.50Q922 434 915.50 408Q909 382 909 337.50Q909 293 907 171.50Q905 50 909 1Q913-48 915-113Q917-170 912.50-181Q908-192 883-190Q861-189 856.50-172.50Q852-156 851-77Q849 14 847 148Q843 402 847 406Q849 410 844 469Q840 523 840 540.50Q840 558 847 636Q849 660 847.50 668.50Q846 677 838 693Z"  horiz-adv-x="1000" vert-adv-y="1000"  />

      
      </font>
</defs>
</svg>
